<svg id="Layer_2" data-name="Layer 2" xmlns="http://www.w3.org/2000/svg" viewBox="0 0 1920 1080"><defs><style>.cls-1{fill:#1e5782;}.cls-2{fill:#ef4444;}</style></defs><path class="cls-1" d="M307.07,538.94l-72.68-6V367l-24.56-2.52,9.82-50.39,150.94,3.78,43.87,28.66-3.93,79.67-22.92,25.51-80.54,15.12Zm0-116.83,35.69-6.3-3.28-39.05-32.41-3.15Z"/><path class="cls-2" d="M453.74,320.07H577.83l43.87,28.66V503.67l-26.52,29.61-126.7,9.44-41.26-29V341.8Zm47.8,50.39h-1.63V482.57l47.47,2.84H549V400.69l.32.32V377.7Z"/><path class="cls-1" d="M850.55,519.42,781.8,548.71l-45.51-83.14-6.55,1.26v72.11l-72.68-6V367l-24.56-2.52,9.83-50.39,150.93,3.78,43.87,28.66L833.2,426.2l-22.92,25.51-15.06,2.83ZM729.74,373.61v48.5l35.69-6.3-3.27-39.05Z"/><path class="cls-1" d="M1027.68,314.09l2.62,61.72-59.92-.63L975,509.34l-27.18,27.4-44.85-4.41V374.55l-45.18-.31-9.83-50.7Z"/><path class="cls-1" d="M1066.31,320.07h124.08l43.88,28.66V503.67l-26.52,29.61L1081,542.72l-41.25-29V341.8Zm47.8,50.39h-1.64V482.57l47.48,2.84h1.63V400.69l.33.32V377.7Z"/><path class="cls-1" d="M348.7,625.41,321.53,622l14.07-53.22,158.79,7.87v68l-72.68-9.44v50.07l62.53-9.45v45l-62.53,9.44v63.3l-73-6Z"/><path class="cls-1" d="M535.65,573.45H659.73l43.87,28.66V757.05l-26.52,29.6-126.7,9.45-41.25-29v-172Zm47.8,50.39h-1.64V736l47.47,2.84h1.64V654.07l.33.32V631.08Z"/><path class="cls-1" d="M717,739.42l19.31-1.26-9.16-165.34,72.68-5.35-.33,166.59,93-6,2.62,61.41-168.28.63Z"/><path class="cls-1" d="M978.94,794.21l-72.68-6V578.18l72.68-5.36Z"/><path class="cls-2" d="M1027.4,573.45h124.09l43.87,28.66V757.05l-26.52,29.6-126.71,9.45-41.25-29v-172Zm47.8,50.39h-1.64V736l47.48,2.84h1.63V654.07l.33.32V631.08Z"/><path d="M635.1,865.87c0-.13.08-.26.12-.38.43-1.58,1.09-4.1,1.47-5.78.08-.35.12-.37.81-.43a2.62,2.62,0,0,1,.43,0,.12.12,0,0,1,.11.09c.39,1.47,1.1,4.61,1.47,6.23a3.38,3.38,0,0,0,.11.34h.06c0-.1.07-.25.1-.35.34-1.5.86-4.14,1.12-6,0-.13,0-.2-.11-.21l-.56-.09c-.05,0-.07-.11-.07-.17s0,0,0,0h2.31a0,0,0,0,1,0,0c0,.06,0,.15-.06.16l-.26.08a.29.29,0,0,0-.22.22c-.33,1.18-1.65,5.47-2.1,6.6-.08.26-.15.28-1,.31h-.48a.13.13,0,0,1-.11-.09c-.37-1.18-.91-2.8-1.19-3.88,0-.16-.1-.43-.18-.69h-.07c-.07.27-.17.58-.24.81-.26.78-.9,2.67-1.27,3.55-.11.25-.17.27-1.21.3h-.37c-.06,0-.09,0-.11-.1-.35-1.17-1.19-4.8-1.66-6.88,0-.09-.06-.15-.14-.16l-.31-.06s-.07-.11-.07-.17a0,0,0,0,1,0,0h3.28s0,0,0,.05,0,.14-.08.15l-.6.09a.15.15,0,0,0-.12.18c.19,1.29.69,4.35,1,6,0,.09.06.26.09.4Z"/><path d="M645.26,858.28c.07,0,.1,0,.1.11s-.13,4-.17,5c0,.11,0,.25,0,.39h.06a2.14,2.14,0,0,1,.12-.36c.33-.93,1.24-2.53,2.48-2.53,1,0,1.44,1,1.44,2.53,0,1.06-.1,2.09-.13,2.5,0,.19,0,.24.09.26l.58.12s.06.07.06.15,0,0,0,0l-1.43,0-1.51,0s0,0,0,0,0-.15,0-.15l.6-.11c.09,0,.11-.06.13-.16,0-.32.06-1,.06-1.76,0-1.13-.16-2.26-.79-2.26s-1.36,1.19-1.65,2.63a10.32,10.32,0,0,0-.11,1.4c0,.11.05.13.14.14l.58.12s.06.07.06.13,0,0,0,0l-1.54,0-1.39,0s0,0,0,0,0-.13.06-.13l.57-.13c.07,0,.09,0,.1-.14,0-.33,0-2.83,0-3.52,0-.53,0-3.15,0-3.6,0-.1,0-.15-.13-.16l-.74,0s-.07-.07-.07-.14,0,0,0,0Z"/><path d="M654,863.21a5,5,0,0,0-.1-.73c-.15-.55-.48-1-1.06-1a2.63,2.63,0,0,0-1.74.79l0,0s-.14-.15-.08-.21a3.73,3.73,0,0,1,2.81-1.21c1.61,0,1.86,1.36,1.86,2.57,0,.23,0,.91,0,1.32s-.05,1.07-.05,1.26,0,.12.12.14l.51.12a.15.15,0,0,1,.07.12s0,0-.05,0h-2a.05.05,0,0,1-.06-.06c0-.1,0-.53,0-.79,0-.06,0-.24,0-.34l0,0-.17.3a2.22,2.22,0,0,1-1.91,1,1.53,1.53,0,0,1-1.59-1.6,2.11,2.11,0,0,1,2.24-2.2,1.81,1.81,0,0,1,1.05.31l.24.19Zm-1.08,2.7c.47,0,.9-.46,1.13-1.12a1,1,0,0,0,0-.88,1.26,1.26,0,0,0-1-.89c-.61,0-.88.78-.88,1.6s.33,1.29.81,1.29Z"/><path d="M659.17,861.48c-.06.77-.07,1.73-.07,2.51,0,1.52.36,2.06,1.2,2.06l.39,0a2.66,2.66,0,0,0,.64-.17s0,0,0,.13a.1.1,0,0,1,0,.09,5.5,5.5,0,0,1-1.22.42l-.58,0c-1.32,0-2.13-.48-2.15-2.22a24.82,24.82,0,0,1,.21-2.82l-1,0s0,0,0,0a1,1,0,0,1,0-.2.24.24,0,0,1,.24-.21h.85c0-.2.1-.68.17-1s.18-.38.57-.55a8.6,8.6,0,0,1,.93-.36c.05,0,.07,0,.06.11-.05.4-.14,1.35-.17,1.8h2.1s0,0,0,0-.05.19-.09.19Z"/><path d="M665.94,860.87a.09.09,0,0,1,.11.1c0,.48-.09,2.13-.1,2.72s0,1.87,0,2.33c0,.11,0,.13.11.15l.6.12s.06.09.06.12,0,0,0,0l-1.5,0-1.46,0s0,0,0,0a.17.17,0,0,1,.06-.14l.56-.13c.09,0,.14,0,.14-.15,0-.27,0-1.71,0-2.3s0-1.76-.06-2.06c0-.09,0-.18-.13-.18l-.54,0s-.09-.09-.09-.16,0,0,0,0Zm-.88-2.18a.78.78,0,0,1,.82.78.82.82,0,0,1-.83.83.81.81,0,1,1,0-1.61Z"/><path d="M667.36,862.74c0-.92,1.22-1.87,3-1.87a2.82,2.82,0,0,1,1.09.15.12.12,0,0,1,.06.1l.11,1.23s-.11.12-.16.12,0,0,0,0c-.18-.3-.34-.6-.52-.91a.8.8,0,0,0-.21-.2,1.49,1.49,0,0,0-.77-.17,1,1,0,0,0-1,.85c0,.48.32.73,1.21,1.06,1.13.38,1.72.77,1.72,1.54,0,1.14-1.25,1.92-3.19,1.92a4.32,4.32,0,0,1-1.08-.14.16.16,0,0,1-.09-.12l-.09-1.25c0-.06.12-.11.15-.11s0,0,0,0c.17.3.35.64.54.94a.63.63,0,0,0,.22.21,1.68,1.68,0,0,0,.75.18c.72,0,1.3-.31,1.3-.88s-.35-.76-1.32-1.09c-1.19-.37-1.64-.81-1.64-1.53Z"/><path d="M678.29,859s0,0,0,0,0,.17-.06.17l-.65.1c-.09,0-.13.06-.14.19-.05.63-.11,2.67-.13,3.2s-.08,3-.08,3.35c0,.1.08.13.16.13a13.39,13.39,0,0,0,2.19-.23.71.71,0,0,0,.35-.25l.67-1.07s0,0,0,0,.13.09.13.13l-.32,1.62c0,.07,0,.11-.14.11l-1.14,0-2.81,0-1.46,0s0,0,0,0,0-.14.06-.14l.54-.11c.09,0,.13,0,.13-.18,0-.39,0-2.6,0-3.09s0-3-.05-3.37c0-.13,0-.17-.13-.19l-.47-.11s-.06-.07-.06-.15,0,0,0,0Z"/><path d="M684,866.52a2.39,2.39,0,0,1-2.62-2.56,3,3,0,0,1,3.22-3.09,2.44,2.44,0,0,1,2.68,2.63,3,3,0,0,1-3.26,3Zm.38-.23c.85,0,1.1-1.1,1.1-2.62s-.34-2.57-1.15-2.57-1.17,1.06-1.17,2.65c0,1.38.44,2.54,1.2,2.54Z"/><path d="M690.29,863.74a2.86,2.86,0,0,1,.06-.31c.27-1.14.9-2.56,2-2.56a.66.66,0,0,1,.38.1.12.12,0,0,1,0,.08l.08,1.67s-.11.11-.13.11a0,0,0,0,1,0,0,8.88,8.88,0,0,0-.48-.82.42.42,0,0,0-.33-.21c-.66,0-1.23,1.2-1.55,2.83a12.18,12.18,0,0,0-.12,1.42c0,.11,0,.13.13.14l.94.13s.06.09.06.12,0,0,0,0l-1.84,0-1.48,0s0,0,0,0,0-.14.06-.14l.6-.12c.07,0,.1-.06.1-.15,0-.31,0-1.8,0-2.28s0-1.75,0-2.09c0-.11,0-.18-.13-.19l-.54,0c-.05,0-.07-.09-.07-.14s0,0,0,0l2.33-.35c.1,0,.12,0,.12.11s-.07,1.74-.12,2.4c0,.11,0,.25,0,.35Z"/><path d="M698.46,863.27a.37.37,0,0,1-.24.34,17.5,17.5,0,0,1-3.18.09,3.87,3.87,0,0,0,.06.82,1.71,1.71,0,0,0,1.57,1.46,3.66,3.66,0,0,0,.8-.08,4.64,4.64,0,0,0,.88-.31s.06.06.06.14,0,0,0,.07a6.08,6.08,0,0,1-1.38.6,3.06,3.06,0,0,1-1.05.12c-1.52,0-2.63-.71-2.63-2.47a3,3,0,0,1,2.88-3.18,2.3,2.3,0,0,1,2.28,2.39Zm-2.5-2.16c-.47,0-1,.71-.92,2.38a5.84,5.84,0,0,0,1.55-.07c.09,0,.16-.14.16-.39,0-.65-.14-1.93-.78-1.93Z"/><path d="M709.7,866.28s.06.09.06.13,0,0,0,0l-1.44,0-1.47,0s0,0,0,0,0-.14.06-.15l.54-.13a.14.14,0,0,0,.12-.14c0-.32,0-1.37,0-1.71,0-1.17-.2-2.31-.84-2.31s-1.25,1.38-1.42,2.49c-.08.59-.11,1.35-.11,1.5s0,.13.14.16l.64.14s.06.09.06.13,0,0,0,0l-1.52,0-1.47,0s0,0,0,0,0-.12.06-.13l.51-.13c.1,0,.12-.06.14-.16,0-.27,0-1.2,0-1.63,0-1.22-.15-2.37-.83-2.37s-1.22,1.25-1.44,2.42a15.88,15.88,0,0,0-.11,1.6.12.12,0,0,0,.11.14l.55.13s.08.09.08.13,0,0,0,0l-1.49,0-1.36,0s0,0,0,0,0-.14.06-.15l.54-.12a.14.14,0,0,0,.12-.15c0-.53,0-1.83,0-2.37s0-1.7-.07-2c0-.11,0-.18-.13-.2l-.51,0s-.08-.07-.08-.14,0,0,.05,0l2.32-.33c.07,0,.08,0,.08.09s-.06,1.52-.11,2.16c0,.09,0,.26,0,.38l.07,0c0-.15.08-.3.11-.38.32-.9,1-2.29,2.34-2.29.87,0,1.35.83,1.39,2.13v.34l0,0c0-.09.07-.26.1-.36.28-.81,1-2.13,2.29-2.13.88,0,1.42.84,1.42,2.53,0,.91-.11,2.22-.13,2.55,0,.13,0,.16.12.19Z"/><path d="M715.69,859s0,0,0,.05,0,.15-.06.16l-.46.09c-.09,0-.12.07-.12.17-.06.76-.1,2.74-.11,3.29s-.05,3.06-.05,3.22.05.12.13.14l.49.11c.05,0,.08.1.08.14a0,0,0,0,1,0,0l-1.52,0-1.44,0s0,0,0,0,0-.14.06-.15l.55-.11c.09,0,.11,0,.11-.16,0-.48,0-2.5,0-3.32s0-2.74-.06-3.09c0-.13,0-.22-.14-.24l-.45-.09s-.06-.08-.06-.18,0,0,0,0Z"/><path d="M718.49,866c0,.26,0,.54,0,.72,0,.61,0,1.34,0,1.46s0,.13.11.15l.81.13s.06.08.06.13,0,0,0,0c-.53,0-1,0-1.68,0s-1,0-1.4,0c0,0,0,0,0,0s0-.14.06-.14l.5-.11c.08,0,.12,0,.12-.16,0-.38,0-2.27,0-3s0-3.21-.06-3.57c0-.12,0-.17-.11-.18h-.62c-.06,0-.1-.1-.1-.16s0,0,0,0l2.43-.37c.06,0,.09,0,.09.09,0,.24,0,1.36-.06,1.84,0,.12,0,.23,0,.33h.08a1.81,1.81,0,0,1,.13-.35,2.79,2.79,0,0,1,2.32-1.92c1.07,0,1.59,1.06,1.59,2.29,0,1.74-.87,3.36-2.76,3.36a1.94,1.94,0,0,1-1.14-.32l-.23-.18Zm1.31.26c.76,0,1.14-1,1.14-2.55,0-1-.26-2-.87-2s-1.32,1.31-1.57,2.55c0,.09,0,.22,0,.3a2,2,0,0,0,0,.27c.19,1,.78,1.39,1.29,1.39Z"/><path d="M723.57,862.74c0-.92,1.23-1.87,3-1.87a2.86,2.86,0,0,1,1.09.15.15.15,0,0,1,.06.1l.11,1.23s-.11.12-.16.12,0,0,0,0l-.53-.91a1,1,0,0,0-.2-.2,1.49,1.49,0,0,0-.77-.17,1,1,0,0,0-1,.85c0,.48.32.73,1.21,1.06,1.13.38,1.72.77,1.72,1.54,0,1.14-1.25,1.92-3.19,1.92a4.32,4.32,0,0,1-1.08-.14.14.14,0,0,1-.09-.12l-.09-1.25c0-.06.12-.11.15-.11a0,0,0,0,1,.05,0c.17.3.35.64.54.94a.63.63,0,0,0,.22.21,1.68,1.68,0,0,0,.75.18c.72,0,1.3-.31,1.3-.88s-.35-.76-1.32-1.09c-1.19-.37-1.65-.81-1.65-1.53Z"/><path d="M732.49,861.36s-.07-.07-.07-.12a.06.06,0,0,1,0-.06l2.14-.3c.06,0,.09,0,.09.1,0,.44,0,2.28,0,2.76s0,1.91.06,2.22c0,.11,0,.17.15.19l.45.12s.06.11.06.14,0,0,0,0h-2.2s-.07,0-.07-.12,0-1.14,0-1.6v-.37H733c0,.13-.07.24-.11.31-.48,1.18-1.18,1.86-2.19,1.86s-1.57-.71-1.57-2.47a22.66,22.66,0,0,1,.16-2.45c0-.14,0-.2-.13-.2h-.5c-.05,0-.1-.1-.1-.16s0,0,0,0l2.12-.33c.08,0,.1,0,.1.11,0,.39-.07,1.78-.07,2.35,0,1.65.23,2.37.79,2.37.72,0,1.32-1.24,1.5-2.86,0-.31.06-1,.06-1.2s0-.23-.12-.24Z"/><path d="M746.36,866.28s.06.09.06.13,0,0,0,0l-1.44,0-1.47,0s0,0,0,0,0-.14.06-.15l.54-.13a.14.14,0,0,0,.12-.14c0-.32,0-1.37,0-1.71,0-1.17-.2-2.31-.84-2.31s-1.25,1.38-1.42,2.49c-.08.59-.11,1.35-.11,1.5s0,.13.14.16l.64.14s.06.09.06.13,0,0,0,0l-1.52,0-1.47,0s0,0,0,0,0-.12.06-.13l.51-.13c.1,0,.12-.06.13-.16,0-.27,0-1.2,0-1.63,0-1.22-.15-2.37-.83-2.37s-1.22,1.25-1.44,2.42A15.88,15.88,0,0,0,738,866a.12.12,0,0,0,.11.14l.55.13s.08.09.08.13,0,0,0,0l-1.49,0-1.37,0s0,0,0,0,0-.14.06-.15l.54-.12a.14.14,0,0,0,.12-.15c0-.53,0-1.83,0-2.37s0-1.7-.07-2c0-.11,0-.18-.13-.2l-.52,0s-.07-.07-.07-.14,0,0,.05,0l2.32-.33c.07,0,.08,0,.08.09s-.06,1.52-.11,2.16c0,.09,0,.26,0,.38l.07,0c0-.15.08-.3.11-.38.32-.9,1-2.29,2.34-2.29.87,0,1.35.83,1.39,2.13v.34l.05,0c0-.09.07-.26.1-.36.28-.81,1-2.13,2.29-2.13.88,0,1.42.84,1.42,2.53,0,.91-.11,2.22-.13,2.55,0,.13,0,.16.12.19Z"/><path d="M751,860.76c0,1.19-1,2.07-2.4,2.58a.23.23,0,0,0-.13.24,5.62,5.62,0,0,0,.08,1c0,.06-.09.13-.12.13l0,0a4,4,0,0,1-.51-1.12.32.32,0,0,1,.12-.35,2.77,2.77,0,0,0,1.35-2.3,1.27,1.27,0,0,0-1.28-1.34,1.64,1.64,0,0,0-1.3.68l0,0s-.12-.12-.1-.18a2.57,2.57,0,0,1,2.21-1.18c1.56,0,2.15.93,2.15,1.81Zm-2.46,4.54a.62.62,0,0,1,.61.62.63.63,0,0,1-1.25,0,.63.63,0,0,1,.63-.63Z"/><path d="M633.43,877.43h.8v7.28h3.29v.72h-4.09Z"/><path d="M644.42,882.31c0,.5,0,3.22-2.22,3.22-1,0-2.22-.72-2.22-3.22s1.19-3.24,2.22-3.24S644.42,879.79,644.42,882.31Zm-3.6,0c0,.91.17,2.47,1.38,2.47s1.38-1.56,1.38-2.47-.17-2.48-1.38-2.48S640.82,881.38,640.82,882.31Z"/><path d="M647.59,879.18h2.12c1,0,1.87.49,1.87,1.7a1.85,1.85,0,0,1-1.27,1.75l1.54,2.53-.7.42-1.59-2.83h-1.17v2.68h-.8Zm1.86,2.85a1.15,1.15,0,0,0,1.3-1.15.94.94,0,0,0-1.06-1h-1.3V882Z"/><path d="M654.89,879.18h3.89v.72h-3.09v1.87h2.55v.72h-2.55v2.22h3.09v.72h-3.89Z"/><path d="M662.4,880.36h0l-.15,5.07h-.85l.25-6.25h1l1.13,2.71,1.13-2.71H666l.26,6.25h-.86l-.15-5.07h0l-1.4,3.3Z"/><path d="M678.07,878.15H677v-.72h3v.72h-1.09v6.56H680v.72h-3v-.72h1.08Z"/><path d="M684.83,885.43H684v-6.25H686c1.45,0,2,.79,2,1.7a1.73,1.73,0,0,1-1.81,1.86h-1.34Zm1.1-3.41c.79,0,1.21-.36,1.21-1.08s-.55-1-1.21-1h-1.1V882Z"/><path d="M691.57,883.45c.16.76.53,1.33,1.37,1.33a1.05,1.05,0,0,0,1.18-1.06c0-.76-.65-1-1.26-1.21-.92-.38-1.78-.62-1.78-1.8a1.67,1.67,0,0,1,1.84-1.64,1.85,1.85,0,0,1,1.9,1.57l-.76.23c-.15-.61-.47-1-1.16-1-.51,0-1,.26-1,.82s.36.76.84,1l1.34.59a1.59,1.59,0,0,1,.86,1.46,1.8,1.8,0,0,1-2,1.86,2,2,0,0,1-2.09-1.86Z"/><path d="M698.93,879.18v4.25c0,.92.26,1.35,1.09,1.35,1,0,1.22-.45,1.22-1.35v-4.25h.81v4.64a2,2,0,0,1-3.93-.05v-4.59Z"/><path d="M705.88,880.36h0l-.15,5.07h-.85l.25-6.25h1l1.13,2.71,1.13-2.71h1.05l.25,6.25h-.85l-.15-5.07h0l-1.4,3.3Z"/><path d="M720.68,884.71h.87V879.9h-.87v-.72h2.56v.72h-.89v4.81h.89v.72h-2.56Z"/><path d="M727.85,883.45c.16.76.53,1.33,1.37,1.33a1,1,0,0,0,1.17-1.06c0-.76-.64-1-1.25-1.21-.92-.38-1.78-.62-1.78-1.8a1.67,1.67,0,0,1,1.83-1.64,1.86,1.86,0,0,1,1.91,1.57l-.77.23a1.13,1.13,0,0,0-1.15-1c-.51,0-1,.26-1,.82s.36.76.84,1l1.33.59a1.59,1.59,0,0,1,.87,1.46,1.8,1.8,0,0,1-2,1.86,2,2,0,0,1-2.09-1.86Z"/><path d="M742.53,883.45c.16.76.53,1.33,1.37,1.33a1,1,0,0,0,1.17-1.06c0-.76-.64-1-1.26-1.21-.91-.38-1.77-.62-1.77-1.8a1.67,1.67,0,0,1,1.83-1.64,1.86,1.86,0,0,1,1.91,1.57l-.77.23a1.13,1.13,0,0,0-1.15-1c-.51,0-1,.26-1,.82s.36.76.84,1l1.33.59a1.59,1.59,0,0,1,.87,1.46,1.8,1.8,0,0,1-2,1.86,2,2,0,0,1-2.09-1.86Z"/><path d="M749.76,884.71h.87V879.9h-.87v-.72h2.56v.72h-.89v4.81h.89v.72h-2.56Z"/><path d="M756.83,880.36h0l-.15,5.07h-.86l.26-6.25h1.05l1.13,2.71,1.13-2.71h1l.25,6.25h-.85l-.15-5.07h0l-1.4,3.3Z"/><path d="M764.59,885.43h-.81v-6.25h2c1.45,0,2,.79,2,1.7a1.73,1.73,0,0,1-1.81,1.86h-1.34Zm1.1-3.41c.79,0,1.21-.36,1.21-1.08s-.55-1-1.21-1h-1.1V882Z"/><path d="M771.08,879.18h.8v5.53h3.28v.72h-4.08Z"/><path d="M781.5,879l.76.4-2,3.59v2.42h-.8V883l-2-3.59.76-.4,1.67,3.22Z"/><path d="M792.35,879.18h2.08c1.78,0,2.58.73,2.58,3,0,2-.33,3.21-2.58,3.21h-2.08v-.72H793V879.9h-.64Zm1.45,5.53h.85c1.05,0,1.52-.6,1.52-2.4s-.55-2.41-1.55-2.41h-.82Z"/><path d="M800.57,879.18v4.25c0,.92.26,1.35,1.09,1.35,1,0,1.22-.45,1.22-1.35v-4.25h.8v4.64a2,2,0,0,1-3.92-.05v-4.59Z"/><path d="M807.51,880.36h0l-.16,5.07h-.85l.25-6.25h1.06l1.13,2.71,1.12-2.71h1.06l.25,6.25h-.85l-.16-5.07h0l-1.4,3.3Z"/><path d="M814.71,880.36h0l-.16,5.07h-.85l.25-6.25H815l1.13,2.71,1.12-2.71h1.06l.25,6.25h-.85l-.16-5.07h0l-1.4,3.3Z"/><path d="M825,879l.76.4-2,3.59v2.42h-.8V883l-2-3.59.76-.4,1.67,3.22Z"/><path d="M837.61,879.9h-1.73v-.72h4.23v.72h-1.69v5.53h-.81Z"/><path d="M843.48,879.18h3.9v.72h-3.1v1.87h2.56v.72h-2.56v2.22h3.1v.72h-3.9Z"/><path d="M850.73,885.58l-.72-.41,1.93-3-1.76-2.68.73-.42,1.49,2.38,1.48-2.38.73.42-1.76,2.68,1.93,3-.72.41-1.66-2.76Z"/><path d="M859.21,879.9h-1.73v-.72h4.23v.72H860v5.53h-.8Z"/><path d="M876.49,882.31c0,.5,0,3.22-2.22,3.22-1,0-2.21-.72-2.21-3.22s1.18-3.24,2.21-3.24S876.49,879.79,876.49,882.31Zm-3.59,0c0,.91.16,2.47,1.37,2.47s1.38-1.56,1.38-2.47-.16-2.48-1.38-2.48S872.9,881.38,872.9,882.31Z"/><path d="M880,879.18h3.93v.72h-3.13v1.87h2.63v.72h-2.63v2.94H880Z"/><path d="M895.77,879.9H894v-.72h4.22v.72h-1.69v5.53h-.8Z"/><path d="M901.31,879.18h.81v2.59h2.47v-2.59h.8v6.25h-.8v-2.94h-2.47v2.94h-.81Z"/><path d="M908.84,879.18h3.9v.72h-3.1v1.87h2.56v.72h-2.56v2.22h3.1v.72h-3.9Z"/><path d="M924.38,885.43h-.8v-6.25h1.94c1.45,0,2,.79,2,1.7a1.74,1.74,0,0,1-1.82,1.86h-1.34Zm1.1-3.41c.8,0,1.22-.36,1.22-1.08s-.56-1-1.22-1h-1.1V882Z"/><path d="M930.62,879.18h2.12c1,0,1.88.49,1.88,1.7a1.86,1.86,0,0,1-1.28,1.75l1.54,2.53-.7.42-1.59-2.83h-1.17v2.68h-.8Zm1.86,2.85a1.15,1.15,0,0,0,1.3-1.15.94.94,0,0,0-1.06-1h-1.3V882Z"/><path d="M938.35,884.71h.87V879.9h-.87v-.72h2.57v.72H940v4.81h.89v.72h-2.57Z"/><path d="M944.75,879.18h1l2.42,5.26,0,0-.07-1.62v-3.62h.8v6.25h-1l-2.42-5.27,0,0,.07,1.64v3.61h-.8Z"/><path d="M953.65,879.9h-1.73v-.72h4.22v.72h-1.69v5.53h-.8Z"/><path d="M960,884.71h.87V879.9H960v-.72h2.56v.72h-.88v4.81h.88v.72H960Z"/><path d="M966.34,879.18h1l2.42,5.26,0,0-.08-1.62v-3.62h.81v6.25h-1l-2.42-5.27,0,0,.07,1.64v3.61h-.81Z"/><path d="M977.74,884.85a3.3,3.3,0,0,1-1.92.68c-1.83,0-2.36-1.7-2.36-3.23s.55-3.23,2.34-3.23a2.37,2.37,0,0,1,2,1.2l-.68.44a1.61,1.61,0,0,0-1.37-.88c-1.23,0-1.45,1.54-1.45,2.49s.22,2.46,1.47,2.46a2.2,2.2,0,0,0,1.17-.33v-1.64h-1.5v-.72h2.3Z"/><path d="M989.21,883.72l-.59,1.86-.79-.29,2-6.11h1l2,6.11-.79.29-.57-1.86Zm1.1-3.61-.89,2.89h1.78Z"/><path d="M995.42,879.18h1l2.42,5.26,0,0-.08-1.62v-3.62h.81v6.25h-1l-2.42-5.27,0,0,.08,1.64v3.61h-.81Z"/><path d="M1002.54,879.18h2.09c1.77,0,2.58.73,2.58,3,0,2-.34,3.21-2.58,3.21h-2.09v-.72h.65V879.9h-.65Zm1.45,5.53h.85c1.06,0,1.53-.6,1.53-2.4s-.56-2.41-1.55-2.41H1004Z"/><path d="M1019,879.9h-1.73v-.72h4.22v.72h-1.69v5.53h-.8Z"/><path d="M1028.26,879l.75.4-2,3.59v2.42h-.8V883l-2-3.59.75-.4,1.67,3.22Z"/><path d="M1032.94,885.43h-.81v-6.25h1.95c1.45,0,2,.79,2,1.7a1.73,1.73,0,0,1-1.81,1.86h-1.34ZM1034,882c.79,0,1.21-.36,1.21-1.08s-.55-1-1.21-1h-1.1V882Z"/><path d="M1039.27,879.18h3.9v.72h-3.09v1.87h2.55v.72h-2.55v2.22h3.09v.72h-3.9Z"/><path d="M1046.88,883.45c.16.76.53,1.33,1.37,1.33a1,1,0,0,0,1.17-1.06c0-.76-.64-1-1.26-1.21-.91-.38-1.77-.62-1.77-1.8a1.67,1.67,0,0,1,1.83-1.64,1.86,1.86,0,0,1,1.91,1.57l-.77.23a1.13,1.13,0,0,0-1.15-1c-.51,0-1,.26-1,.82s.36.76.84,1l1.33.59a1.59,1.59,0,0,1,.87,1.46,1.8,1.8,0,0,1-2,1.86,2,2,0,0,1-2.09-1.86Z"/><path d="M1053.67,879.18h3.9v.72h-3.09v1.87H1057v.72h-2.55v2.22h3.09v.72h-3.9Z"/><path d="M1062.2,879.9h-1.72v-.72h4.22v.72H1063v5.53h-.81Z"/><path d="M1069.4,879.9h-1.72v-.72h4.22v.72h-1.69v5.53h-.81Z"/><path d="M1075.7,884.71h.88V879.9h-.88v-.72h2.57v.72h-.89v4.81h.89v.72h-2.57Z"/><path d="M1082.1,879.18h1l2.42,5.26,0,0-.07-1.62v-3.62h.8v6.25h-1l-2.42-5.27,0,0,.07,1.64v3.61h-.8Z"/><path d="M1093.5,884.85a3.35,3.35,0,0,1-1.92.68c-1.84,0-2.36-1.7-2.36-3.23s.55-3.23,2.33-3.23a2.39,2.39,0,0,1,2,1.2l-.69.44a1.6,1.6,0,0,0-1.36-.88c-1.24,0-1.46,1.54-1.46,2.49s.22,2.46,1.48,2.46a2.14,2.14,0,0,0,1.16-.33v-1.64h-1.49v-.72h2.3Z"/><path d="M633.72,895.71h.87V890.9h-.87v-.72h2.57v.72h-.89v4.81h.89v.72h-2.57Z"/><path d="M640.12,890.18h1l2.42,5.26,0,0-.07-1.62v-3.62h.8v6.25h-1l-2.42-5.27,0,0,.07,1.64v3.61h-.8Z"/><path d="M647.23,890.18h2.09c1.77,0,2.58.73,2.58,3,0,2-.34,3.21-2.58,3.21h-2.09v-.72h.65V890.9h-.65Zm1.45,5.53h.85c1.06,0,1.53-.6,1.53-2.4s-.56-2.41-1.55-2.41h-.83Z"/><path d="M655.45,890.18v4.25c0,.92.26,1.35,1.09,1.35,1,0,1.22-.45,1.22-1.35v-4.25h.81v4.64a2,2,0,0,1-3.92-.05v-4.59Z"/><path d="M662.49,894.45c.16.76.53,1.33,1.37,1.33a1.05,1.05,0,0,0,1.18-1.06c0-.76-.65-1-1.26-1.21-.91-.38-1.78-.62-1.78-1.8a1.67,1.67,0,0,1,1.84-1.64,1.85,1.85,0,0,1,1.9,1.57l-.76.23c-.15-.61-.47-1-1.15-1-.52,0-1,.26-1,.82s.36.76.84,1l1.33.59a1.59,1.59,0,0,1,.86,1.46,1.8,1.8,0,0,1-2,1.86,2,2,0,0,1-2.09-1.86Z"/><path d="M670.62,890.9h-1.73v-.72h4.22v.72h-1.69v5.53h-.8Z"/><path d="M676.39,890.18h2.12c1,0,1.87.49,1.87,1.7a1.85,1.85,0,0,1-1.27,1.75l1.54,2.53-.7.42-1.59-2.83h-1.17v2.68h-.8Zm1.86,2.85a1.14,1.14,0,0,0,1.29-1.15.93.93,0,0,0-1-1h-1.3V893Z"/><path d="M687.07,890l.75.4-2,3.59v2.42H685V894l-2-3.59.75-.4,1.67,3.22Z"/><path d="M692.05,894.65h1.1v1.78h-1.1Z"/><path d="M704.94,888.43h.8v7.28H709v.72h-4.09Z"/><path d="M715.93,893.31c0,.5,0,3.22-2.22,3.22-1,0-2.22-.72-2.22-3.22s1.19-3.24,2.22-3.24S715.93,890.79,715.93,893.31Zm-3.6,0c0,.91.17,2.47,1.38,2.47s1.38-1.56,1.38-2.47-.17-2.48-1.38-2.48S712.33,892.38,712.33,893.31Z"/><path d="M719.1,890.18h2.12c1,0,1.87.49,1.87,1.7a1.85,1.85,0,0,1-1.27,1.75l1.54,2.53-.7.42-1.59-2.83H719.9v2.68h-.8ZM721,893a1.14,1.14,0,0,0,1.29-1.15.93.93,0,0,0-1-1h-1.3V893Z"/><path d="M726.39,890.18h3.9v.72H727.2v1.87h2.55v.72H727.2v2.22h3.09v.72h-3.9Z"/><path d="M733.91,891.36h0l-.15,5.07h-.85l.25-6.25h1l1.13,2.71,1.13-2.71h1l.25,6.25h-.85l-.15-5.07h0l-1.4,3.3Z"/><path d="M748.81,889.15h-1.08v-.72h3v.72h-1.09v6.56h1.09v.72h-3v-.72h1.08Z"/><path d="M755.57,896.43h-.8v-6.25h1.94c1.45,0,2,.79,2,1.7a1.73,1.73,0,0,1-1.81,1.86h-1.34Zm1.1-3.41c.79,0,1.21-.36,1.21-1.08s-.55-1-1.21-1h-1.1V893Z"/><path d="M762.31,894.45c.16.76.53,1.33,1.37,1.33a1.05,1.05,0,0,0,1.18-1.06c0-.76-.65-1-1.26-1.21-.92-.38-1.78-.62-1.78-1.8a1.67,1.67,0,0,1,1.84-1.64,1.85,1.85,0,0,1,1.9,1.57l-.76.23c-.15-.61-.47-1-1.16-1-.51,0-1,.26-1,.82s.36.76.84,1l1.34.59a1.59,1.59,0,0,1,.86,1.46,1.8,1.8,0,0,1-2,1.86,2,2,0,0,1-2.09-1.86Z"/><path d="M769.67,890.18v4.25c0,.92.26,1.35,1.09,1.35,1,0,1.22-.45,1.22-1.35v-4.25h.81v4.64a2,2,0,0,1-3.93-.05v-4.59Z"/><path d="M776.62,891.36h0l-.15,5.07h-.86l.26-6.25h1l1.13,2.71,1.13-2.71h1.05l.25,6.25h-.85l-.15-5.07h0l-1.4,3.3Z"/><path d="M789.89,890.18h.8v2.59h2.48v-2.59h.8v6.25h-.8v-2.94h-2.48v2.94h-.8Z"/><path d="M798,894.72l-.59,1.86-.79-.29,2-6.11h1l2,6.11-.79.29-.57-1.86Zm1.1-3.61-.89,2.89H800Z"/><path d="M805,894.45c.16.76.53,1.33,1.37,1.33a1,1,0,0,0,1.17-1.06c0-.76-.64-1-1.25-1.21-.92-.38-1.78-.62-1.78-1.8a1.67,1.67,0,0,1,1.84-1.64,1.85,1.85,0,0,1,1.9,1.57l-.77.23a1.13,1.13,0,0,0-1.15-1c-.51,0-1,.26-1,.82s.36.76.84,1l1.33.59a1.59,1.59,0,0,1,.87,1.46,1.8,1.8,0,0,1-2,1.86,2,2,0,0,1-2.09-1.86Z"/><path d="M818.11,896.43v-.72h.64V890.9h-.64v-.72h2c1.59,0,2.27.6,2.27,1.66a1.42,1.42,0,0,1-.71,1.29,1.5,1.5,0,0,1,1.07,1.51c0,1.13-.74,1.79-2.05,1.79Zm2.35-3.58a1,1,0,0,0,1-1c0-.74-.53-.94-1.09-.94h-.85v2Zm0,2.86c.71,0,1.37-.16,1.37-1a1.09,1.09,0,0,0-1.18-1.13h-1.12v2.14Z"/><path d="M825.73,890.18h3.89v.72h-3.09v1.87h2.55v.72h-2.55v2.22h3.09v.72h-3.89Z"/><path d="M832.92,890.18h3.9v.72h-3.09v1.87h2.55v.72h-2.55v2.22h3.09v.72h-3.9Z"/><path d="M839.75,890.18h1l2.42,5.26,0,0-.07-1.62v-3.62h.81v6.25h-1l-2.42-5.27,0,0,.08,1.64v3.61h-.81Z"/><path d="M855.37,890.9h-1.73v-.72h4.22v.72h-1.69v5.53h-.8Z"/><path d="M860.91,890.18h.8v2.59h2.48v-2.59h.8v6.25h-.8v-2.94h-2.48v2.94h-.8Z"/><path d="M868.43,890.18h3.9v.72h-3.09v1.87h2.55v.72h-2.55v2.22h3.09v.72h-3.9Z"/><path d="M882.78,895.71h.87V890.9h-.87v-.72h2.56v.72h-.88v4.81h.88v.72h-2.56Z"/><path d="M889.17,890.18h1l2.42,5.26,0,0-.08-1.62v-3.62h.81v6.25h-1l-2.42-5.27,0,0,.08,1.64v3.61h-.81Z"/><path d="M896.29,890.18h2.09c1.77,0,2.57.73,2.57,3,0,2-.33,3.21-2.57,3.21h-2.09v-.72h.65V890.9h-.65Zm1.45,5.53h.85c1.06,0,1.52-.6,1.52-2.4s-.55-2.41-1.54-2.41h-.83Z"/><path d="M904.51,890.18v4.25c0,.92.26,1.35,1.09,1.35,1,0,1.22-.45,1.22-1.35v-4.25h.81v4.64a2,2,0,0,1-3.93-.05v-4.59Z"/><path d="M911.55,894.45c.16.76.53,1.33,1.37,1.33a1,1,0,0,0,1.17-1.06c0-.76-.64-1-1.25-1.21-.92-.38-1.78-.62-1.78-1.8a1.67,1.67,0,0,1,1.84-1.64,1.85,1.85,0,0,1,1.9,1.57l-.77.23a1.13,1.13,0,0,0-1.15-1c-.51,0-1,.26-1,.82s.36.76.84,1l1.33.59a1.59,1.59,0,0,1,.87,1.46,1.8,1.8,0,0,1-2,1.86,2,2,0,0,1-2.09-1.86Z"/><path d="M919.68,890.9H918v-.72h4.22v.72h-1.69v5.53h-.8Z"/><path d="M925.45,890.18h2.12c1,0,1.87.49,1.87,1.7a1.85,1.85,0,0,1-1.27,1.75l1.54,2.53-.7.42-1.6-2.83h-1.16v2.68h-.8Zm1.86,2.85a1.14,1.14,0,0,0,1.29-1.15.93.93,0,0,0-1.05-1h-1.3V893Z"/><path d="M936.13,890l.75.4-2,3.59v2.42h-.8V894l-2-3.59.75-.4,1.67,3.22Z"/><path d="M942.21,888.32v1.33l-.32,1.62h-.46l-.32-1.62v-1.33Z"/><path d="M947.55,894.45c.16.76.53,1.33,1.37,1.33a1,1,0,0,0,1.17-1.06c0-.76-.64-1-1.26-1.21-.91-.38-1.77-.62-1.77-1.8a1.67,1.67,0,0,1,1.83-1.64,1.86,1.86,0,0,1,1.91,1.57l-.77.23a1.13,1.13,0,0,0-1.15-1c-.51,0-1,.26-1,.82s.36.76.84,1l1.33.59a1.59,1.59,0,0,1,.87,1.46,1.8,1.8,0,0,1-2,1.86,2,2,0,0,1-2.09-1.86Z"/><path d="M961.46,894.45c.16.76.53,1.33,1.37,1.33a1,1,0,0,0,1.17-1.06c0-.76-.64-1-1.25-1.21-.92-.38-1.78-.62-1.78-1.8a1.67,1.67,0,0,1,1.83-1.64,1.86,1.86,0,0,1,1.91,1.57l-.77.23a1.13,1.13,0,0,0-1.15-1c-.51,0-1,.26-1,.82s.36.76.84,1l1.33.59a1.59,1.59,0,0,1,.87,1.46,1.8,1.8,0,0,1-2,1.86,2,2,0,0,1-2.09-1.86Z"/><path d="M969.58,890.9h-1.72v-.72h4.22v.72h-1.69v5.53h-.81Z"/><path d="M976.06,894.72l-.58,1.86-.79-.29,2-6.11h1l2,6.11-.79.29-.58-1.86Zm1.11-3.61-.89,2.89h1.78Z"/><path d="M982.28,890.18h1l2.42,5.26,0,0-.07-1.62v-3.62h.81v6.25h-1L983,891.16l0,0,.07,1.64v3.61h-.8Z"/><path d="M989.4,890.18h2.08c1.78,0,2.58.73,2.58,3,0,2-.33,3.21-2.58,3.21H989.4v-.72H990V890.9h-.64Zm1.45,5.53h.85c1,0,1.52-.6,1.52-2.4s-.55-2.41-1.54-2.41h-.83Z"/><path d="M997.66,894.72l-.58,1.86-.79-.29,2-6.11h1l2,6.11-.79.29-.58-1.86Zm1.11-3.61-.89,2.89h1.77Z"/><path d="M1004.16,890.18h2.12c1,0,1.87.49,1.87,1.7a1.86,1.86,0,0,1-1.27,1.75l1.53,2.53-.69.42-1.6-2.83H1005v2.68h-.8ZM1006,893a1.15,1.15,0,0,0,1.29-1.15.94.94,0,0,0-1.06-1H1005V893Z"/><path d="M1011,890.18h2.08c1.78,0,2.58.73,2.58,3,0,2-.33,3.21-2.58,3.21H1011v-.72h.64V890.9H1011Zm1.45,5.53h.85c1.05,0,1.52-.6,1.52-2.4s-.55-2.41-1.54-2.41h-.83Z"/><path d="M1024.91,890.18H1027c1.78,0,2.58.73,2.58,3,0,2-.33,3.21-2.58,3.21h-2.08v-.72h.64V890.9h-.64Zm1.45,5.53h.85c1,0,1.52-.6,1.52-2.4s-.55-2.41-1.54-2.41h-.83Z"/><path d="M1033.13,890.18v4.25c0,.92.26,1.35,1.09,1.35,1,0,1.22-.45,1.22-1.35v-4.25h.8v4.64a2,2,0,0,1-3.92-.05v-4.59Z"/><path d="M1040.07,891.36h0l-.16,5.07H1039l.25-6.25h1.06l1.13,2.71,1.12-2.71h1.06l.25,6.25h-.85l-.16-5.07h0l-1.4,3.3Z"/><path d="M1047.27,891.36h0l-.16,5.07h-.85l.25-6.25h1.06l1.13,2.71,1.12-2.71h1.06l.25,6.25h-.85l-.16-5.07h0l-1.4,3.3Z"/><path d="M1057.54,890l.76.4-2,3.59v2.42h-.8V894l-2-3.59.76-.4,1.67,3.22Z"/><path d="M1069.4,890.9h-1.72v-.72h4.22v.72h-1.69v5.53h-.81Z"/><path d="M1075.27,890.18h3.9v.72h-3.09v1.87h2.55v.72h-2.55v2.22h3.09v.72h-3.9Z"/><path d="M1082.52,896.58l-.72-.41,1.93-3-1.76-2.68.73-.42,1.49,2.38,1.48-2.38.74.42-1.77,2.68,1.93,3-.72.41-1.66-2.76Z"/><path d="M1091,890.9h-1.72v-.72h4.22v.72h-1.69v5.53H1091Z"/><path d="M633.29,901.18h3.9v.72h-3.1v1.87h2.56v.72h-2.56v2.22h3.1v.72h-3.9Z"/><path d="M643.91,901l.76.29-2.4,6.27h-.14l-2.4-6.27.77-.29,1.7,4.58Z"/><path d="M647.69,901.18h3.89v.72h-3.09v1.87H651v.72h-2.55v2.22h3.09v.72h-3.89Z"/><path d="M654.79,901.18h2.12c1.05,0,1.87.49,1.87,1.7a1.85,1.85,0,0,1-1.27,1.75l1.54,2.53-.7.42-1.59-2.83h-1.17v2.68h-.8Zm1.86,2.85a1.14,1.14,0,0,0,1.29-1.15.93.93,0,0,0-1.05-1h-1.3V904Z"/><path d="M669.69,905.45c.16.76.53,1.33,1.37,1.33a1.05,1.05,0,0,0,1.18-1.06c0-.76-.65-1-1.26-1.21-.91-.38-1.78-.62-1.78-1.8a1.67,1.67,0,0,1,1.84-1.64,1.85,1.85,0,0,1,1.9,1.57l-.76.23c-.15-.61-.47-1-1.16-1-.51,0-1,.26-1,.82s.36.76.83,1l1.34.59a1.59,1.59,0,0,1,.86,1.46,1.8,1.8,0,0,1-2,1.86,2,2,0,0,1-2.09-1.86Z"/><path d="M676.92,906.71h.87V901.9h-.87v-.72h2.56v.72h-.88v4.81h.88v.72h-2.56Z"/><path d="M683.31,901.18h1l2.42,5.26,0,0-.08-1.62v-3.62h.81v6.25h-1l-2.42-5.27,0,0,.08,1.64v3.61h-.81Z"/><path d="M694.84,906.23a2.34,2.34,0,0,1-2.07,1.3c-1.83,0-2.4-1.68-2.4-3.22,0-2.5,1.32-3.24,2.33-3.24a2.1,2.1,0,0,1,2,1.33l-.73.37a1.42,1.42,0,0,0-1.23-.94c-1.25,0-1.5,1.51-1.5,2.47s.23,2.48,1.5,2.48a1.72,1.72,0,0,0,1.47-1Z"/><path d="M698.08,901.18H702v.72h-3.09v1.87h2.55v.72h-2.55v2.22H702v.72h-3.9Z"/><path d="M713.82,901.9h-1.73v-.72h4.22v.72h-1.69v5.53h-.8Z"/><path d="M719.36,901.18h.8v2.59h2.47v-2.59h.81v6.25h-.81v-2.94h-2.47v2.94h-.8Z"/><path d="M726.88,901.18h3.9v.72h-3.09v1.87h2.55v.72h-2.55v2.22h3.09v.72h-3.9Z"/><path d="M742.75,900.4l-1.47.56-.25-.73,2.52-1v7.44h1.71v.72h-4.53v-.72h2Z"/><path d="M748.24,899.43h4.1v.72h-3.29v2.45a3.41,3.41,0,0,1,1.18-.25,2.06,2.06,0,0,1,2.17,2.13,2.88,2.88,0,0,1-1.41,2.45,5.3,5.3,0,0,1-3,.6v-.75a5.24,5.24,0,0,0,2.34-.35,2.25,2.25,0,0,0,1.23-1.95,1.3,1.3,0,0,0-1.41-1.37,2.74,2.74,0,0,0-1.33.42h-.58Z"/><path d="M759.63,903.43c0,1.28.21,4.1-2.23,4.1s-2.23-2.72-2.23-4.1c0-1.88-.1-4.11,2.23-4.11C759.94,899.32,759.63,902.53,759.63,903.43Zm-3.62,0c0,3.14.57,3.35,1.39,3.35s1.39-.37,1.39-3.35-.54-3.36-1.39-3.36C755.89,900.07,756,901.84,756,903.43Z"/><path d="M766.83,903.43c0,1.28.21,4.1-2.23,4.1s-2.23-2.72-2.23-4.1c0-1.88-.1-4.11,2.23-4.11C767.14,899.32,766.83,902.53,766.83,903.43Zm-3.62,0c0,3.14.57,3.35,1.39,3.35s1.39-.37,1.39-3.35-.54-3.36-1.39-3.36C763.09,900.07,763.21,901.84,763.21,903.43Z"/><path d="M770.49,905.45c.16.76.53,1.33,1.37,1.33a1,1,0,0,0,1.17-1.06c0-.76-.65-1-1.26-1.21-.91-.38-1.77-.62-1.77-1.8a1.67,1.67,0,0,1,1.83-1.64,1.86,1.86,0,0,1,1.91,1.57l-.77.23a1.14,1.14,0,0,0-1.15-1c-.51,0-1,.26-1,.82s.36.76.84,1l1.33.59a1.59,1.59,0,0,1,.87,1.46,1.8,1.8,0,0,1-2,1.86,2,2,0,0,1-2.09-1.86Z"/><path d="M779.68,905.65v.54a2.35,2.35,0,0,1-1.33,1.94l-.28-.66a1.18,1.18,0,0,0,.51-1.09v-.73Z"/><path d="M216.78,255.55l.68,0c.38-2.36.94-6.08,1.27-8.5l1,.23c0,.11-.15.19-.29.2-.35,2.27-1,5.91-1.32,8,.9-.06,1.94-.15,2.78-.24a29.77,29.77,0,0,0-1-3.14l.56-.27a24.81,24.81,0,0,1,1.46,4.68l-.67.36c-.05-.3-.11-.64-.19-1-1,.14-2.83.31-3.88.4a.25.25,0,0,1-.2.19Z"/><path d="M233,250.33l.5.1,0,.22c-.25,4.21-.45,5.45-.87,6.12a1.33,1.33,0,0,1-1.28.66,19,19,0,0,1-2.15-.16,3,3,0,0,0-.15-.82,21.29,21.29,0,0,0,2.13.18.74.74,0,0,0,.77-.39c.28-.5.43-1.6.66-5.11h-2.31c-.05.32-.09.62-.14.9l-.84-.07c.2-1.21.39-2.87.51-4h-3.3v.86c0,2.42-.25,6-3.23,8.66a3.17,3.17,0,0,0-.62-.65c2.82-2.49,3-5.78,3-8V248h-2.4v-.78h6.82l.18,0,.49.11c0,.07,0,.14-.05.2-.07.72-.19,1.81-.34,2.9h2.44Z"/><path d="M234.78,255.55l.68,0c.38-2.36.94-6.08,1.27-8.5l1,.23c0,.11-.15.19-.29.2-.35,2.27-1,5.91-1.32,8,.9-.06,1.94-.15,2.78-.24a29.77,29.77,0,0,0-1-3.14l.56-.27a24.81,24.81,0,0,1,1.46,4.68l-.67.36c-.05-.3-.11-.64-.19-1-1,.14-2.83.31-3.88.4a.25.25,0,0,1-.2.19Z"/><path d="M245.6,247.19a.26.26,0,0,1-.27.17c-.8,4.24-2.19,7.58-3.88,9.64a4.56,4.56,0,0,0-.62-.51c1.69-1.88,3.09-5.22,3.85-9.54Z"/><path d="M254.84,248.16a.17.17,0,0,1-.13.08,19.08,19.08,0,0,1-2.32,4,43.8,43.8,0,0,1,4.43,4.09l-.77.59a37.6,37.6,0,0,0-4.2-4,18.51,18.51,0,0,1-4.58,4,5.31,5.31,0,0,0-.62-.65,16.71,16.71,0,0,0,6.92-7.77h-5.91v-.82H254l.16-.06Zm.06-1.61a8.76,8.76,0,0,1,1.38,1.87l-.49.3a8.92,8.92,0,0,0-1.35-1.86Zm1.47-.57a10,10,0,0,1,1.35,1.81l-.49.3a9,9,0,0,0-1.31-1.81Z"/><path d="M258.3,255.55l.68,0c.38-2.36.94-6.08,1.27-8.5l1,.23c0,.11-.15.19-.29.2-.35,2.27-1,5.91-1.32,8,.9-.06,1.94-.15,2.78-.24a29.77,29.77,0,0,0-1-3.14l.56-.27a24.81,24.81,0,0,1,1.46,4.68l-.67.36c-.05-.3-.11-.64-.19-1-1,.14-2.83.31-3.88.4a.25.25,0,0,1-.2.19Z"/><path d="M274.42,247.64l.46,0a1.49,1.49,0,0,1,0,.28c-.2,6.17-.37,8.23-.91,8.87-.37.48-.73.54-1.68.54-.43,0-.92,0-1.41-.06a2.14,2.14,0,0,0-.28-.84c.93.07,1.78.07,2.13.07.76,0,1.07-.56,1.31-8.1h-4.52c-.15,3-.49,7.11-4.51,9.05a2.66,2.66,0,0,0-.6-.66c3.76-1.74,4.11-5.46,4.23-8.39h-3.76v-.78h9.38Z"/><path d="M299.23,248h-6.94c-.26.85-.61,1.91-.94,2.92h5.91l.18,0,.51.13a1,1,0,0,1-.07.23c-.42,3.81-.81,5.31-1.42,5.87-.36.36-.7.42-1.58.42-.44,0-1,0-1.63-.07a1.81,1.81,0,0,0-.27-.8c.91.08,1.78.11,2.13.11a.92.92,0,0,0,.64-.16c.49-.42.89-1.81,1.25-4.95h-5.91c-.18.51-.36,1-.5,1.38l-.86-.16c.51-1.23,1.21-3.3,1.68-4.9h-3v-.75h10.83Z"/><path d="M300.3,255.55l.68,0c.38-2.36.94-6.08,1.27-8.5l1,.23c0,.11-.15.19-.29.2-.35,2.27-1,5.91-1.32,8,.9-.06,1.94-.15,2.78-.24a29.77,29.77,0,0,0-1-3.14l.56-.27a24.81,24.81,0,0,1,1.46,4.68l-.67.36c-.05-.3-.11-.64-.19-1-1,.14-2.83.31-3.88.4a.25.25,0,0,1-.2.19Z"/><path d="M306.62,247.85h3.93l.1-.09.53.34a.23.23,0,0,1-.14.13c-.4,4.57-1.54,7.16-3.6,8.66a5.7,5.7,0,0,0-.53-.6c1.91-1.29,3-3.72,3.36-7.66h-3.65Z"/><path d="M312.3,255.55l.68,0c.38-2.36.94-6.08,1.27-8.5l1,.23c0,.11-.15.19-.29.2-.35,2.27-1,5.91-1.32,8,.9-.06,1.94-.15,2.78-.24a29.77,29.77,0,0,0-1-3.14l.56-.27a24.81,24.81,0,0,1,1.46,4.68l-.67.36c-.05-.3-.11-.64-.19-1-1,.14-2.83.31-3.88.4a.25.25,0,0,1-.2.19Z"/><path d="M332.83,251.21a17.65,17.65,0,0,1-2.23,2.56,3.81,3.81,0,0,0-.43-.65,18.58,18.58,0,0,0,4.4-6.24l.8.4c0,.1-.16.12-.25.14a22.12,22.12,0,0,1-1.64,2.91l.19.11a.17.17,0,0,1-.14.13v6.48h-.7Z"/><path d="M341.28,255.72c0,.67.17.82,1.05.82h3.18c.82,0,.95-.37,1.06-2a2.43,2.43,0,0,0,.79.34c-.16,1.83-.45,2.41-1.82,2.41h-3.22c-1.44,0-1.87-.33-1.87-1.63v-3.12l-4.1.3-.07-.79,4.17-.3v-3.27c-1.18.23-2.4.43-3.56.61a3,3,0,0,0-.25-.71,38.72,38.72,0,0,0,8.62-2.06l.74.68c-.05.05-.07.05-.25.05a26.51,26.51,0,0,1-4.28,1.23h0c0,.08-.07.14-.24.16v3.25l6.1-.44.09.77-6.19.45Z"/><path d="M349.2,249.41a18.12,18.12,0,0,1,1.82,1.5,30.75,30.75,0,0,0,.94-4l.93.22a.34.34,0,0,1-.32.22,39,39,0,0,1-1,4.07,14.54,14.54,0,0,1,1.49,1.66l-.42.77a11.27,11.27,0,0,0-1.34-1.64,17.25,17.25,0,0,1-2.4,4.66,2.53,2.53,0,0,0-.58-.51,15.75,15.75,0,0,0,2.47-4.7,19.58,19.58,0,0,0-1.92-1.7Z"/><path d="M356.83,251.21a17.65,17.65,0,0,1-2.23,2.56,3.81,3.81,0,0,0-.43-.65,18.58,18.58,0,0,0,4.4-6.24l.8.4c0,.1-.16.12-.25.14a22.12,22.12,0,0,1-1.64,2.91l.19.11a.17.17,0,0,1-.14.13v6.48h-.7Z"/><path d="M377.12,247.19a.26.26,0,0,1-.27.17c-.8,4.24-2.19,7.58-3.88,9.64a4.56,4.56,0,0,0-.62-.51c1.69-1.88,3.09-5.22,3.85-9.54Z"/><path d="M388.42,247.64l.46,0a1.49,1.49,0,0,1,0,.28c-.2,6.17-.37,8.23-.91,8.87-.37.48-.73.54-1.68.54-.43,0-.92,0-1.41-.06a2.14,2.14,0,0,0-.28-.84c.93.07,1.78.07,2.13.07.76,0,1.07-.56,1.31-8.1h-4.52c-.15,3-.49,7.11-4.51,9.05a2.66,2.66,0,0,0-.6-.66c3.76-1.74,4.11-5.46,4.23-8.39h-3.76v-.78h9.38Z"/><path d="M395.12,247.19a.26.26,0,0,1-.27.17c-.8,4.24-2.19,7.58-3.88,9.64a4.56,4.56,0,0,0-.62-.51c1.69-1.88,3.09-5.22,3.85-9.54Z"/><path d="M216,224.1l.67.09c.18,0,.27.09.27.19a.28.28,0,0,1-.16.24c-.12,0-.18.12-.18.2V235a.23.23,0,0,1-.14.19l-.33.07c-.09,0-.13,0-.13-.1Z"/><path d="M229.69,225.07h-3.21v2.86c0,2.35-.19,3.76-.94,5a5.36,5.36,0,0,1-2.75,2.23c-.06,0-.08,0-.08-.11s0-.07.07-.11c2.28-1.23,3.1-3.08,3.1-7v-3.68l.52.48,3.29,0,.28-.35.48.39a.16.16,0,0,1,.09.15.19.19,0,0,1-.15.2.12.12,0,0,0-.1.12v8.5c0,.35.09.53.63.59l.73,0,.76-.05.48-.1.13-.41.14-1a.16.16,0,0,1,.15-.12c.06,0,.09.06.09.16l0,.92c0,.29.07.44.18.49a.26.26,0,0,1,.12.23c0,.21-.17.3-.36.32l-.61.09-.95,0-1.14-.08c-.65-.09-1-.35-1-1Z"/><path d="M240,224.1l.67.09c.18,0,.27.09.27.19a.28.28,0,0,1-.16.24c-.12,0-.18.12-.18.2V235a.23.23,0,0,1-.14.19l-.33.07c-.09,0-.13,0-.13-.1Z"/><path d="M261.75,229.1h-2.84l-.1-.37h2.94v-4.58l.66.08c.19,0,.29.1.29.2a.27.27,0,0,1-.18.24.22.22,0,0,0-.18.2v3.86H266v-4.58l.67.08c.18,0,.28.1.28.2a.28.28,0,0,1-.17.24.22.22,0,0,0-.18.2v3.86h1.64l.76-.62.77.56a.19.19,0,0,1,.08.17.23.23,0,0,1-.26.26h-3V235c0,.2-.38.27-.47.27s-.13,0-.13-.1V229.1h-3.62V235c0,.21-.38.27-.47.27s-.12,0-.12-.1Z"/><path d="M274.64,229v-4h-3.3l-.07-.36h7.48l.31-.42.56.43a.17.17,0,0,1,.07.13.28.28,0,0,1-.19.24c-.16,0-.16.1-.16.61a30.5,30.5,0,0,0,.18,3.78c.38,2.82,1.3,4.33,1.57,4.33,0,0,.1-.1.17-.31l.34-1.13a.1.1,0,0,1,.1-.08c.06,0,.17.06.15.16l-.23,1.25a2.09,2.09,0,0,0-.05.44.45.45,0,0,0,0,.23.48.48,0,0,1,.14.29.25.25,0,0,1-.26.26c-.17,0-.81-.22-1.55-1.57-1.17-2.2-1.19-5.93-1.19-8.28h-3.51v4H277l.76-.64.76.58a.22.22,0,0,1,.1.18.25.25,0,0,1-.28.24h-3.07v5.74c0,.14-.28.22-.47.22s-.13-.07-.13-.22v-5.74h-3.17l-.09-.36Z"/><path d="M289.69,225.07h-3.21v2.86c0,2.35-.19,3.76-.94,5a5.36,5.36,0,0,1-2.75,2.23c-.06,0-.08,0-.08-.11s0-.07.07-.11c2.28-1.23,3.1-3.08,3.1-7v-3.68l.52.48,3.29,0,.28-.35.48.39a.16.16,0,0,1,.09.15.19.19,0,0,1-.15.2.12.12,0,0,0-.1.12v8.5c0,.35.09.53.63.59l.73,0,.76-.05.48-.1.13-.41.14-1a.16.16,0,0,1,.15-.12c.06,0,.09.06.09.16l0,.92c0,.29.07.44.18.49a.26.26,0,0,1,.12.23c0,.21-.17.3-.36.32l-.61.09-.95,0-1.14-.08c-.65-.09-1-.35-1-1Z"/><path d="M300.17,234.43c-.27,0-.51-.55-.51-1.15a4.7,4.7,0,0,1,.12-1,20.84,20.84,0,0,0,.15-2.5,1.78,1.78,0,0,0-.46-1.41,10.81,10.81,0,0,0-3.36-2.17l-.19,0a.14.14,0,0,1-.16-.13c0-.25,1-1,1.25-1a.33.33,0,0,1,.29.26c0,.16.2.31.48.48a18.33,18.33,0,0,1,2.08,2,.45.45,0,0,0,.4.17.56.56,0,0,0,.36-.18,27.87,27.87,0,0,0,2.25-2.05.94.94,0,0,0,.29-.58s0-.17.13-.17.47.24.9.78a.38.38,0,0,1,.13.28c0,.08,0,.14-.3.33-.9.54-2,1.24-3.22,2.1a.52.52,0,0,0-.29.46.71.71,0,0,0,0,.15,20.79,20.79,0,0,1,.12,2.47c0,.45,0,1,0,1.49C300.59,234.17,300.32,234.43,300.17,234.43Z"/><path d="M310.64,229v-4h-3.3l-.07-.36h7.48l.31-.42.56.43a.17.17,0,0,1,.07.13.28.28,0,0,1-.19.24c-.16,0-.16.1-.16.61a30.5,30.5,0,0,0,.18,3.78c.38,2.82,1.3,4.33,1.57,4.33,0,0,.1-.1.17-.31l.34-1.13a.1.1,0,0,1,.1-.08c.06,0,.17.06.15.16l-.23,1.25a2.09,2.09,0,0,0-.05.44.45.45,0,0,0,0,.23.48.48,0,0,1,.14.29.25.25,0,0,1-.26.26c-.17,0-.81-.22-1.55-1.57-1.17-2.2-1.19-5.93-1.19-8.28h-3.51v4H313l.76-.64.76.58a.22.22,0,0,1,.1.18.25.25,0,0,1-.28.24h-3.07v5.74c0,.14-.28.22-.47.22s-.13-.07-.13-.22v-5.74h-3.17l-.09-.36Z"/><path d="M341.73,225.72H334.8c-.27.85-.62,1.92-.95,2.93h5.91l.18,0,.52.14a2,2,0,0,1-.08.22c-.42,3.82-.81,5.32-1.42,5.88-.36.36-.7.42-1.57.42-.45,0-1,0-1.64-.07a1.85,1.85,0,0,0-.27-.81c.91.09,1.79.11,2.13.11a.93.93,0,0,0,.64-.15c.49-.42.89-1.81,1.25-5h-5.9c-.18.52-.36,1-.51,1.38l-.86-.15c.51-1.24,1.21-3.3,1.68-4.91h-3V225h10.83Z"/><path d="M347.56,229.88v4.19c0,.2,0,.21.19.27h5.09c.22,0,.36-.17.41-.45l.09-.7.05-.49a.11.11,0,0,1,.1-.11c.06,0,.09,0,.09.11v.91c0,.48.1.56.14.57a.26.26,0,0,1,.14.25.44.44,0,0,1-.44.5h-6.1l-.22-.08c-.09,0-.14-.21-.14-.47V230l-4.07.48-.21-.35,4.28-.51V226a33.16,33.16,0,0,1-3.67.51c-.08,0-.15,0-.15-.12s0-.14.12-.15a36.7,36.7,0,0,0,4.75-.91,10.19,10.19,0,0,0,2.86-1.17l.65.3c.11,0,.16.11.16.16a.25.25,0,0,1-.23.17l-.3,0a19.45,19.45,0,0,1-3.59,1.11v3.63l4.94-.56.46-.55.65.4a.24.24,0,0,1,.12.18c0,.2-.21.22-.25.22Z"/><path d="M362.24,224.8l.2-.41.48.37a.22.22,0,0,1,.1.17.2.2,0,0,1-.16.19c-.07,0-.13.09-.13.16l-.54,2.94h2.33l.32-.32.48.4a.16.16,0,0,1,.07.14.23.23,0,0,1-.14.2.22.22,0,0,0-.15.2,28.08,28.08,0,0,1-.28,3.33c-.35,2.64-.93,3-1.91,3-.05-.49-.67-.59-.94-.63-.07,0-.1,0-.1-.1s0-.16.12-.16h0a6.23,6.23,0,0,0,1.17.16h.2a1.14,1.14,0,0,0,.43-.52,8.05,8.05,0,0,0,.4-1.7,35.71,35.71,0,0,0,.3-3.67h-2.39l-.13.73c0,.19-.42.25-.52.25s-.13-.08-.12-.18l.79-4.22h-3a21.63,21.63,0,0,1-1,6.24,7.23,7.23,0,0,1-3.11,3.73c-.08,0-.13-.11-.13-.16a.11.11,0,0,1,0-.1,8.32,8.32,0,0,0,2.58-3.4,21.3,21.3,0,0,0,1-6.31h-3l-.08-.37Z"/><path d="M374.35,233.42a30.17,30.17,0,0,0-4.56.36.52.52,0,0,0-.43.14.33.33,0,0,1-.29.15c-.24,0-.81-.72-.81-1.12a.39.39,0,0,1,.06-.19.85.85,0,0,0,.2-.45,43.54,43.54,0,0,0,.48-4.67,3,3,0,0,0-.2-1.58.51.51,0,0,1-.14-.24s0,0,.07,0,1.27.4,1.27.84a.42.42,0,0,1-.12.31c-.1.07-.1.4-.1.77a14.78,14.78,0,0,1-.23,1.93l-.45,2.88a1,1,0,0,0,0,.17c0,.32.13.39.4.39l.26,0a33.17,33.17,0,0,1,4.08-.24l1.33,0c.31,0,.4-.24.4-.53-.08-2.42-.17-4-.28-4.79a2.58,2.58,0,0,0-.5-1.41q-.15-.12-.15-.21c0-.1.06-.13.18-.13.57,0,1.56.49,1.56.82a.52.52,0,0,1-.15.31,2.44,2.44,0,0,0-.2,1.2l.17,2.94a15,15,0,0,1,.11,1.73c0,.17,0,.34,0,.5-.06.95-.58,1.12-.61,1.12a.47.47,0,0,1-.38-.43c0-.32-.2-.49-.43-.52Z"/><path d="M382.64,229v-4h-3.3l-.07-.36h7.48l.31-.42.56.43a.17.17,0,0,1,.07.13.28.28,0,0,1-.19.24c-.16,0-.16.1-.16.61a30.5,30.5,0,0,0,.18,3.78c.38,2.82,1.3,4.33,1.57,4.33,0,0,.1-.1.17-.31l.34-1.13a.1.1,0,0,1,.1-.08c.06,0,.17.06.15.16l-.23,1.25a2.09,2.09,0,0,0-.05.44.45.45,0,0,0,0,.23.48.48,0,0,1,.14.29.25.25,0,0,1-.26.26c-.17,0-.81-.22-1.55-1.57-1.17-2.2-1.19-5.93-1.19-8.28h-3.51v4H385l.76-.64.76.58a.22.22,0,0,1,.1.18.25.25,0,0,1-.28.24h-3.07v5.74c0,.14-.28.22-.47.22s-.13-.07-.13-.22v-5.74h-3.17l-.09-.36Z"/><path d="M393.75,229.1h-2.84l-.1-.37h2.94v-4.58l.66.08c.19,0,.29.1.29.2a.27.27,0,0,1-.18.24.22.22,0,0,0-.18.2v3.86H398v-4.58l.67.08c.18,0,.28.1.28.2a.28.28,0,0,1-.17.24.22.22,0,0,0-.18.2v3.86h1.64l.76-.62.77.56a.19.19,0,0,1,.08.17.23.23,0,0,1-.26.26h-3V235c0,.2-.38.27-.47.27s-.13,0-.13-.1V229.1h-3.62V235c0,.21-.38.27-.47.27s-.12,0-.12-.1Z"/><path d="M419.41,226.11a7.91,7.91,0,0,0-2.17.3,1.37,1.37,0,0,1-.52.13c-.52,0-1.57-.66-1.57-.9s.07-.13.18-.13l.27,0a5,5,0,0,0,.93.06c1.53,0,6.68-.39,6.93-.49a.65.65,0,0,1,.34-.06c.38,0,1.52.14,1.52.64,0,.31-.22.4-.65.4h-.13c-1.35-.13-2.33-.2-2.91-.2-.88,0-.89.13-.86.53v4.52c0,.69,0,1.26,0,1.73a10.91,10.91,0,0,1,0,1.15l-.12.54a.22.22,0,0,1-.23.15c-.08,0-.16-.06-.25-.17l-.32-.58a1.9,1.9,0,0,1-.22-.77.76.76,0,0,1,.12-.44,2.29,2.29,0,0,0,.14-.62l.15-2.49c0-1,0-2-.11-3a.49.49,0,0,0-.12-.32Z"/><path d="M434.35,233.42a30.17,30.17,0,0,0-4.56.36.52.52,0,0,0-.43.14.33.33,0,0,1-.29.15c-.24,0-.81-.72-.81-1.12a.39.39,0,0,1,.06-.19.85.85,0,0,0,.2-.45,43.54,43.54,0,0,0,.48-4.67,3,3,0,0,0-.2-1.58.51.51,0,0,1-.14-.24s0,0,.07,0,1.27.4,1.27.84a.42.42,0,0,1-.12.31c-.1.07-.1.4-.1.77a14.78,14.78,0,0,1-.23,1.93l-.45,2.88a1,1,0,0,0,0,.17c0,.32.13.39.4.39l.26,0a33.17,33.17,0,0,1,4.08-.24l1.33,0c.31,0,.4-.24.4-.53-.08-2.42-.17-4-.28-4.79a2.58,2.58,0,0,0-.5-1.41q-.15-.12-.15-.21c0-.1.06-.13.18-.13.57,0,1.56.49,1.56.82a.52.52,0,0,1-.15.31,2.44,2.44,0,0,0-.2,1.2l.17,2.94a15,15,0,0,1,.11,1.73c0,.17,0,.34,0,.5-.06.95-.58,1.12-.61,1.12a.47.47,0,0,1-.38-.43c0-.32-.2-.49-.43-.52Z"/><path d="M445.89,226.05c0,.12-.1.25-.32.4a7.61,7.61,0,0,0-1.42,2,23,23,0,0,1-3,3.92c-.11.08-.16.16-.16.22s0,.1.24.1h.15c1.43-.17,2.8-.26,4.15-.29a6.77,6.77,0,0,0,1.78-.13.6.6,0,0,1,.27-.06c.69,0,1.57.34,1.57.63s-.24.36-.52.36a1.37,1.37,0,0,1-.27,0c-1.07-.1-2.08-.16-3-.16a21.81,21.81,0,0,0-4.53.43,4.12,4.12,0,0,1-.89.2c-.45,0-.56-.26-.56-.59s.31-.4.48-.4a1,1,0,0,0,.63-.36c1.72-1.66,3.83-5.23,3.83-6.48a1,1,0,0,0-.19-.59c-.07-.05-.1-.09-.1-.13a.14.14,0,0,1,.15-.13l.14,0C444.83,225.21,445.89,225.71,445.89,226.05Z"/><path d="M456,224.1l.67.09c.18,0,.27.09.27.19a.28.28,0,0,1-.16.24c-.12,0-.18.12-.18.2V235a.23.23,0,0,1-.14.19l-.33.07c-.09,0-.13,0-.13-.1Z"/><path d="M473.73,225.72H466.8c-.27.85-.62,1.92-.95,2.93h5.91l.18,0,.52.14a2,2,0,0,1-.08.22c-.42,3.82-.81,5.32-1.42,5.88-.36.36-.7.42-1.57.42-.45,0-1,0-1.64-.07a1.85,1.85,0,0,0-.27-.81c.91.09,1.79.11,2.13.11a.93.93,0,0,0,.64-.15c.49-.42.89-1.81,1.25-5h-5.9c-.18.52-.36,1-.51,1.38l-.86-.15c.51-1.24,1.21-3.3,1.68-4.91h-3V225h10.83Z"/><path d="M478.64,229v-4h-3.3l-.07-.36h7.48l.31-.42.56.43a.17.17,0,0,1,.07.13.28.28,0,0,1-.19.24c-.16,0-.16.1-.16.61a30.5,30.5,0,0,0,.18,3.78c.38,2.82,1.3,4.33,1.57,4.33,0,0,.1-.1.17-.31l.34-1.13a.1.1,0,0,1,.1-.08c.06,0,.17.06.15.16l-.23,1.25a2.09,2.09,0,0,0-.05.44.45.45,0,0,0,0,.23.48.48,0,0,1,.14.29.25.25,0,0,1-.26.26c-.17,0-.81-.22-1.55-1.57-1.17-2.2-1.19-5.93-1.19-8.28h-3.51v4H481l.76-.64.76.58a.22.22,0,0,1,.1.18.25.25,0,0,1-.28.24h-3.07v5.74c0,.14-.28.22-.47.22s-.13-.07-.13-.22v-5.74h-3.17l-.09-.36Z"/><path d="M493.69,225.07h-3.21v2.86c0,2.35-.19,3.76-.94,5a5.36,5.36,0,0,1-2.75,2.23c-.06,0-.08,0-.08-.11s0-.07.07-.11c2.28-1.23,3.1-3.08,3.1-7v-3.68l.52.48,3.29,0,.28-.35.48.39a.16.16,0,0,1,.09.15.19.19,0,0,1-.15.2.12.12,0,0,0-.1.12v8.5c0,.35.09.53.63.59l.73,0,.76-.05.48-.1.13-.41.14-1a.16.16,0,0,1,.15-.12c.06,0,.09.06.09.16l0,.92c0,.29.07.44.18.49a.26.26,0,0,1,.12.23c0,.21-.17.3-.36.32l-.61.09-.95,0-1.14-.08c-.65-.09-1-.35-1-1Z"/><path d="M502.64,229v-4h-3.3l-.07-.36h7.48l.31-.42.56.43a.17.17,0,0,1,.07.13.28.28,0,0,1-.19.24c-.16,0-.16.1-.16.61a30.5,30.5,0,0,0,.18,3.78c.38,2.82,1.3,4.33,1.57,4.33,0,0,.1-.1.17-.31l.34-1.13a.1.1,0,0,1,.1-.08c.06,0,.17.06.15.16l-.23,1.25a2.09,2.09,0,0,0-.05.44.45.45,0,0,0,0,.23.48.48,0,0,1,.14.29.25.25,0,0,1-.26.26c-.17,0-.81-.22-1.55-1.57-1.17-2.2-1.19-5.93-1.19-8.28h-3.51v4H505l.76-.64.76.58a.22.22,0,0,1,.1.18.25.25,0,0,1-.28.24h-3.07v5.74c0,.14-.28.22-.47.22s-.13-.07-.13-.22v-5.74h-3.17l-.09-.36Z"/><path d="M511.5,224.53l.6.51h7.36l.74-.64.72.54a.34.34,0,0,1,.14.24.23.23,0,0,1-.26.22h-8.7v8.3H520l.74-.63.72.54a.37.37,0,0,1,.13.23.23.23,0,0,1-.25.23H512.1v.63c0,.16-.15.2-.48.28-.09,0-.12-.1-.12-.28Z"/><path d="M526.64,229v-4h-3.3l-.07-.36h7.48l.31-.42.56.43a.17.17,0,0,1,.07.13.28.28,0,0,1-.19.24c-.16,0-.16.1-.16.61a30.5,30.5,0,0,0,.18,3.78c.38,2.82,1.3,4.33,1.57,4.33,0,0,.1-.1.17-.31l.34-1.13a.1.1,0,0,1,.1-.08c.06,0,.17.06.15.16l-.23,1.25a2.09,2.09,0,0,0,0,.44.45.45,0,0,0,0,.23.48.48,0,0,1,.14.29.25.25,0,0,1-.26.26c-.17,0-.81-.22-1.55-1.57-1.17-2.2-1.19-5.93-1.19-8.28h-3.51v4H529l.76-.64.76.58a.22.22,0,0,1,.1.18.25.25,0,0,1-.28.24h-3.07v5.74c0,.14-.28.22-.47.22s-.13-.07-.13-.22v-5.74h-3.17l-.09-.36Z"/><path d="M542.86,225.93a.21.21,0,0,1-.13.08,18.77,18.77,0,0,1-2.32,4,43.8,43.8,0,0,1,4.43,4.09l-.77.6a37.7,37.7,0,0,0-4.2-4,18.11,18.11,0,0,1-4.58,4,4.65,4.65,0,0,0-.62-.65,16.66,16.66,0,0,0,6.92-7.77h-5.91v-.81H542l.16-.06Zm.06-1.61a8.52,8.52,0,0,1,1.38,1.87l-.49.3a9.23,9.23,0,0,0-1.34-1.86Zm1.48-.58a10,10,0,0,1,1.34,1.81l-.49.3a8.88,8.88,0,0,0-1.31-1.81Z"/><path d="M415.16,256a2.69,2.69,0,0,1-2.71-2.85,3.29,3.29,0,0,1,3.18-3.58,2.78,2.78,0,0,1,2.7,3c0,1.92-1.09,3.44-3.16,3.44Zm.07-.26c1.81,0,2.76-1.42,2.76-3.12a2.56,2.56,0,0,0-2.46-2.8c-1.57,0-2.74,1.41-2.74,3.29a2.42,2.42,0,0,0,2.43,2.63Zm1.55-3.86s-.1.08-.13.08l0,0-.34-.7a.48.48,0,0,0-.09-.13.37.37,0,0,0-.25-.09.87.87,0,0,0-.64.36,2.61,2.61,0,0,0-.45,1.59c0,1,.48,1.45,1.09,1.45a3,3,0,0,0,.37,0,4,4,0,0,0,.54-.17s0,0,0,.12a.08.08,0,0,1,0,.08,4.17,4.17,0,0,1-.69.26,2.77,2.77,0,0,1-.57.06c-1,0-1.86-.46-1.86-1.68a2.09,2.09,0,0,1,.81-1.71,2.3,2.3,0,0,1,1.45-.5,1.57,1.57,0,0,1,.67.12s0,0,0,.06Z"/><path d="M420.12,256.17h.51a18.1,18.1,0,0,0,2.27-.25.49.49,0,0,0,.29-.23l.45-.75s0,0,.05,0,.16.09.15.12l-.23,1.38c0,.11-.06.14-.16.14-.36,0-1.1,0-2.54,0-.89,0-1.39,0-1.72,0a.29.29,0,0,1-.32-.22.83.83,0,0,1-.07-.24.09.09,0,0,1,0-.07c1.4-1.2,3-2.67,3-4.42,0-1.07-.56-1.59-1.28-1.59a1.81,1.81,0,0,0-1.42.74s0,0,0,0a.24.24,0,0,1-.07-.27,2.78,2.78,0,0,1,2.33-1.14,2.08,2.08,0,0,1,2.26,2.16c0,1.9-2,3.57-3.05,4.36l-.46.29Z"/><path d="M427.35,256.61c-1.48,0-2.64-1.19-2.64-3.34,0-2.4,1.18-3.93,3-3.93s2.61,1.5,2.61,3.3c0,2.42-.92,4-2.95,4Zm-.9-3.41c0,2,.42,3.19,1.14,3.19s1-1.09,1-3.63c0-1.91-.33-3.19-1-3.19s-1.09,1.22-1.09,3.61Z"/><path d="M432.18,256.17h.51a18.1,18.1,0,0,0,2.27-.25.49.49,0,0,0,.29-.23l.45-.75s0,0,.05,0,.16.09.15.12l-.23,1.38c0,.11-.06.14-.16.14-.36,0-1.1,0-2.54,0-.89,0-1.39,0-1.72,0a.29.29,0,0,1-.32-.22.83.83,0,0,1-.07-.24.09.09,0,0,1,0-.07c1.4-1.2,3-2.67,3-4.42,0-1.07-.56-1.59-1.28-1.59a1.81,1.81,0,0,0-1.42.74s0,0,0,0a.24.24,0,0,1-.07-.27,2.78,2.78,0,0,1,2.33-1.14,2.08,2.08,0,0,1,2.26,2.16c0,1.9-2,3.57-3.05,4.36l-.46.29Z"/><path d="M438.46,253.25a3,3,0,0,1,.18-.41,1.77,1.77,0,0,1,1.6-.93,2,2,0,0,1,2.05,2.17,2.58,2.58,0,0,1-2.79,2.53,2.53,2.53,0,0,1-2.73-2.76,4.74,4.74,0,0,1,1.31-3.31,5,5,0,0,1,2.74-1.42c.08,0,.18.06.18.1s0,0-.06.05a3.48,3.48,0,0,0-1.79,1.57,5.32,5.32,0,0,0-.67,1.92,2.89,2.89,0,0,0-.06.46Zm1.17,3.14c.73,0,1-.87,1-2.15,0-1-.3-1.84-.9-1.84s-1,.57-1.16,1.47a.75.75,0,0,0-.05.31c0,1.31.44,2.21,1.13,2.21Z"/></svg>