<svg id="Layer_2" data-name="Layer 2" xmlns="http://www.w3.org/2000/svg" viewBox="0 0 1920 1080"><defs><style>.cls-1{font-size:314.92px;fill:#1e5782;font-family:Fishel-Regular, Fishel;}.cls-2,.cls-4{fill:#ef4444;}.cls-2{letter-spacing:0em;}.cls-3{letter-spacing:0em;}.cls-15,.cls-17,.cls-5{font-size:12px;}.cls-5{font-family:NuevaStd-Bold, Nueva Std;font-weight:700;}.cls-6{letter-spacing:0.04em;}.cls-7{letter-spacing:-0.02em;}.cls-8{letter-spacing:0.01em;}.cls-9{letter-spacing:-0.01em;}.cls-10{letter-spacing:-0.03em;}.cls-11{font-family:OratorStd, Orator Std;font-weight:400;}.cls-12{letter-spacing:0.02em;}.cls-13{letter-spacing:-0.04em;}.cls-14{letter-spacing:-0.04em;}.cls-15,.cls-18{font-family:KozGoPr6N-Regular-90ms-RKSJ-H, Kozuka Gothic Pr6N;}.cls-16{letter-spacing:-0.04em;}.cls-17{font-family:AdobeMingStd-Light-B5pc-H, Adobe Ming Std;}</style></defs><text class="cls-1" transform="translate(208.85 535.79) scale(1.04 1)">P<tspan class="cls-2" x="200.29" y="0">O</tspan><tspan class="cls-3" x="406.56" y="0">R</tspan><tspan x="616.93" y="0">TO</tspan></text><text class="cls-1" transform="translate(321.2 789.17) scale(1.04 1)">FOLI<tspan class="cls-4" x="644.01" y="0">O</tspan></text><text class="cls-5" transform="translate(631.4 866.43)"><tspan class="cls-6">W</tspan><tspan x="11.35" y="0">ha</tspan><tspan class="cls-7" x="24.98" y="0">t</tspan><tspan x="29.66" y="0" xml:space="preserve"> is </tspan><tspan class="cls-8" x="43.13" y="0">L</tspan><tspan x="49.56" y="0">o</tspan><tspan class="cls-9" x="56.33" y="0">r</tspan><tspan x="61.45" y="0">em Ipsum</tspan><tspan class="cls-10" x="115.13" y="0">?</tspan><tspan class="cls-11"><tspan x="0" y="19">Lorem</tspan><tspan class="cls-12" x="36" y="19"> </tspan><tspan x="43.48" y="19">Ipsum</tspan><tspan class="cls-12" x="79.48" y="19"> </tspan><tspan x="86.96" y="19">is</tspan><tspan class="cls-12" x="101.36" y="19"> </tspan><tspan x="108.84" y="19">simply</tspan><tspan class="cls-12" x="152.03" y="19"> </tspan><tspan x="159.51" y="19">dummy</tspan><tspan class="cls-12" x="195.51" y="19"> </tspan><tspan x="202.99" y="19">text</tspan><tspan class="cls-12" x="231.79" y="19"> </tspan><tspan x="239.27" y="19">of</tspan><tspan class="cls-12" x="253.67" y="19"> </tspan><tspan x="261.15" y="19">the</tspan><tspan class="cls-12" x="282.75" y="19"> </tspan><tspan x="290.23" y="19">printing</tspan><tspan class="cls-12" x="347.83" y="19"> </tspan><tspan x="355.31" y="19">and</tspan><tspan class="cls-12" x="376.91" y="19"> </tspan><tspan x="384.39" y="19">typesetting </tspan><tspan x="0" y="30">industry.</tspan><tspan class="cls-13" x="64.8" y="30"> </tspan><tspan x="71.51" y="30">Lorem</tspan><tspan class="cls-14" x="107.51" y="30"> </tspan><tspan x="114.22" y="30">Ipsum</tspan><tspan class="cls-13" x="150.22" y="30"> </tspan><tspan x="156.93" y="30">has</tspan><tspan class="cls-14" x="178.53" y="30"> </tspan><tspan x="185.24" y="30">been</tspan><tspan class="cls-13" x="214.04" y="30"> </tspan><tspan x="220.75" y="30">the</tspan><tspan class="cls-14" x="242.35" y="30"> </tspan><tspan x="249.06" y="30">industry&apos;s</tspan><tspan class="cls-13" x="321.06" y="30"> </tspan><tspan x="327.77" y="30">standard</tspan><tspan class="cls-13" x="385.36" y="30"> </tspan><tspan x="392.08" y="30">dummy</tspan><tspan class="cls-14" x="428.07" y="30"> </tspan><tspan x="434.79" y="30">text </tspan><tspan x="0" y="41">ever since the 1500s, </tspan></tspan></text><text class="cls-15" transform="translate(216.28 256.45)">ﾑ乃ﾑ<tspan class="cls-16" x="24" y="0">ﾉ</tspan><tspan x="29.52" y="0">ズﾑ刀　丂ﾑﾌﾑ　ｲ乇ﾒｲ　ﾉ刀ﾉ</tspan></text><text class="cls-17" transform="translate(210.3 234.21)">丨几丨　卄卂几ㄚ卂　<tspan class="cls-18" x="120" y="0">丂</tspan><tspan x="132" y="0">乇乃ㄩ卂卄　ㄒㄩㄥ丨</tspan><tspan class="cls-18" x="252" y="0">丂</tspan><tspan x="264" y="0">卂几卂匚卂</tspan><tspan class="cls-18" x="323.52" y="0">ズ</tspan></text><text class="cls-5" transform="translate(412.04 256.51)">©2026</text></svg>