<svg id="Layer_4" data-name="Layer 4" xmlns="http://www.w3.org/2000/svg" viewBox="0 0 1920 1080"><defs><style>.cls-1{fill:#262626;}.cls-2{fill:#fdfdfd;}</style></defs><path class="cls-1" d="M1252.72,876.79c-.93-7.24-1.67-14.52-2.92-21.7-.26-1.52-2.33-2.73-3.57-4.09-.79,1.51-2.07,3-2.31,4.55-1.41,9.17-2.4,18.41-3.94,27.55-.33,2-2.33,3.65-3.56,5.47-.63-2-2-4-1.77-5.9,1.37-10.46,2.61-21,4.91-31.25,1.93-8.57,5.3-9.62,11.66-3.89,4.27,3.84,4.2,1.13,5-2,14.16-56.32,43.57-104.91,77.09-151.36,10.49-14.53,21.77-28.49,32.15-43.09,1.85-2.61,2.11-7.28,1.39-10.63q-8.22-38-17.35-75.73c-.7-2.89-4.21-5-5.89-7.77-.79-1.31-.31-3.38-.41-5.1,6.73.18,4.3-4.51,4.1-7.87-1.51-25.05-1-50,4.73-74.56a65.12,65.12,0,0,1,7.79-19.45c5.74-9.24,14.58-8.21,19,1.6a31.46,31.46,0,0,1,2.5,8.25c5.05,33.37,22.33,61,41,88,2.74,4,5.69,7.76,8.74,11.47,7.82,9.53,6.71,8.72,13.47.46,9.52-11.65,18.92-23.48,27.38-35.91,13.68-20.11,26.81-40.61,39.66-61.27,5.81-9.34,5.25-9.69-3.39-15.63a10.52,10.52,0,0,1-1.6-1.05c-2-2-3.89-4.09-5.83-6.15,2.87.67,5.93.91,8.58,2.09,11.91,5.33,12.1,5.54,18-6.23,8.54-17.18,16.6-34.59,25.12-51.78,2.83-5.71,5.85-11.49,9.77-16.46,10.93-13.85,27.55-16,40.32-3.93a81.92,81.92,0,0,1,18.54,26.34c5.52,12.79,8.19,26.82,12,40.33,1.11,3.9,1,8.73,7.13,8.44a8.62,8.62,0,0,1,.23,3.09c-.86,3.47-3.1,7-2.73,10.31,3.41,30.54,7.26,61,11,91.53.12.95.08,1.93.2,2.88.92,7.42,1.82,8,7.89,3.7,12.31-8.66,24.31-17.76,36.74-26.25,14.8-10.1,29.72-20.07,45-29.43,6.47-4,13.82-6.7,21.07-9.11s10.2-.1,10.56,7.63a40.19,40.19,0,0,1-1.56,13.27c-18.09,60.13-45.82,115.3-85.79,164-5,6.08-11.54,11.13-18.08,15.63-6.24,4.29-8.57,9.29-8.63,16.81-.32,45.52.08,91.1-2.16,136.53-1.18,23.79-6.7,47.44-11.43,70.92-1.65,8.23-5.86,16.37-10.51,23.49-17.87,27.37-54.19,29.35-73.79,3.28-8.91-11.84-15.61-25.74-21.24-39.54-7.61-18.62-12.89-38.18-19.87-57.07a98.5,98.5,0,0,0-11.53-22c-8.61-12.36-21.4-17.17-35.46-12.56a177.94,177.94,0,0,0-39,17.86c-22.76,14.31-44.19,30.71-66.71,45.42-19.8,12.94-40,25.32-60.72,36.76-8.17,4.52-18,7.06-27.3,8.26-14.27,1.84-23-6.22-24.43-20.66-.53-5.4-.09-10.89-.09-16.34Zm397.7-245.59c-3.42-41.54-6.59-83.06-10.38-124.53-1.66-18.16-4.65-36.2-6.92-54.31-.63-5.06-2.78-6.6-7.75-4.77-6.6,2.42-13.37,4.35-20,6.53-9.31,3-19.09,5.05-16.32,19.16a8.68,8.68,0,0,1-9.27,10c-3.65-.28-8.23-3.46-10.24-6.68-3.11-5-4.25-11.16-6.46-16.74-1.91-4.84-1.54-7.61,4.57-8.58,12.64-2,25.25-4.35,37.73-7.17,27.84-6.29,27.79,1.7,19.28-30.71-4.3-16.39-10.75-32.33-23.28-44.64-10.39-10.19-23.08-10.2-33.08.33-4.32,4.55-7.66,10.25-10.55,15.89-8.29,16.24-16.07,32.74-24.17,49.07-7.13,14.36-7.21,14.32,6.4,21.9.56.32,1.49.5,1.63.95.73,2.24,2,4.68,1.68,6.8-.78,4.41-3.88,3.15-6.5,1.6-3-1.79-5.76-4.22-9-5.55-2.2-.92-5-.44-7.52-.59,1.63,1.57,3.69,2.88,4.79,4.76,2,3.32,5.11,7.36,4.47,10.42-.77,3.68-4.56,7.26-8,9.49-.9.59-5-4.14-8-6-1.14-.75-3.64-1.15-4.36-.48-1.82,1.7-3,4.08-4.4,6.24-21.24,33.63-43.66,66.39-70.3,96.06-2.49,2.77-4.55,5.94-6.81,8.92,2.92,1.81,5.83,3.62,8.76,5.42.54.33,1.42.47,1.63.93a34.65,34.65,0,0,1,1.31,4.08c-1.42.35-2.86,1-4.26.94a6.43,6.43,0,0,1-3.46-1.56c-7.67-6.36-13.16-3.22-17.87,3.9a32.85,32.85,0,0,1-2.58,2.85q-22.37,26.42-44.65,52.89c-1.33,1.59-1.85,3.87-2.74,5.83a36.83,36.83,0,0,0,6.1,1.47c10.86.81,21.75,1.35,32.61,2.18,35.47,2.71,71.09,4.23,106.35,8.59,44.75,5.54,90,8.15,133.83,20.06,6.92,1.88,7.85-1.21,7.76-7.18C1650.23,669.74,1650.42,650.51,1650.42,631.2Zm1.3,107h-.42c0-8.65-.13-17.31,0-26,.14-7-3.34-10.59-9.89-11.9-2.5-.51-4.91-1.57-7.43-1.91q-71.87-9.75-143.76-19.29c-5-.65-10.07,0-15.11.07,2.11,4.13,4.19,8.29,6.34,12.4,9.93,18.94,1.77,34.76-19.29,37.35a17.08,17.08,0,0,1-3.83.27c-5.79-.59-7.26,2.41-6.61,7.53a40.71,40.71,0,0,1,.15,6.72c-.57,14.67-10.35,26-26.23,30.51-14,4-25.69-.24-34-13a98.9,98.9,0,0,1-8.41-17.2c-4.28-10.75-3.84-10.51-12.57-3.69a147,147,0,0,1-21.5,14.21c-7.08,3.75-13.68,1.25-19-4.65s-6.9-12.77-2.35-19.33a103.59,103.59,0,0,1,15.21-17.08c7.77-7.13,7.83-6.68,2.31-16-2.86-4.82-4.62-5.91-8.36-.67a654,654,0,0,0-62.95,108.72c-4.74,10.41-4.41,10.86,7.08,14.12,29.66,8.43,58.61,18.52,85,34.9,4.33,2.7,7.69,1.65,11.41-1,12-8.5,24.08-17,36.31-25.24,16-10.75,32.09-21.25,50.94-26.41,23.81-6.51,39.91.57,50.56,22.8a241,241,0,0,1,11,27.64c2.34,7,5.77,8.39,12.65,6,23-7.88,46.79-10.48,70.94-10.72a90,90,0,0,0,11.51-.38c1-.13,2.43-2.8,2.19-4-1.55-7.64-7.76-5.93-13-6-18.43-.4-26.8-13.2-20.53-30.64a18.77,18.77,0,0,0,.36-11.61c-4.44-12.65-1-21.44,11.75-25.57,15.85-5.12,29.53,0,41.88,10.14,1.84,1.5,3.85,2.8,5.78,4.19.6-2.63,1.69-5.25,1.73-7.88C1651.82,763.18,1651.72,750.69,1651.72,738.21Zm-2.38-169.15,2,.79q1.85,40.78,3.67,81.57c.41,9.61.73,19.22.9,28.82.08,4.43,1.92,5.36,5,2.6,6.93-6.13,14.41-11.89,20.23-19,38.06-46.42,63.84-99.38,81.54-156.42,1.67-5.38.94-11.51,1.32-17.29-5.61,1.65-12.06,2.06-16.71,5.16q-46.29,30.91-91.78,63C1652.49,560.45,1651.37,565.4,1649.34,569.06ZM1363.68,669.13l-7.64,3.16a71.16,71.16,0,0,1,8.43,3.08c2.28,1.14,4.22,3,6.3,4.51a63.46,63.46,0,0,1-7,.86c-1.21,0-2.48-1.19-3.63-1.06-3.68.41-9,0-10.54,2.13-2,2.73-1.56,7.8-.85,11.62.46,2.47,3.1,4.69,5.08,6.69,6.29,6.32,6.05,6.62-.94,12.22-6.42,5.14-12.87,10.52-18.11,16.79-4.18,5-6,11.89-.75,17.61,4.93,5.36,11.68,4.28,16.84.93,8.23-5.33,15.83-11.71,23.31-18.09,6.47-5.53,8-5.1,11,2.9,3.24,8.6,6.53,17.35,11.17,25.21,5.39,9.11,13.77,14.29,25,12,11.9-2.38,20.36-9.23,24.39-20.68,3.89-11,.7-18.26-9.62-24.13-4.34-2.47-8.3-5.48-7.1-11.21a6.66,6.66,0,0,1,4.1-4.29c5.78-1.3,8.64,2.8,11.09,7.15.16.28.29.58.46.85,5,8,8.76,9.1,20.66,6.16,9.82-2.42,14.38-7,14.88-15.05.87-14.14-10.85-30.08-25-31.56C1425.43,673.86,1395.41,671.78,1363.68,669.13Zm249.66,183.06c-10.54,1-24.62,1.73-38.51,3.77-12.28,1.81-24.36,5-36.5,7.68-3.72.83-6.71,2.3-5.12,7.2,7,21.61,13.75,43.36,27.52,61.9,9.34,12.56,22,17.67,37.75,16.24,18-1.62,29.15-12.4,34.32-28,6.2-18.69,9.75-38.27,14.2-57.52,1.26-5.45-1.69-8.55-7.13-9.07C1632.22,853.68,1624.56,853.12,1613.34,852.19ZM1354,566.88c5.65,23.5,11.17,46.5,16.73,69.49.69,2.84,1.71,5.06,4.77,1.61,6.37-7.2,12.86-14.29,19.27-21.44,3.28-3.66.72-4-2.35-4.1-3.84-.06-7.71.11-11.51-.31-1.15-.13-2.25-1.8-3.07-3-.18-.25.95-2.06,1.44-2,6.16.18,13.22-1.12,18.13,1.52,3,1.62,3.32,1.36,4.84-.35,8.72-9.83,17.15-19.93,26.16-29.47,4.89-5.17,4.89-8.47.27-14.43-17.89-23-34.64-46.93-44.56-74.72-3.75-10.51-6.05-21.54-9.41-32.21-1-3.15-3.34-5.86-5.07-8.78-2.6,2.57-6.52,4.69-7.56,7.78-3.47,10.23-7.71,20.7-8.34,31.27-1.23,20.7-.19,41.53-.15,62.31C1353.64,555.79,1366.25,560.15,1354,566.88Zm-99.26,314.64,1.71.35c0,2.24-.12,4.48,0,6.71,1,16.43,9.43,23.32,25.36,19.5,8.6-2.05,17.38-4.91,25-9.3,17.68-10.21,34.8-21.43,52-32.51,7.23-4.67,7.25-5.65-.31-10.18-25.69-15.38-53.3-26-82.42-32.92-6.6-1.56-9.58.76-10.82,6.88Q1260.08,855.79,1254.78,881.52Zm396.06-65.71-.38,0c0-4.81.9-9.83-.22-14.36-1.4-5.61-3-12.76-7.11-15.77a86.44,86.44,0,0,0-26.21-12.8c-7.83-2.35-16.43,0-21.23,7.45-2,3-.67,8.12-.86,12.28,3.06-.54,6.14-1,9.18-1.65.91-.18,1.77-1.24,2.58-1.17,3.18.3,6.33.89,9.5,1.37-1.87,2.56-3.6,5.25-5.69,7.62-.73.82-2.34.93-3.58,1.23-10.32,2.51-14.81,8.46-13.61,18.08,1.16,9.28,8.69,16.15,18.16,14.31s15.29-1.39,18.08,9.56c1.49,5.88,8.19,6,14,5.38s5-5,5.4-8.58C1649.63,831.1,1650.18,823.45,1650.84,815.81Z"/><path class="cls-1" d="M1048.89,731.5c3.95,20.57,8.35,42.54,12.26,64.59.8,4.55-.22,9.42-.4,14.14-3-3.38-6.27-6.59-9-10.17-9-11.61-17.81-23.42-26.9-35-1.17-1.49-3.6-2-5.45-2.94-.14,1.85-.78,3.82-.36,5.52,5.5,22.35,11.14,44.66,16.77,67,1,4,2.22,8,3.08,12.08.21,1-.62,2.22-1,3.34-1-.63-2.27-1.06-2.93-1.94a12.88,12.88,0,0,1-2.07-4.3c-6.24-23.49-12.79-46.9-18.32-70.55-1.25-5.32-.87-14.81,2.15-16.57,6.81-4,11,4.06,15.08,8.59,6.19,6.9,11.57,14.52,17.43,21.72,1.27,1.57,3.13,2.65,4.72,4a38,38,0,0,0-.09-6.32c-2.88-16.71-6.12-33.36-8.7-50.12a57.72,57.72,0,0,1,.24-16.23c.76-5.84,4-7.07,8.26-3a44.85,44.85,0,0,1,7.87,10.79q21.63,39.07,42.94,78.32c5,9.25,5.41,9.72,13.18,2.63a38.2,38.2,0,0,0,9.14-14c4.21-10.68,7.28-21.81,11.12-32.65a45.55,45.55,0,0,1,5.33-10.18c5.75-8.44,10.88-8.3,15.67.54a100.42,100.42,0,0,1,6.91,15.81c6.39,19.12,12.54,38.31,18.65,57.52,1.37,4.3,1.49,9.62,8.43,5.52.92-.55,3.09,1,4.68,1.57-1,1.46-1.88,3-3,4.36-.34.44-1.14.54-1.73.79-12.66,5.26-12.7,5.27-7.74,18.4,2,5.38,4.19,10.72,6.38,16,3.5,8.5,4,8.67,12.7,4.8,3.8-1.68,7.52-3.58,11.41-5,1.16-.43,2.79.45,4.21.73-.8,1.26-1.31,3-2.45,3.68-4.21,2.3-8.44,4.89-13,6.1-6.52,1.72-7,4.94-4.91,10.57,6.47,17.72,12.66,35.56,18.79,53.4a128.43,128.43,0,0,1,4,14.82c.33,1.53-.55,3.32-.87,5-1.3-1.21-3.25-2.17-3.79-3.65-3.17-8.71-6.38-17.44-8.85-26.37-1.74-6.29-4.35-8.85-10.81-5.73-3.15,1.51-6.68,2.23-10,3.46-11.55,4.31-11.64,4.37-7.82,16.5,2.4,7.63,5.34,15.09,7.64,22.75.61,2.05-.26,4.55-.45,6.85-1.59-1.8-3.92-3.34-4.63-5.43-3.09-9.08-6-18.26-8.4-27.53-1.48-5.61-4.65-5.95-9.28-4.52s-8.87,2.76-7.11,9c2.37,8.3,5,16.53,7.19,24.87.59,2.29-.09,4.91-.19,7.38-1.58-1.77-3.93-3.27-4.63-5.34a237.08,237.08,0,0,1-6.61-23c-1.38-6.18-4.94-6.9-9.81-5-4.62,1.84-11.83,1.9-8.86,10.31,2.66,7.54,5.66,15,8.11,22.57.74,2.31.13,5,.14,7.58-1.73-2-4.14-3.76-5-6.09a202.73,202.73,0,0,1-7-20.92c-1.71-6.32-4.92-7.45-10.56-4.76a82.58,82.58,0,0,1-12.55,4.75c-1.73.5-3.84-.34-5.78-.57,1.39-1.5,2.51-3.57,4.22-4.39,3.14-1.51,6.66-2.2,10-3.36,9.57-3.31,9.59-3.35,6.79-12.81-1.18-4-2.72-7.87-3.8-11.88-1.69-6.28-4.33-9.77-11.32-5.59-1.42.85-3.88,0-5.86-.13,1.31-1.49,2.38-3.88,4-4.32,7.25-2,7.59-5.54,4.82-12-3.79-8.78-6.38-18.1-9.22-27.27-1.37-4.41-3.52-5.51-7.8-3.55a106.46,106.46,0,0,1-12.61,4.57c-.92.28-2.2-.59-3.31-.92.5-1.11.72-2.79,1.56-3.21a78.51,78.51,0,0,1,12.27-5.28c5.35-1.6,5-5,3.72-9-1.58-4.88-4.7-2.43-7.71-1.7-9.56,2.35-19.12,5.6-28.82,6.19-5.33.32-11-3.87-16.37-6.36-.71-.33-.48-2.66-.68-4.06,1.19.15,2.64-.1,3.52.5,13.75,9.22,27,3.76,40.32-1.2a11,11,0,0,0,4.08-2.35c5.58-5.76,6.08-5.58,9.22,2.1,1.42,3.5,4.63,9.72,5.38,9.49a101.77,101.77,0,0,0,19.82-8.81c1-.58,0-5.38-.72-8.08-1.65-6.52-3.76-12.91-5.38-19.43-.27-1.1,1-2.56,1.47-3.86.93.75,2.4,1.34,2.71,2.29,2.15,6.68,4.28,13.38,6,20.19,1,4,1.72,8.08,7.18,6.11,4.78-1.73,11.68-2.12,9.89-10.16-1.39-6.25-3.68-12.3-4.91-18.57-.68-3.47,0-7.21,0-10.83,1.71,3.08,4,6,5,9.28a156.51,156.51,0,0,1,4,16.79c1,4.79,3,6,8,4.46,15.76-4.81,16.61-6.22,9.18-21-2.45-4.86-5.06-9.65-7.92-14.28-6.43-10.39-12.53-12.67-23.15-6.28-12.3,7.38-23.71,16.25-35.37,24.67-3.36,2.43-6,5.78-9.42,8.19-1.79,1.28-4.37,1.43-6.6,2.1,1.15-2.12,1.9-4.65,3.54-6.27a137.72,137.72,0,0,1,11.68-10c3.77-3,5-5.9,2.43-10.63-14.57-26.69-28.87-53.53-43.28-80.31a15.45,15.45,0,0,0-2.15-3.18c-1.85-2-3.84-3.91-5.78-5.86Zm132,99.64c-.84-3.66-1.34-6.84-2.31-9.88-4.87-15.22-9.73-30.44-14.87-45.57a158.59,158.59,0,0,0-7.9-19.51c-3.84-7.75-6.36-8-9.68-.43-5.51,12.55-9.9,25.58-14.59,38.48-1.44,3.95-.11,5.06,4.12,3.73,17.06-5.36,22.56-3.05,30.47,12.78,3.43,6.86,6.33,14,9.68,20.88.59,1.23,2.22,2,3.37,2.93C1179.77,833.31,1180.38,832.08,1180.86,831.14Zm-27.59,23.53c3.55,12.15,6.83,23.51,10.28,34.83.29,1,2,2.41,2.51,2.21,7.35-3,15.11-5.56,21.54-10,1.57-1.09-1-8.62-2.14-13.07a88.52,88.52,0,0,0-4-10.78c-6.34-15.68-9.26-16.63-24-7.62C1155.84,851.22,1154.76,853.06,1153.27,854.67ZM1178.36,931c7.81-2.91,14.83-5.14,21.41-8.27,1.55-.74,2.75-4.86,2.19-6.89-2.23-8-5.37-15.69-7.89-23.6-1.5-4.68-4.21-4.43-8.09-3.2-20.72,6.61-20.82,6.68-14.94,28a69.58,69.58,0,0,0,3.08,10C1174.82,928.72,1176.86,929.71,1178.36,931Zm-39.91-29.42c-2.23-8.54-4-16-6.13-23.3-4.84-16.88-4.83-16.66-21.07-9.42-4.77,2.12-6.4,4.47-4.59,9.42,2.51,6.87,4.62,13.88,7.07,20.78,5.44,15.29,8.19,16.16,21.4,6.65C1136.66,904.62,1137.6,902.69,1138.45,901.6Zm19.85-11c-2.41-8.91-5.2-19-7.89-29.16-1-3.85-1.76-8.07-7.3-5.41-4.32,2.06-11.69,1.44-9,10.14,3,9.7,5.64,19.53,8.26,29.34,1,3.65,2.73,6.05,6.66,4.42S1158.16,898.14,1158.3,890.63Zm-9.51,46.16c-2.16-7.49-4.45-15.8-7.07-24-.29-.91-2.79-2.06-3.68-1.69-5.26,2.2-11.1,4-15.1,7.69-1.57,1.45.9,7.58,2,11.46s2.78,7.82,4,11.79,3.67,6.32,7.77,4.49C1141.18,944.52,1147.94,945.17,1148.79,936.79Zm-2-26.29c1.92,7.68,3.8,15.08,5.63,22.49,1.13,4.62,3.63,6.42,8.34,4.47,4.12-1.71,10.26-1.48,8.23-8.8-2-7-3.91-14.09-6.26-21-.83-2.44-.31-7.52-5.53-5.33C1153.11,904.05,1147.76,904.65,1146.81,910.5Z"/><path class="cls-1" d="M1286.12,453.93c-16-2-32.77-4.31-49.62-6.23-14-1.6-27,1.14-39.8,7.83-14.13,7.42-29.17,13.11-43.75,19.69-3.36,1.52-6.46,3.62-9.67,5.45,3.42,1.26,6.77,2.78,10.28,3.71,5.56,1.47,11.3,2.28,16.8,3.92,2.05.61,3.65,2.73,5.46,4.17-2.07.24-4.25,1-6.18.63-10-2.08-19.86-5.21-30-6.5a48.75,48.75,0,0,0-19.45,1.76c-17.46,5.11-34.56,11.42-52,16.6-5.06,1.5-10.84,1.48-16.17.94-6.16-.63-8.47-5.1-5.13-10.32,3.22-5,7.22-10.14,12.08-13.45,20.89-14.2,42.23-27.75,63.4-41.56,2.63-1.71,5.16-3.58,7.74-5.38a81,81,0,0,0-9-2.19c-27.63-3.51-55.25-7.14-82.94-10.11-5-.54-10.65.92-15.29,3-7.54,3.43-14.41,8.29-21.72,12.28-3.06,1.67-6.41,3.31-9.8,3.76-3.55.47-7.29-.51-11-.86.43-3.89,0-8.16,1.53-11.58,1.75-4,5-7.38,7.94-10.76s2.54-4.82-1.7-6.64c-13-5.58-14.91-8.84-9.26-22,7.05-16.41,15.67-32.15,23.73-48.11a22.11,22.11,0,0,1,4.12-5.3c5.54-5.65,9.85-5,11.44,2.72a131.86,131.86,0,0,1,2.58,27.61c-.08,7.14,2.41,10.88,9.1,12.2,22,4.32,43.85,9,65.89,12.8,12.6,2.19,25.45,2.89,38.15,4.57,5.79.76,7.07-.51,4.08-5.83-6-10.6-12-21.18-17.27-32.12a94,94,0,0,1-7-20.8c-.71-3.26.26-8.67,2.5-10.26s7.31-.31,10.48,1.15a45.05,45.05,0,0,1,11.81,8.15c19.36,18.19,38.74,36.37,57.58,55.1,5.83,5.79,12,8.5,20,9.78,19.53,3.14,39.13,6.48,58.2,11.6,8.56,2.3,16.4,8.46,23.68,14,6.19,4.71,11.44,11.6,7.7,19.95C1302.23,455.18,1294,453.54,1286.12,453.93Zm1.11-4.87c2.6-.26,4.72,0,6.36-.76,2.9-1.33,8-3.79,7.78-4.91-.72-3.66-2.69-7.93-5.58-10.08-2.73-2-7.25-2.34-11-2.25-19.86.44-39.7,1.47-59.56,1.84-13.24.24-15.71-2.2-20-14.72-2.23-6.55-4-14.2-8.53-18.87-18.29-18.84-37.45-36.84-56.59-54.83-4.62-4.33-10.24-7.68-15.69-11-3.45-2.09-6.6-1.5-5.31,3.62,1.46,5.85,2.83,11.89,5.47,17.24,6.63,13.47,14.13,26.51,20.94,39.89,3.71,7.28,2.21,9.23-6,8.33-11.46-1.25-23-2.38-34.31-4.29-25.22-4.27-50.48-8.45-75.49-13.75-12.73-2.7-14-5.75-14.41-18.89-.25-7.35-.5-14.71-1-22.06-.09-1.3-1.39-2.53-2.13-3.79-1,.73-2.26,1.27-2.94,2.22-11.88,16.48-21.35,34.15-26.55,53.93-1.6,6.1.43,9.63,6.84,11,19.09,4,38.17,8,57.2,12.32,14.34,3.25,27.5,2.11,40.46-6,4.4-2.75,11.86-2.21,17.49-1.06,12.83,2.62,25.43,6.38,38,10.06,3.43,1,6.47,3.37,9.69,5.11-2.81,2.44-5.35,5.32-8.48,7.25-23.15,14.27-46.53,28.18-69.6,42.59-6.74,4.22-12.88,9.48-18.91,14.7-2,1.69-2.68,4.78-4,7.23,2.94.75,6,2.41,8.79,2,6.63-.87,13.47-1.86,19.64-4.28,37.49-14.69,75.18-28.95,112-45.12,18.39-8.07,36.41-11.19,55.94-8.14C1261.19,445.68,1274.55,447.32,1287.23,449.06Zm-160.54-20c4.77,0,7.33.06,9.88,0a32.82,32.82,0,0,0,3.66-.5c-1.19-.85-2.27-2.1-3.59-2.48-12-3.37-23.83-7.36-36-9.5-5.49-1-11.67,1.72-17.46,3.07-1.3.31-2.3,1.94-3.43,3,1.47.56,2.91,1.45,4.43,1.63C1099.06,426,1114,427.63,1126.69,429.06Zm-118-12.5c-9.69-.62-23.37,11.32-23.53,18.74,0,.69,2.69,2.35,3.49,2,7-3,14.07-6,20.81-9.58,3.84-2,7.13-5.09,10.67-7.69Zm232.49,10.67c5,.13,12.86-6.14,14-11.57a3.86,3.86,0,0,0-2.1-3.13q-10.65-2.38-21.43-4.09a4,4,0,0,0-3.18,2.21C1226.61,417,1234.5,427.07,1241.14,427.23Zm-29.46-20.85c-.35.12-3.42,1-3.38,1.23,1.15,5.2,1.53,11.1,4.41,15.2,2,2.86,7.51,3.37,11.54,4.62.65.2,2.32-1,2.62-1.91C1228.91,419.49,1219.54,406.63,1211.68,406.38Zm59.44,20.07c.63,0,1.27.05,1.9,0,4.45-.43,8.89-.89,13.34-1.35-4.36-2.38-8.58-5.1-13.13-7-5.14-2.21-10.57-3-15,1.78-1.21,1.31-1.7,3.28-2.52,4.95,1.62.56,3.23,1.47,4.88,1.59C1264.11,426.61,1267.62,426.44,1271.12,426.45Z"/><path class="cls-1" d="M1237.57,228.62c-19.24-1.74-37.13-6-53.43-15.78-10.39-6.22-19.23-14.3-22.66-26.31-2-6.9-4.93-5.75-9.45-3.15-16.62,9.57-34.28,9.92-52,4.29a44.42,44.42,0,0,1-16.88-10.46c-11.57-11.32-11.73-27.55-1.14-39.85,7.92-9.19,18-15.11,29.53-18.86,3.26-1,7.71-3.39,8.55-6.1,5.3-17.05,17.08-28.55,32.9-33.91,17.28-5.85,28.09-15.53,36.94-31.8,13.55-24.9,49.79-31.15,77.52-15.41,10.45,5.93,18.2,12.61,32.79,8.51,14.9-4.2,37.09,16.26,34.69,36.34-.82,6.88-.9,11.08,8.15,11.06,7.71,0,11.24,6.35,13.3,13.23,6.37,21.25-7.21,46-29.7,51.29-9,2.13-10.73,5.63-11.36,14.26-2,28.11-19.32,45.27-44.38,54.82C1260.37,224.83,1248.73,226.1,1237.57,228.62Zm-4-6.91c27,1.59,47.76-8.21,64.81-26.47A47.9,47.9,0,0,0,1311.33,163c.15-5.55-1.92-8.64-8.1-9.66a73.46,73.46,0,0,1-20-6.11c-6.68-3.24-8.85-10.82-5.49-16.27,2.35-3.8,6.67-6.6,3.91-12.06-.29-.57,1.11-2,1.72-3,.65.94,1.37,1.85,1.94,2.84,1.07,1.83,2,5.25,3.09,5.33,12.38.82,18.75,8.92,23.11,19,2.24,5.2,5,6.09,10.32,5.14,19.79-3.53,31.62-18.93,30.27-40.22-1-15.11-7.19-19.17-21-13.82a29,29,0,0,1-5.23,1,29.73,29.73,0,0,1,.11-5.43c.29-1.53,1.26-2.93,1.87-4.41,7.55-18.24-7-40.39-27-41.09-10.07-.36-12.86,2.55-12,12.44.16,1.91.69,4.07,0,5.69-.75,1.81-2.47,4-4.15,4.44s-4.93-.69-5.65-2.07c-1.34-2.63-2.67-6.45-1.71-8.86,3.45-8.73-1.45-13.38-7.47-17.57-27.54-19.14-63.67-11.32-80.64,17.57-2,3.39-2.65,7.58-3.92,11.4,3.69.46,7.4.87,11.08,1.4,7.84,1.12,16.06,1.23,23.34,3.9,3.87,1.43,8.37,7.3,8.42,11.22s-4.21,9.73-8.08,11.57a50.39,50.39,0,0,1-20.29,4.42c-13.94.27-20.57-5.66-22.59-19.42-.71-4.81-2.88-5.4-6.29-3.87-9,4-18.67,7.23-26.49,12.94-7,5.08-12.15,12.8-17.41,19.88-2.91,3.92-1.45,6.62,4.09,7.57,5.18.9,10.66,2.62,15,5.53,7.22,4.88,8.33,13.41,3.66,19.25a13.92,13.92,0,0,1-20.5,1.19,33.42,33.42,0,0,1-8-13.75c-1.89-6.39-5.43-7.89-10.53-5.25-7,3.63-14.36,7.33-20.25,12.49-16.78,14.7-14.73,33.17,5.07,43.62,19.41,10.25,39,7.48,58-2.2,4.68-2.38,6.11-6.44,6.56-11.82a51.88,51.88,0,0,1,5-17.17c.92-2,5.7-3.86,7.8-3.13s4.71,5.16,4.21,7.28a47.82,47.82,0,0,1-6.55,15.57c-7.18,10.62-7.72,15.94.52,25.72a66.48,66.48,0,0,0,14.26,12.68C1200.32,216.67,1217,221.73,1233.58,221.71ZM1198.51,71.92c-7.74,1.43-15.1-1.31-17.23,7-1.37,5.34,5.27,13.21,12.3,15.17,9.14,2.56,17.81.91,25.65-4.14,6.16-4,6-9.4-.7-12.26C1211.61,74.76,1204,73.44,1198.51,71.92Zm104.2,78.68c1.75-1.84,4.62-3.49,4.56-5-.21-5.7-10.41-16-16.21-16.06-3,0-7.34,1.83-8.54,4.15-1,2,.63,7.2,2.71,8.61C1290.13,145.61,1296,147.54,1302.71,150.6Zm-173.54-30.42c-1.58,2.33-3.72,4.06-3.88,6-.52,6.14,5.25,14.46,11.14,14.83,3.33.2,7.72-2.19,10-4.84,1.16-1.36-.37-7-2.37-8.62C1140.19,124.48,1135.15,123,1129.17,120.18ZM1165,160.71v5.49c.93-.74,2.34-1.3,2.71-2.25,1.43-3.72,2.55-7.56,3.69-11.39,0-.14-.93-.58-1.43-.89C1168.08,155.14,1166.17,158.6,1165,160.71ZM1284,62c.41-1.93,1-3.06.76-4-.18-.78-1.28-1.35-2-2a14.56,14.56,0,0,0-.89,3.52C1281.9,60.07,1282.85,60.67,1284,62Z"/><path class="cls-1" d="M1151.9,654.38c-12.47-.6-25-.72-37.38-1.94-12.94-1.27-14.84-3.7-14.52-16.35a149.37,149.37,0,0,1,2-22c.54-3.08,3-7.78,5.19-8.15,3-.5,7.21,1.73,9.72,4,3.95,3.65,6.52,8.78,10.44,12.47,2.48,2.34,6.44,4.7,9.55,4.48,9.88-.71,19.66-2.67,29.49-4.06,4.84-.69,4.18-3.42,3.16-6.93-3.74-12.88-7.41-25.79-10.75-38.78-1.5-5.86-3.45-13.68,2.84-16.56,6.7-3.08,10.55,4.37,13.8,9.22,8.54,12.75,17,25.55,24.67,38.86,4.13,7.21,8.71,10.49,17.36,10.45,18.23-.07,36.47,1.13,54.71,1.92a20.94,20.94,0,0,1,6.53,1.38c5.85,2.25,6.47,6.06,1,9.57a57.26,57.26,0,0,1-14.78,6.67c-13.5,4-27.09,7.77-40.81,10.91-7,1.59-8.82,4.69-7,11.41,2.1,7.71,3.51,15.61,5.07,23.46a22.06,22.06,0,0,1,.56,7.6c-.37,2.33-1.9,4.46-2.93,6.67-2.19-1-5.17-1.47-6.43-3.18-5.5-7.45-10.85-15.06-15.62-23-12.64-21-12.51-21.08-37.22-19.54l-8.64.54ZM1104,631.5c.52,14.64,1.24,16,16.26,16.38,19.19.48,38.43.44,57.59-.54,8.33-.42,13,1.94,16.83,9.18,5.71,10.7,12.46,20.85,18.87,31.17.59.95,1.94,1.43,2.94,2.13.18-1.14.69-2.34.49-3.4-1.16-6-2.54-11.9-3.76-17.85-4.77-23.4-6-19.47,15.59-24.83,6.89-1.7,10.28-3.71,8.8-11.94-1.16-6.51-3.32-8.67-9.66-8.07-5.08.49-10.29-.45-15.36.09-7.15.75-10.95-2.54-14.33-8.46-7.61-13.33-15.67-26.41-24.06-39.25-2.27-3.47-6.39-5.71-9.66-8.52-.18,4.53-1.46,9.36-.34,13.54,3.49,13,7.69,25.72,12,38.41,1.82,5.32.65,7.81-5,8.51-12.07,1.51-24.14,3.08-36.16,4.87-5.74.86-8.92-2.26-11.86-6.35-3.16-4.41-6.16-9-9.76-13-2.87-3.2-6-2.4-7,1.87C1105.36,620.72,1104.83,626.14,1104,631.5Zm156.55-6.71c-6.1,0-10.44-.77-14.26.31-2,.58-4.67,4.74-4.24,6.66.55,2.51,4.4,6.58,5.91,6.21,8.89-2.15,17.52-5.38,26.2-8.35.79-.26,1.33-1.25,2-1.9a8.82,8.82,0,0,0-2.46-1.29C1268.7,625.73,1263.67,625.17,1260.57,624.79Z"/><path class="cls-1" d="M1596.72,261.79c10.08,2.56,20.38,3.51,29.1,7.73,17.61,8.54,36.25,9.64,55.06,11.24a117.91,117.91,0,0,1,22.64,4.09c3.88,1.12,7.06,4.61,10.56,7-3.2,2.71-6,6.63-9.68,7.93-21.11,7.45-42.35,14.6-63.74,21.23-22,6.82-44.21,13-66.36,19.33-9.4,2.69-13.67,1.48-18.5-7.14a240.31,240.31,0,0,1-13.32-28.54c-1.09-2.74-.46-8.63,1.2-9.47,2.79-1.4,7.57-.94,10.55.59a128,128,0,0,1,18.52,12c5.83,4.42,11.57,4.84,17.91,1.69q10.74-5.32,21.56-10.54c4.46-2.16,4.8-4.33.63-7.45-7.19-5.37-14.38-10.79-21-16.77-2.55-2.28-3.68-6.15-5.46-9.29Zm6.44,6.69-7,1.76c1.08,1.51,1.88,3.39,3.3,4.46,6.63,5,13.62,9.57,20.11,14.76s6.38,7.08-.45,11.28-14.29,7.2-21.1,11.35c-11.74,7.16-22.12,5.93-32.3-3.2-4-3.56-8.9-6.25-13.76-8.6-3.94-1.91-6.71-.19-4.65,4.36,3.93,8.7,8.47,17.13,12.72,25.69,2.55,5.16,6.36,6.42,11.89,4.84,17.53-5,35.18-9.55,52.69-14.6a12.34,12.34,0,0,0,6.72-4.87c9-14.88,23.13-18.31,38.34-15.34,11.64,2.26,21.44-.83,31.55-4.76,1.85-.72,3.26-2.59,4.88-3.92-1.88-1-3.69-2.62-5.66-2.86-12.7-1.55-25.48-2.48-38.14-4.25a185.26,185.26,0,0,1-25.1-5.25C1625.26,276,1613.53,271.82,1603.16,268.48ZM1669,305.37a12.27,12.27,0,0,0-2.81-1c-9.45-.41-18.29,1.35-25.7,7.68-.73.63-.77,2.06-1.14,3.13.91.09,1.92.5,2.72.24q12.17-3.93,24.26-8.09C1667.13,307.09,1667.74,306.36,1669,305.37Z"/><path class="cls-1" d="M1390.36,983.4c1.32-11.55,2.57-21.39,3.48-31.26.21-2.3-.24-6.55-1.19-6.79-11-2.85-2.46-4.33.14-6.75a11.75,11.75,0,0,0,3.35-6.1A72.89,72.89,0,0,0,1397,921c.19-6.69,3.6-10.5,10-12.27,19.66-5.49,39.23-11.35,58.95-16.64,9.5-2.54,9.87-2,8,8-2.34,12.89-5.42,25.65-7.39,38.59-.63,4.18-5.25,11.32,4.59,12.09-.35,1.43-.49,4-1.09,4.11-6.89,1.26-8.25,6.23-8.52,12-.33,7.15-4,10.73-11.12,11.95-17.62,3-35.19,6.38-52.74,9.78C1391.51,989.87,1389.13,987.9,1390.36,983.4Zm6-10.36c-.39,11.24-.3,11.35,11,9.07a114,114,0,0,0,11.11-2.75c5.74-1.78,5.46-6.81,4.6-11.06-.23-1.13-4.92-1.35-7.56-2l-6.7-1.66c2-1.18,3.92-2.95,6.1-3.43,9.33-2.06,15.56-12.8,12-21.64a4.42,4.42,0,0,0-3.38-2c-17.16-.35-23.58,5.26-25.63,22.14Q1397.14,966.38,1396.31,973Zm38.34-49.33c-1,4.83,1.15,6.18,6.3,4.59a47.74,47.74,0,0,1,11.18-2.21c9.53-.52,13.41-5.57,14.87-14.75,2.32-14.52,2.47-14.76-12.16-10.81-2.14.57-4.29,1.16-6.43,1.77-12,3.39-12,3.39-13.34,16C1434.91,919.88,1434.82,921.47,1434.65,923.71Zm-3.36,26.75c-1.11,5.25,0,8.5,7.3,6,3.86-1.33,8.17-1.33,12.2-2.26,7.4-1.71,15.54-16,11.49-22.44-1.35-2.15-9.36-.18-14.32,0a14.28,14.28,0,0,0-2.76.78C1432,935.81,1432,935.81,1431.29,950.46Zm-.4-36c.82-4.67-.41-7.32-6.58-5.05-4.44,1.63-9.2,2.4-13.74,3.79-6.15,1.88-12.31,16.25-9.33,21.81a4.44,4.44,0,0,0,3,1.67C1419.17,938.87,1430.66,929.56,1430.89,914.47Zm-3.58,57c1.59,2.25,3,5.36,3.8,5.21,7.76-1.38,15.69-2.64,22.94-5.53,2.11-.83,2.3-6.75,3-10.4.1-.49-1.82-2.09-2.58-1.95-7.5,1.36-15.11,2.51-22.35,4.82C1430.06,964.32,1429.07,968.49,1427.31,971.5Z"/><path class="cls-1" d="M1458.47,286.36l-13.77-4.53c4.66-.94,9.31-2.56,14-2.68,12.53-.33,22.93-4.27,28-16.44,4.83-11.58,2.24-22.58-4.75-32.73-2.65-3.85-5.69-6.06-10.38-3.25a1.67,1.67,0,0,1-.93.22,85.11,85.11,0,0,1-10.86-1c-.52-.1-1.13-4.49-.51-4.86,3.62-2.12,7.54-5,11.45-5.09,8.94-.34,12.59-4.32,8.31-12.25-2.93-5.44-7.21-11-12.29-14.28-13.36-8.77-28.49-11.34-44.24-8.41a26.39,26.39,0,0,0-19.74,15.36,156.42,156.42,0,0,0-6.55,18c-1.66,5.12-3.94,7-8.92,3.31-9.42-6.91-15.65-6.93-21.68-.5-5.57,5.94-5.31,14.65.69,22.85.37.52,1,.92,1.2,1.49,1.13,2.86,2.16,5.76,3.23,8.65-2.76-1.93-6.25-3.32-8.15-5.89-5.62-7.62-7.71-16.4-4.18-25.44,2.94-7.53,9.41-11.25,17.34-11.72,3-.17,6.85.11,9,1.81,5.39,4.16,6,.57,7.42-3.35,6.13-17.56,17.81-29.09,36.85-30.52,21.32-1.6,40.24,4.59,53.15,22.58,2.81,3.92,3.35,11.41,1.68,16.1-2.05,5.76-1.46,9.34,2.21,13.57a33.88,33.88,0,0,1,5,8.17C1500.33,255.78,1492.26,282,1458.47,286.36Z"/><path class="cls-1" d="M1060.46,988.35c-3.59-2.71-7.26-4.66-9.74-7.62-2-2.36-4.3-7-3.28-8.75,1.79-3.1,5.91-6.3,9.29-6.56,2.56-.2,5.55,4,8.18,6.44a3.14,3.14,0,0,1,.27,2.76c-5.82,14.53,4.45,26.53,6.47,39.81.54,3.56,5.32,6.28,7.23,9.88,3.67,6.92,6.82,14.13,9.8,21.38.4,1-1.39,2.85-2.17,4.31a24.44,24.44,0,0,1-2.57-3.6c-3-6.26-5.43-12.76-8.75-18.81-2.32-4.22-6.08-4.39-9.4-.71-4.91,5.45-9.58,11.13-14.54,16.54-1.28,1.39-3.28,2.13-5,3.16.27-2-.16-4.57.92-6,4.46-5.82,8.85-11.91,14.3-16.72,4.77-4.22,4.8-8.58,3.62-13.77-1.28-5.6-5.2-8.27-10.53-7.87-19.25,1.46-28-8.55-31.56-26.36-2.24-11.23-6.74-22-10.07-33-.39-1.3.25-2.92.41-4.39,1.31,1.07,3.35,1.88,3.83,3.23,4.86,13.9,9.38,27.91,14.19,41.82,3.42,9.86,16.75,14.73,25.61,9.43C1058.15,992.27,1058.75,990.7,1060.46,988.35Z"/><path class="cls-1" d="M1718.59,747.64c-6.18-1-10.92-1.71-15.61-2.66-9.93-2-9.94-2.1-13.15,7.82-4.22,13,.51,24.49,6.49,35.68.89,1.68,2.34,3.07,3.22,4.75a11.69,11.69,0,0,1,.64,3.51c-1.4-.07-3.67.37-4.08-.31-3.09-5.08-6-10.29-8.58-15.64-2-4.22-3.58-8.69-5.34-13q-4.61,5.22-9.18,10.44c-.64.72-1.08,1.7-1.85,2.18-1.5.95-3.16,1.64-4.75,2.44.19-1.76-.18-3.9.68-5.22,3-4.53,6.38-8.75,9.58-13.13,2.26-3.1,4.68-6.11,6.61-9.4,6.45-10.94,5.7-13-3-21.69-4.87-4.87-8.57-11-12.51-16.68-.68-1,0-2.95.13-4.46,1.33.65,3.11.95,3.88,2,2.26,3.08,4,6.52,6.15,9.71,1.59,2.37,3.09,5.05,5.3,6.71,1.78,1.35,4.55,1.4,6.89,2-.13-2,.06-4.17-.44-6.13-1.72-6.72.26-11.36,5.79-12.91s10.53,1.1,11.86,6.69c1.19,5-.73,8.51-5.4,10.92-2,1-3.47,3.18-5.19,4.82,2.07,1.36,4,3.27,6.24,4,8.77,2.8,17.52,3.42,26.11-1.11,1.38-.73,3.49-.07,5.27-.05-.84,1.61-1.3,4.16-2.58,4.67C1727.19,745.4,1722.3,746.55,1718.59,747.64Z"/><path class="cls-1" d="M1154.5,1047.3l-3.48-1c1.52-1.25,2.87-3.19,4.6-3.64,17.62-4.55,35.21-9.27,53-13.05,9.34-2,16.84-5.27,20.72-14.56a22.72,22.72,0,0,1,3.87-5.46c4.11-4.9,8-10.85,15.62-8.87,8.36,2.17,13.31,8.48,16.33,16.26.48,1.24-.26,2.95-.43,4.44-1.33-.73-3-1.18-3.91-2.25-2.32-2.63-4.15-5.69-6.47-8.32-5.06-5.7-9.29-6.11-14.57-.58-3.91,4.11-6.62,9.35-10.28,13.74-2.56,3.06-5.4,7.12-8.82,8-20.68,5.42-41.56,10.06-62.38,14.94A32.25,32.25,0,0,1,1154.5,1047.3Z"/><path class="cls-1" d="M1261.71,742.5c0-2.24,0-4.47,0-6.71-.14-12.84-1.36-13.76-14.24-13.33-3,.11-6.11-1.63-9.17-2.53,2.85-.87,5.68-1.8,8.55-2.57.89-.23,1.94.15,2.86,0,2.13-.45,4.22-1.07,6.32-1.63-1.37-1.31-3.26-2.38-4-4-1.47-3.14-3.77-7-3-9.76.65-2.21,6-5.05,8.14-4.31,2.65.94,4.3,5.15,6,8.16.67,1.21.32,3,.44,4.52,1.52-1,3.1-1.85,4.56-2.9,3.36-2.44,6.66-4.95,10-7.43-2.19,3.81-3.63,8.46-6.73,11.27-5.79,5.25-6.68,11.37-5.55,18.28,1.25,7.6,5.07,8.74,11.14,3.89,2.63-2.1,5.82-3.5,8.76-5.22-2.19,3.22-4.28,6.53-6.64,9.62a5.43,5.43,0,0,1-3.3,1.83c-10.06,1.34-11.52,7.14-8.8,15.74.5,1.58-1.06,3.81-1.67,5.74-1.34-1.74-3.61-3.36-3.85-5.25-.58-4.39-.19-8.92-.19-13.39Z"/><path class="cls-1" d="M1713.78,679c4.76-2.45,9.48-5,14.28-7.34,7-3.48,14.06-7,21.22-10.17,1-.44,2.76.87,4.17,1.37a17.83,17.83,0,0,1-1.91,3.95c-6.07,7.24-12.61,14.12-18.25,21.67-3,4-5.14,5.58-10,2.76s-10.6-4.3-15.68-6.89c-2.19-1.12-3.69-3.59-5.51-5.45,2.27-.73,4.5-1.61,6.82-2.12a13.69,13.69,0,0,1,3.8.23Zm19.78-1.56c-2.91,1.67-5.89,3.22-8.66,5.1-.57.38-.31,2-.44,3,1.15.11,3,.73,3.33.25,2-2.68,3.72-5.63,5.52-8.49l.78-1.26-1.12.26C1733.17,676.69,1733.37,677.06,1733.56,677.44Z"/><path class="cls-1" d="M1487.2,941.64c1.88-6.7,3.5-14.18,6.12-21.3,2.07-5.63,7.69-7.23,11.12-2.88,5.06,6.42,8.79,13.9,12.82,21.08.61,1.09-.24,3-.41,4.53-1.46-1-3.44-1.78-4.28-3.19-2.44-4.1-4.12-8.67-6.72-12.66-1.42-2.19-4.1-3.56-6.2-5.31-1.51,2.26-3.76,4.34-4.35,6.81-1.09,4.63-.89,9.56-1.89,14.23-.52,2.41-2.47,4.51-3.78,6.75C1488.93,947.37,1488.23,945,1487.2,941.64Z"/><path class="cls-1" d="M1263.65,780.9c-.83,5.35-1.07,10.87-2.63,16-2.25,7.4-7.81,9.7-12.94,4.38-7.17-7.44-12.62-16.55-18.65-25.06-.48-.68.27-2.24.45-3.39,1.18.39,2.89.41,3.45,1.22,3.23,4.73,5.73,10.05,9.4,14.38,3.08,3.63,7.42,6.2,11.2,9.23,1.21-4.41,2.83-8.77,3.52-13.27.62-4.07,0-8.32.41-12.44.17-1.56,1.8-3,2.76-4.42.87,1.55,2.25,3,2.49,4.66a59.09,59.09,0,0,1,.12,8.63Z"/><path class="cls-1" d="M1678.31,332.36c2.59,3.05,4.18,4.19,4.73,5.71,3.41,9.28,6.69,18.61,9.73,28,.48,1.46-.5,3.39-.81,5.1-1.63-1.06-4.18-1.78-4.75-3.25-3.56-9.22-6.8-18.57-9.85-28C1676.84,338.35,1677.76,336.28,1678.31,332.36Z"/><path class="cls-1" d="M1657.28,412.6c.53-1.06,1.3-2.63,2.08-4.2,1.39,1.34,3.65,2.48,4,4.06,2.31,9.6,4.3,19.29,6.09,29,.27,1.46-1,3.21-1.62,4.82-1.45-1.29-3.8-2.36-4.18-3.91C1661.36,432.77,1659.48,423.07,1657.28,412.6Z"/><path class="cls-1" d="M1716.84,434.26c-.88,1.07-1.59,2.56-2.75,3.1-.64.29-2.67-.76-3-1.61-3.82-10.47-7.51-21-11-31.58-.29-.89,1.15-2.68,2.21-3.49.4-.31,2.66.73,3,1.56C1709.23,412.69,1712.91,423.22,1716.84,434.26Z"/><path class="cls-1" d="M1738.54,842.65c-1.09,1-2,2.5-3.3,3-10,4-15.08,12.36-19.7,21.25a11.16,11.16,0,0,1-2,3.21,36.43,36.43,0,0,1-4.48,3c0-1.78-.58-3.77,0-5.32,4.37-11.38,11.37-20.66,22.59-26.08,1.83-.88,4.27-.5,6.42-.7Z"/><path class="cls-1" d="M1655.73,374.75c-.71.91-1.46,2.79-2.52,3a4.13,4.13,0,0,1-3.35-2.28q-3.79-15.76-7-31.67c-.21-1,1.4-2.43,2.17-3.66,1.17.76,3.16,1.32,3.4,2.3C1651,352.94,1653.26,363.52,1655.73,374.75Z"/><path class="cls-1" d="M1272.68,650.28c3.49,1.4,10.12,3.68,10,4.09-1.76,6.35-7.08,2.31-10.92,3.11a4.76,4.76,0,0,1-2.83-.18c-2-1-3.89-2.28-5.82-3.45,2.1-.89,4.16-1.88,6.32-2.6a8.06,8.06,0,0,1,2.83.13C1272.41,651,1272.55,650.65,1272.68,650.28Z"/><path class="cls-1" d="M1257,613.88c-3.62-1.91-6.58-3.47-9.55-5,3.07-.93,6.17-2.66,9.21-2.56,3.66.12,7.27,1.79,10.91,2.8Z"/><path class="cls-1" d="M1311.27,613.74l-10.83-4.08c3.41-1.18,6.78-3.15,10.24-3.3s6.74,1.59,10.11,2.5Z"/><path class="cls-1" d="M1240.46,380.19c-5.87-.7-10-.93-14.07-1.82-1.45-.32-2.53-2.24-3.78-3.43,1.44-.82,2.9-2.36,4.32-2.33a61.39,61.39,0,0,1,12.32,1.49c1.8.41,3.25,2.33,4.86,3.56Z"/><path class="cls-1" d="M1331.19,660.24l-10.16-5c3.67-.87,7.34-2.43,11-2.4,3,0,6,1.93,9,3Z"/><path class="cls-1" d="M1385.53,415.5c1.25-1,2.54-2.68,3.39-2.49,5.55,1.28,11,2.87,16.47,4.63a3.34,3.34,0,0,1,1.46,2.95c-.27,1-1.93,2.36-2.65,2.18-5.55-1.34-11-3-16.47-4.65C1387,417.89,1386.56,416.77,1385.53,415.5Z"/><path class="cls-1" d="M1200.75,374.35c-5.86-.53-9.73-.62-13.46-1.35-1.56-.31-2.84-2-4.24-3.07,1.47-.94,2.94-2.65,4.42-2.65a62.38,62.38,0,0,1,12.34,1.24c1.84.36,3.41,2,5.1,3.11Z"/><path class="cls-1" d="M1681.5,498l-2.25,3.79c-1.3-1.08-3.35-1.93-3.75-3.27a69,69,0,0,1-2.28-12c-.12-1.17,1.23-2.5,1.91-3.76,1.21.81,3.15,1.38,3.48,2.46C1679.81,489,1680.45,493.08,1681.5,498Z"/><path class="cls-1" d="M1451.07,433.51c-1.31.83-2.92,2.68-4,2.41a148.77,148.77,0,0,1-15.33-5.09,3.4,3.4,0,0,1-1.58-2.92c.22-1,1.92-2.45,2.56-2.26,5.76,1.64,11.44,3.58,17.11,5.53C1450.26,431.32,1450.42,432.22,1451.07,433.51Z"/><path class="cls-1" d="M1309.66,389.82c5.15,1.19,9.53,2,13.77,3.3,1.19.36,2,2.05,3,3.14-1.14.86-2.41,2.58-3.4,2.43a138.74,138.74,0,0,1-15.74-3.41c-.9-.25-1.25-2.45-1.85-3.75Z"/><path class="cls-1" d="M1286.59,387.38c-1,.73-2.34,2.36-3.39,2.22a125.6,125.6,0,0,1-15.9-3.16c-.69-.19-.6-3.25-.87-5,6.42,1.21,12.84,2.39,19.24,3.68C1286,385.21,1286.13,386.2,1286.59,387.38Z"/><path class="cls-1" d="M1478.29,441.35c5.47,2,10.54,3.76,15.48,5.81.84.35,1.85,2.53,1.55,2.92-.8,1.05-2.51,2.43-3.43,2.17-5.15-1.45-10.2-3.26-15.18-5.21-.83-.33-1.83-2.3-1.53-3C1475.71,443,1477.18,442.26,1478.29,441.35Z"/><path class="cls-1" d="M1361.59,411.07c-5.34-1.46-9.68-2.47-13.86-3.92-1.2-.42-1.94-2.14-2.89-3.27,1.46-.81,3.08-2.48,4.37-2.26a67.35,67.35,0,0,1,12.81,3.46c1.49.58,2.32,2.86,3.45,4.36Z"/><path class="cls-1" d="M1253.21,517.24a16.68,16.68,0,0,1-3.55,1.25A7.75,7.75,0,0,1,1246,518c-4.57-1.86-9.07-3.89-13.6-5.85.52-1.05,1.27-3.07,1.53-3q8.24,1.94,16.36,4.35C1251,513.73,1251.4,514.88,1253.21,517.24Z"/><path class="cls-1" d="M1288.61,529.67c-2,.63-3.7,1.83-5,1.5a86.31,86.31,0,0,1-12.61-4.29c-1.06-.45-1.8-2.32-2-3.65-.08-.5,1.93-2.08,2.59-1.88,5.12,1.57,10.17,3.4,15.17,5.32C1287.34,526.93,1287.65,528.12,1288.61,529.67Z"/><path class="cls-1" d="M1323.61,545.22c-1.39.61-3.09,2.07-4.21,1.72a118.57,118.57,0,0,1-13.26-5.36,3.67,3.67,0,0,1-1.71-3c.08-.84,1.85-2.37,2.37-2.18,5.33,1.92,10.57,4.09,15.79,6.29C1323,542.89,1323.06,543.81,1323.61,545.22Z"/><path class="cls-1" d="M1320.5,680.93c-6.42-.74-11.17-1.19-15.86-1.93-1-.16-1.74-1.46-2.6-2.23.9-.7,1.8-2,2.69-2a114.67,114.67,0,0,1,15.19.76c1.67.23,3.06,2.45,4.58,3.76Z"/><path class="cls-1" d="M1207.41,504.63c-3-.92-5-1.21-6.57-2.09-2.9-1.57-5.6-3.49-8.39-5.27,3.51-.08,7-.28,10.52-.18a9.35,9.35,0,0,1,4.54,1.13c1.6,1,2.81,2.62,4.19,4Z"/><path class="cls-1" d="M1352.59,608.94c-2,1.51-3.24,3.17-4.27,3-1.48-.18-2.81-1.65-4.2-2.57,1-1,2-2.92,3-2.92C1348.62,606.49,1350.15,607.77,1352.59,608.94Z"/><path class="cls-2" d="M1650.42,631.2c0,19.31-.19,38.54.11,57.76.09,6-.84,9.06-7.76,7.18-43.81-11.91-89.08-14.52-133.83-20.06-35.26-4.36-70.88-5.88-106.35-8.59-10.86-.83-21.75-1.37-32.61-2.18a36.83,36.83,0,0,1-6.1-1.47c.89-2,1.41-4.24,2.74-5.83q22.22-26.53,44.65-52.89a32.85,32.85,0,0,0,2.58-2.85c4.71-7.12,10.2-10.26,17.87-3.9a6.43,6.43,0,0,0,3.46,1.56c1.4.08,2.84-.59,4.26-.94a34.65,34.65,0,0,0-1.31-4.08c-.21-.46-1.09-.6-1.63-.93-2.93-1.8-5.84-3.61-8.76-5.42,2.26-3,4.32-6.15,6.81-8.92,26.64-29.67,49.06-62.43,70.3-96.06,1.36-2.16,2.58-4.54,4.4-6.24.72-.67,3.22-.27,4.36.48,2.91,1.9,7.05,6.63,8,6,3.4-2.23,7.19-5.81,8-9.49.64-3.06-2.51-7.1-4.47-10.42-1.1-1.88-3.16-3.19-4.79-4.76,2.53.15,5.32-.33,7.52.59,3.2,1.33,5.93,3.76,9,5.55,2.62,1.55,5.72,2.81,6.5-1.6.37-2.12-1-4.56-1.68-6.8-.14-.45-1.07-.63-1.63-.95-13.61-7.58-13.53-7.54-6.4-21.9,8.1-16.33,15.88-32.83,24.17-49.07,2.89-5.64,6.23-11.34,10.55-15.89,10-10.53,22.69-10.52,33.08-.33,12.53,12.31,19,28.25,23.28,44.64,8.51,32.41,8.56,24.42-19.28,30.71-12.48,2.82-25.09,5.16-37.73,7.17-6.11,1-6.48,3.74-4.57,8.58,2.21,5.58,3.35,11.76,6.46,16.74,2,3.22,6.59,6.4,10.24,6.68a8.68,8.68,0,0,0,9.27-10c-2.77-14.11,7-16.13,16.32-19.16,6.68-2.18,13.45-4.11,20-6.53,5-1.83,7.12-.29,7.75,4.77,2.27,18.11,5.26,36.15,6.92,54.31C1643.83,548.14,1647,589.66,1650.42,631.2ZM1602.36,565l2.1.47c-3.35,15.2-6.67,30.41-10.09,45.6-.22,1-1.17,1.79-1.79,2.68a12.75,12.75,0,0,1-1.36-3.12c-.64-4.4-.64-9-1.74-13.22-1.44-5.64-5.24-6.18-9.29-2.49a32.76,32.76,0,0,0-6.62,8.13c-4.18,7.55-7.87,15.37-11.83,23a30.17,30.17,0,0,1-2.7,3.73,30.22,30.22,0,0,1-1.51-4.73c-2-12.64-3.35-25.39-6-37.88-.88-4.12-4.94-7.57-7.55-11.33-3,3-7.1,5.58-8.92,9.22-4.41,8.85-7.73,18.23-11.6,27.35a33.64,33.64,0,0,1-2.87,4.61,29.84,29.84,0,0,1-2-4.9c-2.28-10.29-4.15-20.69-6.82-30.87-.67-2.59-3.74-4.55-5.7-6.8-2.34,2.33-6,4.29-6.79,7.07-3.38,11.67-6,23.57-8.72,35.42a92.92,92.92,0,0,0-1.91,12.31c-.11,1.22,1,2.55,1.64,3.83,1-.94,2.61-1.7,3-2.87.76-2.06.73-4.4,1.22-6.58,2.86-12.8,5.74-25.59,8.75-38.35.3-1.24,1.53-2.26,2.33-3.39.76,1,1.91,1.84,2.2,2.94,1.33,4.94,2.6,9.92,3.55,14.94,1.37,7.23,2.09,14.6,3.79,21.74.87,3.7,3.24,7.05,4.94,10.56,1.78-3.22,3.89-6.31,5.27-9.7,4-9.77,7.4-19.76,11.51-29.46,1.56-3.69,4.37-6.84,6.62-10.24,1.61,3.94,4.11,7.75,4.68,11.83,1.76,12.68,2.6,25.49,4.22,38.19.45,3.54,2.4,6.9,3.66,10.34,2.28-2.77,4.61-5.5,6.82-8.32a15.18,15.18,0,0,0,1.16-2.62c3.8-7.77,7.28-15.71,11.56-23.2,2.06-3.6,5.64-6.33,8.53-9.46.63,4.29,1.83,8.58,1.77,12.85-.13,7.68-1.16,15.34-1.48,23-.09,2.31,1,4.67,1.47,7,1.94-1.78,4.87-3.19,5.67-5.38,10.1-27.78,19.15-55.82,16.56-86-2.29-26.8-18-45-43.78-48.57-29.84-4.1-55.93,7.21-80.67,22.44a3.64,3.64,0,0,0-1.39,1.3,32.65,32.65,0,0,0-1.2,3.45c1.38.08,3,.69,4.07.14,4.26-2.2,8.37-4.7,12.47-7.21s6.42-1.42,7.4,3.26,1.43,9.68,3.44,13.91c1.88,4,5.49,7.15,8.35,10.68,3.46-2.87,7.26-5.44,10.25-8.73,1.83-2,2.3-5.23,3.59-7.79,1.08-2.14,2.48-4.13,3.73-6.19.62,2.47,1.36,4.91,1.82,7.41.64,3.45.34,7.27,1.75,10.33,1.61,3.5,4.55,8.76,7.11,8.87,3.57.16,7.84-3.19,10.83-6.06s4.46-6.79,6.61-10.27c.15,4.17-.17,8.41.56,12.47.8,4.5,1.72,11.91,4.11,12.57,4.42,1.23,10.52-.5,14.88-2.89,5.51-3,10-8,14.91-12,3.47-2.85,5.63-2.92,5.43,2.54C1602.21,555.35,1602.36,560.17,1602.36,565Zm-147.9,47.55c.14.36.27.71.41,1.06l9.73-3.92c-3.51-1.13-7-2.35-10.53-3.33a6.39,6.39,0,0,0-3.8,0,51.11,51.11,0,0,0-5.81,3.25,59.22,59.22,0,0,0,6.18,2.84C1451.79,612.86,1453.18,612.53,1454.46,612.53Zm45.48,54.27.45-1.08a9,9,0,0,0,2.85-.05c2.17-.76,4.24-1.77,6.35-2.68-1.95-1.12-3.85-2.36-5.89-3.32a4.61,4.61,0,0,0-2.83-.1c-3.9.93-7.76,2-11.64,3ZM1450.21,664l4.48-3.59c-1.82-1.3-3.53-3.3-5.51-3.64-1.37-.23-3.14,1.85-4.72,2.9Zm-50.09-.65,5.64-4.93c-2.72-1-5.4-2.42-8.19-2.7-1.63-.16-3.44,1.56-5.17,2.43Z"/><path class="cls-2" d="M1649.34,569.06c2-3.66,3.15-8.61,6.23-10.77q45.54-32,91.78-63c4.65-3.1,11.1-3.51,16.71-5.16-.38,5.78.35,11.91-1.32,17.29-17.7,57-43.48,110-81.54,156.42-5.82,7.09-13.3,12.85-20.23,19-3.12,2.76-5,1.83-5-2.6-.17-9.6-.49-19.21-.9-28.82q-1.77-40.78-3.67-81.57Z"/><path class="cls-2" d="M1363.68,669.13c31.73,2.65,61.75,4.73,91.65,7.84,14.13,1.48,25.85,17.42,25,31.56-.5,8-5.06,12.63-14.88,15.05-11.9,2.94-15.62,1.83-20.66-6.16-.17-.27-.3-.57-.46-.85-2.45-4.35-5.31-8.45-11.09-7.15a6.66,6.66,0,0,0-4.1,4.29c-1.2,5.73,2.76,8.74,7.1,11.21,10.32,5.87,13.51,13.09,9.62,24.13-4,11.45-12.49,18.3-24.39,20.68-11.28,2.25-19.66-2.93-25-12-4.64-7.86-7.93-16.61-11.17-25.21-3-8-4.55-8.43-11-2.9-7.48,6.38-15.08,12.76-23.31,18.09-5.16,3.35-11.91,4.43-16.84-.93-5.25-5.72-3.43-12.6.75-17.61,5.24-6.27,11.69-11.65,18.11-16.79,7-5.6,7.23-5.9.94-12.22-2-2-4.62-4.22-5.08-6.69-.71-3.82-1.12-8.89.85-11.62,1.54-2.15,6.86-1.72,10.54-2.13,1.15-.13,2.42,1.09,3.63,1.06a63.46,63.46,0,0,0,7-.86c-2.08-1.53-4-3.37-6.3-4.51a71.16,71.16,0,0,0-8.43-3.08Z"/><path class="cls-2" d="M1613.34,852.19c11.22.93,18.88,1.49,26.53,2.22,5.44.52,8.39,3.62,7.13,9.07-4.45,19.25-8,38.83-14.2,57.52-5.17,15.58-16.28,26.36-34.32,28-15.8,1.43-28.41-3.68-37.75-16.24-13.77-18.54-20.52-40.29-27.52-61.9-1.59-4.9,1.4-6.37,5.12-7.2,12.14-2.68,24.22-5.87,36.5-7.68C1588.72,853.92,1602.8,853.18,1613.34,852.19Z"/><path class="cls-2" d="M1354,566.88c12.21-6.73-.4-11.09-.41-16.85,0-20.78-1.08-41.61.15-62.31.63-10.57,4.87-21,8.34-31.27,1-3.09,5-5.21,7.56-7.78,1.73,2.92,4.08,5.63,5.07,8.78,3.36,10.67,5.66,21.7,9.41,32.21,9.92,27.79,26.67,51.7,44.56,74.72,4.62,6,4.62,9.26-.27,14.43-9,9.54-17.44,19.64-26.16,29.47-1.52,1.71-1.83,2-4.84.35-4.91-2.64-12-1.34-18.13-1.52-.49,0-1.62,1.79-1.44,2,.82,1.18,1.92,2.85,3.07,3,3.8.42,7.67.25,11.51.31,3.07,0,5.63.44,2.35,4.1-6.41,7.15-12.9,14.24-19.27,21.44-3.06,3.45-4.08,1.23-4.77-1.61C1365.21,613.38,1359.69,590.38,1354,566.88Zm46.41,10.35c-1-1.31-1.42-2.37-2.16-2.73-4.61-2.21-9.24-4.36-14-6.24-.72-.29-2.54.71-3,1.56s0,2.91.64,3.23c4.86,2.36,9.82,4.55,14.88,6.43C1397.64,579.76,1399.12,578.1,1400.45,577.23Z"/><path class="cls-2" d="M1254.78,881.52q5.25-25.74,10.49-51.47c1.24-6.12,4.22-8.44,10.82-6.88,29.12,6.91,56.73,17.54,82.42,32.92,7.56,4.53,7.54,5.51.31,10.18-17.16,11.08-34.28,22.3-52,32.51-7.61,4.39-16.39,7.25-25,9.3-15.93,3.82-24.36-3.07-25.36-19.5-.14-2.23,0-4.47,0-6.71Z"/><path class="cls-2" d="M1650.84,815.81c-.66,7.64-1.21,15.29-2,22.92-.38,3.6.27,7.93-5.4,8.58s-12.48.5-14-5.38c-2.79-10.95-8.64-11.4-18.08-9.56s-17-5-18.16-14.31c-1.2-9.62,3.29-15.57,13.61-18.08,1.24-.3,2.85-.41,3.58-1.23,2.09-2.37,3.82-5.06,5.69-7.62-3.17-.48-6.32-1.07-9.5-1.37-.81-.07-1.67,1-2.58,1.17-3,.64-6.12,1.11-9.18,1.65.19-4.16-1.1-9.27.86-12.28,4.8-7.41,13.4-9.8,21.23-7.45a86.44,86.44,0,0,1,26.21,12.8c4.08,3,5.71,10.16,7.11,15.77,1.12,4.53.22,9.55.22,14.36Z"/><path class="cls-2" d="M1180.86,831.14c-.48.94-1.09,2.17-1.71,3.41-1.15-1-2.78-1.7-3.37-2.93-3.35-6.9-6.25-14-9.68-20.88-7.91-15.83-13.41-18.14-30.47-12.78-4.23,1.33-5.56.22-4.12-3.73,4.69-12.9,9.08-25.93,14.59-38.48,3.32-7.59,5.84-7.32,9.68.43a158.59,158.59,0,0,1,7.9,19.51c5.14,15.13,10,30.35,14.87,45.57C1179.52,824.3,1180,827.48,1180.86,831.14Z"/><path class="cls-2" d="M1153.27,854.67c1.49-1.61,2.57-3.45,4.18-4.43,14.74-9,17.66-8.06,24,7.62a88.52,88.52,0,0,1,4,10.78c1.15,4.45,3.71,12,2.14,13.07-6.43,4.44-14.19,7-21.54,10-.48.2-2.22-1.26-2.51-2.21C1160.1,878.18,1156.82,866.82,1153.27,854.67Z"/><path class="cls-2" d="M1178.36,931c-1.5-1.31-3.54-2.3-4.24-3.89a69.58,69.58,0,0,1-3.08-10c-5.88-21.34-5.78-21.41,14.94-28,3.88-1.23,6.59-1.48,8.09,3.2,2.52,7.91,5.66,15.63,7.89,23.6.56,2-.64,6.15-2.19,6.89C1193.19,925.88,1186.17,928.11,1178.36,931Z"/><path class="cls-2" d="M1138.45,901.6c-.85,1.09-1.79,3-3.32,4.13-13.21,9.51-16,8.64-21.4-6.65-2.45-6.9-4.56-13.91-7.07-20.78-1.81-4.95-.18-7.3,4.59-9.42,16.24-7.24,16.23-7.46,21.07,9.42C1134.42,885.63,1136.22,893.06,1138.45,901.6Z"/><path class="cls-2" d="M1158.3,890.63c-.14,7.51-5.45,7.76-9.24,9.33s-5.68-.77-6.66-4.42c-2.62-9.81-5.23-19.64-8.26-29.34-2.72-8.7,4.65-8.08,9-10.14,5.54-2.66,6.28,1.56,7.3,5.41C1153.1,871.61,1155.89,881.72,1158.3,890.63Z"/><path class="cls-2" d="M1148.79,936.79c-.85,8.38-7.61,7.73-12.11,9.73-4.1,1.83-6.53-.48-7.77-4.49s-2.93-7.79-4-11.79-3.53-10-2-11.46c4-3.7,9.84-5.49,15.1-7.69.89-.37,3.39.78,3.68,1.69C1144.34,921,1146.63,929.3,1148.79,936.79Z"/><path class="cls-2" d="M1146.81,910.5c1-5.85,6.3-6.45,10.41-8.17,5.22-2.19,4.7,2.89,5.53,5.33,2.35,6.91,4.3,14,6.26,21,2,7.32-4.11,7.09-8.23,8.8-4.71,1.95-7.21.15-8.34-4.47C1150.61,925.58,1148.73,918.18,1146.81,910.5Z"/><path class="cls-2" d="M1287.23,449.06c-12.68-1.74-26-3.38-39.32-5.45-19.53-3.05-37.55.07-55.94,8.14-36.85,16.17-74.54,30.43-112,45.12-6.17,2.42-13,3.41-19.64,4.28-2.79.36-5.85-1.3-8.79-2,1.29-2.45,2-5.54,4-7.23,6-5.22,12.17-10.48,18.91-14.7,23.07-14.41,46.45-28.32,69.6-42.59,3.13-1.93,5.67-4.81,8.48-7.25-3.22-1.74-6.26-4.11-9.69-5.11-12.59-3.68-25.19-7.44-38-10.06-5.63-1.15-13.09-1.69-17.49,1.06-13,8.11-26.12,9.25-40.46,6-19-4.3-38.11-8.35-57.2-12.32-6.41-1.33-8.44-4.86-6.84-11,5.2-19.78,14.67-37.45,26.55-53.93.68-.95,1.94-1.49,2.94-2.22.74,1.26,2,2.49,2.13,3.79.5,7.35.75,14.71,1,22.06.44,13.14,1.68,16.19,14.41,18.89,25,5.3,50.27,9.48,75.49,13.75,11.35,1.91,22.85,3,34.31,4.29,8.19.9,9.69-1.05,6-8.33-6.81-13.38-14.31-26.42-20.94-39.89-2.64-5.35-4-11.39-5.47-17.24-1.29-5.12,1.86-5.71,5.31-3.62,5.45,3.31,11.07,6.66,15.69,11,19.14,18,38.3,36,56.59,54.83,4.53,4.67,6.3,12.32,8.53,18.87,4.27,12.52,6.74,15,20,14.72,19.86-.37,39.7-1.4,59.56-1.84,3.71-.09,8.23.22,11,2.25,2.89,2.15,4.86,6.42,5.58,10.08.22,1.12-4.88,3.58-7.78,4.91C1292,449.06,1289.83,448.8,1287.23,449.06Z"/><path class="cls-2" d="M1126.69,429.06c-12.73-1.43-27.63-3.08-42.52-4.84-1.52-.18-3-1.07-4.43-1.63,1.13-1,2.13-2.65,3.43-3,5.79-1.35,12-4,17.46-3.07,12.18,2.14,24,6.13,36,9.5,1.32.38,2.4,1.63,3.59,2.48a32.82,32.82,0,0,1-3.66.5C1134,429.12,1131.46,429.06,1126.69,429.06Z"/><path class="cls-2" d="M1008.65,416.56l11.44,3.48c-3.54,2.6-6.83,5.65-10.67,7.69-6.74,3.57-13.77,6.62-20.81,9.58-.8.34-3.51-1.32-3.49-2C985.28,427.88,999,415.94,1008.65,416.56Z"/><path class="cls-2" d="M1241.14,427.23c-6.64-.16-14.53-10.23-12.75-16.58a4,4,0,0,1,3.18-2.21q10.77,1.69,21.43,4.09a3.86,3.86,0,0,1,2.1,3.13C1254,421.09,1246.19,427.36,1241.14,427.23Z"/><path class="cls-2" d="M1211.68,406.38c7.86.25,17.23,13.11,15.19,19.14-.3.88-2,2.11-2.62,1.91-4-1.25-9.52-1.76-11.54-4.62-2.88-4.1-3.26-10-4.41-15.2C1208.26,407.4,1211.33,406.5,1211.68,406.38Z"/><path class="cls-2" d="M1271.12,426.44c-3.5,0-7,.17-10.49-.08-1.65-.12-3.26-1-4.88-1.59.82-1.67,1.31-3.64,2.52-4.95,4.39-4.75,9.82-4,15-1.78,4.55,1.95,8.77,4.67,13.13,7-4.45.46-8.89.92-13.34,1.35A17.2,17.2,0,0,1,1271.12,426.44Z"/><path class="cls-2" d="M1233.58,221.71c-16.56,0-33.26-5-48.34-14.85A66.48,66.48,0,0,1,1171,194.18c-8.24-9.78-7.7-15.1-.52-25.72a47.82,47.82,0,0,0,6.55-15.57c.5-2.12-2.11-6.54-4.21-7.28s-6.88,1.15-7.8,3.13a51.88,51.88,0,0,0-5,17.17c-.45,5.38-1.88,9.44-6.56,11.82-19,9.68-38.59,12.45-58,2.2-19.8-10.45-21.85-28.92-5.07-43.62,5.89-5.16,13.21-8.86,20.25-12.49,5.1-2.64,8.64-1.14,10.53,5.25a33.42,33.42,0,0,0,8,13.75,13.92,13.92,0,0,0,20.5-1.19c4.67-5.84,3.56-14.37-3.66-19.25-4.3-2.91-9.78-4.63-15-5.53-5.54-.95-7-3.65-4.09-7.57,5.26-7.08,10.45-14.8,17.41-19.88,7.82-5.71,17.49-8.93,26.49-12.94,3.41-1.53,5.58-.94,6.29,3.87,2,13.76,8.65,19.69,22.59,19.42A50.39,50.39,0,0,0,1220,95.33c3.87-1.84,8.13-7.61,8.08-11.57s-4.55-9.79-8.42-11.22c-7.28-2.67-15.5-2.78-23.34-3.9-3.68-.53-7.39-.94-11.08-1.4,1.27-3.82,1.92-8,3.92-11.4,17-28.89,53.1-36.71,80.64-17.57,6,4.19,10.92,8.84,7.47,17.57-1,2.41.37,6.23,1.71,8.86.72,1.38,3.94,2.47,5.65,2.07s3.4-2.63,4.15-4.44c.67-1.62.14-3.78,0-5.69-.86-9.89,1.93-12.8,12-12.44,20,.7,34.6,22.85,27,41.09-.61,1.48-1.58,2.88-1.87,4.41a29.73,29.73,0,0,0-.11,5.43,29,29,0,0,0,5.23-1c13.82-5.35,20-1.29,21,13.82,1.35,21.29-10.48,36.69-30.27,40.22-5.32,1-8.08.06-10.32-5.14-4.36-10.08-10.73-18.18-23.11-19-1.14-.08-2-3.5-3.09-5.33-.57-1-1.29-1.9-1.94-2.84-.61,1-2,2.44-1.72,3,2.76,5.46-1.56,8.26-3.91,12.06-3.36,5.45-1.19,13,5.49,16.27a73.46,73.46,0,0,0,20,6.11c6.18,1,8.25,4.11,8.1,9.66a47.9,47.9,0,0,1-12.94,32.28C1281.34,213.5,1260.54,223.3,1233.58,221.71Z"/><path class="cls-2" d="M1198.51,71.92c5.49,1.52,13.1,2.84,20,5.77,6.74,2.86,6.86,8.29.7,12.26-7.84,5-16.51,6.7-25.65,4.14-7-2-13.67-9.83-12.3-15.17C1183.41,70.61,1190.77,73.35,1198.51,71.92Z"/><path class="cls-2" d="M1302.71,150.6c-6.72-3.06-12.58-5-17.48-8.33-2.08-1.41-3.75-6.62-2.71-8.61,1.2-2.32,5.56-4.16,8.54-4.15,5.8,0,16,10.36,16.21,16.06C1307.33,147.11,1304.46,148.76,1302.71,150.6Z"/><path class="cls-2" d="M1129.17,120.18c6,2.81,11,4.3,14.85,7.33,2,1.59,3.53,7.26,2.37,8.62-2.24,2.65-6.63,5-10,4.84-5.89-.37-11.66-8.69-11.14-14.83C1125.45,124.24,1127.59,122.51,1129.17,120.18Z"/><path class="cls-2" d="M1165,160.71c1.16-2.11,3.07-5.57,5-9,.5.31,1.47.75,1.43.89-1.14,3.83-2.26,7.67-3.69,11.39-.37,1-1.78,1.51-2.71,2.25Z"/><path class="cls-2" d="M1284,62c-1.17-1.33-2.12-1.93-2.11-2.51a14.56,14.56,0,0,1,.89-3.52c.7.66,1.8,1.23,2,2C1285,58.94,1284.43,60.07,1284,62Z"/><path class="cls-2" d="M1104,631.5c.81-5.36,1.34-10.78,2.54-16.06,1-4.27,4.09-5.07,7-1.87,3.6,4,6.6,8.59,9.76,13,2.94,4.09,6.12,7.21,11.86,6.35,12-1.79,24.09-3.36,36.16-4.87,5.6-.7,6.77-3.19,5-8.51-4.34-12.69-8.54-25.46-12-38.41-1.12-4.18.16-9,.34-13.54,3.27,2.81,7.39,5,9.66,8.52,8.39,12.84,16.45,25.92,24.06,39.25,3.38,5.92,7.18,9.21,14.33,8.46,5.07-.54,10.28.4,15.36-.09,6.34-.6,8.5,1.56,9.66,8.07,1.48,8.23-1.91,10.24-8.8,11.94-21.59,5.36-20.36,1.43-15.59,24.83,1.22,5.95,2.6,11.88,3.76,17.85.2,1.06-.31,2.26-.5,3.4-1-.7-2.34-1.18-2.93-2.13-6.41-10.32-13.16-20.47-18.87-31.17-3.86-7.24-8.5-9.6-16.83-9.18-19.16,1-38.4,1-57.59.54C1105.26,647.51,1104.54,646.14,1104,631.5Z"/><path class="cls-2" d="M1260.57,624.79c3.1.38,8.13.94,13.14,1.64a8.82,8.82,0,0,1,2.46,1.29c-.66.65-1.2,1.64-2,1.9-8.68,3-17.31,6.2-26.2,8.35-1.51.37-5.36-3.7-5.91-6.21-.43-1.92,2.22-6.08,4.24-6.66C1250.13,624,1254.47,624.79,1260.57,624.79Z"/><path class="cls-2" d="M1603.16,268.48c10.37,3.34,22.1,7.47,34,10.85a185.26,185.26,0,0,0,25.1,5.25c12.66,1.77,25.44,2.7,38.14,4.25,2,.24,3.78,1.87,5.66,2.86-1.62,1.33-3,3.2-4.88,3.92-10.11,3.93-19.91,7-31.55,4.76-15.21-3-29.36.46-38.34,15.34a12.34,12.34,0,0,1-6.72,4.87c-17.51,5.05-35.16,9.62-52.69,14.6-5.53,1.58-9.34.32-11.89-4.84-4.25-8.56-8.79-17-12.72-25.69-2.06-4.55.71-6.27,4.65-4.36,4.86,2.35,9.79,5,13.76,8.6,10.18,9.13,20.56,10.36,32.3,3.2,6.81-4.15,14.31-7.18,21.1-11.35s6.87-6.16.45-11.28-13.48-9.74-20.11-14.76c-1.42-1.07-2.22-2.95-3.3-4.46Z"/><path class="cls-2" d="M1669,305.37c-1.3,1-1.91,1.72-2.67,2q-12.11,4.14-24.26,8.09c-.8.26-1.81-.15-2.72-.24.37-1.07.41-2.5,1.14-3.13,7.41-6.33,16.25-8.09,25.7-7.68A12.27,12.27,0,0,1,1669,305.37Z"/><path class="cls-2" d="M1396.31,973q.82-6.66,1.64-13.32c2-16.88,8.47-22.49,25.63-22.14a4.42,4.42,0,0,1,3.38,2c3.51,8.84-2.72,19.58-12,21.64-2.18.48-4.07,2.25-6.1,3.43l6.7,1.66c2.64.65,7.33.87,7.56,2,.86,4.25,1.14,9.28-4.6,11.06a114,114,0,0,1-11.11,2.75C1396,984.39,1395.92,984.28,1396.31,973Z"/><path class="cls-2" d="M1434.65,923.71c.17-2.24.26-3.83.42-5.41,1.31-12.61,1.32-12.61,13.34-16,2.14-.61,4.29-1.2,6.43-1.77,14.63-3.95,14.48-3.71,12.16,10.81-1.46,9.18-5.34,14.23-14.87,14.75A47.74,47.74,0,0,0,1441,928.3C1435.8,929.89,1433.65,928.54,1434.65,923.71Z"/><path class="cls-2" d="M1431.29,950.46c.71-14.65.71-14.65,13.91-17.93a14.28,14.28,0,0,1,2.76-.78c5-.18,13-2.15,14.32,0,4,6.47-4.09,20.73-11.49,22.44-4,.93-8.34.93-12.2,2.26C1431.29,959,1430.18,955.71,1431.29,950.46Z"/><path class="cls-2" d="M1430.89,914.47c-.23,15.09-11.72,24.4-26.67,22.22a4.44,4.44,0,0,1-3-1.67c-3-5.56,3.18-19.93,9.33-21.81,4.54-1.39,9.3-2.16,13.74-3.79C1430.48,907.15,1431.71,909.8,1430.89,914.47Z"/><path class="cls-2" d="M1427.31,971.5c1.76-3,2.75-7.18,4.86-7.85,7.24-2.31,14.85-3.46,22.35-4.82.76-.14,2.68,1.46,2.58,1.95-.75,3.65-.94,9.57-3,10.4-7.25,2.89-15.18,4.15-22.94,5.53C1430.3,976.86,1428.9,973.75,1427.31,971.5Z"/><path class="cls-2" d="M1733.31,677.31c-1.8,2.86-3.49,5.81-5.52,8.49-.37.48-2.18-.14-3.33-.25.13-1-.13-2.63.44-3,2.77-1.88,5.75-3.43,8.66-5.1Z"/><path class="cls-2" d="M1733.56,677.44c-.19-.38-.39-.75-.59-1.13l1.12-.26-.78,1.26Z"/><path class="cls-1" d="M1602.36,565c0-4.81-.15-9.63,0-14.43.2-5.46-2-5.39-5.43-2.54-5,4.06-9.4,9-14.91,12-4.36,2.39-10.46,4.12-14.88,2.89-2.39-.66-3.31-8.07-4.11-12.57-.73-4.06-.41-8.3-.56-12.47-2.15,3.48-3.75,7.52-6.61,10.27s-7.26,6.22-10.83,6.06c-2.56-.11-5.5-5.37-7.11-8.87-1.41-3.06-1.11-6.88-1.75-10.33-.46-2.5-1.2-4.94-1.82-7.41-1.25,2.06-2.65,4-3.73,6.19-1.29,2.56-1.76,5.77-3.59,7.79-3,3.29-6.79,5.86-10.25,8.73-2.86-3.53-6.47-6.69-8.35-10.68-2-4.23-2.46-9.22-3.44-13.91s-3.28-5.78-7.4-3.26-8.21,5-12.47,7.21c-1.05.55-2.69-.06-4.07-.14a32.65,32.65,0,0,1,1.2-3.45,3.64,3.64,0,0,1,1.39-1.3c24.74-15.23,50.83-26.54,80.67-22.44,25.74,3.54,41.49,21.77,43.78,48.57,2.59,30.21-6.46,58.25-16.56,86-.8,2.19-3.73,3.6-5.67,5.38-.52-2.34-1.56-4.7-1.47-7,.32-7.68,1.35-15.34,1.48-23,.06-4.27-1.14-8.56-1.77-12.85-2.89,3.13-6.47,5.86-8.53,9.46-4.28,7.49-7.76,15.43-11.56,23.2a15.18,15.18,0,0,1-1.16,2.62c-2.21,2.82-4.54,5.55-6.82,8.32-1.26-3.44-3.21-6.8-3.66-10.34-1.62-12.7-2.46-25.51-4.22-38.19-.57-4.08-3.07-7.89-4.68-11.83-2.25,3.4-5.06,6.55-6.62,10.24-4.11,9.7-7.55,19.69-11.51,29.46-1.38,3.39-3.49,6.48-5.27,9.7-1.7-3.51-4.07-6.86-4.94-10.56-1.7-7.14-2.42-14.51-3.79-21.74-1-5-2.22-10-3.55-14.94-.29-1.1-1.44-2-2.2-2.94-.8,1.13-2,2.15-2.33,3.39-3,12.76-5.89,25.55-8.75,38.35-.49,2.18-.46,4.52-1.22,6.58-.44,1.17-2,1.93-3,2.87-.59-1.28-1.75-2.61-1.64-3.83a92.92,92.92,0,0,1,1.91-12.31c2.72-11.85,5.34-23.75,8.72-35.42.81-2.78,4.45-4.74,6.79-7.07,2,2.25,5,4.21,5.7,6.8,2.67,10.18,4.54,20.58,6.82,30.87a29.84,29.84,0,0,0,2,4.9,33.64,33.64,0,0,0,2.87-4.61c3.87-9.12,7.19-18.5,11.6-27.35,1.82-3.64,5.88-6.18,8.92-9.22,2.61,3.76,6.67,7.21,7.55,11.33,2.66,12.49,4,25.24,6,37.88a30.22,30.22,0,0,0,1.51,4.73,30.17,30.17,0,0,0,2.7-3.73c4-7.67,7.65-15.49,11.83-23a32.76,32.76,0,0,1,6.62-8.13c4-3.69,7.85-3.15,9.29,2.49,1.1,4.27,1.1,8.82,1.74,13.22a12.75,12.75,0,0,0,1.36,3.12c.62-.89,1.57-1.7,1.79-2.68,3.42-15.19,6.74-30.4,10.09-45.6ZM1538.5,517.6c.79,6,1.48,12,2.42,18a40.22,40.22,0,0,0,2.15,8.32c.75,1.92,2.27,3.55,3.44,5.3a37.6,37.6,0,0,0,5.08-4,24.62,24.62,0,0,0,3.69-5.57c3.29-6.56,6.32-13.24,9.71-19.75.74-1.43,2.53-2.33,3.83-3.48.75,1.67,1.93,3.29,2.12,5s-.67,3.75-.87,5.64c-.79,7.62-2,15.24-2.09,22.86,0,7.92,3.67,10,10.26,5.88,6.16-3.89,11.56-9,17.29-13.54,5-4,4.57-8.24,1.34-13.33-11.21-17.7-28.29-22.81-47.79-22.56C1538.91,506.54,1538.57,507.23,1538.5,517.6Zm-8.43-7.46c-15.85-.74-22.87,7.76-19,21.68a70.18,70.18,0,0,0,3.26,8.93c1.75,4.13,4.91,4.81,6.73.73,4.1-9.2,7.43-18.74,10.8-28.25C1532.14,512.37,1530.47,510.8,1530.07,510.14Z"/><path class="cls-1" d="M1454.46,612.53c-1.28,0-2.67.33-3.82-.07a59.22,59.22,0,0,1-6.18-2.84,51.11,51.11,0,0,1,5.81-3.25,6.39,6.39,0,0,1,3.8,0c3.54,1,7,2.2,10.53,3.33l-9.73,3.92C1454.73,613.24,1454.6,612.89,1454.46,612.53Z"/><path class="cls-1" d="M1499.94,666.8l-10.71-4.23c3.88-1,7.74-2.07,11.64-3a4.61,4.61,0,0,1,2.83.1c2,1,3.94,2.2,5.89,3.32-2.11.91-4.18,1.92-6.35,2.68a9,9,0,0,1-2.85.05Z"/><path class="cls-1" d="M1450.21,664l-5.75-4.33c1.58-1,3.35-3.13,4.72-2.9,2,.34,3.69,2.34,5.51,3.64Z"/><path class="cls-1" d="M1400.12,663.31l-7.72-5.2c1.73-.87,3.54-2.59,5.17-2.43,2.79.28,5.47,1.74,8.19,2.7Z"/><path class="cls-1" d="M1400.45,577.23c-1.33.87-2.81,2.53-3.58,2.25-5.06-1.88-10-4.07-14.88-6.43-.64-.32-1-2.41-.64-3.23s2.24-1.85,3-1.56c4.74,1.88,9.37,4,14,6.24C1399,574.86,1399.45,575.92,1400.45,577.23Z"/><path class="cls-2" d="M1538.5,517.6c.07-10.37.41-11.06,10.58-11.19,19.5-.25,36.58,4.86,47.79,22.56,3.23,5.09,3.68,9.34-1.34,13.33-5.73,4.56-11.13,9.65-17.29,13.54-6.59,4.17-10.29,2-10.26-5.88,0-7.62,1.3-15.24,2.09-22.86.2-1.89,1.07-3.81.87-5.64s-1.37-3.34-2.12-5c-1.3,1.15-3.09,2-3.83,3.48-3.39,6.51-6.42,13.19-9.71,19.75a24.62,24.62,0,0,1-3.69,5.57,37.6,37.6,0,0,1-5.08,4c-1.17-1.75-2.69-3.38-3.44-5.3a40.22,40.22,0,0,1-2.15-8.32C1540,529.64,1539.29,523.61,1538.5,517.6Z"/><path class="cls-2" d="M1530.07,510.14c.4.66,2.07,2.23,1.76,3.09-3.37,9.51-6.7,19-10.8,28.25-1.82,4.08-5,3.4-6.73-.73a70.18,70.18,0,0,1-3.26-8.93C1507.2,517.9,1514.22,509.4,1530.07,510.14Z"/></svg>