<svg id="Layer_6" data-name="Layer 6" xmlns="http://www.w3.org/2000/svg" viewBox="0 0 1920 1080"><defs><style>.cls-1{fill:#1e5782;}.cls-2{fill:#ef4444;}.cls-3,.cls-9{font-size:12px;}.cls-3{font-family:NuevaStd-Bold, Nueva Std;}.cls-11,.cls-3{font-weight:700;}.cls-4{font-size:17px;}.cls-4,.cls-9{font-family:KozGoPr6N-Regular-90ms-RKSJ-H, Kozuka Gothic Pr6N;}.cls-5{letter-spacing:-0.08em;}.cls-6{letter-spacing:-0.15em;}.cls-7{letter-spacing:-0.05em;}.cls-8{letter-spacing:-0.1em;}.cls-10{letter-spacing:-0.04em;}.cls-11{font-size:21.72px;font-family:Calibri-Bold, Calibri;}.cls-12{letter-spacing:-0.01em;}.cls-13{letter-spacing:-0.01em;}.cls-14{font-size:9.99px;font-family:OratorStd, Orator Std;}.cls-14,.cls-15{font-weight:400;}.cls-15{font-size:13.62px;font-family:MS-UIGothic, MS UI Gothic;letter-spacing:0em;}.cls-16{font-size:15.84px;font-family:Calibri;}.cls-17{font-size:7px;font-family:Calibri-LightItalic, Calibri;font-style:italic;}.cls-17,.cls-24{font-weight:300;}.cls-18{letter-spacing:-0.02em;}.cls-19{letter-spacing:-0.01em;}.cls-20{letter-spacing:-0.04em;}.cls-21{letter-spacing:-0.02em;}.cls-22{letter-spacing:0em;}.cls-23{letter-spacing:-0.01em;}.cls-24{font-size:8px;font-family:Calibri-Light, Calibri;}.cls-25{letter-spacing:-0.03em;}.cls-26{letter-spacing:-0.03em;}.cls-27{letter-spacing:-0.01em;}.cls-28{letter-spacing:0.13em;}.cls-29{letter-spacing:-0.09em;}.cls-30{letter-spacing:0.13em;}.cls-31{letter-spacing:0.01em;}</style></defs><path class="cls-1" d="M351.87,483.21l-72.68-6v-166l-24.56-2.52,9.83-50.39,150.93,3.78,43.87,28.66-3.93,79.68L432.41,396l-80.54,15.12Zm0-116.84,35.69-6.3L384.29,321l-32.42-3.15Z"/><path class="cls-2" d="M498.54,264.34H622.63L666.5,293V447.94L640,477.54,513.28,487,472,458V286.07Zm47.81,50.38h-1.64V426.84l47.47,2.83h1.64V345l.33.31V322Z"/><path class="cls-1" d="M895.36,463.68,826.6,493l-45.51-83.14-6.55,1.26v72.12l-72.68-6v-166l-24.55-2.52,9.82-50.39,150.93,3.78,43.87,28.66L878,370.47,855.09,396,840,398.81ZM774.54,317.87v48.5l35.69-6.3L807,321Z"/><path class="cls-1" d="M1072.48,258.35l2.62,61.73-59.92-.63,4.59,134.16L992.59,481l-44.85-4.41V318.82l-45.18-.32-9.82-50.7Z"/><path class="cls-1" d="M1111.11,264.34H1235.2L1279.07,293V447.94l-26.52,29.6L1125.84,487l-41.25-29V286.07Zm47.8,50.38h-1.64V426.84l47.48,2.83h1.63V345l.33.31V322Z"/><path class="cls-1" d="M299.5,569.68l-27.17-3.47L286.41,513l158.79,7.88v68l-72.69-9.45v50.07l62.54-9.44v45l-62.54,9.45v63.3l-73-6Z"/><path class="cls-1" d="M486.45,517.72H610.53l43.88,28.65v155l-26.52,29.6-126.71,9.45-41.25-29V539.45Zm47.8,50.38h-1.64V680.22l47.48,2.83h1.63V598.34l.33.31v-23.3Z"/><path class="cls-1" d="M667.83,683.68l19.32-1.26L678,517.09l72.68-5.36-.33,166.6,93-6,2.62,61.41-168.29.63Z"/><path class="cls-1" d="M929.75,738.48l-72.69-6v-210l72.69-5.35Z"/><path class="cls-2" d="M978.2,517.72h124.09l43.87,28.65v155l-26.52,29.6-126.71,9.45-41.25-29V539.45ZM1026,568.1h-1.63V680.22l47.47,2.83h1.64V598.34l.32.31v-23.3Z"/><text class="cls-3" transform="translate(477.89 850.64)">©2026</text><text class="cls-4" transform="translate(289.84 833.2)"><tspan class="cls-5">山</tspan><tspan class="cls-6" x="15.64" y="0">ヨ</tspan><tspan class="cls-7" x="30.09" y="0">し</tspan><tspan x="46.24" y="0">亡回</tspan><tspan class="cls-5" x="80.24" y="0">冊</tspan><tspan class="cls-7" x="95.88" y="0">ヨ</tspan><tspan x="112.03" y="0">　卞回　</tspan><tspan class="cls-5" x="180.03" y="0">冊と</tspan><tspan x="211.31" y="0">　尸回尺卞回乍</tspan><tspan class="cls-8" x="330.31" y="0">回</tspan><tspan class="cls-7" x="345.61" y="0">し</tspan><tspan x="361.76" y="0">工回</tspan></text><text class="cls-9" transform="translate(289.99 850.89)">ﾑ乃ﾑ<tspan class="cls-10" x="24" y="0">ﾉ</tspan><tspan x="29.52" y="0">ズﾑ刀　丂ﾑﾌﾑ　ｲ乇ﾒｲ　ﾉ刀ﾉ</tspan></text><text class="cls-11" transform="translate(730.48 800.05)">C<tspan class="cls-12" x="11.5" y="0">r</tspan><tspan x="18.97" y="0">e</tspan><tspan class="cls-13" x="29.91" y="0">a</tspan><tspan x="40.43" y="0">tivity /</tspan><tspan class="cls-14" x="100.82" y="0"> </tspan><tspan class="cls-15" x="106.81" y="0">ｋｒｉ：ｅｉ＇ｔｉｖｉｔｉ</tspan></text><text class="cls-16" transform="translate(731.48 818.25)">noun</text><text class="cls-17" transform="translate(732.01 831.03)"><tspan class="cls-18">K</tspan><tspan x="3.38" y="0">emampuan u</tspan><tspan class="cls-19" x="40.51" y="0">n</tspan><tspan x="43.99" y="0">tuk mengubah </tspan><tspan class="cls-20" x="86.16" y="0">k</tspan><tspan x="88.99" y="0">a</tspan><tspan class="cls-21" x="92.53" y="0">n</tspan><tspan x="95.95" y="0">vas </tspan><tspan class="cls-20" x="106.81" y="0">k</tspan><tspan x="109.64" y="0">osong menjadi sebuah </tspan><tspan class="cls-22" x="174.04" y="0">c</tspan><tspan x="176.93" y="0">eri</tspan><tspan class="cls-23" x="184.13" y="0">t</tspan><tspan x="186.33" y="0">a</tspan></text><text class="cls-24" transform="translate(731.14 847.13)">Selam<tspan class="cls-19" x="19.43" y="0">a</tspan><tspan x="23.12" y="0">t</tspan><tspan class="cls-25" x="25.75" y="0"> </tspan><tspan x="27.35" y="0">d</tspan><tspan class="cls-19" x="31.5" y="0">a</tspan><tspan class="cls-23" x="35.19" y="0">t</tspan><tspan x="37.7" y="0">ang</tspan><tspan class="cls-26" x="49.38" y="0"> </tspan><tspan x="50.97" y="0">di</tspan><tspan class="cls-25" x="56.9" y="0"> </tspan><tspan x="58.49" y="0">ruang</tspan><tspan class="cls-25" x="77.08" y="0"> </tspan><tspan x="78.68" y="0">k</tspan><tspan class="cls-23" x="82.2" y="0">r</tspan><tspan x="84.85" y="0">e</tspan><tspan class="cls-19" x="88.8" y="0">a</tspan><tspan x="92.49" y="0">tif</tspan><tspan class="cls-25" x="99.21" y="0"> </tspan><tspan x="100.81" y="0">s</tspan><tspan class="cls-21" x="103.9" y="0">a</tspan><tspan class="cls-23" x="107.51" y="0">y</tspan><tspan x="110.92" y="0">a.</tspan><tspan class="cls-26" x="116.64" y="0"> </tspan><tspan x="118.24" y="0">Di</tspan><tspan class="cls-25" x="124.86" y="0"> </tspan><tspan x="126.46" y="0">sini,</tspan><tspan class="cls-25" x="139.2" y="0"> </tspan><tspan x="140.8" y="0">s</tspan><tspan class="cls-22" x="143.89" y="0">et</tspan><tspan x="147.8" y="0">iap</tspan><tspan class="cls-26" x="160.06" y="0"> </tspan><tspan x="161.66" y="0">p</tspan><tspan class="cls-21" x="165.81" y="0">r</tspan><tspan class="cls-22" x="168.41" y="0">o</tspan><tspan class="cls-27" x="172.55" y="0">y</tspan><tspan x="175.98" y="0">ek</tspan><tspan class="cls-25" x="183.46" y="0"> </tspan><tspan x="185.05" y="0">bu</tspan><tspan class="cls-21" x="193.37" y="0">k</tspan><tspan x="196.74" y="0">an </tspan><tspan x="0" y="10">se</tspan><tspan class="cls-21" x="7.05" y="10">k</tspan><tspan x="10.42" y="10">adar</tspan><tspan class="cls-28" x="24.86" y="10"> </tspan><tspan x="27.71" y="10">hasil</tspan><tspan class="cls-28" x="42.26" y="10"> </tspan><tspan x="45.1" y="10">akhi</tspan><tspan class="cls-29" x="58.32" y="10">r</tspan><tspan x="60.33" y="10">,</tspan><tspan class="cls-28" x="62.29" y="10"> </tspan><tspan x="65.14" y="10">melain</tspan><tspan class="cls-21" x="86.87" y="10">k</tspan><tspan x="90.24" y="10">an</tspan><tspan class="cls-30" x="98.17" y="10"> </tspan><tspan x="101.01" y="10">sebuah</tspan><tspan class="cls-28" x="124.29" y="10"> </tspan><tspan x="127.14" y="10">p</tspan><tspan class="cls-21" x="131.3" y="10">r</tspan><tspan x="133.9" y="10">oses</tspan><tspan class="cls-28" x="148.21" y="10"> </tspan><tspan x="151.06" y="10">panjang</tspan><tspan class="cls-28" x="176.65" y="10"> </tspan><tspan x="179.49" y="10">dari</tspan><tspan class="cls-28" x="191.94" y="10"> </tspan><tspan x="194.78" y="10">ide </tspan><tspan x="0" y="20">hin</tspan><tspan class="cls-31" x="10.08" y="20">g</tspan><tspan class="cls-21" x="13.91" y="20">g</tspan><tspan x="17.5" y="20">a menjadi </tspan><tspan class="cls-21" x="50.85" y="20">n</tspan><tspan class="cls-23" x="54.85" y="20">y</tspan><tspan class="cls-19" x="58.26" y="20">a</tspan><tspan class="cls-23" x="61.95" y="20">t</tspan><tspan x="64.46" y="20">a. Sila</tspan><tspan class="cls-21" x="82.91" y="20">k</tspan><tspan x="86.28" y="20">an jelajahi dunia s</tspan><tspan class="cls-21" x="143.57" y="20">a</tspan><tspan class="cls-23" x="147.18" y="20">y</tspan><tspan x="150.59" y="20">a.</tspan></text></svg>