<svg id="Layer_4" data-name="Layer 4" xmlns="http://www.w3.org/2000/svg" viewBox="0 0 1920 1080"><defs><style>.cls-1{fill:#262626;}.cls-2{fill:#fdfdfd;}</style></defs><path class="cls-1" d="M1293.55,777c-.74-5.77-1.33-11.57-2.32-17.3-.21-1.21-1.86-2.17-2.85-3.25-.63,1.2-1.65,2.35-1.84,3.62-1.12,7.31-1.92,14.67-3.14,22-.27,1.57-1.86,2.91-2.84,4.36-.5-1.57-1.61-3.22-1.41-4.7,1.09-8.34,2.08-16.73,3.92-24.91,1.53-6.83,4.22-7.67,9.29-3.1,3.4,3.06,3.34.9,4-1.59,11.29-44.89,34.73-83.62,61.45-120.64,8.35-11.58,17.34-22.71,25.62-34.34,1.48-2.08,1.68-5.8,1.1-8.47q-6.54-30.26-13.82-60.36c-.56-2.3-3.36-4-4.7-6.2-.62-1-.25-2.68-.32-4.06,5.36.14,3.42-3.59,3.26-6.27-1.2-20-.75-39.86,3.77-59.43a52.2,52.2,0,0,1,6.21-15.5c4.57-7.36,11.62-6.54,15.16,1.28a25.33,25.33,0,0,1,2,6.57c4,26.6,17.79,48.63,32.71,70.12,2.18,3.14,4.53,6.18,7,9.14,6.23,7.6,5.35,7,10.73.36,7.59-9.28,15.09-18.71,21.83-28.61,10.9-16,21.37-32.37,31.61-48.83,4.63-7.45,4.18-7.73-2.7-12.47a8,8,0,0,1-1.28-.83c-1.57-1.61-3.1-3.27-4.65-4.9,2.29.53,4.73.72,6.84,1.66,9.5,4.25,9.64,4.42,14.31-5,6.81-13.69,13.24-27.57,20-41.27a74.11,74.11,0,0,1,7.78-13.12c8.71-11,22-12.78,32.14-3.14a65.7,65.7,0,0,1,14.78,21c4.4,10.19,6.52,21.37,9.58,32.14.88,3.11.8,7,5.68,6.73a7,7,0,0,1,.18,2.46c-.68,2.77-2.47,5.6-2.18,8.22,2.72,24.34,5.79,48.64,8.75,72.95.1.76.07,1.53.16,2.29.74,5.92,1.46,6.35,6.29,3,9.81-6.9,19.38-14.16,29.29-20.92,11.79-8.06,23.68-16,35.85-23.47a81.57,81.57,0,0,1,16.79-7.25c5.73-1.9,8.13-.08,8.42,6.08a32,32,0,0,1-1.24,10.57c-14.42,47.93-36.52,91.9-68.38,130.68-4,4.84-9.2,8.87-14.41,12.46-5,3.42-6.83,7.4-6.87,13.4-.26,36.28.06,72.6-1.73,108.81-.93,19-5.34,37.81-9.1,56.53-1.32,6.55-4.67,13-8.38,18.72-14.24,21.81-43.19,23.39-58.82,2.61-7.09-9.44-12.43-20.51-16.93-31.52-6.06-14.84-10.26-30.42-15.82-45.48a78.55,78.55,0,0,0-9.2-17.52c-6.86-9.85-17-13.69-28.26-10a142,142,0,0,0-31.12,14.24c-18.14,11.4-35.21,24.47-53.16,36.2-15.79,10.31-31.9,20.18-48.4,29.3-6.51,3.59-14.31,5.62-21.76,6.58-11.37,1.46-18.35-5-19.47-16.47-.42-4.3-.07-8.68-.07-13Zm317-195.74c-2.73-33.1-5.25-66.19-8.27-99.24-1.33-14.48-3.71-28.86-5.52-43.29-.5-4-2.22-5.26-6.18-3.8-5.25,1.93-10.65,3.46-16,5.2-7.41,2.41-15.21,4-13,15.27a6.91,6.91,0,0,1-7.39,8c-2.91-.21-6.56-2.75-8.16-5.32-2.48-4-3.39-8.9-5.15-13.34-1.52-3.85-1.23-6.07,3.64-6.84,10.08-1.6,20.12-3.47,30.07-5.71,22.19-5,22.15,1.35,15.37-24.48-3.43-13.07-8.57-25.77-18.56-35.57-8.27-8.12-18.39-8.14-26.36.26a53.73,53.73,0,0,0-8.4,12.66c-6.62,12.94-12.81,26.09-19.27,39.11-5.68,11.44-5.74,11.41,5.1,17.46.45.25,1.18.4,1.3.75.58,1.78,1.63,3.73,1.34,5.42-.62,3.51-3.1,2.51-5.19,1.28-2.41-1.43-4.58-3.37-7.14-4.43-1.75-.73-4-.35-6-.46,1.29,1.24,2.94,2.29,3.81,3.79,1.56,2.65,4.07,5.87,3.56,8.3-.61,2.93-3.63,5.79-6.34,7.56-.72.47-4-3.29-6.33-4.81-.92-.6-2.91-.92-3.48-.38a24.69,24.69,0,0,0-3.51,5c-16.93,26.8-34.79,52.91-56,76.56-2,2.21-3.62,4.73-5.42,7.11,2.32,1.44,4.64,2.89,7,4.32.44.27,1.14.37,1.3.74a25.67,25.67,0,0,1,1,3.25,12.79,12.79,0,0,1-3.4.76,5.16,5.16,0,0,1-2.75-1.25c-6.12-5.07-10.49-2.57-14.25,3.11a25.61,25.61,0,0,1-2,2.27q-17.82,21-35.59,42.15c-1.06,1.27-1.47,3.09-2.19,4.65a30.13,30.13,0,0,0,4.86,1.17c8.67.65,17.34,1.08,26,1.74,28.27,2.16,56.66,3.37,84.76,6.85,35.67,4.41,71.75,6.49,106.66,16,5.52,1.5,6.26-1,6.19-5.72C1610.37,611.93,1610.52,596.6,1610.52,581.21Zm1,85.29h-.33c0-6.9-.11-13.79,0-20.69.11-5.56-2.66-8.44-7.88-9.48-2-.41-3.92-1.25-5.92-1.52q-57.29-7.78-114.58-15.38c-4-.52-8,0-12,.06,1.68,3.29,3.34,6.6,5.05,9.88,7.91,15.1,1.41,27.71-15.37,29.77a14.28,14.28,0,0,1-3,.21c-4.62-.47-5.8,1.92-5.28,6a32,32,0,0,1,.13,5.36c-.46,11.69-8.25,20.73-20.91,24.31-11.17,3.17-20.47-.19-27.06-10.39a78.74,78.74,0,0,1-6.7-13.71c-3.42-8.56-3.06-8.37-10-2.94a117.56,117.56,0,0,1-17.13,11.33c-5.65,3-10.91,1-15.11-3.7s-5.51-10.18-1.88-15.42a82.73,82.73,0,0,1,12.12-13.6c6.2-5.69,6.24-5.33,1.85-12.72-2.29-3.84-3.69-4.71-6.67-.54A521.42,521.42,0,0,0,1310.64,720c-3.78,8.3-3.52,8.65,5.64,11.26C1339.92,738,1363,746,1384,759.05c3.45,2.15,6.13,1.32,9.09-.77,9.6-6.78,19.2-13.56,28.94-20.12,12.72-8.56,25.58-16.94,40.61-21,19-5.19,31.8.46,40.29,18.17a192.55,192.55,0,0,1,8.73,22c1.86,5.55,4.6,6.69,10.08,4.81,18.29-6.28,37.29-8.35,56.54-8.55a71.91,71.91,0,0,0,9.18-.3c.75-.1,1.94-2.23,1.74-3.19-1.24-6.09-6.18-4.73-10.36-4.82-14.69-.32-21.36-10.52-16.36-24.42a15,15,0,0,0,.28-9.25c-3.54-10.08-.79-17.09,9.37-20.38,12.63-4.08,23.53,0,33.38,8.08,1.46,1.2,3.06,2.23,4.6,3.34.48-2.1,1.35-4.18,1.38-6.28C1611.64,686.4,1611.56,676.45,1611.56,666.5Zm-1.9-134.81,1.61.63q1.47,32.5,2.92,65c.33,7.66.59,15.31.72,23,.06,3.53,1.53,4.27,4,2.07,5.52-4.88,11.49-9.47,16.12-15.13,30.34-37,50.88-79.2,65-124.66,1.33-4.29.75-9.18,1.06-13.78-4.48,1.32-9.62,1.64-13.33,4.11q-36.88,24.63-73.14,50.2C1612.17,524.83,1611.28,528.78,1609.66,531.69ZM1382,611.44,1375.9,614a57.2,57.2,0,0,1,6.72,2.44,38.47,38.47,0,0,1,5,3.6,50,50,0,0,1-5.56.69c-1,0-2-1-2.89-.85-2.93.33-7.17,0-8.4,1.7-1.57,2.18-1.24,6.22-.68,9.27.37,2,2.47,3.73,4.05,5.32,5,5,4.82,5.28-.75,9.74-5.12,4.1-10.26,8.38-14.43,13.39-3.33,4-4.79,9.47-.6,14,3.93,4.27,9.31,3.41,13.42.75a179,179,0,0,0,18.58-14.43c5.16-4.4,6.37-4.06,8.78,2.32,2.59,6.85,5.2,13.82,8.91,20.09,4.29,7.26,11,11.39,20,9.59,9.49-1.89,16.23-7.35,19.44-16.48,3.1-8.8.56-14.56-7.66-19.23-3.47-2-6.63-4.37-5.67-8.93a5.31,5.31,0,0,1,3.27-3.42c4.61-1,6.89,2.23,8.84,5.7.13.22.23.46.36.67,4,6.37,7,7.25,16.47,4.91,7.83-1.93,11.46-5.6,11.86-12,.7-11.28-8.65-24-19.9-25.15C1431.2,615.21,1407.28,613.56,1382,611.44Zm199,145.91c-8.4.78-19.62,1.38-30.7,3-9.78,1.44-19.41,4-29.09,6.12-3,.66-5.34,1.84-4.08,5.74,5.58,17.22,11,34.56,21.94,49.33,7.44,10,17.49,14.09,30.08,13,14.38-1.3,23.23-9.88,27.36-22.31,4.94-14.89,7.77-30.49,11.32-45.83,1-4.35-1.35-6.82-5.69-7.24C1596,758.53,1589.91,758.09,1581,757.35ZM1374.3,530c4.51,18.73,8.9,37.06,13.34,55.38.55,2.27,1.36,4,3.8,1.29,5.08-5.74,10.25-11.39,15.36-17.09,2.61-2.92.57-3.23-1.87-3.26-3.07,0-6.15.08-9.18-.26-.92-.1-1.79-1.43-2.44-2.37-.15-.2.75-1.64,1.14-1.63,4.91.15,10.54-.89,14.45,1.22,2.4,1.29,2.65,1.08,3.86-.28,7-7.84,13.67-15.88,20.85-23.49,3.9-4.12,3.9-6.75.21-11.5-14.25-18.35-27.61-37.41-35.51-59.55-3-8.38-4.82-17.17-7.5-25.68-.79-2.5-2.66-4.67-4-7-2.08,2-5.19,3.73-6,6.19-2.76,8.16-6.14,16.5-6.64,24.93-1,16.5-.15,33.1-.12,49.66C1374,521.11,1384,524.59,1374.3,530Zm-79.1,250.77,1.36.28c0,1.78-.1,3.57,0,5.35.8,13.09,7.52,18.58,20.21,15.54a74.86,74.86,0,0,0,19.92-7.42c14.1-8.13,27.74-17.07,41.42-25.91,5.76-3.72,5.77-4.5-.25-8.11a230,230,0,0,0-65.69-26.23c-5.26-1.25-7.64.6-8.63,5.48Q1299.41,760.22,1295.2,780.72Zm315.65-52.37-.29,0c0-3.82.71-7.83-.19-11.44-1.11-4.47-2.4-10.17-5.66-12.57a69,69,0,0,0-20.89-10.2,14.69,14.69,0,0,0-16.92,5.94c-1.56,2.4-.54,6.47-.69,9.79,2.44-.43,4.9-.81,7.32-1.32.73-.15,1.41-1,2.06-.93,2.53.23,5.05.7,7.57,1.09-1.49,2-2.87,4.18-4.54,6.07-.58.66-1.86.74-2.85,1-8.22,2-11.8,6.74-10.84,14.41.92,7.4,6.92,12.87,14.47,11.41s12.18-1.11,14.41,7.62c1.19,4.68,6.52,4.81,11.13,4.28s4-4,4.31-6.84C1609.89,740.54,1610.33,734.44,1610.85,728.35Z"/><path class="cls-1" d="M1131.1,661.15c3.15,16.4,6.65,33.91,9.77,51.48.64,3.63-.17,7.51-.32,11.27-2.41-2.69-5-5.25-7.21-8.1-7.19-9.26-14.19-18.67-21.43-27.89-.94-1.18-2.87-1.58-4.34-2.34-.12,1.47-.63,3-.3,4.4,4.39,17.81,8.89,35.59,13.37,53.37.81,3.22,1.77,6.39,2.45,9.63.17.8-.49,1.77-.77,2.66a8.34,8.34,0,0,1-2.34-1.54,10.37,10.37,0,0,1-1.65-3.43c-5-18.72-10.19-37.38-14.6-56.23-1-4.24-.69-11.8,1.71-13.21,5.43-3.17,8.8,3.24,12,6.85,4.93,5.5,9.22,11.57,13.89,17.31a24.6,24.6,0,0,0,3.77,3.15,31.35,31.35,0,0,0-.07-5c-2.3-13.32-4.88-26.59-6.94-39.94a46.39,46.39,0,0,1,.19-12.94c.61-4.66,3.23-5.63,6.59-2.43a35.71,35.71,0,0,1,6.27,8.6q17.23,31.14,34.22,62.42c4,7.37,4.31,7.74,10.51,2.1a30.49,30.49,0,0,0,7.28-11.13c3.36-8.51,5.8-17.38,8.86-26a35.93,35.93,0,0,1,4.25-8.12c4.59-6.72,8.67-6.61,12.49.43a80.63,80.63,0,0,1,5.5,12.61c5.1,15.23,10,30.53,14.87,45.84,1.09,3.43,1.19,7.66,6.72,4.4.74-.44,2.46.79,3.73,1.25-.78,1.17-1.5,2.37-2.36,3.48-.27.35-.91.43-1.38.62-10.09,4.2-10.12,4.21-6.17,14.67,1.63,4.29,3.34,8.54,5.09,12.78,2.79,6.77,3.19,6.91,10.12,3.83,3-1.34,6-2.85,9.09-4,.93-.34,2.23.36,3.36.59-.64,1-1,2.43-2,2.93-3.35,1.83-6.72,3.9-10.35,4.86-5.2,1.37-5.56,3.93-3.92,8.42,5.16,14.13,10.09,28.34,15,42.57a101.15,101.15,0,0,1,3.15,11.81c.27,1.22-.43,2.64-.69,4-1-1-2.59-1.73-3-2.91-2.53-6.94-5.08-13.9-7-21-1.39-5-3.47-7.05-8.62-4.57-2.51,1.21-5.32,1.78-7.95,2.76-9.2,3.44-9.28,3.48-6.23,13.16,1.91,6.08,4.26,12,6.09,18.13.49,1.63-.21,3.62-.36,5.45-1.26-1.43-3.12-2.66-3.69-4.33-2.46-7.23-4.75-14.54-6.69-21.93-1.18-4.48-3.71-4.75-7.4-3.61s-7.07,2.21-5.67,7.14c1.89,6.62,4,13.17,5.73,19.82.47,1.82-.07,3.91-.14,5.88-1.27-1.41-3.14-2.61-3.69-4.25a184.59,184.59,0,0,1-5.27-18.36c-1.11-4.92-3.94-5.5-7.82-4-3.69,1.47-9.43,1.51-7.07,8.22,2.12,6,4.52,11.92,6.47,18,.59,1.84.1,4,.11,6-1.38-1.61-3.3-3-4-4.86a162.81,162.81,0,0,1-5.55-16.67c-1.36-5-3.92-5.94-8.42-3.8a64.86,64.86,0,0,1-10,3.79c-1.38.4-3.06-.27-4.6-.45,1.1-1.2,2-2.85,3.36-3.51,2.5-1.19,5.3-1.75,8-2.67,7.62-2.64,7.64-2.67,5.41-10.21-.94-3.18-2.17-6.27-3-9.47-1.35-5-3.46-7.79-9-4.46-1.13.68-3.09,0-4.67-.1,1-1.19,1.89-3.09,3.16-3.44,5.78-1.57,6.05-4.42,3.84-9.55-3-7-5.08-14.42-7.35-21.73-1.09-3.52-2.8-4.4-6.21-2.84a82.54,82.54,0,0,1-10,3.65c-.74.22-1.75-.47-2.64-.74.4-.87.57-2.22,1.24-2.55a62.82,62.82,0,0,1,9.78-4.21c4.26-1.28,4-4,3-7.19-1.26-3.89-3.74-1.94-6.14-1.35-7.62,1.87-15.24,4.46-23,4.93-4.25.26-8.77-3.09-13-5.07-.56-.26-.38-2.12-.54-3.24,1,.12,2.1-.07,2.81.4,11,7.35,21.54,3,32.13-.95a9,9,0,0,0,3.26-1.88c4.44-4.59,4.84-4.44,7.34,1.68,1.14,2.78,3.69,7.75,4.29,7.56a81.31,81.31,0,0,0,15.79-7c.8-.47,0-4.29-.57-6.44-1.31-5.19-3-10.29-4.28-15.49-.22-.87.75-2,1.17-3.07.74.6,1.91,1.06,2.16,1.82,1.71,5.33,3.4,10.67,4.75,16.09.8,3.23,1.37,6.44,5.72,4.88,3.81-1.38,9.31-1.69,7.88-8.11-1.11-5-2.93-9.8-3.91-14.79-.54-2.77,0-5.75,0-8.63,1.36,2.45,3.15,4.77,4,7.39a127,127,0,0,1,3.2,13.38c.77,3.82,2.35,4.79,6.36,3.56,12.56-3.84,13.24-5,7.32-16.73-2-3.87-4-7.69-6.31-11.37-5.13-8.29-10-10.1-18.45-5-9.8,5.88-18.9,13-28.19,19.66-2.68,1.94-4.82,4.61-7.51,6.53-1.42,1-3.49,1.14-5.26,1.67.92-1.69,1.51-3.7,2.82-5a110.51,110.51,0,0,1,9.31-8c3-2.37,4-4.7,1.94-8.48-11.61-21.27-23-42.66-34.5-64a12.5,12.5,0,0,0-1.71-2.53c-1.48-1.61-3.06-3.12-4.6-4.67Zm105.18,79.42c-.67-2.92-1.07-5.46-1.84-7.88-3.88-12.12-7.75-24.26-11.85-36.31a127.23,127.23,0,0,0-6.3-15.56c-3.06-6.17-5.07-6.38-7.72-.34-4.38,10-7.89,20.39-11.63,30.67-1.14,3.15-.08,4,3.29,3,13.6-4.27,18-2.43,24.29,10.19,2.73,5.46,5,11.14,7.71,16.64.47,1,1.77,1.57,2.68,2.33Zm-22,18.75c2.83,9.68,5.45,18.74,8.19,27.76.23.76,1.62,1.92,2,1.76,5.86-2.41,12-4.43,17.17-8,1.25-.86-.79-6.87-1.71-10.41a69.51,69.51,0,0,0-3.19-8.6c-5.06-12.49-7.38-13.25-19.13-6.07C1216.34,756.57,1215.48,758,1214.29,759.32Zm20,60.85c6.23-2.32,11.82-4.09,17.07-6.59,1.23-.59,2.19-3.87,1.74-5.49-1.77-6.36-4.27-12.51-6.28-18.81-1.19-3.73-3.35-3.53-6.45-2.55-16.51,5.27-16.59,5.32-11.91,22.34a55.7,55.7,0,0,0,2.46,8C1231.47,818.34,1233.09,819.13,1234.28,820.17Zm-31.8-23.44c-1.78-6.81-3.21-12.73-4.89-18.58-3.86-13.45-3.85-13.28-16.79-7.51-3.8,1.7-5.1,3.57-3.66,7.51,2,5.48,3.69,11.07,5.64,16.56,4.33,12.19,6.53,12.88,17,5.31C1201.05,799.13,1201.8,797.59,1202.48,796.73ZM1218.3,788c-1.92-7.1-4.14-15.16-6.29-23.24-.81-3.06-1.4-6.43-5.82-4.31-3.44,1.64-9.31,1.14-7.15,8.08,2.41,7.73,4.5,15.56,6.59,23.39.78,2.91,2.17,4.82,5.31,3.52S1218.19,794,1218.3,788Zm-7.58,36.8c-1.73-6-3.55-12.6-5.64-19.14a3.27,3.27,0,0,0-2.93-1.35c-4.19,1.75-8.85,3.18-12,6.13-1.24,1.16.73,6,1.57,9.13s2.22,6.23,3.19,9.39,2.93,5,6.2,3.59C1204.66,830.93,1210,831.45,1210.72,824.78Zm-1.58-21c1.53,6.12,3,12,4.49,17.92.9,3.68,2.89,5.12,6.64,3.56,3.29-1.36,8.18-1.18,6.56-7-1.56-5.61-3.11-11.23-5-16.73-.67-1.95-.25-6-4.41-4.26C1214.16,798.68,1209.9,799.16,1209.14,803.82Z"/><path class="cls-1" d="M1320.17,439.93c-12.72-1.61-26.11-3.44-39.55-5a53.34,53.34,0,0,0-31.71,6.25c-11.27,5.91-23.25,10.44-34.87,15.69-2.68,1.21-5.15,2.88-7.72,4.34,2.73,1,5.41,2.22,8.2,3,4.43,1.17,9,1.82,13.39,3.12,1.64.49,2.91,2.18,4.35,3.32-1.64.2-3.38.83-4.92.51-8-1.66-15.83-4.15-23.87-5.18a39,39,0,0,0-15.51,1.4c-13.91,4.07-27.54,9.1-41.44,13.23a34.15,34.15,0,0,1-12.88.75c-4.91-.5-6.75-4.07-4.1-8.22s5.76-8.09,9.63-10.72c16.65-11.32,33.66-22.12,50.53-33.13,2.1-1.36,4.11-2.85,6.17-4.28a62.27,62.27,0,0,0-7.13-1.75c-22-2.8-44-5.69-66.11-8.06-4-.43-8.48.73-12.18,2.42-6,2.73-11.49,6.6-17.31,9.78a23.55,23.55,0,0,1-7.81,3c-2.83.37-5.81-.41-8.73-.68.35-3.11,0-6.51,1.22-9.23,1.4-3.18,4-5.89,6.33-8.58s2-3.84-1.36-5.29c-10.34-4.45-11.88-7.05-7.38-17.53,5.62-13.08,12.49-25.62,18.91-38.35a17.49,17.49,0,0,1,3.29-4.21c4.41-4.51,7.85-4,9.11,2.16a104.23,104.23,0,0,1,2.06,22c-.06,5.69,1.92,8.67,7.26,9.72,17.49,3.44,34.94,7.15,52.51,10.2,10,1.74,20.28,2.3,30.4,3.64,4.62.61,5.64-.4,3.25-4.64-4.75-8.45-9.56-16.88-13.76-25.6a76.21,76.21,0,0,1-5.6-16.58c-.56-2.6.22-6.91,2-8.18s5.83-.24,8.36.92a36.09,36.09,0,0,1,9.41,6.49c15.43,14.51,30.88,29,45.89,43.92,4.65,4.62,9.54,6.77,15.91,7.8,15.57,2.5,31.19,5.16,46.39,9.24,6.82,1.84,13.07,6.74,18.88,11.17,4.93,3.76,9.11,9.25,6.13,15.9C1333,440.92,1326.42,439.62,1320.17,439.93Zm.89-3.88c2.07-.21,3.76,0,5.07-.61,2.31-1.06,6.37-3,6.2-3.91-.58-2.92-2.15-6.32-4.45-8s-5.78-1.87-8.74-1.8c-15.82.35-31.64,1.17-47.47,1.47-10.55.19-12.52-1.75-15.92-11.73-1.78-5.23-3.19-11.32-6.8-15-14.58-15-29.85-29.36-45.1-43.7-3.68-3.45-8.16-6.13-12.51-8.76-2.75-1.67-5.25-1.2-4.23,2.88,1.17,4.67,2.26,9.48,4.36,13.75,5.29,10.73,11.27,21.12,16.69,31.79,2.95,5.8,1.76,7.35-4.77,6.64-9.13-1-18.29-1.9-27.34-3.43-20.1-3.39-40.23-6.73-60.17-10.95-10.14-2.15-11.13-4.59-11.48-15.05-.2-5.87-.4-11.73-.8-17.59-.07-1-1.11-2-1.7-3a10,10,0,0,0-2.34,1.77c-9.47,13.13-17,27.22-21.16,43-1.28,4.86.35,7.68,5.45,8.74,15.22,3.16,30.43,6.39,45.59,9.82,11.43,2.59,21.92,1.68,32.25-4.79,3.5-2.19,9.45-1.76,13.94-.84,10.22,2.09,20.27,5.08,30.3,8,2.74.8,5.16,2.68,7.72,4.07-2.24,1.94-4.26,4.24-6.75,5.78-18.46,11.37-37.09,22.46-55.47,33.94a124.07,124.07,0,0,0-15.08,11.72c-1.55,1.34-2.14,3.81-3.16,5.76,2.34.6,4.78,1.92,7,1.63,5.29-.69,10.74-1.48,15.66-3.41,29.87-11.71,59.92-23.07,89.29-36,14.65-6.43,29-8.92,44.58-6.49C1300.31,433.36,1311,434.66,1321.06,436.05Zm-128-15.94c3.8,0,5.84,0,7.87,0a26.26,26.26,0,0,0,2.92-.4c-1-.67-1.81-1.67-2.87-2-9.53-2.69-19-5.87-28.7-7.57-4.37-.77-9.29,1.37-13.91,2.44-1,.25-1.83,1.55-2.74,2.36a15.61,15.61,0,0,0,3.54,1.3C1171.08,417.66,1183,419,1193.11,420.11Zm-94.08-10c-7.72-.49-18.63,9-18.76,14.94,0,.55,2.15,1.87,2.78,1.61,5.61-2.37,11.22-4.8,16.59-7.64,3.06-1.62,5.68-4.06,8.5-6.13Zm185.29,8.51c4,.1,10.25-4.89,11.13-9.22a3.09,3.09,0,0,0-1.68-2.5q-8.48-1.89-17.07-3.25a3.18,3.18,0,0,0-2.54,1.76C1272.74,410.5,1279,418.52,1284.32,418.65ZM1260.85,402a16.21,16.21,0,0,0-2.7,1c.91,4.15,1.22,8.85,3.52,12.12,1.6,2.28,6,2.68,9.19,3.68.52.16,1.85-.83,2.09-1.52C1274.58,412.48,1267.11,402.23,1260.85,402Zm47.36,16c.51,0,1,0,1.52,0l10.63-1.07c-3.47-1.9-6.83-4.07-10.46-5.62-4.1-1.76-8.43-2.37-11.93,1.41-1,1.05-1.35,2.62-2,3.95a17.08,17.08,0,0,0,3.9,1.27C1302.63,418.15,1305.43,418,1308.21,418Z"/><path class="cls-1" d="M1281.48,260.36c-15.34-1.39-29.59-4.79-42.59-12.58-8.27-4.95-15.32-11.4-18.06-21-1.57-5.5-3.93-4.58-7.53-2.51-13.24,7.63-27.32,7.91-41.42,3.42a35.44,35.44,0,0,1-13.46-8.34c-9.22-9-9.35-21.95-.91-31.76,6.31-7.32,14.33-12,23.54-15,2.59-.84,6.14-2.7,6.81-4.86a40.13,40.13,0,0,1,26.23-27c13.77-4.66,22.38-12.38,29.44-25.34,10.79-19.85,39.68-24.83,61.78-12.28,8.32,4.72,14.5,10,26.13,6.78,11.88-3.35,29.56,13,27.65,29-.66,5.48-.71,8.83,6.49,8.82,6.15,0,9,5.06,10.61,10.54,5.07,16.94-5.75,36.62-23.67,40.88-7.18,1.7-8.56,4.48-9.06,11.37-1.62,22.4-15.4,36.08-35.37,43.69C1299.65,257.33,1290.38,258.35,1281.48,260.36Zm-3.19-5.51c21.5,1.27,38.07-6.54,51.66-21.1A38.2,38.2,0,0,0,1340.27,208c.12-4.43-1.54-6.89-6.46-7.7a59,59,0,0,1-16-4.87c-5.32-2.58-7-8.62-4.37-13,1.87-3,5.31-5.26,3.11-9.62-.22-.45.88-1.58,1.37-2.39.52.75,1.09,1.47,1.55,2.26.85,1.46,1.56,4.19,2.46,4.25,9.87.66,15,7.11,18.42,15.14,1.79,4.15,4,4.86,8.22,4.1,15.78-2.81,25.21-15.09,24.13-32-.77-12-5.73-15.28-16.74-11a22.12,22.12,0,0,1-4.17.8,24.85,24.85,0,0,1,.08-4.32,19.82,19.82,0,0,1,1.5-3.51c6-14.55-5.61-32.2-21.56-32.76-8-.28-10.25,2-9.57,9.92.13,1.52.55,3.24,0,4.53-.6,1.45-2,3.23-3.31,3.54s-3.93-.55-4.5-1.65c-1.07-2.09-2.13-5.14-1.37-7.06,2.75-7-1.15-10.67-5.95-14-21.94-15.26-50.74-9-64.27,14-1.59,2.7-2.11,6-3.12,9.08,2.94.37,5.89.7,8.83,1.12,6.25.9,12.8,1,18.6,3.11,3.08,1.14,6.67,5.82,6.71,8.94s-3.36,7.75-6.44,9.23a40.34,40.34,0,0,1-16.17,3.52c-11.11.21-16.39-4.51-18-15.48-.57-3.83-2.3-4.3-5-3.09-7.17,3.2-14.88,5.77-21.11,10.32-5.54,4-9.68,10.2-13.87,15.84-2.33,3.12-1.16,5.28,3.26,6a31.25,31.25,0,0,1,11.92,4.4c5.75,3.9,6.63,10.69,2.91,15.34a11.08,11.08,0,0,1-16.33.95,26.58,26.58,0,0,1-6.34-10.95c-1.5-5.09-4.33-6.29-8.39-4.19-5.62,2.9-11.44,5.85-16.14,10-13.37,11.71-11.74,26.43,4,34.76,15.47,8.17,31.11,6,46.22-1.75,3.73-1.9,4.88-5.14,5.23-9.42a41.68,41.68,0,0,1,4-13.69c.73-1.58,4.54-3.07,6.21-2.49s3.76,4.11,3.36,5.8a38.2,38.2,0,0,1-5.22,12.41c-5.72,8.46-6.15,12.71.42,20.5a52.79,52.79,0,0,0,11.36,10.1A70.59,70.59,0,0,0,1278.29,254.85Zm-27.94-119.38c-6.17,1.13-12-1.05-13.74,5.57-1.09,4.26,4.21,10.53,9.81,12.1a24.39,24.39,0,0,0,20.44-3.3c4.91-3.17,4.82-7.5-.55-9.77S1254.72,136.68,1250.35,135.47Zm83,62.71c1.4-1.47,3.68-2.78,3.64-4-.17-4.55-8.3-12.78-12.92-12.8-2.38,0-5.85,1.46-6.81,3.31-.82,1.58.5,5.73,2.16,6.86C1323.37,194.2,1328,195.74,1333.39,198.18Zm-138.3-24.25c-1.27,1.86-3,3.24-3.1,4.75-.41,4.9,4.18,11.52,8.88,11.82,2.65.16,6.15-1.75,7.94-3.85.92-1.09-.3-5.61-1.89-6.88C1203.86,177.36,1199.84,176.17,1195.09,173.93Zm28.55,32.3v4.37c.75-.58,1.87-1,2.16-1.79,1.15-3,2-6,3-9.07,0-.11-.74-.47-1.14-.71Zm94.86-78.67c.33-1.54.77-2.44.6-3.2s-1-1.08-1.57-1.61a11.59,11.59,0,0,0-.71,2.81C1316.81,126,1317.56,126.5,1318.5,127.56Z"/><path class="cls-1" d="M1213.19,599.69c-9.93-.48-19.9-.58-29.79-1.55-10.31-1-11.82-2.94-11.57-13a120.45,120.45,0,0,1,1.58-17.5c.43-2.46,2.39-6.2,4.14-6.49,2.38-.41,5.74,1.37,7.75,3.23,3.14,2.9,5.19,7,8.31,9.93,2,1.87,5.14,3.75,7.62,3.57,7.87-.57,15.67-2.13,23.5-3.24,3.86-.54,3.33-2.72,2.52-5.52-3-10.26-5.91-20.55-8.57-30.9-1.2-4.68-2.75-10.91,2.26-13.21,5.35-2.44,8.41,3.49,11,7.36,6.81,10.15,13.6,20.36,19.66,31,3.29,5.75,7,8.37,13.84,8.34,14.53-.06,29.07.9,43.6,1.52a16.9,16.9,0,0,1,5.21,1.1c4.66,1.8,5.16,4.83.82,7.63a45.52,45.52,0,0,1-11.78,5.32c-10.76,3.17-21.59,6.19-32.52,8.69-5.57,1.27-7,3.74-5.57,9.1,1.67,6.14,2.8,12.44,4,18.69a17.65,17.65,0,0,1,.46,6.07c-.31,1.85-1.53,3.55-2.34,5.31-1.75-.82-4.12-1.17-5.13-2.53-4.39-5.94-8.64-12-12.45-18.33-10.07-16.74-10-16.8-29.66-15.58l-6.88.44ZM1175,581.46c.42,11.66,1,12.75,13,13,15.29.38,30.63.35,45.9-.43,6.63-.34,10.33,1.54,13.41,7.31,4.55,8.53,9.93,16.62,15,24.85.47.76,1.54,1.14,2.34,1.7a8.49,8.49,0,0,0,.39-2.72c-.92-4.75-2-9.48-3-14.22-3.8-18.65-4.79-15.52,12.42-19.79,5.49-1.36,8.19-3,7-9.52-.93-5.18-2.65-6.91-7.71-6.43-4,.39-8.2-.36-12.23.07-5.71.6-8.73-2-11.43-6.74q-9.09-15.93-19.18-31.29c-1.8-2.76-5.09-4.55-7.69-6.78-.15,3.61-1.17,7.46-.27,10.79,2.78,10.32,6.13,20.49,9.59,30.61,1.45,4.24.51,6.23-3.95,6.79-9.62,1.2-19.24,2.45-28.82,3.88-4.57.68-7.11-1.81-9.45-5.07a120,120,0,0,0-7.78-10.35c-2.29-2.55-4.77-1.92-5.55,1.49C1176.1,572.86,1175.69,577.18,1175,581.46Zm124.78-5.35c-4.86,0-8.32-.62-11.36.25-1.61.46-3.73,3.77-3.39,5.3.44,2,3.51,5.25,4.72,5,7.08-1.72,14-4.29,20.87-6.65.63-.22,1.07-1,1.59-1.52a6.57,6.57,0,0,0-2-1C1306.29,576.85,1302.28,576.41,1299.81,576.11Z"/><path class="cls-1" d="M1567.72,286.8c8,2,16.25,2.79,23.19,6.16,14,6.8,28.9,7.68,43.89,9a93.5,93.5,0,0,1,18,3.25c3.08.89,5.62,3.68,8.41,5.61-2.55,2.16-4.77,5.28-7.72,6.32-16.82,5.93-33.75,11.63-50.79,16.92-17.54,5.43-35.25,10.34-52.9,15.4-7.49,2.15-10.9,1.18-14.74-5.69A193.4,193.4,0,0,1,1524.49,321c-.87-2.19-.36-6.89,1-7.55,2.22-1.12,6-.76,8.41.47a101.13,101.13,0,0,1,14.75,9.53c4.65,3.52,9.22,3.85,14.28,1.35q8.56-4.25,17.18-8.4c3.56-1.72,3.83-3.45.5-5.94-5.72-4.28-11.45-8.6-16.77-13.36-2-1.82-2.93-4.91-4.35-7.41Zm5.13,5.32-5.57,1.41c.87,1.2,1.5,2.7,2.63,3.55,5.28,4,10.86,7.63,16,11.77s5.09,5.64-.35,9-11.4,5.75-16.82,9.06c-9.36,5.7-17.63,4.72-25.74-2.55a46.65,46.65,0,0,0-11-6.86c-3.14-1.52-5.35-.15-3.71,3.47,3.13,6.94,6.75,13.66,10.14,20.48,2,4.11,5.06,5.11,9.47,3.86,14-4,28-7.62,42-11.64a9.87,9.87,0,0,0,5.35-3.88c7.16-11.86,18.44-14.59,30.56-12.23,9.28,1.81,17.09-.66,25.15-3.79,1.47-.58,2.6-2.06,3.88-3.13-1.5-.78-2.93-2.08-4.51-2.28-10.12-1.23-20.3-2-30.4-3.38a149.87,149.87,0,0,1-20-4.18C1590.47,298.08,1581.12,294.79,1572.85,292.12Zm52.51,29.4a10.73,10.73,0,0,0-2.24-.78c-7.53-.32-14.58,1.08-20.48,6.13-.59.5-.62,1.64-.91,2.49a5.67,5.67,0,0,0,2.17.19q9.69-3.14,19.33-6.44A11,11,0,0,0,1625.36,321.52Z"/><path class="cls-1" d="M1403.25,861.92c1-9.21,2-17,2.77-24.91.17-1.84-.19-5.22-.94-5.42-8.77-2.27-2-3.44.11-5.38a9.4,9.4,0,0,0,2.67-4.86,59.07,59.07,0,0,0,.64-9.14c.15-5.33,2.88-8.37,8-9.78,15.67-4.38,31.27-9,47-13.26,7.58-2,7.87-1.61,6.41,6.39-1.86,10.27-4.32,20.45-5.89,30.76-.5,3.33-4.18,9,3.66,9.64-.28,1.13-.39,3.18-.87,3.27-5.49,1-6.57,5-6.79,9.58-.26,5.7-3.23,8.55-8.86,9.52-14,2.42-28,5.09-42,7.8C1404.16,867.08,1402.27,865.5,1403.25,861.92Zm4.74-8.26c-.31,9-.24,9.05,8.81,7.23,3-.6,6-1.3,8.86-2.19,4.57-1.42,4.35-5.43,3.66-8.81-.18-.9-3.92-1.08-6-1.6L1418,847c1.61-.94,3.12-2.35,4.86-2.74,7.43-1.63,12.4-10.2,9.6-17.24a3.49,3.49,0,0,0-2.69-1.59c-13.68-.28-18.8,4.19-20.43,17.65C1408.87,846.59,1408.43,850.12,1408,853.66Zm30.56-39.31c-.79,3.85.92,4.92,5,3.66a37.52,37.52,0,0,1,8.91-1.76c7.59-.42,10.69-4.45,11.86-11.76,1.84-11.57,2-11.77-9.69-8.62l-5.13,1.41c-9.58,2.7-9.59,2.71-10.63,12.76C1438.76,811.3,1438.69,812.56,1438.55,814.35Zm-2.67,21.31c-.89,4.19,0,6.78,5.81,4.78,3.08-1.06,6.51-1.06,9.72-1.8,5.9-1.36,12.39-12.73,9.16-17.88-1.08-1.72-7.46-.15-11.41,0a12.09,12.09,0,0,0-2.2.62C1436.44,824,1436.44,824,1435.88,835.66Zm-.32-28.68c.65-3.72-.33-5.84-5.25-4-3.54,1.3-7.33,1.91-11,3-4.9,1.5-9.81,12.95-7.44,17.38a3.5,3.5,0,0,0,2.38,1.33C1426.21,826.43,1435.37,819,1435.56,807Zm-2.86,45.45c1.26,1.8,2.38,4.28,3,4.16,6.19-1.1,12.51-2.11,18.28-4.41,1.68-.66,1.84-5.38,2.43-8.29.08-.39-1.44-1.66-2-1.55-6,1.08-12.05,2-17.81,3.84C1434.9,846.71,1434.1,850,1432.7,852.43Z"/><path class="cls-1" d="M1457.53,306.38l-11-3.61c3.72-.75,7.42-2,11.15-2.14,10-.26,18.28-3.4,22.33-13.1,3.85-9.23,1.79-18-3.78-26.09-2.11-3.07-4.54-4.83-8.28-2.59a1.41,1.41,0,0,1-.73.18,69,69,0,0,1-8.66-.81c-.42-.08-.91-3.57-.41-3.87,2.88-1.69,6-3.94,9.13-4.06,7.12-.27,10-3.44,6.62-9.76-2.34-4.34-5.75-8.73-9.8-11.39-10.64-7-22.7-9-35.25-6.69a21,21,0,0,0-15.73,12.24,121.48,121.48,0,0,0-5.23,14.34c-1.32,4.08-3.14,5.56-7.11,2.64-7.51-5.51-12.47-5.52-17.27-.4-4.44,4.74-4.24,11.68.54,18.21.3.42.79.74,1,1.19.9,2.28,1.72,4.59,2.57,6.89-2.2-1.53-5-2.64-6.49-4.69-4.48-6.07-6.14-13.07-3.33-20.28,2.34-6,7.5-9,13.82-9.33,2.41-.15,5.45.08,7.21,1.44,4.3,3.31,4.82.45,5.91-2.67,4.89-14,14.2-23.19,29.37-24.33,17-1.27,32.08,3.66,42.36,18,2.24,3.12,2.67,9.09,1.34,12.83-1.63,4.59-1.16,7.44,1.77,10.81a27.11,27.11,0,0,1,3.94,6.52C1490.9,282,1484.47,302.86,1457.53,306.38Z"/><path class="cls-1" d="M1140.32,865.87c-2.86-2.17-5.79-3.72-7.76-6.08-1.58-1.88-3.43-5.56-2.62-7,1.43-2.47,4.72-5,7.4-5.23,2.05-.16,4.43,3.19,6.52,5.13a2.5,2.5,0,0,1,.22,2.21c-4.64,11.57,3.55,21.13,5.16,31.72.43,2.84,4.24,5,5.76,7.87,2.93,5.52,5.44,11.27,7.81,17.05.32.77-1.11,2.27-1.73,3.43a19.32,19.32,0,0,1-2-2.87c-2.35-5-4.32-10.17-7-15-1.85-3.36-4.85-3.5-7.49-.56-3.92,4.34-7.64,8.87-11.59,13.17-1,1.11-2.61,1.7-3.94,2.53.21-1.62-.13-3.65.73-4.77,3.56-4.64,7-9.49,11.39-13.33,3.81-3.36,3.83-6.83,2.89-11-1-4.45-4.15-6.58-8.39-6.26-15.34,1.16-22.32-6.82-25.15-21-1.79-8.95-5.38-17.54-8-26.32-.31-1,.2-2.33.32-3.5,1,.85,2.68,1.49,3.06,2.58,3.87,11.07,7.47,22.24,11.31,33.33,2.72,7.86,13.35,11.74,20.41,7.51C1138.48,869,1139,867.74,1140.32,865.87Z"/><path class="cls-1" d="M1664.85,674c-4.93-.83-8.7-1.36-12.44-2.12-7.92-1.62-7.92-1.67-10.48,6.23-3.36,10.39.4,19.52,5.17,28.43.72,1.34,1.87,2.45,2.57,3.79a9.4,9.4,0,0,1,.51,2.8c-1.12-.06-2.93.3-3.26-.25-2.46-4-4.77-8.2-6.83-12.46-1.64-3.36-2.86-6.93-4.26-10.4l-7.32,8.32a8.67,8.67,0,0,1-1.47,1.74,42,42,0,0,1-3.78,1.94c.15-1.41-.15-3.1.54-4.16,2.36-3.61,5.09-7,7.64-10.47,1.8-2.46,3.72-4.87,5.27-7.49,5.13-8.71,4.54-10.38-2.37-17.29-3.88-3.88-6.82-8.72-10-13.29-.54-.79.05-2.35.11-3.55,1,.52,2.48.76,3.09,1.59,1.8,2.46,3.2,5.2,4.9,7.74,1.27,1.89,2.47,4,4.22,5.35,1.43,1.08,3.63,1.11,5.49,1.61a27.11,27.11,0,0,0-.34-4.88c-1.38-5.36.2-9.06,4.61-10.29s8.39.87,9.45,5.33c.95,4-.58,6.78-4.3,8.7-1.61.83-2.77,2.53-4.13,3.84,1.64,1.09,3.15,2.61,5,3.19,7,2.23,14,2.72,20.8-.89,1.1-.58,2.79-.05,4.2,0-.66,1.28-1,3.31-2,3.72C1671.71,672.23,1667.81,673.15,1664.85,674Z"/><path class="cls-1" d="M1215.27,912.85l-2.78-.8c1.22-1,2.29-2.55,3.67-2.91,14-3.62,28.06-7.38,42.24-10.4,7.44-1.58,13.42-4.2,16.51-11.61a18.47,18.47,0,0,1,3.09-4.35c3.27-3.9,6.38-8.64,12.45-7.06,6.65,1.73,10.6,6.75,13,13,.38,1-.2,2.34-.34,3.53-1.06-.58-2.37-.93-3.12-1.79-1.85-2.09-3.31-4.54-5.16-6.63-4-4.54-7.4-4.87-11.61-.46-3.12,3.27-5.28,7.45-8.2,10.95-2,2.44-4.29,5.67-7,6.39-16.48,4.32-33.13,8-49.72,11.91A27.53,27.53,0,0,1,1215.27,912.85Z"/><path class="cls-1" d="M1300.72,669.92c0-1.78,0-3.56,0-5.35-.12-10.23-1.08-11-11.35-10.62-2.41.08-4.87-1.3-7.31-2,2.27-.7,4.52-1.44,6.82-2.05.71-.19,1.54.12,2.28,0,1.69-.35,3.36-.85,5-1.29-1.1-1-2.61-1.9-3.21-3.18-1.18-2.5-3-5.59-2.36-7.78.53-1.76,4.81-4,6.49-3.43,2.12.75,3.43,4.1,4.78,6.5.54,1,.26,2.39.36,3.61,1.21-.77,2.47-1.48,3.63-2.32,2.68-1.94,5.31-3.94,8-5.92-1.74,3-2.89,6.74-5.36,9-4.62,4.18-5.33,9.06-4.42,14.57,1,6.06,4,7,8.88,3.11,2.09-1.68,4.64-2.8,7-4.17-1.75,2.57-3.41,5.2-5.3,7.67a4.34,4.34,0,0,1-2.63,1.46c-8,1.06-9.18,5.69-7,12.54.4,1.26-.84,3-1.33,4.58-1.07-1.39-2.87-2.68-3.07-4.18-.46-3.51-.15-7.11-.15-10.68Z"/><path class="cls-1" d="M1661,619.31c3.79-1.95,7.56-3.95,11.38-5.85,5.6-2.77,11.2-5.56,16.91-8.1.79-.35,2.2.69,3.32,1.08a13.51,13.51,0,0,1-1.52,3.15c-4.83,5.78-10,11.26-14.54,17.28-2.41,3.22-4.1,4.44-8,2.19s-8.45-3.42-12.5-5.49c-1.75-.89-2.95-2.86-4.39-4.34,1.8-.58,3.58-1.28,5.43-1.69a10.9,10.9,0,0,1,3,.19Zm15.77-1.24c-2.32,1.33-4.7,2.57-6.91,4.06-.45.31-.25,1.58-.35,2.4.91.09,2.36.59,2.65.2,1.62-2.14,3-4.49,4.41-6.77l.62-1-.9.21Z"/><path class="cls-1" d="M1480.43,828.63c1.5-5.33,2.79-11.29,4.88-17,1.65-4.49,6.13-5.76,8.86-2.3,4,5.12,7,11.08,10.22,16.8.49.87-.19,2.4-.33,3.62-1.16-.83-2.73-1.42-3.4-2.54-2-3.27-3.29-6.92-5.36-10.1-1.14-1.74-3.27-2.84-5-4.23-1.2,1.8-3,3.46-3.46,5.43-.87,3.69-.71,7.62-1.51,11.34-.41,1.92-2,3.59-3,5.38Z"/><path class="cls-1" d="M1302.27,700.53c-.67,4.26-.86,8.66-2.1,12.75-1.8,5.9-6.23,7.73-10.31,3.49-5.72-5.93-10.07-13.19-14.87-20-.39-.54.22-1.78.36-2.69.94.31,2.3.32,2.75,1,2.58,3.77,4.57,8,7.49,11.46,2.45,2.89,5.91,4.94,8.93,7.36,1-3.52,2.25-7,2.8-10.58.5-3.25,0-6.64.33-9.92.13-1.24,1.43-2.35,2.2-3.52.69,1.23,1.79,2.41,2,3.72a49.11,49.11,0,0,1,.09,6.87Z"/><path class="cls-1" d="M1632.74,343c2.07,2.43,3.34,3.34,3.78,4.55,2.72,7.39,5.33,14.83,7.76,22.32.37,1.17-.41,2.7-.65,4.07-1.31-.85-3.33-1.42-3.79-2.6-2.84-7.34-5.42-14.79-7.85-22.29C1631.58,347.81,1632.31,346.16,1632.74,343Z"/><path class="cls-1" d="M1616,407l1.65-3.35c1.11,1.07,2.92,2,3.22,3.24,1.84,7.65,3.43,15.37,4.86,23.11.21,1.17-.83,2.56-1.3,3.85-1.14-1-3-1.89-3.32-3.12C1619.24,423.07,1617.74,415.33,1616,407Z"/><path class="cls-1" d="M1663.45,424.26c-.69.84-1.26,2-2.18,2.46-.52.24-2.13-.6-2.37-1.28-3.05-8.34-6-16.73-8.74-25.17-.23-.71.92-2.13,1.76-2.78.32-.25,2.13.58,2.37,1.25C1657.39,407.06,1660.33,415.45,1663.45,424.26Z"/><path class="cls-1" d="M1680.75,749.75c-.87.81-1.6,2-2.63,2.39-8,3.17-12,9.86-15.7,16.94a8.77,8.77,0,0,1-1.64,2.56,27.31,27.31,0,0,1-3.56,2.39c0-1.42-.47-3,0-4.23,3.49-9.08,9.06-16.47,18-20.79,1.46-.7,3.4-.4,5.12-.56C1680.48,748.88,1680.62,749.31,1680.75,749.75Z"/><path class="cls-1" d="M1614.75,376.82c-.56.73-1.16,2.22-2,2.37a3.25,3.25,0,0,1-2.67-1.81q-3-12.56-5.55-25.24c-.16-.82,1.12-1.94,1.73-2.92.94.61,2.53,1,2.72,1.84C1611,359.44,1612.78,367.88,1614.75,376.82Z"/><path class="cls-1" d="M1309.46,596.42c2.79,1.12,8.06,2.93,8,3.26-1.4,5.06-5.63,1.84-8.7,2.48a3.73,3.73,0,0,1-2.25-.14c-1.6-.8-3.1-1.82-4.64-2.75,1.67-.71,3.32-1.5,5-2.07a6.29,6.29,0,0,1,2.27.1Z"/><path class="cls-1" d="M1297,567.41l-7.61-4c2.45-.74,4.92-2.12,7.34-2,2.92.1,5.8,1.43,8.69,2.23Z"/><path class="cls-1" d="M1340.22,567.3l-8.64-3.26c2.72-.93,5.41-2.5,8.17-2.62s5.36,1.27,8,2Z"/><path class="cls-1" d="M1283.78,381.16c-4.68-.56-8-.74-11.22-1.45-1.14-.25-2-1.78-3-2.73,1.15-.66,2.31-1.89,3.45-1.86a49.82,49.82,0,0,1,9.82,1.18c1.43.34,2.59,1.86,3.87,2.85Z"/><path class="cls-1" d="M1356.09,604.36l-8.1-4c2.93-.69,5.86-1.93,8.78-1.91,2.39,0,4.77,1.54,7.15,2.39Z"/><path class="cls-1" d="M1399.4,409.3c1-.77,2-2.14,2.7-2,4.43,1,8.81,2.28,13.13,3.69a2.64,2.64,0,0,1,1.16,2.35c-.21.75-1.53,1.88-2.11,1.74-4.42-1.07-8.78-2.36-13.13-3.71C1400.58,411.21,1400.23,410.31,1399.4,409.3Z"/><path class="cls-1" d="M1252.13,376.51c-4.67-.43-7.75-.5-10.73-1.08-1.24-.25-2.26-1.6-3.38-2.45,1.18-.74,2.35-2.11,3.53-2.11a50,50,0,0,1,9.83,1c1.47.3,2.72,1.63,4.07,2.49Z"/><path class="cls-1" d="M1635.29,475l-1.79,3c-1-.85-2.67-1.53-3-2.6a54.58,54.58,0,0,1-1.82-9.6c-.1-.93,1-2,1.52-3,1,.64,2.52,1.1,2.78,2C1633.94,467.9,1634.46,471.14,1635.29,475Z"/><path class="cls-1" d="M1451.64,423.65c-1,.67-2.33,2.14-3.18,1.92a115.6,115.6,0,0,1-12.21-4.05,2.69,2.69,0,0,1-1.26-2.33c.17-.76,1.53-1.95,2-1.8,4.59,1.31,9.11,2.86,13.63,4.41C1451,421.91,1451.12,422.63,1451.64,423.65Z"/><path class="cls-1" d="M1338.93,388.84c4.11.94,7.6,1.6,11,2.62.95.29,1.58,1.64,2.35,2.5-.91.69-1.93,2.07-2.71,1.94a109.52,109.52,0,0,1-12.55-2.71c-.71-.2-1-2-1.47-3Z"/><path class="cls-1" d="M1320.55,386.89c-.84.58-1.87,1.88-2.71,1.77a101,101,0,0,1-12.67-2.52c-.55-.15-.48-2.59-.69-4,5.11,1,10.23,1.91,15.34,2.94C1320.07,385.16,1320.18,386,1320.55,386.89Z"/><path class="cls-1" d="M1473.34,429.9c4.35,1.61,8.39,3,12.33,4.63.67.28,1.47,2,1.23,2.33-.63.84-2,1.94-2.73,1.73-4.1-1.16-8.13-2.59-12.1-4.15-.66-.26-1.45-1.84-1.21-2.35C1471.28,431.18,1472.45,430.63,1473.34,429.9Z"/><path class="cls-1" d="M1380.32,405.77c-4.25-1.17-7.71-2-11-3.12-1-.34-1.54-1.71-2.3-2.61,1.17-.64,2.45-2,3.48-1.8a53,53,0,0,1,10.22,2.76c1.18.46,1.84,2.27,2.75,3.47Z"/><path class="cls-1" d="M1293.94,490.39a13.41,13.41,0,0,1-2.83,1,6.05,6.05,0,0,1-2.92-.35c-3.64-1.49-7.23-3.1-10.84-4.67.41-.83,1-2.44,1.22-2.39,4.38,1,8.73,2.19,13,3.46C1292.17,487.59,1292.5,488.51,1293.94,490.39Z"/><path class="cls-1" d="M1322.16,500.29c-1.57.5-3,1.47-4,1.2a68.77,68.77,0,0,1-10.05-3.42c-.84-.36-1.43-1.85-1.62-2.91-.07-.4,1.53-1.66,2.06-1.5,4.08,1.26,8.1,2.72,12.09,4.25C1321.15,498.11,1321.39,499.06,1322.16,500.29Z"/><path class="cls-1" d="M1350.05,512.69c-1.11.49-2.46,1.65-3.35,1.37a93.78,93.78,0,0,1-10.57-4.27,3,3,0,0,1-1.37-2.37c.07-.67,1.48-1.89,1.9-1.74,4.24,1.53,8.42,3.26,12.58,5C1349.56,510.83,1349.62,511.57,1350.05,512.69Z"/><path class="cls-1" d="M1347.58,620.85c-5.13-.59-8.91-.94-12.65-1.54-.76-.12-1.38-1.16-2.07-1.78.71-.55,1.43-1.58,2.15-1.58a90.4,90.4,0,0,1,12.1.6c1.33.19,2.44,2,3.65,3Z"/><path class="cls-1" d="M1257.44,480.34c-2.39-.74-3.94-1-5.24-1.67-2.31-1.25-4.46-2.78-6.68-4.2,2.79-.06,5.59-.22,8.38-.14a7.42,7.42,0,0,1,3.62.9,22.14,22.14,0,0,1,3.34,3.17Z"/><path class="cls-1" d="M1373.15,563.47c-1.6,1.21-2.59,2.53-3.4,2.43-1.18-.14-2.24-1.31-3.35-2,.79-.82,1.57-2.32,2.36-2.32C1370,561.52,1371.2,562.54,1373.15,563.47Z"/><path class="cls-2" d="M1610.52,581.21c0,15.39-.15,30.72.09,46,.07,4.76-.67,7.22-6.19,5.72-34.91-9.49-71-11.57-106.66-16-28.1-3.48-56.49-4.69-84.76-6.85-8.66-.66-17.33-1.09-26-1.74a30.13,30.13,0,0,1-4.86-1.17c.72-1.56,1.13-3.38,2.19-4.65q17.72-21.15,35.59-42.15a25.61,25.61,0,0,0,2-2.27c3.76-5.68,8.13-8.18,14.25-3.11a5.16,5.16,0,0,0,2.75,1.25,12.79,12.79,0,0,0,3.4-.76,25.67,25.67,0,0,0-1-3.25c-.16-.37-.86-.47-1.3-.74-2.33-1.43-4.65-2.88-7-4.32,1.8-2.38,3.43-4.9,5.42-7.11,21.24-23.65,39.1-49.76,56-76.56a24.69,24.69,0,0,1,3.51-5c.57-.54,2.56-.22,3.48.38,2.31,1.52,5.61,5.28,6.33,4.81,2.71-1.77,5.73-4.63,6.34-7.56.51-2.43-2-5.65-3.56-8.3-.87-1.5-2.52-2.55-3.81-3.79,2,.11,4.23-.27,6,.46,2.56,1.06,4.73,3,7.14,4.43,2.09,1.23,4.57,2.23,5.19-1.28.29-1.69-.76-3.64-1.34-5.42-.12-.35-.85-.5-1.3-.75-10.84-6.05-10.78-6-5.1-17.46,6.46-13,12.65-26.17,19.27-39.11a53.73,53.73,0,0,1,8.4-12.66c8-8.4,18.09-8.38,26.36-.26,10,9.8,15.13,22.5,18.56,35.57,6.78,25.83,6.82,19.46-15.37,24.48-9.95,2.24-20,4.11-30.07,5.71-4.87.77-5.16,3-3.64,6.84,1.76,4.44,2.67,9.37,5.15,13.34,1.6,2.57,5.25,5.11,8.16,5.32a6.91,6.91,0,0,0,7.39-8c-2.21-11.24,5.59-12.86,13-15.27,5.33-1.74,10.73-3.27,16-5.2,4-1.46,5.68-.23,6.18,3.8,1.81,14.43,4.19,28.81,5.52,43.29C1605.27,515,1607.79,548.11,1610.52,581.21Zm-38.31-52.77,1.68.37c-2.67,12.12-5.31,24.24-8,36.35-.17.78-.94,1.42-1.43,2.13a10.15,10.15,0,0,1-1.08-2.48c-.51-3.51-.51-7.14-1.39-10.54-1.15-4.5-4.17-4.93-7.4-2a26.29,26.29,0,0,0-5.28,6.48c-3.33,6-6.27,12.25-9.43,18.37a25.42,25.42,0,0,1-2.15,3,24.62,24.62,0,0,1-1.2-3.77c-1.57-10.07-2.68-20.24-4.79-30.19-.7-3.29-3.94-6-6-9-2.43,2.42-5.66,4.44-7.11,7.35-3.51,7-6.16,14.53-9.25,21.8a26.59,26.59,0,0,1-2.28,3.67,23.46,23.46,0,0,1-1.6-3.91c-1.82-8.2-3.31-16.48-5.43-24.6-.54-2.06-3-3.63-4.55-5.42-1.86,1.86-4.76,3.42-5.41,5.64-2.69,9.3-4.78,18.78-7,28.23a73.81,73.81,0,0,0-1.52,9.81c-.09,1,.84,2,1.31,3.05.84-.75,2.08-1.35,2.43-2.29.61-1.64.58-3.5,1-5.24,2.28-10.2,4.58-20.4,7-30.57.23-1,1.22-1.8,1.85-2.7.61.78,1.52,1.47,1.76,2.34,1.06,3.94,2.07,7.91,2.83,11.91,1.08,5.76,1.66,11.64,3,17.33.7,3,2.59,5.62,3.94,8.41a76.13,76.13,0,0,0,4.2-7.72c3.16-7.79,5.9-15.75,9.17-23.49,1.25-2.94,3.49-5.45,5.28-8.16,1.29,3.14,3.28,6.18,3.73,9.43,1.4,10.11,2.07,20.31,3.37,30.44.36,2.82,1.91,5.5,2.91,8.24,1.82-2.2,3.68-4.38,5.44-6.63a11.6,11.6,0,0,0,.92-2.09c3-6.19,5.81-12.52,9.22-18.49,1.64-2.87,4.49-5.05,6.8-7.54.5,3.42,1.46,6.84,1.4,10.24-.09,6.12-.92,12.23-1.17,18.35-.08,1.84.76,3.72,1.17,5.59,1.55-1.42,3.88-2.55,4.51-4.29,8.06-22.14,15.27-44.49,13.21-68.57-1.83-21.36-14.38-35.89-34.9-38.71-23.78-3.27-44.57,5.75-64.29,17.88a2.86,2.86,0,0,0-1.11,1,25.48,25.48,0,0,0-1,2.75c1.09.06,2.4.55,3.24.11,3.39-1.75,6.67-3.74,9.94-5.74s5.12-1.13,5.89,2.59,1.14,7.72,2.74,11.09c1.51,3.18,4.38,5.7,6.66,8.52,2.76-2.3,5.79-4.34,8.17-7,1.46-1.61,1.83-4.16,2.86-6.2.87-1.71,2-3.3,3-4.93.49,2,1.08,3.91,1.45,5.9.5,2.75.27,5.79,1.39,8.23,1.28,2.79,3.63,7,5.66,7.07,2.85.13,6.26-2.54,8.64-4.83s3.55-5.41,5.27-8.18c.11,3.32-.14,6.7.44,9.94.64,3.59,1.37,9.49,3.28,10,3.52,1,8.38-.4,11.85-2.31,4.4-2.41,7.94-6.35,11.89-9.59,2.77-2.27,4.49-2.32,4.32,2C1572.1,520.77,1572.21,524.6,1572.21,528.44Zm-117.87,37.9.32.84,7.76-3.13c-2.79-.89-5.57-1.87-8.39-2.65a5,5,0,0,0-3,0,39.17,39.17,0,0,0-4.63,2.59,49.62,49.62,0,0,0,4.93,2.26A9.93,9.93,0,0,0,1454.34,566.34Zm36.24,43.25.36-.86a7.22,7.22,0,0,0,2.28,0c1.72-.61,3.38-1.41,5.06-2.14-1.56-.89-3.07-1.88-4.69-2.64a3.7,3.7,0,0,0-2.26-.09c-3.11.75-6.19,1.59-9.28,2.4ZM1451,607.33l3.57-2.87c-1.45-1-2.81-2.63-4.39-2.89-1.09-.19-2.5,1.47-3.76,2.3Zm-39.92-.52,4.5-3.94c-2.18-.76-4.31-1.92-6.53-2.14-1.3-.13-2.75,1.24-4.13,1.93Z"/><path class="cls-2" d="M1609.66,531.69c1.62-2.91,2.51-6.86,5-8.58q36.28-25.5,73.14-50.2c3.71-2.47,8.85-2.79,13.33-4.11-.31,4.6.27,9.49-1.06,13.78-14.11,45.46-34.65,87.67-65,124.66-4.63,5.66-10.6,10.25-16.12,15.13-2.49,2.2-4,1.46-4-2.07-.13-7.66-.39-15.31-.72-23q-1.41-32.51-2.92-65Z"/><path class="cls-2" d="M1382,611.44c25.29,2.12,49.21,3.77,73,6.26,11.25,1.17,20.6,13.87,19.9,25.15-.4,6.39-4,10.06-11.86,12-9.48,2.34-12.44,1.46-16.47-4.91-.13-.21-.23-.45-.36-.67-2-3.47-4.23-6.74-8.84-5.7a5.31,5.31,0,0,0-3.27,3.42c-1,4.56,2.2,7,5.67,8.93,8.22,4.67,10.76,10.43,7.66,19.23-3.21,9.13-10,14.59-19.44,16.48-9,1.8-15.67-2.33-20-9.59-3.71-6.27-6.32-13.24-8.91-20.09-2.41-6.38-3.62-6.72-8.78-2.32a179,179,0,0,1-18.58,14.43c-4.11,2.66-9.49,3.52-13.42-.75-4.19-4.56-2.73-10,.6-14,4.17-5,9.31-9.29,14.43-13.39,5.57-4.46,5.77-4.7.75-9.74-1.58-1.59-3.68-3.36-4.05-5.32-.56-3.05-.89-7.09.68-9.27,1.23-1.72,5.47-1.37,8.4-1.7.92-.1,1.93.87,2.89.85a50,50,0,0,0,5.56-.69,38.47,38.47,0,0,0-5-3.6,57.2,57.2,0,0,0-6.72-2.44Z"/><path class="cls-2" d="M1581,757.35c8.94.74,15,1.18,21.14,1.76,4.34.42,6.69,2.89,5.69,7.24-3.55,15.34-6.38,30.94-11.32,45.83-4.13,12.43-13,21-27.36,22.31-12.59,1.14-22.64-2.93-30.08-13-11-14.77-16.36-32.11-21.94-49.33-1.26-3.9,1.12-5.08,4.08-5.74,9.68-2.14,19.31-4.68,29.09-6.12C1561.35,758.73,1572.57,758.13,1581,757.35Z"/><path class="cls-2" d="M1374.3,530c9.74-5.36-.31-8.84-.32-13.43,0-16.56-.86-33.16.12-49.66.5-8.43,3.88-16.77,6.64-24.93.84-2.46,4-4.15,6-6.19,1.38,2.32,3.25,4.49,4,7,2.68,8.51,4.51,17.3,7.5,25.68,7.9,22.14,21.26,41.2,35.51,59.55,3.69,4.75,3.69,7.38-.21,11.5-7.18,7.61-13.9,15.65-20.85,23.49-1.21,1.36-1.46,1.57-3.86.28-3.91-2.11-9.54-1.07-14.45-1.22-.39,0-1.29,1.43-1.14,1.63.65.94,1.52,2.27,2.44,2.37,3,.34,6.11.21,9.18.26,2.44,0,4.48.34,1.87,3.26-5.11,5.7-10.28,11.35-15.36,17.09-2.44,2.75-3.25,1-3.8-1.29C1383.2,567,1378.81,548.68,1374.3,530Zm37,8.25c-.81-1.05-1.14-1.89-1.73-2.18-3.67-1.75-7.36-3.47-11.14-5-.58-.23-2,.57-2.36,1.24s0,2.33.51,2.58c3.88,1.88,7.83,3.63,11.86,5.12C1409.05,540.22,1410.23,538.9,1411.3,538.2Z"/><path class="cls-2" d="M1295.2,780.72q4.18-20.51,8.35-41c1-4.88,3.37-6.73,8.63-5.48a230,230,0,0,1,65.69,26.23c6,3.61,6,4.39.25,8.11-13.68,8.84-27.32,17.78-41.42,25.91a74.86,74.86,0,0,1-19.92,7.42c-12.69,3-19.41-2.45-20.21-15.54-.11-1.78,0-3.57,0-5.35Z"/><path class="cls-2" d="M1610.85,728.35c-.52,6.09-1,12.19-1.6,18.26-.31,2.88.21,6.33-4.31,6.84s-9.94.4-11.13-4.28c-2.23-8.73-6.89-9.09-14.41-7.62s-13.55-4-14.47-11.41c-1-7.67,2.62-12.4,10.84-14.41,1-.24,2.27-.32,2.85-1,1.67-1.89,3.05-4,4.54-6.07-2.52-.39-5-.86-7.57-1.09-.65-.06-1.33.78-2.06.93-2.42.51-4.88.89-7.32,1.32.15-3.32-.87-7.39.69-9.79a14.69,14.69,0,0,1,16.92-5.94,69,69,0,0,1,20.89,10.2c3.26,2.4,4.55,8.1,5.66,12.57.9,3.61.19,7.62.19,11.44Z"/><path class="cls-2" d="M1236.28,740.57l-1.37,2.71c-.91-.76-2.21-1.35-2.68-2.33-2.67-5.5-5-11.18-7.71-16.64-6.31-12.62-10.69-14.46-24.29-10.19-3.37,1.07-4.43.18-3.29-3,3.74-10.28,7.25-20.67,11.63-30.67,2.65-6,4.66-5.83,7.72.34a127.23,127.23,0,0,1,6.3,15.56c4.1,12,8,24.19,11.85,36.31C1235.21,735.11,1235.61,737.65,1236.28,740.57Z"/><path class="cls-2" d="M1214.29,759.32c1.19-1.29,2-2.75,3.33-3.53,11.75-7.18,14.07-6.42,19.13,6.07a69.51,69.51,0,0,1,3.19,8.6c.92,3.54,3,9.55,1.71,10.41-5.13,3.54-11.31,5.56-17.17,8-.38.16-1.77-1-2-1.76C1219.74,778.06,1217.12,769,1214.29,759.32Z"/><path class="cls-2" d="M1234.28,820.17c-1.19-1-2.81-1.83-3.37-3.1a55.7,55.7,0,0,1-2.46-8c-4.68-17-4.6-17.07,11.91-22.34,3.1-1,5.26-1.18,6.45,2.55,2,6.3,4.51,12.45,6.28,18.81.45,1.62-.51,4.9-1.74,5.49C1246.1,816.08,1240.51,817.85,1234.28,820.17Z"/><path class="cls-2" d="M1202.48,796.73c-.68.86-1.43,2.4-2.65,3.29-10.52,7.57-12.72,6.88-17-5.31-2-5.49-3.63-11.08-5.64-16.56-1.44-3.94-.14-5.81,3.66-7.51,12.94-5.77,12.93-5.94,16.79,7.51C1199.27,784,1200.7,789.92,1202.48,796.73Z"/><path class="cls-2" d="M1218.3,788c-.11,6-4.34,6.18-7.36,7.44s-4.53-.61-5.31-3.52c-2.09-7.83-4.18-15.66-6.59-23.39-2.16-6.94,3.71-6.44,7.15-8.08,4.42-2.12,5,1.25,5.82,4.31C1214.16,772.82,1216.38,780.88,1218.3,788Z"/><path class="cls-2" d="M1210.72,824.78c-.68,6.67-6.06,6.15-9.65,7.75-3.27,1.46-5.21-.38-6.2-3.59s-2.33-6.2-3.19-9.39-2.81-8-1.57-9.13c3.19-2.95,7.85-4.38,12-6.13a3.27,3.27,0,0,1,2.93,1.35C1207.17,812.18,1209,818.8,1210.72,824.78Z"/><path class="cls-2" d="M1209.14,803.82c.76-4.66,5-5.14,8.3-6.52,4.16-1.74,3.74,2.31,4.41,4.26,1.87,5.5,3.42,11.12,5,16.73,1.62,5.83-3.27,5.65-6.56,7-3.75,1.56-5.74.12-6.64-3.56C1212.17,815.83,1210.67,809.94,1209.14,803.82Z"/><path class="cls-2" d="M1321.06,436.05c-10.11-1.39-20.75-2.69-31.34-4.35-15.57-2.43-29.93.06-44.58,6.49-29.37,12.89-59.42,24.25-89.29,36-4.92,1.93-10.37,2.72-15.66,3.41-2.22.29-4.66-1-7-1.63,1-1.95,1.61-4.42,3.16-5.76a124.07,124.07,0,0,1,15.08-11.72c18.38-11.48,37-22.57,55.47-33.94,2.49-1.54,4.51-3.84,6.75-5.78-2.56-1.39-5-3.27-7.72-4.07-10-2.94-20.08-5.93-30.3-8-4.49-.92-10.44-1.35-13.94.84-10.33,6.47-20.82,7.38-32.25,4.79-15.16-3.43-30.37-6.66-45.59-9.82-5.1-1.06-6.73-3.88-5.45-8.74,4.15-15.76,11.69-29.85,21.16-43a10,10,0,0,1,2.34-1.77c.59,1,1.63,2,1.7,3,.4,5.86.6,11.72.8,17.59.35,10.46,1.34,12.9,11.48,15.05,19.94,4.22,40.07,7.56,60.17,10.95,9,1.53,18.21,2.43,27.34,3.43,6.53.71,7.72-.84,4.77-6.64-5.42-10.67-11.4-21.06-16.69-31.79-2.1-4.27-3.19-9.08-4.36-13.75-1-4.08,1.48-4.55,4.23-2.88,4.35,2.63,8.83,5.31,12.51,8.76,15.25,14.34,30.52,28.68,45.1,43.7,3.61,3.72,5,9.81,6.8,15,3.4,10,5.37,11.92,15.92,11.73,15.83-.3,31.65-1.12,47.47-1.47,3-.07,6.56.18,8.74,1.8s3.87,5.11,4.45,8c.17.89-3.89,2.85-6.2,3.91C1324.82,436.05,1323.13,435.84,1321.06,436.05Z"/><path class="cls-2" d="M1193.11,420.11c-10.15-1.14-22-2.45-33.89-3.86a15.61,15.61,0,0,1-3.54-1.3c.91-.81,1.7-2.11,2.74-2.36,4.62-1.07,9.54-3.21,13.91-2.44,9.72,1.7,19.17,4.88,28.7,7.57,1.06.3,1.92,1.3,2.87,2a26.26,26.26,0,0,1-2.92.4C1199,420.15,1196.91,420.11,1193.11,420.11Z"/><path class="cls-2" d="M1099,410.14l9.11,2.78c-2.82,2.07-5.44,4.51-8.5,6.13-5.37,2.84-11,5.27-16.59,7.64-.63.26-2.79-1.06-2.78-1.61C1080.4,419.17,1091.31,409.65,1099,410.14Z"/><path class="cls-2" d="M1284.32,418.65c-5.29-.13-11.58-8.15-10.16-13.21a3.18,3.18,0,0,1,2.54-1.76q8.58,1.35,17.07,3.25a3.09,3.09,0,0,1,1.68,2.5C1294.57,413.76,1288.35,418.75,1284.32,418.65Z"/><path class="cls-2" d="M1260.85,402c6.26.2,13.73,10.45,12.1,15.26-.24.69-1.57,1.68-2.09,1.52-3.21-1-7.59-1.4-9.19-3.68-2.3-3.27-2.61-8-3.52-12.12A16.21,16.21,0,0,1,1260.85,402Z"/><path class="cls-2" d="M1308.21,418c-2.78,0-5.58.13-8.35-.06a17.08,17.08,0,0,1-3.9-1.27c.66-1.33,1-2.9,2-3.95,3.5-3.78,7.83-3.17,11.93-1.41,3.63,1.55,7,3.72,10.46,5.62L1309.73,418A12.85,12.85,0,0,1,1308.21,418Z"/><path class="cls-2" d="M1278.29,254.85A70.59,70.59,0,0,1,1239.77,243a52.79,52.79,0,0,1-11.36-10.1c-6.57-7.79-6.14-12-.42-20.5a38.2,38.2,0,0,0,5.22-12.41c.4-1.69-1.68-5.22-3.36-5.8s-5.48.91-6.21,2.49a41.68,41.68,0,0,0-4,13.69c-.35,4.28-1.5,7.52-5.23,9.42-15.11,7.71-30.75,9.92-46.22,1.75-15.78-8.33-17.41-23.05-4-34.76,4.7-4.11,10.52-7.06,16.14-10,4.06-2.1,6.89-.9,8.39,4.19a26.58,26.58,0,0,0,6.34,10.95,11.08,11.08,0,0,0,16.33-.95c3.72-4.65,2.84-11.44-2.91-15.34a31.25,31.25,0,0,0-11.92-4.4c-4.42-.76-5.59-2.92-3.26-6,4.19-5.64,8.33-11.79,13.87-15.84,6.23-4.55,13.94-7.12,21.11-10.32,2.72-1.21,4.45-.74,5,3.09,1.61,11,6.89,15.69,18,15.48a40.34,40.34,0,0,0,16.17-3.52c3.08-1.48,6.48-6.07,6.44-9.23s-3.63-7.8-6.71-8.94c-5.8-2.13-12.35-2.21-18.6-3.11-2.94-.42-5.89-.75-8.83-1.12,1-3,1.53-6.38,3.12-9.08,13.53-23,42.33-29.26,64.27-14,4.8,3.33,8.7,7,5.95,14-.76,1.92.3,5,1.37,7.06.57,1.1,3.14,2,4.5,1.65s2.71-2.09,3.31-3.54c.53-1.29.11-3,0-4.53-.68-7.88,1.54-10.2,9.57-9.92,16,.56,27.57,18.21,21.56,32.76a19.82,19.82,0,0,0-1.5,3.51,24.85,24.85,0,0,0-.08,4.32,22.12,22.12,0,0,0,4.17-.8c11-4.26,16-1,16.74,11,1.08,17-8.35,29.24-24.13,32-4.24.76-6.43.05-8.22-4.1-3.47-8-8.55-14.48-18.42-15.14-.9-.06-1.61-2.79-2.46-4.25-.46-.79-1-1.51-1.55-2.26-.49.81-1.59,1.94-1.37,2.39,2.2,4.36-1.24,6.59-3.11,9.62-2.68,4.35-1,10.39,4.37,13a59,59,0,0,0,16,4.87c4.92.81,6.58,3.27,6.46,7.7A38.2,38.2,0,0,1,1330,233.75C1316.36,248.31,1299.79,256.12,1278.29,254.85Z"/><path class="cls-2" d="M1250.35,135.47c4.37,1.21,10.44,2.26,16,4.6s5.46,6.6.55,9.77a24.39,24.39,0,0,1-20.44,3.3c-5.6-1.57-10.9-7.84-9.81-12.1C1238.31,134.42,1244.18,136.6,1250.35,135.47Z"/><path class="cls-2" d="M1333.39,198.18c-5.35-2.44-10-4-13.93-6.64-1.66-1.13-3-5.28-2.16-6.86,1-1.85,4.43-3.32,6.81-3.31,4.62,0,12.75,8.25,12.92,12.8C1337.07,195.4,1334.79,196.71,1333.39,198.18Z"/><path class="cls-2" d="M1195.09,173.93c4.75,2.24,8.77,3.43,11.83,5.84,1.59,1.27,2.81,5.79,1.89,6.88-1.79,2.1-5.29,4-7.94,3.85-4.7-.3-9.29-6.92-8.88-11.82C1192.12,177.17,1193.82,175.79,1195.09,173.93Z"/><path class="cls-2" d="M1223.64,206.23l4-7.2c.4.24,1.17.6,1.14.71-.91,3-1.8,6.11-3,9.07-.29.77-1.41,1.21-2.16,1.79Z"/><path class="cls-2" d="M1318.5,127.56c-.94-1.06-1.69-1.54-1.68-2a11.59,11.59,0,0,1,.71-2.81c.55.53,1.43,1,1.57,1.61S1318.83,126,1318.5,127.56Z"/><path class="cls-2" d="M1175,581.46c.66-4.28,1.07-8.6,2-12.8.78-3.41,3.26-4,5.55-1.49a120,120,0,0,1,7.78,10.35c2.34,3.26,4.88,5.75,9.45,5.07,9.58-1.43,19.2-2.68,28.82-3.88,4.46-.56,5.4-2.55,3.95-6.79-3.46-10.12-6.81-20.29-9.59-30.61-.9-3.33.12-7.18.27-10.79,2.6,2.23,5.89,4,7.69,6.78q10.05,15.36,19.18,31.29c2.7,4.72,5.72,7.34,11.43,6.74,4-.43,8.19.32,12.23-.07,5.06-.48,6.78,1.25,7.71,6.43,1.17,6.56-1.53,8.16-7,9.52-17.21,4.27-16.22,1.14-12.42,19.79,1,4.74,2.07,9.47,3,14.22a8.49,8.49,0,0,1-.39,2.72c-.8-.56-1.87-.94-2.34-1.7-5.11-8.23-10.49-16.32-15-24.85-3.08-5.77-6.78-7.65-13.41-7.31-15.27.78-30.61.81-45.9.43C1176,594.21,1175.45,593.12,1175,581.46Z"/><path class="cls-2" d="M1299.81,576.11c2.47.3,6.48.74,10.47,1.31a6.57,6.57,0,0,1,2,1c-.52.52-1,1.3-1.59,1.52-6.91,2.36-13.79,4.93-20.87,6.65-1.21.3-4.28-3-4.72-5-.34-1.53,1.78-4.84,3.39-5.3C1291.49,575.49,1295,576.11,1299.81,576.11Z"/><path class="cls-2" d="M1572.85,292.12c8.27,2.67,17.62,6,27.14,8.66a149.87,149.87,0,0,0,20,4.18c10.1,1.41,20.28,2.15,30.4,3.38,1.58.2,3,1.5,4.51,2.28-1.28,1.07-2.41,2.55-3.88,3.13-8.06,3.13-15.87,5.6-25.15,3.79-12.12-2.36-23.4.37-30.56,12.23a9.87,9.87,0,0,1-5.35,3.88c-14,4-28,7.66-42,11.64-4.41,1.25-7.44.25-9.47-3.86-3.39-6.82-7-13.54-10.14-20.48-1.64-3.62.57-5,3.71-3.47a46.65,46.65,0,0,1,11,6.86c8.11,7.27,16.38,8.25,25.74,2.55,5.42-3.31,11.4-5.73,16.82-9.06s5.47-4.9.35-9-10.75-7.77-16-11.77c-1.13-.85-1.76-2.35-2.63-3.55Z"/><path class="cls-2" d="M1625.36,321.52a11,11,0,0,1-2.13,1.59q-9.64,3.28-19.33,6.44a5.67,5.67,0,0,1-2.17-.19c.29-.85.32-2,.91-2.49,5.9-5.05,12.95-6.45,20.48-6.13A10.73,10.73,0,0,1,1625.36,321.52Z"/><path class="cls-2" d="M1408,853.66c.44-3.54.88-7.07,1.31-10.61,1.63-13.46,6.75-17.93,20.43-17.65a3.49,3.49,0,0,1,2.69,1.59c2.8,7-2.17,15.61-9.6,17.24-1.74.39-3.25,1.8-4.86,2.74l5.34,1.32c2.1.52,5.84.7,6,1.6.69,3.38.91,7.39-3.66,8.81-2.91.89-5.88,1.59-8.86,2.19C1407.75,862.71,1407.68,862.62,1408,853.66Z"/><path class="cls-2" d="M1438.55,814.35c.14-1.79.21-3.05.34-4.31,1-10,1-10.06,10.63-12.76l5.13-1.41c11.65-3.15,11.53-3,9.69,8.62-1.17,7.31-4.27,11.34-11.86,11.76a37.52,37.52,0,0,0-8.91,1.76C1439.47,819.27,1437.76,818.2,1438.55,814.35Z"/><path class="cls-2" d="M1435.88,835.66c.56-11.67.56-11.67,11.08-14.29a12.09,12.09,0,0,1,2.2-.62c3.95-.14,10.33-1.71,11.41,0,3.23,5.15-3.26,16.52-9.16,17.88-3.21.74-6.64.74-9.72,1.8C1435.88,842.44,1435,839.85,1435.88,835.66Z"/><path class="cls-2" d="M1435.56,807c-.19,12-9.35,19.45-21.26,17.71a3.5,3.5,0,0,1-2.38-1.33c-2.37-4.43,2.54-15.88,7.44-17.38,3.62-1.11,7.41-1.72,11-3C1435.23,801.14,1436.21,803.26,1435.56,807Z"/><path class="cls-2" d="M1432.7,852.43c1.4-2.39,2.2-5.72,3.88-6.25,5.76-1.84,11.83-2.76,17.81-3.84.61-.11,2.13,1.16,2,1.55-.59,2.91-.75,7.63-2.43,8.29-5.77,2.3-12.09,3.31-18.28,4.41C1435.08,856.71,1434,854.23,1432.7,852.43Z"/><path class="cls-2" d="M1676.59,618c-1.44,2.28-2.79,4.63-4.41,6.77-.29.39-1.74-.11-2.65-.2.1-.82-.1-2.09.35-2.4,2.21-1.49,4.59-2.73,6.91-4.06Z"/><path class="cls-2" d="M1676.79,618.07l-.48-.9.9-.21-.62,1Z"/><path class="cls-1" d="M1572.21,528.44c0-3.84-.11-7.67,0-11.5.17-4.35-1.55-4.3-4.32-2-4,3.24-7.49,7.18-11.89,9.59-3.47,1.91-8.33,3.29-11.85,2.31-1.91-.53-2.64-6.43-3.28-10-.58-3.24-.33-6.62-.44-9.94-1.72,2.77-3,6-5.27,8.18s-5.79,5-8.64,4.83c-2-.09-4.38-4.28-5.66-7.07-1.12-2.44-.89-5.48-1.39-8.23-.37-2-1-3.94-1.45-5.9-1,1.63-2.11,3.22-3,4.93-1,2-1.4,4.59-2.86,6.2-2.38,2.63-5.41,4.67-8.17,7-2.28-2.82-5.15-5.34-6.66-8.52-1.6-3.37-2-7.35-2.74-11.09s-2.61-4.6-5.89-2.59-6.55,4-9.94,5.74c-.84.44-2.15-.05-3.24-.11a25.48,25.48,0,0,1,1-2.75,2.86,2.86,0,0,1,1.11-1c19.72-12.13,40.51-21.15,64.29-17.88,20.52,2.82,33.07,17.35,34.9,38.71,2.06,24.08-5.15,46.43-13.21,68.57-.63,1.74-3,2.87-4.51,4.29-.41-1.87-1.25-3.75-1.17-5.59.25-6.12,1.08-12.23,1.17-18.35.06-3.4-.9-6.82-1.4-10.24-2.31,2.49-5.16,4.67-6.8,7.54-3.41,6-6.19,12.3-9.22,18.49a11.6,11.6,0,0,1-.92,2.09c-1.76,2.25-3.62,4.43-5.44,6.63-1-2.74-2.55-5.42-2.91-8.24-1.3-10.13-2-20.33-3.37-30.44-.45-3.25-2.44-6.29-3.73-9.43-1.79,2.71-4,5.22-5.28,8.16-3.27,7.74-6,15.7-9.17,23.49a76.13,76.13,0,0,1-4.2,7.72c-1.35-2.79-3.24-5.46-3.94-8.41-1.35-5.69-1.93-11.57-3-17.33-.76-4-1.77-8-2.83-11.91-.24-.87-1.15-1.56-1.76-2.34-.63.9-1.62,1.71-1.85,2.7-2.4,10.17-4.7,20.37-7,30.57-.39,1.74-.36,3.6-1,5.24-.35.94-1.59,1.54-2.43,2.29-.47-1-1.4-2.08-1.31-3.05a73.81,73.81,0,0,1,1.52-9.81c2.17-9.45,4.26-18.93,7-28.23.65-2.22,3.55-3.78,5.41-5.64,1.57,1.79,4,3.36,4.55,5.42,2.12,8.12,3.61,16.4,5.43,24.6a23.46,23.46,0,0,0,1.6,3.91,26.59,26.59,0,0,0,2.28-3.67c3.09-7.27,5.74-14.75,9.25-21.8,1.45-2.91,4.68-4.93,7.11-7.35,2.08,3,5.32,5.74,6,9,2.11,10,3.22,20.12,4.79,30.19a24.62,24.62,0,0,0,1.2,3.77,25.42,25.42,0,0,0,2.15-3c3.16-6.12,6.1-12.35,9.43-18.37a26.29,26.29,0,0,1,5.28-6.48c3.23-2.94,6.25-2.51,7.4,2,.88,3.4.88,7,1.39,10.54a10.15,10.15,0,0,0,1.08,2.48c.49-.71,1.26-1.35,1.43-2.13,2.73-12.11,5.37-24.23,8-36.35Zm-50.89-37.76c.63,4.79,1.18,9.59,1.93,14.36a31.47,31.47,0,0,0,1.72,6.64,23.71,23.71,0,0,0,2.73,4.22,29.64,29.64,0,0,0,4-3.19,19.24,19.24,0,0,0,2.94-4.44c2.62-5.22,5-10.55,7.74-15.74.59-1.14,2-1.86,3.06-2.77.59,1.33,1.53,2.62,1.68,4s-.53,3-.69,4.5c-.63,6.07-1.63,12.14-1.66,18.22,0,6.31,2.92,8,8.17,4.68,4.91-3.1,9.22-7.15,13.79-10.79,4-3.18,3.64-6.57,1.06-10.63-8.93-14.1-22.55-18.17-38.09-18C1521.65,481.86,1521.38,482.41,1521.32,490.68Zm-6.72-5.95c-12.63-.59-18.23,6.19-15.17,17.28a56.53,56.53,0,0,0,2.6,7.11c1.4,3.3,3.92,3.84,5.37.59,3.26-7.33,5.92-14.94,8.6-22.52C1516.25,486.5,1514.92,485.25,1514.6,484.73Z"/><path class="cls-1" d="M1454.34,566.34a9.93,9.93,0,0,1-3-.06,49.62,49.62,0,0,1-4.93-2.26,39.17,39.17,0,0,1,4.63-2.59,5,5,0,0,1,3,0c2.82.78,5.6,1.76,8.39,2.65l-7.76,3.13Z"/><path class="cls-1" d="M1490.58,609.59l-8.53-3.37c3.09-.81,6.17-1.65,9.28-2.4a3.7,3.7,0,0,1,2.26.09c1.62.76,3.13,1.75,4.69,2.64-1.68.73-3.34,1.53-5.06,2.14a7.22,7.22,0,0,1-2.28,0Z"/><path class="cls-1" d="M1451,607.33l-4.58-3.46c1.26-.83,2.67-2.49,3.76-2.3,1.58.26,2.94,1.86,4.39,2.89Z"/><path class="cls-1" d="M1411,606.81l-6.16-4.15c1.38-.69,2.83-2.06,4.13-1.93,2.22.22,4.35,1.38,6.53,2.14Z"/><path class="cls-1" d="M1411.3,538.2c-1.07.7-2.25,2-2.86,1.79-4-1.49-8-3.24-11.86-5.12-.51-.25-.83-1.92-.51-2.58s1.78-1.47,2.36-1.24c3.78,1.5,7.47,3.22,11.14,5C1410.16,536.31,1410.49,537.15,1411.3,538.2Z"/><path class="cls-2" d="M1521.32,490.68c.06-8.27.33-8.82,8.43-8.92,15.54-.2,29.16,3.87,38.09,18,2.58,4.06,2.94,7.45-1.06,10.63-4.57,3.64-8.88,7.69-13.79,10.79-5.25,3.33-8.2,1.63-8.17-4.68,0-6.08,1-12.15,1.66-18.22.16-1.51.85-3,.69-4.5s-1.09-2.66-1.68-4c-1,.91-2.47,1.63-3.06,2.77-2.7,5.19-5.12,10.52-7.74,15.74a19.24,19.24,0,0,1-2.94,4.44,29.64,29.64,0,0,1-4,3.19,23.71,23.71,0,0,1-2.73-4.22,31.47,31.47,0,0,1-1.72-6.64C1522.5,500.27,1522,495.47,1521.32,490.68Z"/><path class="cls-2" d="M1514.6,484.73c.32.52,1.65,1.77,1.4,2.46-2.68,7.58-5.34,15.19-8.6,22.52-1.45,3.25-4,2.71-5.37-.59a56.53,56.53,0,0,1-2.6-7.11C1496.37,490.92,1502,484.14,1514.6,484.73Z"/></svg>