<svg xmlns="http://www.w3.org/2000/svg" viewBox="0 0 1920 1080"><defs><style>.cls-1{fill:#1e5782;}.cls-2{fill:#ef4444;}.cls-3,.cls-9{font-size:12px;}.cls-3{font-family:NuevaStd-Bold, Nueva Std;}.cls-11,.cls-3{font-weight:700;}.cls-4{font-size:17px;}.cls-4,.cls-9{font-family:KozGoPr6N-Regular-90ms-RKSJ-H, Kozuka Gothic Pr6N;}.cls-5{letter-spacing:-0.08em;}.cls-6{letter-spacing:-0.15em;}.cls-7{letter-spacing:-0.05em;}.cls-8{letter-spacing:-0.1em;}.cls-10{letter-spacing:-0.04em;}.cls-11{font-size:21.72px;font-family:Calibri-Bold, Calibri;}.cls-12{font-size:15.84px;font-family:Calibri;}.cls-13{font-size:7px;font-family:Calibri-LightItalic, Calibri;font-style:italic;}.cls-13,.cls-20{font-weight:300;}.cls-14{letter-spacing:-0.02em;}.cls-15{letter-spacing:-0.01em;}.cls-16{letter-spacing:-0.04em;}.cls-17{letter-spacing:-0.02em;}.cls-18{letter-spacing:0em;}.cls-19{letter-spacing:-0.01em;}.cls-20{font-size:8px;font-family:Calibri-Light, Calibri;}.cls-21{letter-spacing:-0.03em;}.cls-22{letter-spacing:-0.03em;}.cls-23{letter-spacing:-0.01em;}.cls-24{letter-spacing:0.13em;}.cls-25{letter-spacing:-0.09em;}.cls-26{letter-spacing:0.13em;}.cls-27{letter-spacing:0.01em;}.cls-28{fill:#a6c5f7;}.cls-29{fill:#295980;}.cls-30{fill:#ed5f5f;}.cls-31{fill:#e74442;}.cls-32{fill:#1e3a53;}.cls-33{fill:#e5c573;}.cls-34{fill:#d4ad5b;}.cls-35{fill:#f5b505;}.cls-36{fill:#fff;}.cls-37{fill:#fcd809;}.cls-38{fill:#968d8f;}.cls-39{fill:#1c3c56;}.cls-40{fill:#2a597e;}.cls-41{fill:#3a586d;}.cls-42{fill:#dd4d4a;}.cls-43{fill:#2f5579;}.cls-44{fill:#71818f;}.cls-45{fill:#20496b;}.cls-46{fill:#193a53;}.cls-47{fill:#f4f6f7;}.cls-48{fill:#fafbfb;}.cls-49{fill:#fdfdfd;}.cls-50{fill:#978f92;}.cls-51{fill:#25587f;}.cls-52{fill:#fa0;}.cls-53{fill:#8c6100;}.cls-54{fill:#f1f0f0;}.cls-55{fill:#e9202a;}.cls-56{fill:#d2d3d4;}.cls-57{fill:#dfdada;}.cls-58{fill:#d2d0cf;}.cls-59{fill:#b5343b;}.cls-60{fill:#d04651;}.cls-61{fill:#ed1c26;}.cls-62{fill:#d2d2d3;}.cls-63{fill:#bdbec0;}.cls-64{fill:#b7b6b7;}.cls-65{fill:#b8b5b4;}.cls-66{fill:#bab4b4;}.cls-67{fill:#b1272b;}.cls-68{fill:#fdfcfc;}.cls-69{fill:#eff0f0;}.cls-70{fill:#f7f8f9;}.cls-71{fill:#717173;}.cls-72{fill:#df2f3a;}.cls-73{fill:#727173;}.cls-74{fill:#757577;}.cls-75{fill:#d82a37;}</style></defs><g id="Layer_6" data-name="Layer 6"><path class="cls-1" d="M351.87,483.21l-72.68-6v-166l-24.56-2.52,9.83-50.39,150.93,3.78,43.87,28.66-3.93,79.68L432.41,396l-80.54,15.12Zm0-116.84,35.69-6.3L384.29,321l-32.42-3.15Z"/><path class="cls-2" d="M498.54,264.34H622.63L666.5,293V447.94L640,477.54,513.28,487,472,458V286.07Zm47.81,50.38h-1.64V426.84l47.47,2.83h1.64V345l.33.31V322Z"/><path class="cls-1" d="M895.36,463.68,826.6,493l-45.51-83.14-6.55,1.26v72.12l-72.68-6v-166l-24.55-2.52,9.82-50.39,150.93,3.78,43.87,28.66L878,370.47,855.09,396,840,398.81ZM774.54,317.87v48.5l35.69-6.3L807,321Z"/><path class="cls-1" d="M1072.48,258.35l2.62,61.73-59.92-.63,4.59,134.16L992.59,481l-44.85-4.41V318.82l-45.18-.32-9.82-50.7Z"/><path class="cls-1" d="M1111.11,264.34H1235.2L1279.07,293V447.94l-26.52,29.6L1125.84,487l-41.25-29V286.07Zm47.8,50.38h-1.64V426.84l47.48,2.83h1.63V345l.33.31V322Z"/><path class="cls-1" d="M299.5,569.68l-27.17-3.47L286.41,513l158.79,7.88v68l-72.69-9.45v50.07l62.54-9.44v45l-62.54,9.45v63.3l-73-6Z"/><path class="cls-1" d="M486.45,517.72H610.53l43.88,28.65v155l-26.52,29.6-126.71,9.45-41.25-29V539.45Zm47.8,50.38h-1.64V680.22l47.48,2.83h1.63V598.34l.33.31v-23.3Z"/><path class="cls-1" d="M667.83,683.68l19.32-1.26L678,517.09l72.68-5.36-.33,166.6,93-6,2.62,61.41-168.29.63Z"/><path class="cls-1" d="M929.75,738.48l-72.69-6v-210l72.69-5.35Z"/><path class="cls-2" d="M978.2,517.72h124.09l43.87,28.65v155l-26.52,29.6-126.71,9.45-41.25-29V539.45ZM1026,568.1h-1.63V680.22l47.47,2.83h1.64V598.34l.32.31v-23.3Z"/><text class="cls-3" transform="translate(477.89 850.64)">©2026</text><text class="cls-4" transform="translate(289.84 833.2)"><tspan class="cls-5">山</tspan><tspan class="cls-6" x="15.64" y="0">ヨ</tspan><tspan class="cls-7" x="30.09" y="0">し</tspan><tspan x="46.24" y="0">亡回</tspan><tspan class="cls-5" x="80.24" y="0">冊</tspan><tspan class="cls-7" x="95.88" y="0">ヨ</tspan><tspan x="112.03" y="0">　卞回　</tspan><tspan class="cls-5" x="180.03" y="0">冊と</tspan><tspan x="211.31" y="0">　尸回尺卞回乍</tspan><tspan class="cls-8" x="330.31" y="0">回</tspan><tspan class="cls-7" x="345.61" y="0">し</tspan><tspan x="361.76" y="0">工回</tspan></text><text class="cls-9" transform="translate(289.99 850.89)">ﾑ乃ﾑ<tspan class="cls-10" x="24" y="0">ﾉ</tspan><tspan x="29.52" y="0">ズﾑ刀　丂ﾑﾌﾑ　ｲ乇ﾒｲ　ﾉ刀ﾉ</tspan></text><text class="cls-11" transform="translate(743.48 800.05)">Civil Engineering /</text><text class="cls-12" transform="translate(744.48 818.25)">noun</text><text class="cls-13" transform="translate(745.01 831.03)"><tspan class="cls-14">K</tspan><tspan x="3.38" y="0">emampuan u</tspan><tspan class="cls-15" x="40.51" y="0">n</tspan><tspan x="43.99" y="0">tuk mengubah </tspan><tspan class="cls-16" x="86.16" y="0">k</tspan><tspan x="88.99" y="0">a</tspan><tspan class="cls-17" x="92.53" y="0">n</tspan><tspan x="95.95" y="0">vas </tspan><tspan class="cls-16" x="106.81" y="0">k</tspan><tspan x="109.64" y="0">osong menjadi sebuah </tspan><tspan class="cls-18" x="174.04" y="0">c</tspan><tspan x="176.93" y="0">eri</tspan><tspan class="cls-19" x="184.13" y="0">t</tspan><tspan x="186.33" y="0">a</tspan></text><text class="cls-20" transform="translate(744.14 847.13)">Selam<tspan class="cls-15" x="19.43" y="0">a</tspan><tspan x="23.12" y="0">t</tspan><tspan class="cls-21" x="25.75" y="0"> </tspan><tspan x="27.35" y="0">d</tspan><tspan class="cls-15" x="31.5" y="0">a</tspan><tspan class="cls-19" x="35.19" y="0">t</tspan><tspan x="37.7" y="0">ang</tspan><tspan class="cls-22" x="49.38" y="0"> </tspan><tspan x="50.97" y="0">di</tspan><tspan class="cls-21" x="56.9" y="0"> </tspan><tspan x="58.49" y="0">ruang</tspan><tspan class="cls-21" x="77.08" y="0"> </tspan><tspan x="78.68" y="0">k</tspan><tspan class="cls-19" x="82.2" y="0">r</tspan><tspan x="84.85" y="0">e</tspan><tspan class="cls-15" x="88.8" y="0">a</tspan><tspan x="92.49" y="0">tif</tspan><tspan class="cls-21" x="99.21" y="0"> </tspan><tspan x="100.81" y="0">s</tspan><tspan class="cls-17" x="103.9" y="0">a</tspan><tspan class="cls-19" x="107.51" y="0">y</tspan><tspan x="110.92" y="0">a.</tspan><tspan class="cls-22" x="116.64" y="0"> </tspan><tspan x="118.24" y="0">Di</tspan><tspan class="cls-21" x="124.86" y="0"> </tspan><tspan x="126.46" y="0">sini,</tspan><tspan class="cls-21" x="139.2" y="0"> </tspan><tspan x="140.8" y="0">s</tspan><tspan class="cls-18" x="143.89" y="0">et</tspan><tspan x="147.8" y="0">iap</tspan><tspan class="cls-22" x="160.06" y="0"> </tspan><tspan x="161.66" y="0">p</tspan><tspan class="cls-17" x="165.81" y="0">r</tspan><tspan class="cls-18" x="168.41" y="0">o</tspan><tspan class="cls-23" x="172.55" y="0">y</tspan><tspan x="175.98" y="0">ek</tspan><tspan class="cls-21" x="183.46" y="0"> </tspan><tspan x="185.05" y="0">bu</tspan><tspan class="cls-17" x="193.37" y="0">k</tspan><tspan x="196.74" y="0">an </tspan><tspan x="0" y="10">se</tspan><tspan class="cls-17" x="7.05" y="10">k</tspan><tspan x="10.42" y="10">adar</tspan><tspan class="cls-24" x="24.86" y="10"> </tspan><tspan x="27.71" y="10">hasil</tspan><tspan class="cls-24" x="42.26" y="10"> </tspan><tspan x="45.1" y="10">akhi</tspan><tspan class="cls-25" x="58.32" y="10">r</tspan><tspan x="60.33" y="10">,</tspan><tspan class="cls-24" x="62.29" y="10"> </tspan><tspan x="65.14" y="10">melain</tspan><tspan class="cls-17" x="86.87" y="10">k</tspan><tspan x="90.24" y="10">an</tspan><tspan class="cls-26" x="98.17" y="10"> </tspan><tspan x="101.01" y="10">sebuah</tspan><tspan class="cls-24" x="124.29" y="10"> </tspan><tspan x="127.14" y="10">p</tspan><tspan class="cls-17" x="131.3" y="10">r</tspan><tspan x="133.9" y="10">oses</tspan><tspan class="cls-24" x="148.21" y="10"> </tspan><tspan x="151.06" y="10">panjang</tspan><tspan class="cls-24" x="176.65" y="10"> </tspan><tspan x="179.49" y="10">dari</tspan><tspan class="cls-24" x="191.94" y="10"> </tspan><tspan x="194.78" y="10">ide </tspan><tspan x="0" y="20">hin</tspan><tspan class="cls-27" x="10.08" y="20">g</tspan><tspan class="cls-17" x="13.91" y="20">g</tspan><tspan x="17.5" y="20">a menjadi </tspan><tspan class="cls-17" x="50.85" y="20">n</tspan><tspan class="cls-19" x="54.85" y="20">y</tspan><tspan class="cls-15" x="58.26" y="20">a</tspan><tspan class="cls-19" x="61.95" y="20">t</tspan><tspan x="64.46" y="20">a. Sila</tspan><tspan class="cls-17" x="82.91" y="20">k</tspan><tspan x="86.28" y="20">an jelajahi dunia s</tspan><tspan class="cls-17" x="143.57" y="20">a</tspan><tspan class="cls-19" x="147.18" y="20">y</tspan><tspan x="150.59" y="20">a.</tspan></text></g><g id="Layer_7" data-name="Layer 7"><polygon class="cls-28" points="1184.73 792.91 1206.56 714.27 1238.86 687.35 1271.45 693.93 1292.98 652.96 1354.29 652.96 1382.4 705 1452.07 705 1452.07 765.4 1409.19 765.4 1363.26 799.2 1347.11 844.05 1229.29 844.05 1184.73 792.91"/><polygon class="cls-28" points="1237.66 857.51 1272.05 910.74 1283.41 917.62 1310.63 917.62 1332.76 909.54 1343.82 857.51 1237.66 857.51"/><polygon class="cls-2" points="1345.91 909.24 1371.33 812.05 1419.78 777.66 1450.88 777.66 1484.37 777.66 1513.38 850.03 1498.43 911.93 1463.74 939.15 1382.99 939.15 1345.91 909.24"/><polygon class="cls-28" points="1238.26 642.5 1262.48 489.98 1440.41 475.63 1458.65 632.33 1238.26 642.5"/><polygon class="cls-28" points="1306.29 386.36 1313.91 261.66 1458.65 192.58 1562.87 280.95 1541.34 384.57 1425.16 434.36 1306.29 386.36"/><path class="cls-28" d="M1472.71,962.32l14.35-29.15,23.78-6.28,7.62-44.86,21.08-9.42,17,7.63,23.77,39.47s-1.34,43.06-17,52.48-36.78,20.19-36.78,20.19S1464.19,992.38,1472.71,962.32Z"/><path class="cls-28" d="M1580.36,891.9l-11.21-13.46s6.73-27.81,18.84-22.88,25.12,8.39,26,17.88-2.69,38.64-15.7,32.36S1580.36,891.9,1580.36,891.9Z"/><path class="cls-28" d="M1588.44,939.15,1601,925.09s-9-11.21,3.14-13.9,26.91,6.43,26.91,6.43l3.59,25.86s-7.62,20.19-23.1,15.7S1588.44,939.15,1588.44,939.15Z"/><path class="cls-28" d="M1628.36,902.22s19.29,15.25,19.74,18.84,34.09-12.12,34.09-25.57S1655.28,865,1655.28,865L1632,868.12S1622.08,891.45,1628.36,902.22Z"/><polygon class="cls-29" points="1499.4 777.66 1529.68 847.27 1693.18 847.27 1747.01 802.18 1734.22 709.33 1575.43 674.34 1499.4 777.66"/><polygon class="cls-1" points="1458.65 434.36 1469.12 613.11 1555.24 617.15 1592.25 512.19 1566.68 389.73 1458.65 434.36"/><polygon class="cls-28" points="1627.26 475.63 1584.42 622.76 1669.65 674.34 1766.54 659.54 1780 599.43 1780 534.84 1717.2 483.7 1627.26 475.63"/><path class="cls-28" d="M1452.07,668.51s23.33-40.37,34.1-26,13.23,49.35,13.23,49.35L1471.91,708,1444,690Z"/><path class="cls-28" d="M1485.27,720.55s-1.8,9.86,6.28,9.86,26.91-9.86,26.91-9.86l7-24.23L1491.55,708Z"/><path class="cls-30" d="M1623.05,462.63c-.35.39-.92.43-3.06.44-1.8,0-3.39,0-4.7,0-5.63-3-18.17-10.84-25.28-26.21-9.46-20.46-4.29-43.47,5.38-57.2.72-1,5.84-6.32,16-16.91.89-.92,20-20.78,21-21.71l6.76.78q-3.78,8.85-7.57,17.7l.74.42q7.26-9,14.51-18.05l6.19-.08,2.55.43c-.82,4.12-1.72,8.24-2.4,12.38-.17,1,.37,2.06.59,3.09,1.15-.36,2.61-.41,3.37-1.14,1-1,1.41-2.46,2.08-3.73,0,3.32,0,6.64,0,10,0,2.51-.85,4.66-3.47,5.76l-3.43.09-.7.05c-.49,1.5-1.31,3-1.4,4.5-.11,1.8-.57,2.69-2.51,3.23a22.55,22.55,0,0,0-5.79,2.73C1635,383.5,1633,398.31,1644,404l-5.52,11.2c-.46.54-1.14,1-1.33,1.64-.85,2.74-1.55,5.52-2.31,8.28,28.63,1.49,38.65,3.2,38.69,4.89,0,2.48-21.42,5.19-21.36,10.11,0,1.71,2.61,2.49,2.53,4.5-.11,2.61-4.61,4.59-8.71,5.9a21.07,21.07,0,0,1-9.84,7,21.3,21.3,0,0,1-14.71-.56C1621.83,457.66,1624.18,461.35,1623.05,462.63Zm-11.18-20.19c-6.78,2-11.92.05-15.56-6.27-.82,4.84.67,7.68,4.43,9.55C1604,447.35,1608.32,446.25,1611.87,442.44Z"/><path class="cls-31" d="M1717.64,417.11c.3,5.8.5,24.07-12.11,36-4.49,4.24-11.08,8.11-30.41,10.77a204.38,204.38,0,0,1-59.83-.8c46.1-43.61,55.45-57.85,52.87-61.28-.67-.9-5-3.2-9.83-5.75-2.19-1.16-4.75-1.77-6.74-3.16-2.8-2-2.07-5.62,1.29-6.18,2.81-.47,5.82.27,8.73.24,4.75-.06,6.62,0,8.28-5.65,1.38-4.68-3-3.31-4.83-4.58a1.15,1.15,0,0,0-.33-.09c-5.37-1.43-5.37-1.43-5.75-6.86,0-.2-.19-.38-.35-.69l-2.92-.51c2.62-1.1,3.42-3.25,3.47-5.76,0-3.32,0-6.64,0-10,.6-3.37,1.19-6.74,1.83-10.34.56.58,1,1,1.47,1.5a66.08,66.08,0,0,1,12.76,21.31c.66,1.81,2,2.72,3.54,1.85.8-.44,1.19-2.33,1-3.45a14.07,14.07,0,0,0-1.87-4.58c-3.32-5.73-6.74-11.41-10.21-17.24l1.39-.9a102.85,102.85,0,0,1,10.17,7.57C1704.51,369.88,1713.85,398.9,1717.64,417.11Z"/><path class="cls-31" d="M1659.24,301.66c4.58,4.23,10,4.83,16,3.72,2.77-.52,5.93-2.15,8.08,1.17s-.47,5.32-2.19,7.62c-4.34,5.81-8.64,11.66-13,17.49L1653,332.81c2.3-.72,2.72-2.3,2.8-4.51.28-7.53.77-15.06,1.42-22.57C1657.33,304.33,1658.54,303,1659.24,301.66Z"/><path class="cls-32" d="M1653,332.81l15.15-1.15c1.6,3.48,1.37,3.75-4.43,5,1.83,1.42,7.32-1.47,5.41,4.26l-1.39.9c3.47,5.83,6.89,11.51,10.21,17.24a14.07,14.07,0,0,1,1.87,4.58c.18,1.12-.21,3-1,3.45-1.58.87-2.88,0-3.54-1.85A66.08,66.08,0,0,0,1662.5,344c-.43-.48-.91-.92-1.47-1.5-.64,3.6-1.23,7-1.83,10.34-.67,1.27-1.09,2.77-2.08,3.73-.76.73-2.22.78-3.38,1.14-.21-1-.75-2.11-.58-3.09.68-4.14,1.58-8.26,2.4-12.38l-2.55-.43-6.19.08-7.68-.07-6.76-.78a7.47,7.47,0,0,1,2.8-6.07l4.71-.71,4.77-.54Z"/><path class="cls-30" d="M1653,332.81l-8.33.88c-.66-2.75-1.27-5.51-2-8.24-1.83-7-3.72-13.95-5.59-20.92,3.25-1.45,6.64-2.67,9.7-4.41,4.88-2.77,8.94-2.43,12.46,1.54-.7,1.36-1.91,2.67-2,4.07-.65,7.51-1.14,15-1.42,22.57C1655.71,330.51,1655.29,332.09,1653,332.81Z"/><path class="cls-31" d="M1637.08,304.53c1.87,7,3.76,13.94,5.59,20.92.72,2.73,1.33,5.49,2,8.24l-4.77.54-19.75-30.46h10.78l1.34.28,2.8.43Z"/><path class="cls-30" d="M1630.92,303.77h-10.78l19.75,30.46-4.71.71c-2.14-3.08-4.36-6.1-6.39-9.24-4.28-6.64-8.53-13.29-12.65-20-2-3.23-1.38-4.22,2.49-3.87C1622.75,302.17,1626.82,303.09,1630.92,303.77Z"/><path class="cls-33" d="M1635.06,304.48l-2.8-.43Z"/><path class="cls-31" d="M1644,404c3.53,1.51,7.08,3,10.59,4.55,2.34,1,3.58,2.8,3.06,5.3s-2.47,3.63-4.93,3.86a26.44,26.44,0,0,1-14.24-2.51Z"/><path class="cls-31" d="M1639.14,341.79l7.68.07q-7.24,9-14.51,18.05l-.74-.42Z"/><path class="cls-31" d="M1611.87,442.44c-3.55,3.81-7.85,4.91-11.13,3.28-3.76-1.87-5.25-4.71-4.43-9.55C1600,442.49,1605.09,444.48,1611.87,442.44Z"/><path class="cls-34" d="M1653,341.78l2.55.43Z"/><path class="cls-34" d="M1652.28,368.62l-.7.05Z"/><path class="cls-33" d="M1621.31,457l1-.68Z"/><path class="cls-35" d="M1746.62,359.41l-1.38,1.35Z"/><path class="cls-36" d="M1655.71,368.53l2.92.51c.16.31.34.49.35.69.38,5.43.38,5.43,5.75,6.86a1.15,1.15,0,0,1,.33.09c1.85,1.27,6.21-.1,4.83,4.58-1.66,5.63-3.53,5.59-8.28,5.65-2.91,0-5.92-.71-8.73-.24-3.36.56-4.09,4.23-1.29,6.18,2,1.39,4.55,2,6.74,3.16,1.47.77,6.3,2.27,9.83,5.75a18.69,18.69,0,0,1,4.08,6.11,16.78,16.78,0,0,1,.25,2.61,19.19,19.19,0,0,1-3.3,10.9,18.53,18.53,0,0,1-4.92,5.2c-5.54,3.91-11.85,3.62-14.06,3.42a34.91,34.91,0,0,1-8.85-1.61c-2.31-.7-4.37-2.14-6.55-3.25.76-2.76,1.46-5.54,2.31-8.28.19-.62.87-1.1,1.33-1.64a26.44,26.44,0,0,0,14.24,2.51c2.46-.23,4.4-1.38,4.93-3.86s-.72-4.27-3.06-5.3c-3.51-1.55-7.06-3-10.59-4.55-11-5.71-9-20.52-2.09-24.89a22.55,22.55,0,0,1,5.79-2.73c1.94-.54,2.4-1.43,2.51-3.23.09-1.52.91-3,1.4-4.5l.7-.05Z"/><path class="cls-37" d="M1745.23,417.83l-.64-.51.67,0A3.91,3.91,0,0,1,1745.23,417.83Z"/><path class="cls-38" d="M1606.52,272.41l-2.2,1.39c-3.3-1-6.63-1.95-9.89-3.07a16.76,16.76,0,0,1-3.07-1.9,8.42,8.42,0,0,1,.18-1.69q7.38-22,14.81-43.88c.59-1.74,1.39-3.4,2-4.85,2.73.34,4.88.79,7,.86a12.73,12.73,0,0,0,12.44-9.12c1.81-5.81.54-9.19-5.06-12.89-1.54-1-3.61-2.65-5-2.28-4.38,1.22-9.18,2.28-10.58,7.88a77.52,77.52,0,0,1-3,8.19l-16.7-4c.71-3.69,1.46-6.91,1.94-10.17,1.1-7.31-4.49-12.9-11.79-11.91-4.72.63-9.89,5.23-10,9a49.75,49.75,0,0,0,.24,7.43,7.29,7.29,0,0,0,1.67,3.19c2.66,3.49,6.29,5.49,11.07,6.28-3,17.94-5.91,35.56-8.84,53.18l-14.44-3.78c.28-8.15-.14-16.41,1.06-24.43.94-6.29-1.57-10.62-4.81-15.13-.51-.71-1.15-1.33-1.61-2.07-2-3.2-4.06-6.27-4.57-10.25-.8-6.18-2.43-12.26-3.11-18.44-.55-5.09-1.22-10.12,1.15-15.33,3.6-7.92,6.11-16.33,9.29-24.45a8.78,8.78,0,0,1,3.33-3.8c7-4.53,14-8.91,21.09-13.26a11.65,11.65,0,0,1,4.34-1.75c3.6-.48,7.24-.69,10.87-.9,6.55-.38,13.13-.38,19.63-1.15a8.62,8.62,0,0,1,6.45,1.43c8.24,5.5,16.5,11,24.91,16.24a15.62,15.62,0,0,1,6.77,8.72q3.17,9.3,6.79,18.44c2,5.14,2.79,10.14,1.19,15.63-1.92,6.54-3.16,13.28-4.78,19.91-.38,1.55-.73,3.31-1.7,4.46-4.8,5.66-9.47,11.5-14.83,16.61-4.4,4.19-9.82,7.28-14.54,11.16a32.52,32.52,0,0,0-6.77,7.29,127.2,127.2,0,0,0-7.49,13.84A95.79,95.79,0,0,0,1606.52,272.41Z"/><path class="cls-39" d="M1346.91,203.49c.93-1.33,1.37-2.08,1.93-2.72,8-9.09,16-18.23,24.12-27.21a28.36,28.36,0,0,1,7.33-6.17c9.53-5.06,19-10.35,29-14.31,6.25-2.48,13.43-2.54,20.11-4,15.18-3.35,30.35-2.31,45.18,1.17,7.52,1.76,14.43,6.12,21.57,9.4,2.12,1,4,2.54,6.14,3.35,6.83,2.55,11.79,7.26,16.23,12.82,2.73,3.41,5.9,6.48,9,9.61a8.81,8.81,0,0,0,2.5,1.29,43.77,43.77,0,0,0,2.67,4.79c2.27,3.11,4.72,6.09,7,9-1.91,3.12-3.61,5.92-5.32,8.72-1.73,1.94-33,32.76-35.59,33.7-4.7,1.72-28,10.48-32,12.12l-1.75.59-2.62.65-5.29.87c-4.32-.06-8.64,0-13-.23a43.73,43.73,0,0,1-5.16-.86c-7.77-1.27-27.75-4.32-44.34-10.44C1387,242.79,1358.43,215.5,1346.91,203.49Zm105.74-41.8c-6.23-2.06-12.35-.89-18.46.62-1.88.07-3.85-.18-5.64.26-5.66,1.42-11.34,2.83-16.84,4.71-18.85,6.45-33.08,19.12-45.56,34.07,12.15,15.12,26.19,27.18,44.48,34.11,14.24,5.39,28.47,8.17,43.71,6,12-1.74,23.24-5.58,34.41-9.93a37.67,37.67,0,0,0,13.77-9.12c5.85-6.14,11.62-12.35,17.39-18.55.76-.81,1.35-1.76,2.56-3.35-5.84-5.55-11.62-10.92-17.25-16.45a75.49,75.49,0,0,0-27-16.75A105,105,0,0,0,1452.65,161.69Z"/><path class="cls-40" d="M1534.35,209.22c1.71-2.8,3.41-5.6,5.32-8.72-2.3-2.92-4.75-5.9-7-9a43.77,43.77,0,0,1-2.67-4.79q2.19-8.91,4.38-17.83c2-7.93,3.78-15.9,6-23.78a11.74,11.74,0,0,1,3.55-5.74c9.53-7.72,19.26-15.21,29-22.69a6,6,0,0,1,3.57-1.1q20.37.87,40.72,2a9.88,9.88,0,0,1,3.76.94c12.07,5.91,24.07,11.94,36.15,17.82a9.69,9.69,0,0,1,5.22,6c4.36,12.24,8.94,24.41,13.55,36.56a8.45,8.45,0,0,1,.06,6.33c-6.14,16.87-12.17,33.79-18.35,50.65a8.63,8.63,0,0,1-2.9,3.62c-5.49,4.13-11,8.27-16.7,12.06-5.92,3.93-11.26,8.32-15,14.44-.69,1.11-1.69,2-2.34,3.17-2.12,3.71-4.89,5.47-9.29,3.81-1.45-.54-3.17-.38-4.77-.54a95.79,95.79,0,0,1,3.46-9.3,127.2,127.2,0,0,1,7.49-13.84,32.52,32.52,0,0,1,6.77-7.29c4.72-3.88,10.14-7,14.54-11.16,5.36-5.11,10-10.95,14.83-16.61,1-1.15,1.32-2.91,1.7-4.46,1.62-6.63,2.86-13.37,4.78-19.91,1.6-5.49.86-10.49-1.19-15.63q-3.64-9.12-6.79-18.44a15.62,15.62,0,0,0-6.77-8.72c-8.41-5.24-16.67-10.74-24.91-16.24a8.62,8.62,0,0,0-6.45-1.43c-6.5.77-13.08.77-19.63,1.15-3.63.21-7.27.42-10.87.9a11.65,11.65,0,0,0-4.34,1.75c-7.07,4.35-14.13,8.73-21.09,13.26a8.78,8.78,0,0,0-3.33,3.8c-3.18,8.12-5.69,16.53-9.29,24.45-2.37,5.21-1.7,10.24-1.15,15.33.68,6.18,2.31,12.26,3.11,18.44.51,4,2.57,7,4.57,10.25.46.74,1.1,1.36,1.61,2.07,3.24,4.51,5.75,8.84,4.81,15.13-1.2,8-.78,16.28-1.06,24.43l-1,.1-7.15-3.2C1549.53,239.81,1542.27,224.41,1534.35,209.22Z"/><path class="cls-41" d="M920.06,793.25c1.47-.13,3-.38,4.43-.37q63.4.14,126.82.31c8.63,0,17.26-.1,25.89-.07,12.74,0,24-4,33-12.94,11.47-11.28,22.54-23,33.73-34.5,10.69-11,21.47-22,31.94-33.21,12.13-13,27.27-18.68,44.68-19,7.88-.16,15.77,0,24.08,0l-3.81-7.19,1.08-.73c3,2.46,4.92,6,7.75,9.1l-7.12,8.14-.88-.6c1.06-2,2.11-3.92,3.37-6.27-1.53-.11-2.63-.29-3.72-.26-9.06.29-18.13.38-27.17,1A52.9,52.9,0,0,0,1178.78,713c-18.83,19.44-37.45,39.07-56.17,58.6-3.24,3.38-6.46,6.8-9.91,9.94-9.67,8.78-21,13.71-34.18,13.75q-14.48,0-29,.11c-1.29,0-2.58.11-4.81.21,1.52.84,2.22,1.25,2.94,1.61,15.43,7.78,24.78,20,25.87,37.42.77,12.09.45,24.26.52,36.4,0,7.29,2,13.88,6.81,19.42s11.23,8.91,18.81,9c11.12.16,22.24,0,33.35.17,2.61.05,3.43-1.22,4.49-3.16a7.68,7.68,0,0,1,8.51-4c3.74.67,5.82,3.1,6.81,6.62.94,3.35-.19,6.07-2.7,8.25a8.64,8.64,0,0,1-12.41-1.6,40.31,40.31,0,0,1-2-3.81h-4.61c-10.1,0-20.19.07-30.28,0a28.93,28.93,0,0,1-28.94-27.78c-.36-10.37.13-20.77-.24-31.15-.21-5.94-.62-12.08-2.28-17.74-5.29-18-21.57-29.88-40.42-29.92-34.67-.06-69.34,0-104,0-1.63,0-3.26-.22-4.89-.33Zm224.79,113.81a6.38,6.38,0,0,0,6-6.32,6.19,6.19,0,0,0-6.2-6.08,6.2,6.2,0,0,0,.19,12.4Z"/><path class="cls-41" d="M1767.61,687.08v-6.61c0-3.21-.08-6.43,0-9.64.1-3-.2-5.17-3.47-7-5.07-2.83-4.82-10.05-.08-13.77a36.48,36.48,0,0,1,3.49-2.16c0-11.22,0-22.45,0-33.68,0-2.17-1.47-2.49-2.84-3.31a8.31,8.31,0,0,1-1.24-13.71,7.69,7.69,0,0,1,8.6-1.3,8.09,8.09,0,0,1,5.08,7.13,8.21,8.21,0,0,1-4.18,8.11,28.53,28.53,0,0,1-2.86,1.24v35.46c.83.44,1.86.93,2.83,1.51,5.88,3.56,6,11.94-.13,15-2.72,1.39-3,3-3,5.51.14,18.56,0,37.13.33,55.69.35,19.15-8.27,32.31-25.57,40.07-.8.36-1.59.74-2.37,1.13-.39.2-.75.45-1.6,1,.47,1.23,1,2.53,1.45,3.84s.88,2.59,1.64,4.83l-20.08-4.23c4.36-5.62,8-10.53,12.82-15.74,1.2,3.34,2.09,5.85,3,8.35,17.12-5.08,27.66-18.13,28-33.59.25-11.4.07-22.81.06-34.21a2.8,2.8,0,0,0-.27-1c-3.44,1.46-6.73,3.38-10.28,4.25-5.72,1.41-10.64-1-14.82-4.77-3-2.65-3-5.27-.63-8.57,3.22-4.45,7.78-6.4,13-5.45,3.47.63,6.72,2.53,10.05,3.9A31.37,31.37,0,0,1,1767.61,687.08Zm-14.18-3.41a12.65,12.65,0,0,0-9.44,3.82c-2.28,2.47-2.38,4.79.36,6.66a27,27,0,0,0,8.55,4.11c4.21,1,8.06-.69,11.15-3.67,2.5-2.41,2.49-4.26,0-6.69A14.34,14.34,0,0,0,1753.43,683.67Zm9.41-27a6.49,6.49,0,0,0,5.83,6.53,6.26,6.26,0,0,0,6.38-5.9,6,6,0,0,0-6.22-6.45A6.22,6.22,0,0,0,1762.84,656.65ZM1775,603.83a6.25,6.25,0,0,0-6-6.28,6.09,6.09,0,1,0-.31,12.17A6,6,0,0,0,1775,603.83Zm-39.12,156.44-7.92,10.47,12.2,2.48C1738.61,768.64,1737.34,764.8,1735.84,760.27Zm31.39-73.06-.14.28.51,0c0-.1,0-.22-.12-.29S1767.32,687.21,1767.23,687.21Z"/><path class="cls-41" d="M1164.85,587l15.13,7.18c0-5.74,0-10.94,0-16.14a34.42,34.42,0,0,1,3.43-15.27c3.56-7.18,9.39-11.82,16.9-14.43,2.06-.72,4.16-1.35,6.57-2.13l-2.5-9.2c6.8.64,12.59,3,19.48,4.66l-13.26,15.57-3-8c-14.5,1.54-24.66,12.43-24.88,25.33-.11,7,0,14,0,21.61,1.15.37,2.59,1,4.09,1.3,3.4.77,6.82,1.4,10.22,2.14a4.19,4.19,0,0,1,2,.81c1.85,1.78,3.34,4,5.41,5.45s4.9,1.46,6.79,2.91c3.55,2.72,3.7,8.39.8,11.84a8.52,8.52,0,0,1-11.85.87,8.21,8.21,0,0,1-1-11.76c.72-.9,1.5-1.75,2.5-2.9-.38-2.51-2.34-4.25-5-4.92-4.49-1.15-9.08-1.94-14-2.95v28.36c4.27,1.47,7.11,4.24,7.16,8.92s-3.3,6.87-7.44,8.91v36.6l-2.4,0c0-11.26-.06-22.51,0-33.77a4.32,4.32,0,0,0-2.17-4.28c-7.25-4.66-6.66-12.12,1.09-16a13.86,13.86,0,0,0,1.17-.75c0-4.5,0-9.29,0-14.08,0-4.09-.2-8.2,0-12.28.17-3-1.13-4.56-3.74-5.59a80,80,0,0,1-8.43-3.7,38,38,0,0,1-4.81-3.56Zm46.83,28.35a6.41,6.41,0,0,0-6.11-6.67c-2.73-.08-6,3.25-6.23,6.29s2.65,6.06,6.07,6.18A5.74,5.74,0,0,0,1211.68,615.35Zm-24.25,20.95a6.33,6.33,0,0,0-5.94-6.28,6.2,6.2,0,0,0-6.3,5.88,5.94,5.94,0,0,0,5.66,6.4A6.14,6.14,0,0,0,1187.43,636.3Zm32.46-93.57L1207.75,540c1.32,4.55,2.4,8.25,3.69,12.68Z"/><path class="cls-39" d="M1597.24,298.35c-.56,3.69-1.11,7.38-1.73,11.44l-7.86-2.42a3.44,3.44,0,0,0-4.24,1.25,9.58,9.58,0,0,1-1.26,1.2c-3.81,3.66-7.72,5.19-13.31,3.22-8.42-3-8.67-2.51-10.75-11.21a4.34,4.34,0,0,0-3.6-3.73c-2-.47-3.83-1.23-6-1.93l2.9-8.36a25.58,25.58,0,0,1,4.22.45c7.39,2,14.71,4.25,22.14,6.08C1584.21,295.92,1590.75,297,1597.24,298.35Z"/><path class="cls-39" d="M1556.37,260.44l1-.1,14.44,3.78,5.59,1.4,7.6,2.21,6.41,1.1a16.76,16.76,0,0,0,3.07,1.9c3.26,1.12,6.59,2.06,9.89,3.07,1.38.7,2.34,1.44,1.57,3.32-.93,2.25-1.53,4.63-2.27,7a20,20,0,0,1-3.4-.41c-8-2.43-16-5.07-24.14-7.35-7.24-2-14.59-3.71-21.9-5.53Z"/><path class="cls-39" d="M1602.36,286.78c-.66,2.82-1.31,5.64-2,8.45-.37,1.56-1.27,2.23-2.87,1.63a13.82,13.82,0,0,0-2.58-1.29c-6-1.62-12.1-3.08-18.11-4.74-8.65-2.41-17.27-4.94-25.9-7.42-.17-1-.68-2.06-.45-2.94.62-2.32,1.56-4.57,2.38-6.84a30.11,30.11,0,0,1,4.68.62c7.39,2.15,14.71,4.52,22.11,6.6S1594.78,284.81,1602.36,286.78Z"/><path class="cls-39" d="M1527.27,134.53l9.73,8.23-19.29,23.15-9.44-8.41Z"/><path class="cls-39" d="M1403.83,114.53l9,28-11.61,4.3c-3.8-9.09-5.88-18.59-9.51-28.16Z"/><path class="cls-39" d="M1485.11,114.49l11.76,4-9.21,28-12-4C1478.9,132.93,1481.94,123.91,1485.11,114.49Z"/><path class="cls-39" d="M1351,143l9.89-8,18.45,22.6c-3,2.78-5.91,5.39-9.22,8.39Z"/><path class="cls-39" d="M1449.74,137.76H1438v-29h11.71Z"/><path class="cls-40" d="M1751.89,449.2l7.19.32v16.4h-16.7V449.87l7.25-1.53Z"/><path class="cls-40" d="M1733.81,323.6c.84.59,1.61,1.51,2.53,1.68a30.47,30.47,0,0,0,5.26.08c0,4.24-.11,8,.06,11.68a26.74,26.74,0,0,0,1.11,4.91l-2.11,1h-16V325.41a27,27,0,0,0,4.88-.08c.91-.17,1.67-1.11,2.5-1.71Z"/><path class="cls-40" d="M1670.45,264.84v6.8h-16.79V255h16.45c.14,2.64.29,5.19.43,7.75Z"/><path class="cls-42" d="M1740,395.4h-15.81c0-5.47-.08-10.35,0-15.23,0-1.84,1.55-2.21,3.16-2.19,4.06.07,8.12.09,12.17.13l1.65,1.5.24,14.15Z"/><path class="cls-41" d="M1191.45,896.53c-.37-1.8-.74-3.6-1.27-6.15,8.29.74,12.4,7,19,10.86-6.31,3.75-10.73,9-18.39,10.42.23-2.66.4-4.72.62-7.19-5.29,2.32-8.91,8.31-16.24,6.09l7.15-9.11-7.93-9.84c4.62-.57,8.57-1.26,11.86,2.29a33.61,33.61,0,0,0,4.48,3.5l1,.16C1191.71,897.22,1191.58,896.87,1191.45,896.53Zm14.22,4.54L1193.51,893l-1,.39c3.61,5.14,2.34,10.34.24,15.55l1,.3Zm-26.4,7.37.46.86c4.69-1.52,7.71-5.57,12.5-8.41-5-2.14-7.27-7.34-13.52-7.85,2.56,3.15,4.53,5.6,6.72,8.29Z"/><path class="cls-42" d="M1733.57,255c8,.52,8,.52,8,8.72v.43c0,7.67,0,7.67-7.63,7.93h-1.83l-6.95-.32-1.09-7c.17-.75.35-1.5.53-2.25.11-2.15.23-4.31.36-6.81l6.51-.66Z"/><path class="cls-40" d="M1158.44,564.2c-1-.62-2-1.21-2.93-1.85a8.17,8.17,0,0,1,4.51-15.1,8.26,8.26,0,0,1,7.67,6.61c.74,3.81-.93,7.1-4.58,9-.9.46-1.85.83-2.77,1.25Z"/><path class="cls-43" d="M1180,681.8l2.4,0c.92.42,1.88.79,2.77,1.27a7.8,7.8,0,0,1,4.13,8.83,8,8,0,0,1-7.29,6c-3.49.22-7.28-2.2-8.3-5.29a8,8,0,0,1,3.13-9.26A22.76,22.76,0,0,1,1180,681.8Z"/><path class="cls-44" d="M1602.36,286.78c-7.58-2-15.18-3.82-22.72-5.93s-14.72-4.45-22.11-6.6a30.11,30.11,0,0,0-4.68-.62c.44-.95.89-1.9,1.33-2.84,7.31,1.82,14.66,3.49,21.9,5.53,8.1,2.28,16.09,4.92,24.14,7.35a20,20,0,0,0,3.4.41Z"/><path class="cls-44" d="M1550.92,283.41c8.63,2.48,17.25,5,25.9,7.42,6,1.66,12.08,3.12,18.11,4.74a13.82,13.82,0,0,1,2.58,1.29l-.27,1.49c-6.49-1.32-13-2.43-19.46-4-7.43-1.83-14.75-4.09-22.14-6.08a25.58,25.58,0,0,0-4.22-.45Z"/><path class="cls-32" d="M1733.57,255l-2.12.07c-.41-2.29-.66-4.61-1.25-6.85a22.11,22.11,0,0,0-20.47-16.73c-5.79-.29-11.61-.05-17.94-.05v8.92l-4.7-2.67c.37-.35.74-.7,1.1-1.06.52-.43,1.46-.83,1.49-1.29a65.19,65.19,0,0,0,0-7c-.08-1.74.28-3.16,1.91-4v5.06c4.42,0,8.56-.13,12.69,0,3.61.15,7.33.16,10.79,1.05a23.81,23.81,0,0,1,18,21.21C1733.15,252.79,1733.39,253.9,1733.57,255Z"/><path class="cls-41" d="M1162.43,889.9c7.43,1.81,11.82,7,17.77,11.24-6.15,3.94-10.52,9.18-17.77,10.55Zm2.51,19.65,11.64-8.54-11.64-8.49Z"/><path class="cls-41" d="M1741.16,379.61l-1.65-1.5c3.08-3.11,6.27-6.12,9.17-9.38a7.51,7.51,0,0,0,2-4.47c-.13-13.39,2.2-9.49-8-19.11-.73-.7-1.39-1.47-2.09-2.21l2.11-1a1.76,1.76,0,0,1,.39.19c10.39,8.82,10.32,8.82,10.17,22.35a7.74,7.74,0,0,1-2.71,6.09C1747.41,373.53,1744.31,376.59,1741.16,379.61Z"/><path class="cls-45" d="M1740,395.4l1.45-1.64c2.43,2.33,4.76,4.76,7.31,6.95a8.1,8.1,0,0,1,3,6.82c-.09,13.89.09,27.78.17,41.67l-2.26-.86c-.08-13.55-.22-27.1-.2-40.66a6,6,0,0,0-1.94-5C1744.9,400.35,1742.46,397.84,1740,395.4Z"/><path class="cls-46" d="M1724.58,262.54c-.18.75-.36,1.5-.53,2.25l-53.6,0,.09-2.06q24.84,0,49.7,0C1721.68,262.77,1723.13,262.62,1724.58,262.54Z"/><path class="cls-46" d="M1732.09,272.09h1.83q-.06,25.76-.11,51.52l-1.77,0Q1732.07,297.87,1732.09,272.09Z"/><path class="cls-47" d="M1691.61,224.32c-1.63.87-2,2.29-1.91,4a65.19,65.19,0,0,1,0,7c0,.46-1,.86-1.49,1.29L1679,230l9.07-6.25,3.5.27Z"/><path class="cls-41" d="M1688.06,223.78,1679,230l9.2,6.6c-.36.36-.73.71-1.1,1.06l-12.49-7A51.77,51.77,0,0,1,1688,222C1688,222.56,1688.05,223.17,1688.06,223.78Z"/><path class="cls-32" d="M1158.44,564.2l1.9-.1c0,3.76.32,7.54.07,11.29a14.73,14.73,0,0,0,4.44,11.61l-1.77.84a12.46,12.46,0,0,1-4.57-10.21C1158.54,573.15,1158.47,568.68,1158.44,564.2Z"/><path class="cls-32" d="M1688.06,223.78c0-.61,0-1.22,0-1.83l3.31-1.73c.1,1.67.16,2.75.23,3.83Z"/><path class="cls-47" d="M1577.35,265.52l-5.59-1.4c2.93-17.62,5.86-35.24,8.84-53.18-4.78-.79-8.41-2.79-11.07-6.28a7.29,7.29,0,0,1-1.67-3.19,49.75,49.75,0,0,1-.24-7.43c.11-3.8,5.28-8.4,10-9,7.3-1,12.89,4.6,11.79,11.91-.48,3.26-1.23,6.48-1.94,10.17l16.7,4a77.52,77.52,0,0,0,3-8.19c1.4-5.6,6.2-6.66,10.58-7.88,1.35-.37,3.42,1.26,5,2.28,5.6,3.7,6.87,7.08,5.06,12.89a12.73,12.73,0,0,1-12.44,9.12c-2.16-.07-4.31-.52-7-.86-.6,1.45-1.4,3.11-2,4.85q-7.44,21.92-14.81,43.88a8.42,8.42,0,0,0-.18,1.69l-6.41-1.1c5-11.56,16.8-47.4,16.78-51.14l-15.28-3.9c-.45,2.14-.86,3.81-1.16,5.5-1.42,8.18-2.84,16.35-4.21,24.53C1579.8,250.32,1578.59,257.92,1577.35,265.52Zm6.07-68.61c.12-3.18-1.42-5.35-3.88-5.86-2.76-.58-4.58.52-5.71,3.44-1.82,4.69-.25,8.22,4.52,10.15,2.47,1,3.46.58,4.1-2.06C1582.93,200.61,1583.15,198.58,1583.42,196.91Zm26.68,15.4c1.57.53,2.49.92,3.45,1.15a6.75,6.75,0,0,0,8.67-7.28,4.67,4.67,0,0,0-3.9-4.57c-2.37-.53-4.33,0-5.25,2.56Z"/><path class="cls-48" d="M1452.65,161.69a105,105,0,0,1,25.61,5.59,75.49,75.49,0,0,1,27,16.75c5.63,5.53,11.41,10.9,17.25,16.45-1.21,1.59-1.8,2.54-2.56,3.35-5.77,6.2-11.54,12.41-17.39,18.55a37.67,37.67,0,0,1-13.77,9.12c-11.17,4.35-22.43,8.19-34.41,9.93-15.24,2.2-29.47-.58-43.71-6-18.29-6.93-32.33-19-44.48-34.11,12.48-14.95,26.71-27.62,45.56-34.07,5.5-1.88,11.18-3.29,16.84-4.71,1.79-.44,3.76-.19,5.64-.26a2,2,0,0,1,0,.55,23.94,23.94,0,0,0-3.39.82c-17.9,7.26-29.17,24.81-25,46,3.17,16,17.35,28,33.36,30,7,.9,13.41-.7,19.71-2.84a31.11,31.11,0,0,0,18.72-16.9A46.6,46.6,0,0,0,1481.2,191c-2.48-12.54-16.34-25.73-28.46-28Z"/><path class="cls-44" d="M1434.19,162.86a2,2,0,0,0,0-.55c6.11-1.51,12.23-2.68,18.46-.62l.09,1.32A48.64,48.64,0,0,0,1434.19,162.86Z"/><path class="cls-47" d="M1144.85,907.06a6.2,6.2,0,1,1,6-6.32A6.38,6.38,0,0,1,1144.85,907.06Z"/><path class="cls-47" d="M1753.43,683.67a14.34,14.34,0,0,1,10.65,4.23c2.46,2.43,2.47,4.28,0,6.69-3.09,3-6.94,4.69-11.15,3.67a27,27,0,0,1-8.55-4.11c-2.74-1.87-2.64-4.19-.36-6.66A12.65,12.65,0,0,1,1753.43,683.67Z"/><path class="cls-47" d="M1762.84,656.65a6.22,6.22,0,0,1,6-5.82,6,6,0,0,1,6.22,6.45,6.26,6.26,0,0,1-6.38,5.9A6.49,6.49,0,0,1,1762.84,656.65Z"/><path class="cls-47" d="M1775,603.83a6,6,0,0,1-6.28,5.89,6.09,6.09,0,1,1,.31-12.17A6.25,6.25,0,0,1,1775,603.83Z"/><path class="cls-47" d="M1735.84,760.27c1.5,4.53,2.77,8.37,4.28,13l-12.2-2.48Z"/><path class="cls-49" d="M1767.23,687.21c.09,0,.21,0,.25,0s.08.19.12.29l-.51,0Z"/><path class="cls-47" d="M1211.68,615.35a5.74,5.74,0,0,1-6.27,5.8c-3.42-.12-6.28-3-6.07-6.18s3.5-6.37,6.23-6.29A6.41,6.41,0,0,1,1211.68,615.35Z"/><path class="cls-47" d="M1187.43,636.3a6.14,6.14,0,0,1-6.58,6,5.94,5.94,0,0,1-5.66-6.4,6.2,6.2,0,0,1,6.3-5.88A6.33,6.33,0,0,1,1187.43,636.3Z"/><path class="cls-47" d="M1219.89,542.73l-8.45,9.9c-1.29-4.43-2.37-8.13-3.69-12.68Z"/><path class="cls-38" d="M1577.35,265.52c1.24-7.6,2.45-15.2,3.73-22.8,1.37-8.18,2.79-16.35,4.21-24.53.3-1.69.71-3.36,1.16-5.5l15.28,3.9c0,3.74-11.82,39.58-16.78,51.14Z"/><path class="cls-47" d="M1205.67,901.07l-12,8.16-1-.3c2.1-5.21,3.37-10.41-.24-15.55l1-.39Z"/><path class="cls-47" d="M1179.27,908.44l6.16-7.11c-2.19-2.69-4.16-5.14-6.72-8.29,6.25.51,8.56,5.71,13.52,7.85-4.79,2.84-7.81,6.89-12.5,8.41Z"/><path class="cls-49" d="M1191.45,896.53l.38,1-1-.16Z"/><path class="cls-47" d="M1164.94,909.55v-17l11.64,8.49Z"/><path class="cls-50" d="M1583.42,196.91c-.27,1.67-.49,3.7-1,5.67-.64,2.64-1.63,3.07-4.1,2.06-4.77-1.93-6.34-5.46-4.52-10.15,1.13-2.92,3-4,5.71-3.44C1582,191.56,1583.54,193.73,1583.42,196.91Z"/><path class="cls-50" d="M1610.1,212.31l3-8.14c.92-2.54,2.88-3.09,5.25-2.56a4.67,4.67,0,0,1,3.9,4.57,6.75,6.75,0,0,1-8.67,7.28C1612.59,213.23,1611.67,212.84,1610.1,212.31Z"/><path class="cls-51" d="M1434.19,162.86a48.64,48.64,0,0,1,18.55.15c12.12,2.28,26,15.47,28.46,28a46.6,46.6,0,0,1-3.59,28.91,31.11,31.11,0,0,1-18.72,16.9c-6.3,2.14-12.76,3.74-19.71,2.84-16-2.06-30.19-14-33.36-30-4.19-21.17,7.08-38.72,25-46A23.94,23.94,0,0,1,1434.19,162.86ZM1465.26,192c1.61-7-.77-12.19-6.68-13.39-2.37-.48-5,.53-7.58.87a25.44,25.44,0,0,0-10.49-.83c-12.3,1.79-21.08,14.49-18.14,27.68,3.08,13.82,20.68,21.07,33.15,13C1465.79,212.74,1467.48,204.23,1465.26,192Z"/><path class="cls-46" d="M1465.26,192c2.22,12.21.53,20.72-9.74,27.35-12.47,8-30.07.8-33.15-13-2.94-13.19,5.84-25.89,18.14-27.68a25.44,25.44,0,0,1,10.49.83,28.19,28.19,0,0,0-2.49,3,9.43,9.43,0,0,0,1.73,12.61c3.57,3.1,8.93,2.94,12.75-.46A24.06,24.06,0,0,0,1465.26,192Z"/><path class="cls-47" d="M1465.26,192a24.06,24.06,0,0,1-2.27,2.64c-3.82,3.4-9.18,3.56-12.75.46a9.43,9.43,0,0,1-1.73-12.61,28.19,28.19,0,0,1,2.49-3c2.53-.34,5.21-1.35,7.58-.87C1464.49,179.83,1466.87,185,1465.26,192Z"/><path class="cls-52" d="M1676.57,800.74c0-3.85.12-7.45,0-11-.31-7.43-4.35-11-12.25-11s-12,3.71-12.24,11c-.14,3.46,0,6.93,0,10.86h-77.6c0-3.7.1-7.3,0-10.89-.26-7.36-4.41-11-12.23-11s-12,3.67-12.27,11c-.14,3.59,0,7.19,0,11.26-7.52,0-14.45.35-21.31-.22-2-.16-4.77-2.76-5.21-4.69s1.11-5.77,2.7-6.38c8.74-3.34,9.22-9.91,9.59-18,1.35-29.64,17.39-49.79,43.29-62.55,32.8-16.15,74.17-9.79,99.83,15.05a71.21,71.21,0,0,1,21.39,41.88,19.53,19.53,0,0,0,6.93,11.56c6.44,4.81,13.88,8.33,21.06,12.07,3,1.58,6.45,2.65,5.61,6.9-.82,4.09-4.17,4.5-7.72,4.49-14.94-.06-29.88,0-44.82,0C1679.88,801.07,1678.53,800.88,1676.57,800.74Zm-126.69-31.9,1.78.29c.63-1.24,1.3-2.47,1.89-3.74,3-6.41,5.38-13.21,9.14-19.14,3.38-5.35,8.29-9.72,12.41-14.62.66-.77.74-2,1.09-3-1.2.08-2.76-.29-3.54.32a55.68,55.68,0,0,0-6.41,6.07,73.44,73.44,0,0,0-16.51,29.17C1549.3,765.56,1549.81,767.27,1549.88,768.84Zm134.47-6.07,1.87-.85a26.91,26.91,0,0,0-1.21-5.12,71.72,71.72,0,0,0-18.9-25.18c-1.06-.9-2.92-.88-4.41-1.28.6,1.39.83,3.19,1.85,4.12A74.81,74.81,0,0,1,1681.66,759,24.91,24.91,0,0,0,1684.35,762.77Z"/><path class="cls-52" d="M1643.32,803.75c-5.58,6.3-11.62,13.62-18.29,20.32-1.77,1.77-5.43,2.15-8.26,2.28-6.93.32-13.94-.39-20.81.32-4.23.43-8.31,2.62-12.39,4.17-1.27.48-2.33,2.11-3.5,2.13-10.09.16-20.22.6-30.23-.3-2.52-.23-5.64-4.67-6.72-7.78-2.32-6.65-3.48-13.71-5.24-21.14Zm-80.8,10.42c-1.7-1.17-3.88-3.81-6.33-4.08-3.54-.39-6.21,2.19-6,6.15.16,3.56,2.37,5.77,6,5.76C1560.11,822,1562,819.55,1562.52,814.17Zm55-3.85c-2,2.73-4.12,4.31-4,5.6.2,1.45,2.27,3.38,3.8,3.68,1,.2,3.49-2,3.58-3.27C1621.05,814.86,1619.29,813.24,1617.51,810.32Z"/><path class="cls-52" d="M1570.9,800.78h-17c1-5.87-2.8-12.46,3-16.57,2.38-1.68,7.64-1.82,10.16-.3C1573.43,787.74,1569,794.66,1570.9,800.78Z"/><path class="cls-52" d="M1672.85,800.77h-16.78c1-5.88-2.8-12.46,3-16.57,2.37-1.69,7.66-1.82,10.15-.28C1675.43,787.77,1671.4,794.64,1672.85,800.77Z"/><path class="cls-53" d="M1549.88,768.84c-.07-1.57-.58-3.28-.15-4.7A73.44,73.44,0,0,1,1566.24,735a55.68,55.68,0,0,1,6.41-6.07c.78-.61,2.34-.24,3.54-.32-.35,1-.43,2.28-1.09,3-4.12,4.9-9,9.27-12.41,14.62-3.76,5.93-6.14,12.73-9.14,19.14-.59,1.27-1.26,2.5-1.89,3.74Z"/><path class="cls-53" d="M1684.35,762.77a24.91,24.91,0,0,1-2.69-3.79,74.81,74.81,0,0,0-18.11-24.52c-1-.93-1.25-2.73-1.85-4.12,1.49.4,3.35.38,4.41,1.28A71.72,71.72,0,0,1,1685,756.8a26.91,26.91,0,0,1,1.21,5.12Z"/><path class="cls-53" d="M1562.52,814.17c-.53,5.38-2.41,7.81-6.34,7.83-3.65,0-5.86-2.2-6-5.76-.18-4,2.49-6.54,6-6.15C1558.64,810.36,1560.82,813,1562.52,814.17Z"/><path class="cls-53" d="M1617.51,810.32c1.78,2.92,3.54,4.54,3.43,6-.09,1.26-2.56,3.47-3.58,3.27-1.53-.3-3.6-2.23-3.8-3.68C1613.39,814.63,1615.47,813.05,1617.51,810.32Z"/><path class="cls-54" d="M1632.24,622.28l-1.11-.58.89-.5c.06-.49.13-1,.16-1.43s0-.94,0-1.41q0-48.74,0-97.48c0-.64.09-1.29.15-2.07h15.81v3.76a8.73,8.73,0,0,0-1.9,12c2.33,3,5.57,4.94,10.57,3.05a8.71,8.71,0,0,0,2-15c-.1-.18-.3-.39-.27-.54.28-1.18-.21-2.36,0-3.54a16.07,16.07,0,0,0,2.27.31q14.34,0,28.7,0h1.7l.25-2.15.72-1.74.52.47a2.51,2.51,0,0,1-.1.62,51.62,51.62,0,0,0-2.79,10,6.24,6.24,0,0,0-.6,1.18c-.31,1.29-.53,2.59-.83,3.88a31.09,31.09,0,0,0-.68,6.72,37.73,37.73,0,0,0-.08,4.62c-.88.47-2,.17-2.49,1.16a1.76,1.76,0,0,0-.64,1.63c0,2.4,0,4.79,0,7.23l1.4,1.78h4.24l.6,0c.17.63.32,1.28.53,1.9s.68,1.07.23,1.8h-5.63l-1.37,1.87c0,2.4,0,4.64,0,6.89,0,2,.83,2.83,2.81,2.86,2.34,0,4.68,0,7.09,0,.52-.55,1.23-1,1.51-1.67a8.52,8.52,0,0,0,.3-2.5,4.89,4.89,0,0,1,.47.39c.75.83,1.49,1.67,2.23,2.51a1.44,1.44,0,0,0,1.23,1,9,9,0,0,0,.82,1.25c.73.8,1.52,1.55,2.45,2.48h-2.09c-2.17.82-2.53,2.33-2.43,4.13.07,1.19,0,2.4,0,3.6,0,1,.17,1.92.25,2.77l1.23,1.12h7.77c1.44,0,2.16-.45,2.41-1.86a18.67,18.67,0,0,0,0-3.51c0-.28,0-.56,0-.94a5.69,5.69,0,0,1,.85.2c.84.35,1.67.73,2.5,1.09l0,.3c0,.52,0,1,0,1.55a3,3,0,0,0,1.5,3.13H1724l1.46-1.23,3.43,0,.94.32.44.91h8.93l1-1.55.32-.31a24,24,0,0,0,6.31-1.43c.91-.27,1.71-1,2.75-.78v40.58l1.5.45-1.11.56a7.29,7.29,0,0,1,.24,1.2c0,5.31,0,10.62,0,16.07h-.77l.1-.55c0-2.35.06-4.7.06-7,0-3.07,0-6.15-.07-9.23-.39-.77-1.1-.36-1.63-.36q-57,0-114,0c-.46,0-.92.06-1.38.1Zm68.11-18.51a4.26,4.26,0,0,0-1.46,3.64,23.16,23.16,0,0,0,.43,6.64,3.2,3.2,0,0,0,2.94,1.34c1.77-.09,3.54,0,5.31,0a3.25,3.25,0,0,0,3.13-4,13.32,13.32,0,0,1,0-3.34,4.78,4.78,0,0,0-1.36-4.28Zm40.15-5.29v-8.19l-1-1.47a8.12,8.12,0,0,0-1.72-.39c-2.19,0-4.37,0-6.56,0a2.3,2.3,0,0,0-2.31,2.25c0,2.65,0,5.3,0,7.81a3.29,3.29,0,0,0,3.16,1.55c1.76-.08,3.53,0,5.3,0A3.33,3.33,0,0,0,1740.5,598.48ZM1642,604.16a10.19,10.19,0,0,0-.42,1.87c0,2.25,0,4.5,0,6.74a2.39,2.39,0,0,0,2.62,2.59c1.88,0,3.76,0,5.63,0,2.23,0,3.31-1.08,3.33-3.33s0-4.29,0-6.37l-.67-1.1-.49-.8c-3,0-5.46,0-8,0A12.88,12.88,0,0,0,1642,604.16Zm52.54-.37h-8.73l-1.36,1.35c0,2.66,0,5.21,0,7.77a2.93,2.93,0,0,0,.25,1c.42,1.17,1.45,1.38,2.5,1.41,1.67,0,3.34-.07,5,0a3.74,3.74,0,0,0,3.82-1.91c0-2.15,0-4.34,0-6.53A3.3,3.3,0,0,0,1694.56,603.79ZM1682,598c0-2.49,0-4.68,0-6.88,0-1.83-.84-2.68-2.64-2.73-2.19,0-4.38,0-6.57,0a2.3,2.3,0,0,0-2.35,2.38c0,2.6,0,5.21,0,7.72a3.12,3.12,0,0,0,2.54,1.5c2.5,0,5,0,7.59,0Zm4.1,2c2.44,0,4.83,0,7.23,0,1.73,0,2.63-.82,2.73-2.62a54.83,54.83,0,0,0,0-6.41,2.39,2.39,0,0,0-2.61-2.56c-2.19-.09-4.38,0-6.56,0a2.3,2.3,0,0,0-2.37,2.35c0,2.6,0,5.2,0,7.82Zm-15.36-41.14a12.82,12.82,0,0,0-.31,1.82c0,2.08,0,4.17,0,6.25a2.41,2.41,0,0,0,2.71,2.65c1.61,0,3.23-.06,4.84,0a4.44,4.44,0,0,0,3.81-1.35c.5-2.72.08-5.63.24-8.49l-1.5-1.75h-8.6ZM1682,613.72c0-2.41,0-4.6,0-6.79a3.19,3.19,0,0,0-1.54-3.14h-8.55a3.18,3.18,0,0,0-1.53,3.05c.07,1.82,0,3.65,0,5.47,0,2.23.82,3,3.1,3.06,1.41,0,2.81,0,4.22,0,1,0,2-.18,3-.27l-.11-.29Zm-15.87-9.91h-8.79l-1.28,1.73v8l1.46,1.51c2.64.6,5.45.1,8.25.31l1.84-1.45c0-2.48-.06-4.78,0-7.07A3.22,3.22,0,0,0,1666.09,603.81Zm1.48-5.35c0-2.49,0-4.94,0-7.39a2.41,2.41,0,0,0-2.7-2.66c-1.71,0-3.44.1-5.15,0a3.71,3.71,0,0,0-3.67,1.81v8.3l1.75,1.52c2.21,0,4.44-.06,6.68,0A3.24,3.24,0,0,0,1667.57,598.46Zm-16-40.43H1643l-1.43,1.32c0,2.71,0,5.26,0,7.81a2.33,2.33,0,0,0,2.44,2.43c2.13,0,4.26,0,6.39,0a3.13,3.13,0,0,0,2.76-2.82c-.07-2.34,0-4.68,0-7.11Zm62.57,31.85c0,.58-.16,1.44-.19,2.31,0,1.35.09,2.72,0,4.06a3.68,3.68,0,0,0,1.91,3.76c2.19,0,4.37-.06,6.55,0a3.17,3.17,0,0,0,3.12-1.54v-8.57a3.14,3.14,0,0,0-3-1.53c-1.5.07-3,.06-4.52,0A4.13,4.13,0,0,0,1714.09,589.88Zm-72.51-15.11c0,2.56,0,5,0,7.36a2.62,2.62,0,0,0,1.24,2.52h7.34c2.17,0,3-.81,3-3,0-1.72,0-3.44,0-5.17a3.3,3.3,0,0,0-1.42-3.06c-2.78-.73-5.59-.21-8.47-.41Zm25.14-1.09a5.41,5.41,0,0,0-1.63-.6c-2.09-.08-4.18-.1-6.26,0-1.85.08-2.84,1.26-2.84,3.17s0,3.56,0,5.33a3.12,3.12,0,0,0,1.49,3h8.3l1.81-1.27v-8.42Zm-13.56,24.13c0-2.19,0-4.38,0-6.57a2.82,2.82,0,0,0-2.71-2.82q-3.29-.06-6.56,0a2.3,2.3,0,0,0-2.3,2.27c0,2.65,0,5.3,0,7.78a3.29,3.29,0,0,0,3.19,1.56c2.19-.07,4.37,0,6.54,0l1.16-.81Zm3.57-39-.31.08a24.46,24.46,0,0,0-.42,2.68c-.07,1.62,0,3.24,0,4.86a2.88,2.88,0,0,0,3.14,3.2h6.57l1.59-1.06c.64-2.95.1-6.06.3-8.93l-1.31-1.58h-8.49Zm14,15a15.13,15.13,0,0,0-.36,2.14c-.05,1.88,0,3.76,0,5.64a3.15,3.15,0,0,0,1.53,3.11h8.6c1.45-1.3,1.47-1.33,1.47-3.09s0-3.66,0-5.48a2.83,2.83,0,0,0-3-3c-1.57,0-3.14-.08-4.69,0A27.94,27.94,0,0,0,1670.76,573.73Zm39.7,24.91c0-1.87,0-3.54,0-5.21a5.66,5.66,0,0,1,.14-1.23,2.87,2.87,0,0,0-3-3.79c-1.77,0-3.55.06-5.32,0a3.35,3.35,0,0,0-3.22,1.69c-.06,1.51-.15,3.26-.2,5a17.93,17.93,0,0,1,.12,1.79,2.7,2.7,0,0,0,2.42,3.11c2.55.07,5.1,0,7.46,0Zm-15.94-14a3.23,3.23,0,0,0,1.55-3.13c-.08-1.67-.08-3.35,0-5a3.22,3.22,0,0,0-1.48-3.11c-.86-.11-1.77-.29-2.69-.33-1.3-.06-2.6,0-3.91,0-1.53,0-2.84.37-3.48,1.84v8l1.31,1.77Z"/><path class="cls-55" d="M1689.78,526a51.62,51.62,0,0,1,2.79-10,2.51,2.51,0,0,0,.1-.62c1-2,2-4,3.1-5.91a44.38,44.38,0,0,1,13.36-14.15,43.79,43.79,0,0,1,11.15-5.48,41.82,41.82,0,0,1,11.47-2.08,46,46,0,0,1,13.32,1.26,44.82,44.82,0,0,1,30.46,26.34,36.11,36.11,0,0,1,2.85,10.66q0,6.57,0,13.14a31.94,31.94,0,0,1-1.58,7.08c-.3,1-.63,2-1,2.93a1.78,1.78,0,0,0-.27.36,44.76,44.76,0,0,1-23.86,24.18c-.86.35-1.68.78-2.51,1.18a6.8,6.8,0,0,0-.9.17,44.36,44.36,0,0,1-7.77,1.85c-1.75.17-3.49.44-5.24.47-2.12,0-4.24-.16-6.37-.25l-3.07-.4c-1.42-.39-2.87-.72-4.27-1.2-2.17-.74-4.3-1.6-6.45-2.41l-6.24-3.53a51.68,51.68,0,0,1-6.57-5.51c-1.09-1.14-2.11-2.35-3.16-3.52l-4.3-6.38c-.08-.19-.14-.39-.23-.57a39.08,39.08,0,0,1-2.78-6.52c-.4-1.52-.92-3-1.39-4.52,0-.21,0-.42,0-.62a36.42,36.42,0,0,1-1-9C1689.54,530.68,1689.67,528.35,1689.78,526Zm44.28,46.82c22.23.22,40.4-18.17,40.37-40.38a40.28,40.28,0,1,0-40.37,40.38Z"/><path class="cls-56" d="M1648.16,522.57v-3.76c0-2,0-4,0-5.95a7.8,7.8,0,0,1,.48-2.87,4.67,4.67,0,0,1,4.11-3.41c2.36-.16,4.3.46,5.41,2.75.12.23.21.47.36.81v8.35c-.18,1.18.31,2.36,0,3.54,0,.15.17.36.27.54-.11.15-.32.31-.31.45.08,1,.2,2,.31,3-.08.06-.24.15-.23.17.34,1,0,2-.1,3s-.21,1.91-.29,2.56c-1.65,1.93-3.28,3.1-5.76,2.69a6.75,6.75,0,0,0-.7-.31,5.18,5.18,0,0,1-3.32-3.93,25.58,25.58,0,0,1-.25-4.17,3.51,3.51,0,0,0,.24-1C1648.37,524.18,1648.24,523.37,1648.16,522.57Zm5.32,11.2c-.23-.26-.36-.42-.51-.56a6.21,6.21,0,0,1-2-4.84c0-5.9,0-11.8,0-17.71.74-1.23,1-2.87,2.69-3.4h-1.52l-1.71,1.3a11.52,11.52,0,0,0-1,4.49c.08,4.75.06,9.5,0,14.25a14.82,14.82,0,0,0,.73,4.83C1651.2,532.68,1651.77,534.13,1653.48,533.77Z"/><path class="cls-57" d="M1749.2,574.9c.83-.4,1.65-.83,2.51-1.18a44.76,44.76,0,0,0,23.86-24.18,1.78,1.78,0,0,1,.27-.36,4.79,4.79,0,0,1-.32,2.11,26.93,26.93,0,0,1-1.5,4.17c-.74,1.51-1.48,3-2.14,4.58a30.16,30.16,0,0,1-5.38,8,35.39,35.39,0,0,1-7.26,6.77c-1.6,1-3.09,2.24-4.76,3.12s-3,2.08-4.89,2c-.18-1.31.36-2.72-.38-4C1749.58,575.69,1750,575.35,1749.2,574.9Z"/><path class="cls-58" d="M1749.2,574.9c.8.45.38.79,0,1,.74,1.32.2,2.73.38,4l0,.6c-1-.17-1.84.51-2.75.78a24,24,0,0,1-6.31,1.43c0-1.95,0-3.9,0-5.85a44.36,44.36,0,0,0,7.77-1.85A6.8,6.8,0,0,1,1749.2,574.9Z"/><path class="cls-59" d="M1749.54,638.87l-.1.55h-.15a9.71,9.71,0,0,0-1.19-.16h-111a10.53,10.53,0,0,0-1.48.2h0l-3.41-.32c0-1.73,0-3.46,0-5.2,0-3.37,0-6.74-.07-10.11v-.31l.08-1.24.28,0,.3.27a20.53,20.53,0,0,0-.29,2.44c0,4.18,0,8.36,0,12.54,0,.4,0,.8.06,1.32h117Z"/><path class="cls-60" d="M1778.37,539.17q0-6.57,0-13.14a22.25,22.25,0,0,1,.51,3,47.38,47.38,0,0,1-.28,9.6A2.42,2.42,0,0,1,1778.37,539.17Z"/><path class="cls-61" d="M1749.54,638.87h-117c0-.52-.06-.92-.06-1.32,0-4.18,0-8.36,0-12.54a20.53,20.53,0,0,1,.29-2.44h116.71c0,3.08.06,6.16.07,9.23C1749.6,634.17,1749.56,636.52,1749.54,638.87Z"/><path class="cls-62" d="M1708.89,569.6l6.24,3.53c-.09.23-.12.52-.29.66a3.1,3.1,0,0,0-1,2.62c0,1.07,0,2.15,0,3.22-.83-.36-1.66-.74-2.5-1.09a5.69,5.69,0,0,0-.85-.2c0,.38,0,.66,0,.94a18.67,18.67,0,0,1,0,3.51c-.25,1.41-1,1.85-2.41,1.86h-7.77l-1.23-1.12c-.08-.85-.21-1.81-.25-2.77,0-1.2,0-2.41,0-3.6-.1-1.8.26-3.31,2.43-4.13h2.09c-.93-.93-1.72-1.68-2.45-2.48a9,9,0,0,1-.82-1.25c.9.1,1.81.27,2.72.29C1704.85,569.63,1706.87,569.6,1708.89,569.6Zm-4.59,3.52-.15.35c1.94,1.7,3.84,3.48,6.43,4.36.46-2.44.07-3.87-2-4.71Z"/><path class="cls-62" d="M1694.86,554.19l4.3,6.38a7.36,7.36,0,0,0-.27,1.46c0,2.1,0,4.2,0,6.3-.74-.84-1.48-1.68-2.23-2.51a4.89,4.89,0,0,0-.47-.39,8.52,8.52,0,0,1-.3,2.5c-.28.66-1,1.12-1.51,1.67-2.41,0-4.75,0-7.09,0-2,0-2.81-.9-2.81-2.86,0-2.25,0-4.49,0-6.89l1.37-1.87h5.63c.45-.73,0-1.24-.23-1.8s-.36-1.27-.53-1.9c1.1.07,2.21.17,3.32.21A2.58,2.58,0,0,0,1694.86,554.19Zm-2.67,3.81a9.5,9.5,0,0,0,.42,1.39,31.49,31.49,0,0,0,1.63,3.1c.46.72.81,1.61,1.81,2,0-1.37.09-2.63,0-3.86-.15-1.79-1-2.71-2.71-2.63Z"/><path class="cls-56" d="M1700.35,603.77h9a4.78,4.78,0,0,1,1.36,4.28,13.32,13.32,0,0,0,0,3.34,3.25,3.25,0,0,1-3.13,4c-1.77,0-3.54-.06-5.31,0a3.2,3.2,0,0,1-2.94-1.34,23.16,23.16,0,0,1-.43-6.64A4.26,4.26,0,0,1,1700.35,603.77Z"/><path class="cls-56" d="M1740.5,598.48a3.33,3.33,0,0,1-3.12,1.53c-1.77,0-3.54-.06-5.3,0a3.29,3.29,0,0,1-3.16-1.55c0-2.51,0-5.16,0-7.81a2.3,2.3,0,0,1,2.31-2.25c2.19,0,4.37,0,6.56,0a8.12,8.12,0,0,1,1.72.39l1,1.47v8.19Z"/><path class="cls-56" d="M1642,604.16a12.88,12.88,0,0,1,2-.38c2.5,0,5,0,8,0l.49.8.67,1.1c0,2.08,0,4.23,0,6.37s-1.1,3.32-3.33,3.33c-1.87,0-3.75,0-5.63,0a2.39,2.39,0,0,1-2.62-2.59c0-2.24,0-4.49,0-6.74A10.19,10.19,0,0,1,1642,604.16Z"/><path class="cls-56" d="M1694.56,603.79a3.3,3.3,0,0,1,1.51,3.16c-.07,2.19,0,4.38,0,6.53a3.74,3.74,0,0,1-3.82,1.91c-1.66-.11-3.33,0-5,0-1,0-2.08-.24-2.5-1.41a2.93,2.93,0,0,1-.25-1c0-2.56,0-5.11,0-7.77l1.36-1.35Z"/><path class="cls-56" d="M1682,598l-1.45,2c-2.58,0-5.09,0-7.59,0a3.12,3.12,0,0,1-2.54-1.5c0-2.51,0-5.12,0-7.72a2.3,2.3,0,0,1,2.35-2.38c2.19,0,4.38,0,6.57,0,1.8.05,2.6.9,2.64,2.73C1682,593.35,1682,595.54,1682,598Z"/><path class="cls-56" d="M1686.06,600l-1.59-1.42c0-2.62,0-5.22,0-7.82a2.3,2.3,0,0,1,2.37-2.35c2.18,0,4.37-.08,6.56,0A2.39,2.39,0,0,1,1696,591a54.83,54.83,0,0,1,0,6.41c-.1,1.8-1,2.66-2.73,2.62C1690.89,600,1688.5,600,1686.06,600Z"/><path class="cls-56" d="M1670.7,558.87l1.18-.84h8.6l1.5,1.75c-.16,2.86.26,5.77-.24,8.49a4.44,4.44,0,0,1-3.81,1.35c-1.61-.09-3.23,0-4.84,0a2.41,2.41,0,0,1-2.71-2.65c0-2.08,0-4.17,0-6.25A12.82,12.82,0,0,1,1670.7,558.87Z"/><path class="cls-56" d="M1682,613.72l-1.34,1.08.11.29c-1,.09-2,.23-3,.27-1.41,0-2.81,0-4.22,0-2.28,0-3.1-.83-3.1-3.06,0-1.82,0-3.65,0-5.47a3.18,3.18,0,0,1,1.53-3.05h8.55a3.19,3.19,0,0,1,1.54,3.14C1681.91,609.12,1682,611.31,1682,613.72Z"/><path class="cls-56" d="M1666.09,603.81a3.22,3.22,0,0,1,1.5,3.07c-.08,2.29,0,4.59,0,7.07l-1.84,1.45c-2.8-.21-5.61.29-8.25-.31l-1.46-1.51v-8l1.28-1.73Z"/><path class="cls-56" d="M1667.57,598.46a3.24,3.24,0,0,1-3.1,1.57c-2.24-.08-4.47,0-6.68,0l-1.75-1.52v-8.3a3.71,3.71,0,0,1,3.67-1.81c1.71.13,3.44,0,5.15,0a2.41,2.41,0,0,1,2.7,2.66C1667.58,593.52,1667.57,596,1667.57,598.46Z"/><path class="cls-56" d="M1651.52,558l1.64,1.66c0,2.43-.05,4.77,0,7.11a3.13,3.13,0,0,1-2.76,2.82c-2.13-.07-4.26,0-6.39,0a2.33,2.33,0,0,1-2.44-2.43c0-2.55,0-5.1,0-7.81L1643,558Z"/><path class="cls-56" d="M1714.09,589.88a4.13,4.13,0,0,1,3.8-1.48c1.51.05,3,.06,4.52,0a3.14,3.14,0,0,1,3,1.53v8.57a3.17,3.17,0,0,1-3.12,1.54c-2.18-.08-4.36,0-6.55,0a3.68,3.68,0,0,1-1.91-3.76c.12-1.34,0-2.71,0-4.06C1713.93,591.32,1714,590.46,1714.09,589.88Z"/><path class="cls-56" d="M1641.58,574.77l1.7-1.75c2.88.2,5.69-.32,8.47.41a3.3,3.3,0,0,1,1.42,3.06c0,1.73,0,3.45,0,5.17,0,2.18-.84,3-3,3h-7.34a2.62,2.62,0,0,1-1.24-2.52C1641.61,579.74,1641.58,577.33,1641.58,574.77Z"/><path class="cls-56" d="M1666.72,573.68l.85,1.23v8.42l-1.81,1.27h-8.3a3.12,3.12,0,0,1-1.49-3c.07-1.77,0-3.55,0-5.33s1-3.09,2.84-3.17c2.08-.09,4.17-.07,6.26,0A5.41,5.41,0,0,1,1666.72,573.68Z"/><path class="cls-56" d="M1653.16,597.81l-.69,1.39-1.16.81c-2.17,0-4.35,0-6.54,0a3.29,3.29,0,0,1-3.19-1.56c0-2.48,0-5.13,0-7.78a2.3,2.3,0,0,1,2.3-2.27q3.27-.06,6.56,0a2.82,2.82,0,0,1,2.71,2.82C1653.18,593.43,1653.16,595.62,1653.16,597.81Z"/><path class="cls-56" d="M1656.73,558.78l1-.75h8.49l1.31,1.58c-.2,2.87.34,6-.3,8.93l-1.59,1.06h-6.57a2.88,2.88,0,0,1-3.14-3.2c0-1.62,0-3.24,0-4.86a24.46,24.46,0,0,1,.42-2.68Z"/><path class="cls-56" d="M1670.76,573.73a27.94,27.94,0,0,1,3.49-.65c1.55-.11,3.12,0,4.69,0a2.83,2.83,0,0,1,3,3c0,1.82,0,3.65,0,5.48s0,1.79-1.47,3.09h-8.6a3.15,3.15,0,0,1-1.53-3.11c.08-1.88,0-3.76,0-5.64A15.13,15.13,0,0,1,1670.76,573.73Z"/><path class="cls-56" d="M1710.46,598.64l-1.58,1.37c-2.36,0-4.91,0-7.46,0a2.7,2.7,0,0,1-2.42-3.11,17.93,17.93,0,0,0-.12-1.79c0-1.75.14-3.5.2-5a3.35,3.35,0,0,1,3.22-1.69c1.77.08,3.55,0,5.32,0a2.87,2.87,0,0,1,3,3.79,5.66,5.66,0,0,0-.14,1.23C1710.45,595.1,1710.46,596.77,1710.46,598.64Z"/><path class="cls-56" d="M1694.52,584.65h-8.7l-1.31-1.77v-8c.64-1.47,2-1.85,3.48-1.84,1.31,0,2.61,0,3.91,0,.92,0,1.83.22,2.69.33a3.22,3.22,0,0,1,1.48,3.11c-.08,1.66-.08,3.34,0,5A3.23,3.23,0,0,1,1694.52,584.65Z"/><path class="cls-63" d="M1648.16,522.57c.08.8.21,1.61.24,2.42a3.51,3.51,0,0,1-.24,1,6.22,6.22,0,0,0,.95,8.32,6.65,6.65,0,0,0,8.62.11c1.87-1.61,3.45-5.49,1.08-8.43-.11-1-.23-2-.31-3,0-.14.2-.3.31-.45a8.71,8.71,0,0,1-2,15c-5,1.89-8.24-.06-10.57-3.05a8.73,8.73,0,0,1,1.9-12Z"/><path class="cls-64" d="M1713.89,579.63c0-1.07,0-2.15,0-3.22a3.1,3.1,0,0,1,1-2.62c.17-.14.2-.43.29-.66,2.15.81,4.28,1.67,6.45,2.41,1.4.48,2.85.81,4.27,1.2a3.75,3.75,0,0,0-.36,1.07c0,1.75,0,3.5,0,5.26a39.79,39.79,0,0,1-4.64-.8c-1.8-.51-3.52-1.32-5.28-2a12.82,12.82,0,0,0-1.63-.37Z"/><path class="cls-64" d="M1740.53,576.92c0,2,0,3.9,0,5.85l-.32.31a6.59,6.59,0,0,0-1.09,0,31.74,31.74,0,0,1-6.6.61c-.88,0-1.77,0-2.65,0l-.94-.32v-6.26c2.13.09,4.25.28,6.37.25C1737,577.36,1738.78,577.09,1740.53,576.92Z"/><path class="cls-56" d="M1690.11,554.22h-4.24l-1.4-1.78c0-2.44,0-4.83,0-7.23a1.76,1.76,0,0,1,.64-1.63h2.81a15.92,15.92,0,0,1,.3,1.79,35.24,35.24,0,0,0,1.61,7.38C1689.94,553.23,1690,553.73,1690.11,554.22Z"/><path class="cls-65" d="M1690.11,554.22c-.09-.49-.17-1-.29-1.47a35.24,35.24,0,0,1-1.61-7.38,15.92,15.92,0,0,0-.3-1.79l.08-1h1.76c.24,0,.51.46.71-.06.47,1.51,1,3,1.39,4.52a39.08,39.08,0,0,0,2.78,6.52c.09.18.15.38.23.57a2.58,2.58,0,0,1-.83.29c-1.11,0-2.22-.14-3.32-.21Z"/><path class="cls-66" d="M1698.88,568.33c0-2.1,0-4.2,0-6.3a7.36,7.36,0,0,1,.27-1.46c1,1.17,2.07,2.38,3.16,3.52a51.68,51.68,0,0,0,6.57,5.51c-2,0-4,0-6.06,0-.91,0-1.82-.19-2.72-.29A1.44,1.44,0,0,1,1698.88,568.33Z"/><path class="cls-67" d="M1749.53,622.59H1632.82l-.3-.27c.46,0,.92-.1,1.38-.1q57,0,114,0C1748.43,622.23,1749.14,621.82,1749.53,622.59Z"/><path class="cls-62" d="M1713.92,579.93a12.82,12.82,0,0,1,1.63.37c1.76.65,3.48,1.46,5.28,2a39.79,39.79,0,0,0,4.64.8c0,.1,0,.2,0,.31l-1.46,1.23h-8.63a3,3,0,0,1-1.5-3.13C1713.94,581,1713.91,580.45,1713.92,579.93Z"/><path class="cls-58" d="M1690.46,542.58c-.2.52-.47.06-.71.06H1688l-.08,1h-2.81c.5-1,1.61-.69,2.49-1.16a37.73,37.73,0,0,1,.08-4.62,31.09,31.09,0,0,1,.68-6.72c.3-1.29.52-2.59.83-3.88a6.24,6.24,0,0,1,.6-1.18c-.11,2.33-.24,4.66-.32,7a36.42,36.42,0,0,0,1,9C1690.45,542.16,1690.44,542.37,1690.46,542.58Z"/><path class="cls-58" d="M1725.48,583.38c0-.11,0-.21,0-.31,0-1.76,0-3.51,0-5.26a3.75,3.75,0,0,1,.36-1.07l3.07.4v6.26Z"/><path class="cls-62" d="M1729.85,583.72c.88,0,1.77,0,2.65,0a31.74,31.74,0,0,0,6.6-.61,6.59,6.59,0,0,1,1.09,0l-1,1.55h-8.93Z"/><path class="cls-68" d="M1734.06,572.84a40.33,40.33,0,1,1,40.37-40.38C1774.46,554.67,1756.29,573.06,1734.06,572.84Zm-2-35.87c1.29-.13,1.67-1.2,2.18-2.13l.85,0a.35.35,0,0,0,.08.13q7.11,4.93,14.22,9.85a7.75,7.75,0,0,0,1.25.52l.82-1.43a8,8,0,0,0-.59-.56c-2.57-2-5.12-3.92-7.71-5.84-2.07-1.55-4.19-3-6.29-4.57,0-.15,0-.3-.05-.45,1.37-.46,1.39-.48.92-1.48l-.48-.55c2.41-3.64,4.85-7.31,7.27-11s5-7.38,7.41-11.28l-1.34-1.15c-.45.51-.81.86-1.1,1.27q-4.24,6-8.47,12c-1.62,2.3-3.19,4.63-4.78,6.94l-2.37,3.14h-.51a4.24,4.24,0,0,0-2.37-1.5l-1.11,1.17v1.51l1,.86a19.18,19.18,0,0,1-2.31,1.16c-2.59.89-5.21,1.7-7.82,2.55l-10.08,3.28.21,1a6.22,6.22,0,0,0,.7-.12c2.07-.65,4.14-1.32,6.23-2,1.17-.36,2.35-.67,3.53-1l1.25.08.63,1.3c.44-.28.79-.66,1.15-.68s.77.31,1,.4l1-.69-.62-.77,1.8-.86h1.48l2.07,1.15Zm33.29-5.54v2.3h6.32v-2.3Zm-32.33,38.69h2.35c0-2,0-4,0-5.87,0-.14-.13-.28-.22-.46h-2.12Zm-36.56-36.65a17.68,17.68,0,0,0,6.4.12v-2.15h-6.4ZM1733,495c0,2.1,0,4.06,0,6,0,.07.14.14.15.15h2V495Zm28.5,22.74c1.86-1.42,3.93-2.13,5.67-3.52l-.92-1.17-5.52,3.2ZM1716,565.61l3.25-5.61-1.36-.81a58.08,58.08,0,0,0-3.15,5.69Zm3.26-60.54-3.29-5.62-1.29.89,3.18,5.5Zm31.1,54-1.27.94,3.22,5.54,1.34-.86C1752.54,562.84,1751.51,561.06,1750.36,559.11Zm-1.3-54,1.43.68,3.18-5.59-1.4-.66C1751.2,501.41,1750.17,503.19,1749.06,505.13Zm11.7,43.67,5.59,3.27.78-1.4-5.6-3.18Zm-59.53-34.39,5.61,3.23.6-1.45L1701.9,513Zm5.6,33-5.61,3.24.72,1.37,5.52-3.19Z"/><path class="cls-69" d="M1653.48,533.77c-1.71.36-2.28-1.09-3.35-1.64a14.82,14.82,0,0,1-.73-4.83c0-4.75.06-9.5,0-14.25a11.52,11.52,0,0,1,1-4.49l1.71-1.3h1.52c-1.71.53-2,2.17-2.69,3.4,0,5.91,0,11.81,0,17.71a6.21,6.21,0,0,0,2,4.84C1653.12,533.35,1653.25,533.51,1653.48,533.77Z"/><path class="cls-70" d="M1658.81,526c2.37,2.94.79,6.82-1.08,8.43a6.65,6.65,0,0,1-8.62-.11,6.22,6.22,0,0,1-.95-8.32,25.58,25.58,0,0,0,.25,4.17,5.18,5.18,0,0,0,3.32,3.93,6.75,6.75,0,0,1,.7.31c2.48.41,4.11-.76,5.76-2.69.08-.65.24-1.6.29-2.56s.44-2,.1-3C1658.57,526.16,1658.73,526.07,1658.81,526Z"/><path class="cls-64" d="M1704.3,573.12h4.31c2,.84,2.43,2.27,2,4.71-2.59-.88-4.49-2.66-6.43-4.36Z"/><path class="cls-64" d="M1692.19,558h1.13c1.75-.08,2.56.84,2.71,2.63.11,1.23,0,2.49,0,3.86-1-.39-1.35-1.28-1.81-2a31.49,31.49,0,0,1-1.63-3.1A9.5,9.5,0,0,1,1692.19,558Z"/><path class="cls-71" d="M1736.28,527.2c1.59-2.31,3.16-4.64,4.78-6.94q4.21-6,8.47-12c.29-.41.65-.76,1.1-1.27l1.34,1.15c-2.41,3.9-5,7.56-7.41,11.28s-4.86,7.34-7.27,11l.48.55h-1.87l-.12-.52c.29-1,.59-2,.89-3.06Z"/><path class="cls-72" d="M1735.78,530.47l.12.52h1.87c.47,1,.45,1-.93,1.48l.06.45-.47,0c0-.72-.38-.67-.9-.47l.29,1.16c-.07.5.19,1.2-.7,1.23l-.85,0-1.49-.14-.08-.53.72-.13-.52-1.31-.25,0,0,1.38-.94,0-.4-.89-.22.89,0,.09c-1.38.41-2.78.79-4.15,1.23-1.87.59-3.72,1.23-5.57,1.84-1.18.33-2.36.64-3.53,1-2.09.63-4.16,1.3-6.23,2a6.22,6.22,0,0,1-.7.12l-.21-1,10.08-3.28c2.61-.85,5.23-1.66,7.82-2.55a19.18,19.18,0,0,0,2.31-1.16l1.06.58.09-1.73,1.33-.89h.51Zm-1.88.55,1.13,1.08.13-1Z"/><path class="cls-73" d="M1736.43,532.9l.47,0c2.1,1.52,4.22,3,6.29,4.57,2.59,1.92,5.14,3.89,7.71,5.84a8,8,0,0,1,.59.56l-.82,1.43a7.75,7.75,0,0,1-1.25-.52q-7.12-4.9-14.22-9.85a.35.35,0,0,1-.08-.13c.89,0,.63-.73.7-1.23C1736.25,533.56,1736.5,533.37,1736.43,532.9Z"/><path class="cls-74" d="M1765.38,531.43h6.32v2.3h-6.32Z"/><path class="cls-71" d="M1733.05,570.12v-6.33h2.12c.09.18.22.32.22.46,0,1.92,0,3.84,0,5.87Z"/><path class="cls-74" d="M1696.49,533.47v-2h6.4v2.15A17.68,17.68,0,0,1,1696.49,533.47Z"/><path class="cls-54" d="M1721.38,537.29c1.85-.61,3.7-1.25,5.57-1.84,1.37-.44,2.77-.82,4.15-1.23l-.43,1.63,1.42,1.12-.93.25-2.07-1.15h-1.48l-1.8.86.62.77-1,.69c-.21-.09-.6-.42-1-.4s-.71.4-1.15.68l-.63-1.3Z"/><path class="cls-71" d="M1733,495h2.17v6.17h-2s-.15-.08-.15-.15C1733,499.06,1733,497.1,1733,495Z"/><path class="cls-74" d="M1761.51,517.74l-.77-1.49,5.52-3.2.92,1.17C1765.44,515.61,1763.37,516.32,1761.51,517.74Z"/><path class="cls-74" d="M1716,565.61l-1.26-.73a58.08,58.08,0,0,1,3.15-5.69l1.36.81Z"/><path class="cls-74" d="M1719.26,505.07l-1.4.77-3.18-5.5,1.29-.89Z"/><path class="cls-74" d="M1750.36,559.11c1.15,1.95,2.18,3.73,3.29,5.62l-1.34.86-3.22-5.54Z"/><path class="cls-73" d="M1749.06,505.13c1.11-1.94,2.14-3.72,3.21-5.57l1.4.66-3.18,5.59Z"/><path class="cls-74" d="M1760.76,548.8l.77-1.31,5.6,3.18-.78,1.4Z"/><path class="cls-74" d="M1701.23,514.41l.67-1.43,5.54,3.21-.6,1.45Z"/><path class="cls-73" d="M1706.83,547.45l.63,1.42-5.52,3.19-.72-1.37Z"/><path class="cls-74" d="M1733.4,530.34l-1.33.89L1732,533l-1.06-.58-1-.86V530l1.11-1.17A4.24,4.24,0,0,1,1733.4,530.34Z"/><path class="cls-71" d="M1732.09,537l-1.42-1.12.43-1.63,0-.09h.62l.94,0h0l.08.53,1.49.14C1733.76,535.77,1733.38,536.84,1732.09,537Z"/><path class="cls-74" d="M1735.78,530.47l-1.87-.13,2.37-3.14.39.21C1736.37,528.45,1736.07,529.46,1735.78,530.47Z"/><path class="cls-75" d="M1736.43,532.9c.07.47-.18.66-.61.69l-.29-1.16C1736.05,532.23,1736.43,532.18,1736.43,532.9Z"/><path class="cls-75" d="M1732.68,534.16l0-1.38.25,0,.52,1.31-.72.13Z"/><path class="cls-75" d="M1733.9,531l1.26.06-.13,1Z"/><path class="cls-75" d="M1731.74,534.13h-.62l.22-.89Z"/></g></svg>