<svg xmlns="http://www.w3.org/2000/svg" viewBox="0 0 909.96 602.04"><defs><style>.cls-1{fill:#302c2a;}.cls-2{fill:#838487;}.cls-3{fill:#0e0e0e;}.cls-4{fill:#4e4a48;}.cls-5{fill:#96979e;}.cls-6{fill:#161313;}.cls-7{fill:#726967;}.cls-8{fill:#f8f4f4;}.cls-9{fill:#fdfdfd;}</style></defs><g id="Layer_1" data-name="Layer 1"><path class="cls-1" d="M642.31,470.06l1.86-2.89.57-5.74c1.62,3,3.07,6.07,5,8.88.64,1,2.36,1.19,3.58,1.76l1.17-.26c3.7-2.66,6.92-.15,10.22,1,4.41,1.59,8.75,3.36,13.24,5.09l1.09-3,1.89.84,1.35-.12,1.63.23,3.74,2,6.28-5.17L713.57,480l2.23-4.13,3.93,1.06c1.13,2.59,2.25,5.19,3.38,7.78l-.75.58.74.49.19-.08c-.25,2.1-.51,4.19-.72,6-4.8,6.12-10.29,9.9-18.25,7.24a5.56,5.56,0,0,0-1.48-.07c-.08-1.63-.16-3.27-.28-5.8l-8.91-1.57c-.36,2-.58,3.25-.79,4.47l0,0-5.09.92-2.66.81.11.77,2.58.46c0,1.34,0,2.69,0,4l-5.18-1.18-8.4-1.85-5.43,2-2.54,2c-.23-2-.42-3.55-.6-5.1-.78-1.44-1.29-3.12-2.39-4.26-4.92-5.11-10-10.06-15-15.07l1.07-.69c-2.3-1.18,3-4-1.44-4.68l-1.1-4Z"/><path class="cls-2" d="M697.38,378.77l2.68.79c.68.75,1.22,1.9,2.07,2.21,11.92,4.39,23.89,8.66,35.84,13l-.08-.06,5,3.12v0l3.11,3-.08,0,1.05,1.06-.05-.06,1.05,1.05-.05-.05,1.06,1,0-.05,3,4.09-.06-.07q5,8.07,9.92,16.13a66.27,66.27,0,0,0,1.62,7.19c4.21,12.24,8.19,24.56,7.3,37.72-.38,5.46-1.78,10.85-2.71,16.26l-1.35,6.75c-4.66,2.57-4.93,7-5,11.59l-3-1.85c1.33-4,2.67-7.95,3.38-10.09,11.09-24.34-1.13-44.85-4-66.35l-2.28-.26a60.69,60.69,0,0,0-1.94,5.9c-.54,2.34-.74,4.76-1.09,7.14-1.32-3.58-2.76-7.13-3.95-10.75-1.76-5.38-3.36-10.82-5-16.24l-1-2-.39-.26.44.21,1,2c.29,2.36.57,4.73.9,7.46l-6-9.43h0l-2.06-1.45-4-.7-6-3c-.83-5-3.13-9-7.78-11.27-5.61-2.73-11.34-5.21-16.92-7.75-5.46,8.1-5.93,22.86-.9,25l3.05-4v11.76l3.58-2.69.07.06q-.47,7.5-.92,15l-3.43-4.48-.76.51,3,8-5.67-6.3c-.85-2.62-1.7-5.23-2.94-9.07l-.38,3.32-1.16,0-1.8-4.06c-.31-1.36-.61-2.71-.92-4.07-.35-1-.69-2-1-3-.32-1.34-.63-2.69-.95-4q-1.07-2-2.12-3.91l2-12,1.9-1.53c.1-1.4.16-2.32.22-3.24q1.55-2.34,3.11-4.67l.76.85C697,381.11,697.18,379.94,697.38,378.77Zm4.69,42.28.63,0c-.06-.75-.11-1.49-.17-2.24l-.46,0Zm-9.55-20.91-.83.81,1.64,1.39.55-.59C693.43,401.21,693,400.67,692.52,400.14Z"/><path class="cls-3" d="M186.47,505.53l6-3.71c-.59-1.72-1.29-4.06-2.19-6.32-4-10.05-9.41-19.86-3.72-31.15,1.31-2.59,1.65-5.67,2.43-8.53l1.86-3a1.65,1.65,0,0,0,0-.7c1.28-1.82,2.56-3.65,3.85-5.47l12,.18c.19.9.39,1.79.66,3.06l3.46-1.13,1.57.11-.52,4.92c-.23,1.23-.47,2.47-.7,3.7l-3.31,4.77v3.59c.18,13.49,3.36,26.37,8,38.94l2.74,2.47-14.7.43c0-.65-.08-1.29-.13-1.94.27-1.11.53-2.22.85-3.53l4.86-.34c-1.53-3.82-2.51-7.37-4.3-10.46-2.51-4.35-5.62-8.36-8.47-12.51l-1.65-3.11-.88.32,1.05,4,4,25.41c-.16.68-.32,1.36-.49,2l-11.8.14Z"/><path class="cls-1" d="M261.16,391.64l2.4,2.28h5.78l-3.61,5a.73.73,0,0,0,0,.79l-1.82,1.2h-4.75l-.11,1.69,3.9,1.25c-1.18,1.54-2.36,3.07-3.82,5l5.64,7-.6,16.35.06,1.3c.1.46.21.91.32,1.37l2.25,11-.57,4.67-20.56,2.3c0-1,0-2,0-3v-3c0-1,0-2,.07-3l3-5.09.68-6.76c.09-1.08.18-2.17.28-3.25q0-7.06,0-14.13c1-2,2-3.91,3-5.87l2,1.81c.14-1.13.28-2.25.43-3.5l-5-3.44-4.33.61c1-2.05,2.1-4.24,3.18-6.42Zm-3.88,46.72.16,1.22,1.95-.57-.23-.9Zm.68-6.2c-.31.24-.68.38-.72.58s.21.52.33.78l.92-.71Z"/><path class="cls-4" d="M245.69,452.84l20.56-2.3.57-4.67c1.82-4.05.5-10.91-2.63-13.67l.6-16.35c1.93,7.83,3.94,15.65,5.73,23.51,1,4.16,1.49,8.41,2.32,13.24l-5,2.43c.42,5.61,1,11.49,1.23,17.38.08,1.72-.71,3.47-1.1,5.21-.23-.88-.45-1.75-.78-3l-4.35,1.24c-.6.78-1.21,1.55-1.81,2.32l-3.12.13-1.07-1.44c-3.7-.24-7.39-.51-11.09-.66-.19,0-.41,1.06-.62,1.62l-1.24,0-.3-1.2c.92-6,1.84-12,2.81-18.23l-3.71-1.4C243.68,455.62,244.68,454.23,245.69,452.84ZM258,473.09l1-.18-.26-5.05-.7,0Z"/><path class="cls-5" d="M303.72,486l8.7,4.06c-2.28,3.74-4.11,6.73-6.39,10.49l7.81,2.79c6.43-11,9.77-12.91,18.05-10.73-.49,3.75,1.19,8.07-2.82,11.07l-4.25-3.54c-6.91,10.83-15.41,8.92-24.38,2.34-2.4-7.45-5.13-9.77-12-9.11l-5.25,7.56-8.44-2.24-3,3.13-4.95-1v0c-.35-.7-.7-1.4-1-2.1a4.13,4.13,0,0,1,0-.93l1.76-1,5.47-2.06,4.19,2c7.34-1.74,4.82-8,6.08-12.92a25,25,0,0,0,5.43-.1c1.1-.25,2-1.5,2.95-2.31,2.42-1.95,4.79-1.7,7.1.21C300.52,486.19,300.93,486.55,303.72,486Z"/><path class="cls-6" d="M758.71,501.51l3,1.85-1.64,2.19-6.32,1.2-13.92,2.13-17,.08c-1.41-.71-2.8-1.95-4.24-2-5.06-.25-10.15-.09-15.75-.09v-8a5.56,5.56,0,0,1,1.48.07c8,2.66,13.45-1.12,18.25-7.24.21-1.8.47-3.89.72-6,.75,2.32,1.49,4.64,2.35,7.3h5.17c.22,1,.44,2,.73,3.44l4.49-1.13Z"/><path class="cls-2" d="M271.82,501.77l3-3.13,8.44,2.24,5.25-7.56c6.83-.66,9.56,1.66,12,9.11,9,6.58,17.47,8.49,24.38-2.34l4.25,3.54c4-3,2.33-7.32,2.82-11.07l3.1,7.27,5.78.49,4.18,4.46c-4.26.54-8.47-3.6-13.05-.57,2.72,4.18,2.83,4.2,13,3.37v-2.86l7.11-.66,10.89,2.62a4.62,4.62,0,0,0-.1,1c-6.89.68-13.77,1.9-20.66,1.94-13.77.1-27.53-.45-41.3-.74l-10-.94-2-.09,2.5-4.87H273.76Z"/><path class="cls-1" d="M206.68,446.86l-12-.18c-.44-3.75-1-4.32-3.86-4l-2.58,1,2.58,1.46v7a1.65,1.65,0,0,1,0,.7l-2.89.95a54.56,54.56,0,0,0-4.84-6.38c-1.6-1.61-3.85-2.56-5.65-4-1.39-1.13-2.57-2.58.29-3.52l2.89,2.17,1.68,1.51,1,.72.94.85.64-.44c.09.4.17.79,0,.17.66.25.27.11-.12,0l-1-1-.94-1.06c-.47-.5-.95-1-1.42-1.51l-2.7-2.3c-1.45-2.24-1.43-4.17,1.14-5.59l4.79,7,1.71-1.46-6.31-5.9L181,430l3.36.58c.23-2.37.44-4.49.65-6.61l6.77-1.07,1.07,2-.13,2.14-3-1.63c-.27,4-.5,7.56-.73,11.2l4.94,3.82,1.53-.86-2.81-12.56c1.65,2,3.3,4.06,5.65,7l7.46-2c1-1.21,2.95-2.53,2.82-3.61-.34-2.81-1.59-5.52-2.47-8.27l7,.56,0,2.07-3.36.83v12.42c0,1,0,2,.05,3l-3.5,4.14C206.45,444.11,206.56,445.48,206.68,446.86ZM184.63,431.1l-.33-.18,0,.65a1.17,1.17,0,0,0,.34-.15C184.65,431.36,184.62,431.21,184.63,431.1Z"/><path class="cls-2" d="M831.8,511.76c-3.61,0-7.23.15-10.84.06q-21.91-.57-43.83-1.29a55.56,55.56,0,0,1-6.37-.93c-.45-.71-.91-1.41-1.36-2.11l2.35-1.66,1.16.86,6.25,3c.35-2,.5-2.95.66-3.84l2.6-.79c.46-4.17.87-7.8,1.29-11.53l5-.89.06,1.31-3.87,1.85v8.91l-3,3.81h5.34c-.3-.33-.6-.67-.91-1l6.16-7.41,1.74,1.75c2.5-5.61,3.65-6,11-3-.88-3.54-1.59-6.42-2.31-9.3l7.49,4.77a7.27,7.27,0,0,0-.54.57l-2.65.52v8l4.42.39,2.78,3.07,4.07-1.15c-.07.34-.13.68-.19,1l13.49,2.6Z"/><path class="cls-7" d="M139.86,451.87c1-12,2-24,2.95-36a31.21,31.21,0,0,0-.36-4.8c3.31-.75,5,.71,5.35,3L146,423l-.22,2.83c-.25.7-.51,1.41-.77,2.11q-.66,6.39-1.31,12.79l1.19.14,1.8-12.92.26-2,.87-.06q1.32,3.92,2.65,7.84c.95,2.79,2.27,5.51,2.78,8.37,1.36,7.56,2.36,15.19,3.5,22.79h-.87c-.87-3.86-1.75-7.72-2.66-11.72l-2.92-.3-2.88.88-1.46,0-2.78-8-1.09.24q1.35,5.48,2.69,11l-3.12,3.61C140.85,456.73,140.35,454.3,139.86,451.87Z"/><path class="cls-1" d="M621.66,491.8l1.08-1,6.32-5.11c-.31-2.35-.59-4.38-.9-6.7l-4.34.85.06-2.85.81-1.22,1.08.11,6,4.09.42,6.43c-.1,1.25-.2,2.5-.28,3.56l4.52,1.86c.35,2.86.65,5.26,1,7.66-.15,2.08-.29,4.16-.44,6.24.06.46.12.93.17,1.4L637,509l-17.16.15c-.32-1.76-.65-3.53-1-5.29a54.73,54.73,0,0,1,.39-7.92c.28-1.5,1.61-2.8,2.47-4.18l.84,2.17,1.07-.68Z"/><path class="cls-7" d="M772.91,506.69l-1.16-.86c-2.08-2.43-5.51-2-9.08,1.66h6.73c.45.7.91,1.4,1.36,2.11l-30.94-.72,13.92-2.13c2.48,1.54,4.79,2.25,6.32-1.2l1.64-2.19c.06-4.56.33-9,5-11.59l-.63,5.4,1.21.28c.86-3.38,1.84-6.75,2.48-10.17.12-.62-1.11-1.5-1.71-2.26.93-5.41,2.33-10.8,2.71-16.26.89-13.16-3.09-25.48-7.3-37.72a66.27,66.27,0,0,1-1.62-7.19l.23-1.32c8.26,19.3,12.64,39.27,10.45,60.38-2.93,1.73-2.82,3.36.16,4.9v15.44l4.12,1.63Z"/><path class="cls-5" d="M596.73,496.8c-.15,1.24-.29,2.47-.44,3.7l.8.41c.95-1.18,1.88-2.38,2.84-3.54s1.9-2.27,3-3.61l8.47,3.11v-7.24l3.42,3.05v1.94l-1.05,1.23-5.47,5.74c0,.25.1,1.49.2,3.1l-5.08-.28c-.57,1.15-1.12,2.27-1.59,3.2h-6.69l-5.2-7.48-5.52,7.44h-9l5.48-5.9c.58-1.2,1.68-2.42,1.63-3.59-.16-3.48.72-6.06,4.3-7.16l6.12-1.26-.11.11,1,1,0,0,1.07,1,0,0Z"/><path class="cls-2" d="M580.93,501.67l-5.48,5.9h9l5.52-7.44,5.2,7.48h6.69c.47-.93,1-2.05,1.59-3.2l5.08.28c-.1-1.61-.18-2.85-.2-3.1l5.47-5.74c1.77,2.62.47,7.16,5,8,.32,1.76.65,3.53,1,5.29-11.24.28-22.48.64-33.72.79-8.79.12-17.58,0-26.37-.07,0-.45,0-.9-.05-1.35,6.66-.9,13.83-.33,18.72-6.49C578.78,501.56,580.06,501.78,580.93,501.67Z"/><path class="cls-3" d="M702.84,498.81v8c5.6,0,10.69-.16,15.75.09,1.44.07,2.83,1.31,4.24,2l-35-.09c0-2,0-4,0-6,0-1.34,0-2.69,0-4l0-2,5.09-.92v2.87l1.66-1.78-1.69-1.06c.21-1.22.43-2.44.79-4.47l8.91,1.57C702.68,495.54,702.76,497.18,702.84,498.81Z"/><path class="cls-5" d="M802.87,489.51c.72,2.88,1.43,5.76,2.31,9.3-7.37-3-8.52-2.6-11,3l-1.74-1.75-6.16,7.41c.31.33.61.67.91,1h-5.34l3-3.81v-8.91l3.87-1.85,2-5.17,0,.08,9-.84Z"/><path class="cls-4" d="M147.79,425.88l-.87.06-.18-.17c-.25-.92-.51-1.83-.77-2.75l1.83-8.95c-.33-2.3-2-3.76-5.35-3l-2.9-7.86c1.68-.81,3.39-1.58,5-2.45,1.48-.79,2.9-1.71,4.35-2.56-.24-.62-.49-1.24-.74-1.86l-8,1.43c3.79-3.44,5.79-3.82,13-2,.17,3.72.36,7.83.54,11.61l-6.29,2.95,7.15,10.3c-1.13,1.76-2.34,3.65-3.54,5.54-.08-.53-.16-1.05-.25-1.57,1.83-3.83,1.83-3.83-1-5.83l-.8,5.84Zm2.9-21.28-.52-1.55-3.25,1,.54,1.61Z"/><path class="cls-2" d="M636.91,505.73c.15-2.08.29-4.16.44-6.24l5,2.86c.84-5.9-.89-12.25,7.53-14.92l6.25,8.68L650.76,498,649,508.05l-6.21.82L637,509l.11-1.89,3-.58,0-.49Z"/><path class="cls-3" d="M697.38,378.77c-.2,1.17-.4,2.34-.59,3.51l-.76-.85q-1.56,2.32-3.11,4.67c-2.95,1.33-5.95,3.66-7.86.21l-8.26-.62-1.86-.82c-.08-.9-.17-1.8-.25-2.7l3.11-5.23h7l4.56-2.72,2.28,2.9.51-1Z"/><path class="cls-3" d="M649,508.05,650.76,498l5.41-1.89L663,498.8c-3.3.94-3.28,3-1.72,5.54l1.67-5.58,2.74,0c.18,1.55.37,3.11.6,5.1l2.54-2,1.8,1.91,1.22,2.16-.08,2.18a4.6,4.6,0,0,0,.05.64l-22.92-.11A.54.54,0,0,0,649,508.05Zm6.27-8.6-.15-.58-1.21.28c.05.21.11.42.16.63Z"/><path class="cls-5" d="M655.77,448.28l2-2.5c.18.22.35.44.55.67l.47-.7-.07.08,2-3.06,0,.05,1-2,0,0,2-2,0,.06c2.36-3.91,4.71-7.83,7.45-12.38,1.31,2.2,2.35,3.93,2.85,4.78-.86,2.88-1.45,4.81-2,6.74.37,1.54.75,3.08.92,3.8l-6.22,7.05-14.57,6.64c.28-2.33.42-3.55.57-4.77l0,.09,2-1,0,.05Z"/><path class="cls-2" d="M652.7,450.68c-.15,1.22-.29,2.44-.57,4.77l14.57-6.64c1.37.46,2.9,1.53,4.09,1.24,2.21-.54,4.22-1.88,6.49-3l.59,2.12-.87.67-2.14,1.1.07-.05c-2.51,1.08-5.89,1.1-6,5l0,0-2,2,0-.05L664.84,459l.09-.06-2.07,2,0,0-2,1.06.08-.05-2.06,2,0,0-9.08-3.05v0l-1.07-3.06C650.07,455.42,651.39,453.05,652.7,450.68Z"/><path class="cls-5" d="M106.67,504.25l2.54-3.46c.79-.52,2.11-.91,2.29-1.59,1.78-6.85,6.77-9.83,13.4-11.28l4.09.81-.1,0c0,2.72,0,5.43,0,8.15l.08.09-2.17,1.84-7.56-1.73-4.43,8.73h0Z"/><path class="cls-4" d="M134.67,498.66l1.05-2.88,2.15,1,4.56.91,2.06.08c.26.63.52,1.26.77,1.89l-.69,3.18,3.28-.12,2,.49-.08.26c.18,1,.36,2,.67,3.65l2.88-2.21.85-.68.17.2-.47,3.44-11-.36-5.09,0L115,507.43l-.15-1.58h18.46C133.82,503.08,134.25,500.87,134.67,498.66Z"/><path class="cls-7" d="M672,438c.58-1.93,1.17-3.86,2-6.74-.5-.85-1.54-2.58-2.85-4.78-2.74,4.55-5.09,8.47-7.45,12.38l7-18.07c.35,4.49.35,4.49,5,4.39l-5-4.34c1-2.64,2.09-5.28,3.13-7.93l2.65,3,1.31-.07.9,8.11c.36,2.64.73,5.29,1.09,7.93l-2.91.92c-.09-.72-.19-1.45-.28-2.17l-.73.14.83,2.18c.18,1.84.35,3.68.58,6.06Z"/><path class="cls-5" d="M192.87,424.82l-1.07-2q-.63-7.14-1.27-14.27l1.2-.84,5.08.1,3.09,1-.07,0,.42.68.55-.58,2.11,1.78-3.24,7.84c-1,2.08-2.06,4.15-3.1,6.23Zm3.75-14.21-1-.06-.39,5.49,1.39.08Z"/><path class="cls-2" d="M134.67,498.66l-1.38,7.19H114.83l4.43-8.73,7.56,1.73.26.24.49,1.84,1.28-2.11-.06.07Z"/><path class="cls-7" d="M141.22,488l2.73-23.5,2.83-1.48,2,1.84q-.52,5-1,10.06l.09-.09-.84.73c.3,1.84.61,3.67.91,5.5l-1,1.83-.67.31.4.56.1,1.11-2.61,3Z"/><path class="cls-7" d="M631.73,480l-6-4.09c0-.51,0-1,0-1.52l9.7.41c.54,1,1.08,1.93,1.61,2.9l5.25-7.62h4.47l1.1,4,0-.2-1.41.11.32.85-8,5.93Z"/><path class="cls-6" d="M671.82,508.73a4.6,4.6,0,0,1-.05-.64l7.42-.65c0-.51-.05-1-.08-1.53h-7.26l-1.22-2.16,3.63-3.91,8.4,1.85,5.18,1.18c0,2,0,4,0,6Z"/><path class="cls-1" d="M191.73,407.75l-1.2.84-4.72.66c1,2.38,1.91,4.44,2.9,6.75l-3.07,2.86c0-.6,0-1.19,0-1.78l-.57-1.37-1.34.83-3.37-.64,3.1-1.22-2.68-.81c-.84-2.69-.84-2.69-4-1.09l4,1c-.17.69-.33,1.39-.5,2.08-2.81-.9-6.52-.59-6.75-5l5.72-3.62,5.84-.62,6.63.28Q191.75,407.35,191.73,407.75Z"/><path class="cls-7" d="M153.82,507.9l.47-3.44,16.38.86c3.86,2.79,7.76,1.75,11.67.12l4.13.09.42,2.2Z"/><path class="cls-7" d="M265.86,497.8a4.13,4.13,0,0,0,0,.93c.34.7.69,1.4,1,2.1v0c0,.69,0,1.39-.05,2.09l-3.09,1.87-4-2c0-.3.05-.61.07-.92.73-2.25,1.88-4.47,2.09-6.77.33-3.71.05-7.48,0-11.23l3.48-.09Z"/><path class="cls-7" d="M674.69,382.17c.08.9.17,1.8.25,2.7l-.87.71-5.18,2.22-2.09.57c.45,1,.72,1.53,1,2.1L665,392.65l-3.54-5,4-8.06,4.48.62c.45,2.3,1.48,3.38,3.78,1.79A3.31,3.31,0,0,1,674.69,382.17Z"/><path class="cls-4" d="M738,394.74c-12-4.31-23.92-8.58-35.84-13-.85-.31-1.39-1.46-2.07-2.21,9.64,3.08,19.35,5.93,28.85,9.37C732.2,390.12,735,392.76,738,394.74Z"/><path class="cls-4" d="M148.82,464.84l-2-1.84L144,464.48,138,462.4c.73-4.13,1.29-7.33,1.85-10.53.49,2.43,1,4.86,1.77,8.72l3.12-3.61c.4-1.06.79-2.13,1.18-3.2l1.46,0c1.14,1.7,2.28,3.41,3.43,5.11,0,1.32.09,2.63.14,3.95l-1.23-1.05C149.32,463.13,149.07,464,148.82,464.84Z"/><path class="cls-7" d="M218.59,507.29l-2.74-2.47c.93-.75,2.23-1.33,2.69-2.3a20.15,20.15,0,0,0,1-4.65c.42,2.42.85,4.83,1.34,7.63h3.76l6.23-1.58,2.86-1.07,5,1.8c0,.72,0,1.43,0,2.15.06.57.11,1.14.16,1.72Z"/><path class="cls-7" d="M273.76,503h17.56l-2.5,4.87-12.92.22C275.19,506.36,274.47,504.66,273.76,503Z"/><path class="cls-5" d="M243.57,476.63l.3,1.2-.3,1.45-.61,1.45-1.21.18.06,0-2.05-1,0,0-2-1h0l-1-1,0,0-3-2h0l-1-1,0,0-.75-1.28c-1.51-1.49-2.09-4.86-5.43-2.69l-5.91-5,2,.12,3.51,3.27-1.37-3.47,2.11-.06,0,0,5,3.06,0-.07,2,2.06-.05,0,3.05,2-.06,0,.44.68.55-.6Z"/><path class="cls-2" d="M291.74,481.45c-1,.81-1.85,2.06-2.95,2.31a25,25,0,0,1-5.43.1c-1.26,5,1.26,11.18-6.08,12.92l-4.19-2-5.47,2.06c2.81-4.41,4.58-4.79,11.39-1.71l3.2-12.13Z"/><path class="cls-4" d="M248.75,438.83l-3,5.09-2.58,1.79,2.64-19.86,3.9,3c-.1,1.08-.19,2.17-.28,3.25C247.2,434.75,247,436.73,248.75,438.83Z"/><path class="cls-7" d="M185.64,418.86l3.07-2.86c-1-2.31-1.87-4.37-2.9-6.75l4.72-.66q.65,7.13,1.27,14.27L185,423.93C185.23,422.24,185.44,420.55,185.64,418.86Z"/><path class="cls-2" d="M114.83,505.85l.15,1.58-25.13.32c0-.27,0-.54,0-.81l16.83-2.69Z"/><path class="cls-2" d="M653.27,472.07c-1.22-.57-2.94-.8-3.58-1.76-1.88-2.81-3.33-5.9-5-8.88l.58-1.62,4.51,1.05v0c.45,1.54.91,3.07,1.18,4l4.2.37C654.42,468,653.85,470,653.27,472.07Z"/><path class="cls-2" d="M182.34,505.44c-3.91,1.63-7.81,2.67-11.67-.12,2.67-3.09,5.17-6.56,10.43-4.13Z"/><path class="cls-6" d="M669.93,380.21l-4.48-.62,2.27-5.54,10.08,2.89-3.11,5.23a3.31,3.31,0,0,0-1-.17Z"/><path class="cls-4" d="M623.82,479.85l4.34-.85c.31,2.32.59,4.35.9,6.7l-6.32,5.11q-.4-4.5-.82-9l1.91-2Z"/><path class="cls-4" d="M185.16,406.66l-5.84.62-5.72,3.62c-2.13-4.23.9-6.24,3.83-7.6C180.82,401.72,184,402.32,185.16,406.66Z"/><path class="cls-7" d="M249.71,428.82l-3.9-3c.27-4.08-.74-8.6,3.89-11.16Q249.7,421.76,249.71,428.82Z"/><path class="cls-7" d="M222.67,466l-2-.12.1,0-1-1,0,0-1-1.05,0,.05-.53-.62-.55.64-6.58-6.41c.23-1.23.47-2.47.7-3.7q5.73,4.24,11.45,8.5c-.18.19-.35.39-.52.59l-1.65.44,1.87,2.27Z"/><path class="cls-4" d="M674,410.13l-4.55,2.49v-5.79l6.58-4.09c5,.84,2.46,3.34,1.24,5.56Z"/><path class="cls-6" d="M667.78,390.47c-.26-.57-.53-1.13-1-2.1l2.09-.57c3.4,1.6,4,1.33,5.18-2.22l.87-.71,1.86.82.93,5.12q-1.9,1.57-3.83,3.13c-.09.26-.17.52-.24.79l-.79.07a1,1,0,0,0-.81-.08Z"/><path class="cls-2" d="M129,488.73l-4.09-.81c-6.63,1.45-11.62,4.43-13.4,11.28-.18.68-1.5,1.07-2.29,1.59,1.51-9.1,7.37-13.48,17-14.68Z"/><path class="cls-1" d="M238.93,508.52c-.05-.58-.1-1.15-.16-1.72h7.61c.18-2.51.3-4.24.42-6l1.31-.2,3.72,4.09.95,2.22-.14,1.32Z"/><path class="cls-4" d="M261.16,391.64,249,397.88C250.77,391.3,255.44,388.91,261.16,391.64Z"/><path class="cls-4" d="M147,482.87l1-1.83q3.95-8.09,7.9-16.16h.87c-.57,2.74-.64,5.72-1.81,8.18-2,4.12-4.64,7.9-7,11.83l-1.08,0h0l-.1-1.11Q146.84,483.3,147,482.87Z"/><path class="cls-4" d="M209.86,438.88l-.05-3,2.91-5c1.68,6,2.34,12.05-.35,18l-1.57-.11C211.28,445.41,214,441.82,209.86,438.88Z"/><path class="cls-1" d="M263.73,504.76l3.09-1.87c1.24,1,2.45,2,3.73,2.92,1,.74,2.17,1.34,3.27,2L257,508.4c-.07-.53-.13-1.06-.2-1.59l.84-.14C259.68,506.1,262.71,508.62,263.73,504.76Z"/><path class="cls-2" d="M243.17,445.71l2.58-1.79c0,1-.05,2-.07,3v3c0,1,0,2,0,3-1,1.39-2,2.78-3,4.16-.62-1.44-1.87-3-1.71-4.32C241.24,450.3,242.39,448,243.17,445.71Z"/><path class="cls-7" d="M213.2,420.56l-7-.56-.14-.06-1.32-1.12c.4-2,.79-4.05,1.19-6.07Z"/><path class="cls-7" d="M140.2,397.76l8-1.43c.25.62.5,1.24.74,1.86-1.45.85-2.87,1.77-4.35,2.56-1.65.87-3.36,1.64-5,2.45C139.77,401.39,140,399.57,140.2,397.76Z"/><path class="cls-8" d="M559.67,508.54c0,.45,0,.9.05,1.35H541.51c0-.66,0-1.33,0-2C547.53,508.08,553.55,507.05,559.67,508.54Z"/><path class="cls-1" d="M141.22,488l3-.15,2.61-3h0l.21,2.24q-1.26,5.36-2.54,10.71l-2.06-.08-.55-5.89-1.26-2.23Z"/><path class="cls-7" d="M672.06,394.72a1,1,0,0,1,.81.08c.25,1.26.51,2.52.77,3.78l2.16,2.24c.07.64.14,1.28.2,1.92l-6.58,4.09c-.18-.72-.72-1.89-.48-2.08C672.3,402.09,672,398.36,672.06,394.72Z"/><path class="cls-7" d="M212.72,430.9l-2.91,5V423.46l3.36-.83Z"/><path class="cls-6" d="M205.91,412.75c-.4,2-.79,4.05-1.19,6.07l-5.05-.33,3.24-7.84Z"/><path class="cls-4" d="M762.06,422.53l-.23,1.32q-5-8.07-9.92-16.13C757.1,411.42,760.15,416.59,762.06,422.53Z"/><path class="cls-4" d="M273.82,507.81c-1.1-.66-2.23-1.26-3.27-2-1.28-.92-2.49-1.94-3.73-2.92,0-.7,0-1.4.05-2.09l4.95,1,1.94,1.2c.71,1.69,1.43,3.39,2.14,5.09Z"/><path class="cls-1" d="M265.4,483.71l-3.48.09c-.32-1.91-.63-3.83-.95-5.75l1.88-.72,3.43.77Q265.83,480.91,265.4,483.71Z"/><path class="cls-8" d="M180.13,433l6.31,5.9-1.71,1.46-4.79-7Z"/><path class="cls-5" d="M772.91,506.69l3.88-1.81,3,.93c-.16.89-.31,1.79-.66,3.84Z"/><path class="cls-1" d="M150.8,424.63c.09.52.17,1,.25,1.57q-.31,3.75-.61,7.52-1.33-3.93-2.65-7.84l1.19-1.24Z"/><path class="cls-7" d="M290.79,507.93l10,.94Z"/><path class="cls-2" d="M674,410.13l3.27-1.83-.72,7.57-2.65-3Z"/><path class="cls-5" d="M89.84,506.94c0,.27,0,.54,0,.81l-10.74-.61.06-1.05Z"/><path class="cls-2" d="M128.91,496.92c0-2.72,0-5.43,0-8.15C131,491.48,132.9,494.2,128.91,496.92Z"/><path class="cls-7" d="M147.85,502.75l-3.28.12.69-3.18Z"/><path class="cls-2" d="M610,486.26l-3.23-.68c.07-.61.15-1.22.22-1.84l3.45.25C610.33,484.75,610.19,485.5,610,486.26Z"/><path class="cls-1" d="M263,403.89l-3.9-1.25.11-1.69h4.75a.53.53,0,0,1-.07.85l-1,2.14Z"/><path class="cls-4" d="M303.72,486c-2.79.6-3.2.24-4.88-4.29l2.43-.61.9,1.15c-.14.75-.28,1.5-.44,2.38Z"/><path class="cls-2" d="M593,489.66l-6.12,1.26C588.85,490.23,590.27,486.81,593,489.66Z"/><path class="cls-2" d="M810.36,494.28l2.3,6.6c-.33,0-.65,0-1-.06-.62-2-1.25-4-1.87-6A7.27,7.27,0,0,1,810.36,494.28Z"/><path class="cls-7" d="M799.72,488l-9,.84Z"/><path class="cls-4" d="M623.88,477l-.06,2.85h0l-2.16,1.24c-.47-.77-.95-1.53-1.64-2.65Z"/><path class="cls-5" d="M266.28,478.1l-3.43-.77,0-1.49,4.35-1.24c.33,1.27.55,2.14.78,3Z"/><path class="cls-7" d="M198.69,507.59c.17-.69.33-1.37.49-2l4.58.24c.05.65.09,1.29.13,1.94Z"/><path class="cls-7" d="M811.69,500.82c.32,0,.64.05,1,.06l1.71,5.91-2.78-3.07C811.62,502.75,811.66,501.78,811.69,500.82Z"/><path class="cls-8" d="M598.45,459.4l-5,1.14-.27-1.14,5-1.29C598.26,458.54,598.35,459,598.45,459.4Z"/><path class="cls-5" d="M362.79,507.67a4.62,4.62,0,0,1,.1-1h7.19v1.62Z"/><path class="cls-7" d="M790.77,488.74l-2,5.17-.06-1.31Z"/><path class="cls-7" d="M231.91,468.81l-5-3.06Z"/><path class="cls-4" d="M742.89,397.8l-5-3.12Z"/><path class="cls-5" d="M831.8,511.76l-.06-2.5,3.58,1.3c-.05.4-.11.8-.16,1.2Z"/><path class="cls-4" d="M772.67,487.81c-3-1.54-3.09-3.17-.16-4.9C772.56,484.54,772.61,486.18,772.67,487.81Z"/><path class="cls-7" d="M256.78,506.81c.07.53.13,1.06.2,1.59l-4.34-.14.14-1.32.19-.35Z"/><path class="cls-4" d="M752,407.79l-3-4.09Z"/><path class="cls-4" d="M187.93,453.8l2.89-.95-1.86,3C188.61,455.15,188.27,454.47,187.93,453.8Z"/><path class="cls-2" d="M596.73,496.8l-1.82-5Z"/><path class="cls-4" d="M746,400.75l-3.11-3Z"/><path class="cls-7" d="M191.73,407.75q0-.4.06-.81l7.06.89-2,0Z"/><path class="cls-4" d="M649.83,460.86l-4.51-1.05,3.44-2Z"/><path class="cls-8" d="M180.62,442.06l-2.89-2.17,1.07-.95,2.7,2.3Z"/><path class="cls-7" d="M149.72,503.5l.08-.26,3.58.1c-.23.2-.45.4-.65.61Z"/><path class="cls-4" d="M649,508.05a.54.54,0,0,1-.11.57l-6.1.25Z"/><path class="cls-7" d="M137.87,496.81l-2.15-1c.5-.89,1-1.78,1.49-2.67l.76.84Z"/><path class="cls-5" d="M301.67,480.66l3.19-1.77-.06-.05-1.44,2Z"/><path class="cls-7" d="M140.62,489.6l1.26,2.23h-3.06l-.19-.17Z"/><path class="cls-7" d="M236.9,472.8l-3.05-2Z"/><path class="cls-2" d="M137.77,507.56l5.09,0Z"/><path class="cls-7" d="M660.77,442.77l-2,3.06Z"/><path class="cls-2" d="M614.86,494.62v-1.94l3.32,1.05Z"/><path class="cls-2" d="M126.82,498.85,129,497c-.07.63-.13,1.25-.2,1.88l.06-.07-1.77.27Z"/><path class="cls-8" d="M383.89,504.19l.52.63-.94.59c-.11-.27-.34-.57-.28-.79S383.64,504.34,383.89,504.19Z"/><path class="cls-7" d="M663.77,438.76l-2,2Z"/><path class="cls-7" d="M233.9,470.8l-2-2.06Z"/><path class="cls-7" d="M226.92,465.78l-2.11.06,0,0,0-2,.13-.15Z"/><path class="cls-5" d="M304.86,478.89l.6-1.65.66.43-1.32,1.17Z"/><path class="cls-1" d="M621.67,481.08l2.16-1.24-1.91,2A.77.77,0,0,1,621.67,481.08Z"/><path class="cls-4" d="M196.81,407.85l2,0,1.05,1Z"/><path class="cls-7" d="M137.21,493.11l1.42-1.44.19.17L138,494Z"/><path class="cls-7" d="M223.3,462.32l1.68,1.35-.13.15-2.07-.91C223,462.71,223.12,462.51,223.3,462.32Z"/><path class="cls-2" d="M654.79,449.76l-2,1Z"/><path class="cls-7" d="M147,487.09l-.21-2.24,1.08,0Z"/><path class="cls-7" d="M661.78,440.78l-1,2Z"/><path class="cls-7" d="M183.75,416.54l1.34-.83.57,1.37Z"/><path class="cls-1" d="M262.85,403.94c.34-.71.67-1.43,1-2.14C263.52,402.51,263.19,403.23,262.85,403.94Z"/><path class="cls-4" d="M625.75,474.37c0,.51,0,1,0,1.52l-1.08-.11Z"/><path class="cls-4" d="M301.67,480.66l1.69.21-1.19,1.33-.9-1.15A.62.62,0,0,1,301.67,480.66Z"/><path class="cls-4" d="M200.8,408.87l-.55.58-.42-.68Z"/><path class="cls-2" d="M593.9,490.8l-1-1Z"/><path class="cls-2" d="M594.94,491.8l-1.07-1Z"/><path class="cls-4" d="M749,403.75l-1.06-1Z"/><path class="cls-4" d="M748,402.76l-1.05-1.05Z"/><path class="cls-4" d="M747,401.77l-1.05-1.06Z"/><path class="cls-2" d="M265.75,399.75a.73.73,0,0,1,0-.79l.71.7Z"/><path class="cls-7" d="M658.8,445.75l-.47.7c-.2-.23-.37-.45-.55-.67Z"/><path class="cls-2" d="M655.77,448.28l-1,1.53Z"/><path class="cls-7" d="M154.12,504.26l-.85.68-.54-1c.2-.21.42-.41.65-.61C153.62,503.65,153.87,504,154.12,504.26Z"/><path class="cls-7" d="M237.83,472.84l-.55.6-.44-.68Z"/><path class="cls-7" d="M715.8,475.82,713.57,480l-19.69-7.26c.08-.78.17-1.56.28-2.52h4.22l.24-1.16-9.57-2.24-1-4.46c2.48-7.21,4-14.21,2.29-21.54,3.81,1.24,4.89,3.87,4.21,7.66a65.72,65.72,0,0,0-.52,6.89l1.62-.08a26.21,26.21,0,0,1,.38-4.8c.64-2.48,1.86-4.41,4.91-2.6q1.49,8.78,3,17.55c-.13.71-.26,1.42-.45,2.43h5.44l0,0,1,1v-.08l-5,3.56,6.3,2.86,4.14-3.74Z"/><path class="cls-8" d="M677,449.87l.87-.67c1,.87,2,1.76,3,2.64q-.95,11.55-1.9,23.1l-1.09,3c-4.49-1.73-8.83-3.5-13.24-5.09-3.3-1.19-6.52-3.7-10.22-1q2.22-4,4.46-7.92l0,0,2.06-2-.08.05,2-1.06,0,0,2.07-2-.09.06,2.06-1.08,0,.05,2-2,0,0,6-5-.07.05Z"/><path class="cls-8" d="M638.78,480.77l8-5.93,1.09-1,0,.2c4.47.72-.86,3.5,1.44,4.68l-1.07.69c5,5,10.13,10,15,15.07,1.1,1.14,1.61,2.82,2.39,4.26l-2.74,0,0,0-6.83-2.69-6.25-8.68c-8.42,2.67-6.69,9-7.53,14.92l-5-2.86c-.31-2.4-.61-4.8-1-7.66L631.87,490c.08-1.06.18-2.31.28-3.56l3.58-.89Z"/><path class="cls-3" d="M690.3,440.77c1.66,7.33.19,14.33-2.29,21.54l1,4.46-5.19,9.12-1.63-.23,2.43-25.78q-2-11.76-4-23.52l2,1.64c1.35,2.32,2.66,4.67,4.09,6.94.34.53,1.11.8,1.68,1.18l1-.17Z"/><path class="cls-4" d="M715.8,475.82l-.47-4.39-4.14,3.74-6.3-2.86,5-3.56,3.68,1.14.28-4,1.06-.06c4.46-1.34.47-4,.87-5.9l3.82.94,1.29.07-5.1,12.87,4.43-2c.2,1.37.41,2.73.61,4.1l-1.08,1Z"/><path class="cls-4" d="M683.86,475.89l5.19-9.12,9.57,2.24-.24,1.16h-4.22c-.11,1-.2,1.74-.28,2.52l-6.28,5.17Z"/><path class="cls-5" d="M684.66,449.88l-2.43,25.78-1.35.12q.51-11.91,1-23.83l.25-2Z"/><path class="cls-5" d="M719.73,476.88l1.08-1,0,0,1,1,0,0,1,1h0c.34.5.67,1,1,1.5a41.3,41.3,0,0,1,3,4.45c1.47,3,2.73,6.08,4.07,9.13h-5.17c-.86-2.66-1.6-5-2.35-7.3l-.19.08c0-.35,0-.71,0-1.07C722,482.07,720.86,479.47,719.73,476.88Z"/><path class="cls-7" d="M681.92,452q-.52,11.93-1,23.83l-1.89-.84q1-11.55,1.9-23.1Z"/><path class="cls-4" d="M658.9,463.89q-2.24,4-4.46,7.92l-1.17.26c.58-2,1.15-4.08,1.93-6.88l-4.2-.37c-.27-.91-.73-2.44-1.18-4Z"/><path class="cls-7" d="M674.26,499.84l-3.63,3.91-1.8-1.91Z"/><path class="cls-6" d="M687.8,496.8l0,2-2.58-.46-.11-.77Z"/><path class="cls-6" d="M723.11,484.66c0,.36,0,.72,0,1.07l-.74-.49Z"/><path class="cls-5" d="M707.79,414.82l-3.58,2.69V405.75l-3.05,4c-5-2.19-4.56-16.95.9-25,5.58,2.54,11.31,5,16.92,7.75,4.65,2.25,6.95,6.3,7.78,11.27-4.06-1.42-7.9-1.37-11.44.82l17.39,2.17,4,.7,2.06,1.45h0l1.11,5c-.07,1.65-.51,3.39-.15,4.94,1.75,7.35,3.72,14.65,5.61,22H744c-.67,2.42-1.33,4.85-2,7.27l-3.11.8,0,0-.1-1.9v-7.45l-12-3.21L731,429.9l-1.32-1.63-8,4.64c-.32-1.59-.73-3.64-1.36-6.76l-5.44,11.7a5.68,5.68,0,0,0-.93-.05h-2l0-.11-4-5-1-2.84q.46-7.5.92-15l2-3,1-1,1-2c.17-.12.34-.23-.16.12.34-.51.23-.34.11-.17-.34.66-.68,1.33-1,2l-1,1Z"/><path class="cls-5" d="M758.71,501.51,736,495.26l-4.26-9.36.09-.1,3.79,2.2.6,1.22.51-.36-.84-1.09-8-10,.92-.93c6.42,1.6,10.58,8.71,18.8,7.79-4.79-6.47-11-9.63-17.84-11.72l-5.9-4.19V463.9l1.83-1.12,3.11-1,8.13,3.88,3.8,1.31c4.24,4.35,7.16,4.64,9.24.09l-6-2.29-.24-3.92.78-2.15,2.18-1.21,4.09.29c3.83-.42,3.13-2.9,2.76-5.14l-4.6-2,2.85-7.87c.34-1.62.69-3.24,1-4.86.35-2.38.55-4.8,1.09-7.14a60.69,60.69,0,0,1,1.94-5.9l2.28.26c2.87,21.5,15.09,42,4,66.35C761.38,493.56,760,497.53,758.71,501.51Z"/><path class="cls-4" d="M752.78,437.85c-.34,1.62-.69,3.24-1,4.86l-6.92,3.14h0c2.91-4.64,3.33-9.32.82-14.37-1.07-2.15-1.19-4.76-2-7.1-1.16-3.54-2.51-7-3.78-10.54l-1.11-5,6,9.43c-.33-2.73-.61-5.1-.9-7.46l0,0c1.66,5.42,3.26,10.86,5,16.24C750,430.72,751.46,434.27,752.78,437.85Zm-7.15-17.2-.68,0c.1.46.2.91.31,1.37l.44-.1Z"/><path class="cls-4" d="M673.9,393.94l3.83-3.13,3.11,2,10-1.94-2,12h0c-.71-2-1.31-4-2.15-5.92-1.56-3.56-4.27-3.93-6.93-1l-3.5,4.05Q675.08,396.93,673.9,393.94Z"/><path class="cls-7" d="M690.8,390.87l-10,1.94-3.11-2-.93-5.12,8.26.62c1.91,3.45,4.91,1.12,7.86-.21-.06.92-.12,1.84-.22,3.24Z"/><path class="cls-4" d="M707.9,432.71l4,5-3.42,3.05-1.55,1.56-3.12-5.44-4.45-8.66.76-.59,5.67,6.3,0-.05,1.14,2.44.76-.41c-.34-.65-.69-1.29-1-1.93Z"/><path class="cls-7" d="M732.71,406.73l-17.39-2.17c3.54-2.19,7.38-2.24,11.44-.82Z"/><path class="cls-4" d="M693.84,417.83l1.8,4.06,1.2,3,0-.06c.29,3,.59,6.05.88,9.08l-1.88-1q-1-7.5-2-15Z"/><path class="cls-4" d="M768,485c.6.76,1.83,1.64,1.71,2.26-.64,3.42-1.62,6.79-2.48,10.17l-1.21-.28.63-5.4Z"/><path class="cls-7" d="M707.9,432.71,706.63,434l-.87-.1,0,.05-3-8,.76-.51,3.43,4.48Z"/><path class="cls-4" d="M696.8,421.86l.38-3.32c1.24,3.84,2.09,6.45,2.94,9.07l-.76.59-2.55-3.38,0,.06Z"/><path class="cls-4" d="M688.82,402.85q1,2,2.12,3.91l-.12.09-2.14-1,.15-3Z"/><path class="cls-7" d="M702.07,421.05v-2.24l.46,0c.06.75.11,1.49.17,2.24Z"/><path class="cls-4" d="M690.94,406.76c.32,1.35.63,2.7.95,4l-.06,0c-.34-1.33-.68-2.66-1-4Z"/><path class="cls-4" d="M692.52,400.14c.46.53.91,1.07,1.36,1.61l-.55.59L691.69,401Z"/><path class="cls-4" d="M692.92,413.76l.92,4.07h0c-.34-1.33-.68-2.66-1-4Z"/><path class="cls-5" d="M696.8,421.86l0,3-1.2-3Z"/><path class="cls-4" d="M691.89,410.8c.34,1,.68,2,1,3l-.09.09c-.33-1-.67-2-1-3Z"/><path class="cls-4" d="M742.8,408.88l1,2,0,0-1-2Z"/><path class="cls-4" d="M738.8,408.88l-2.06-1.45Z"/><path class="cls-4" d="M742.85,408.83l-.44-.21.39.26Z"/><path class="cls-8" d="M219.56,497.87a20.15,20.15,0,0,1-1,4.65c-.46,1-1.76,1.55-2.69,2.3-4.65-12.57-7.83-25.45-8-38.94,1.29.8,2.91,1.33,3.83,2.44,7.3,8.78,14.47,17.67,21.67,26.53-2.11-.27-4.24-.48-6.34-.82C223.55,493.48,220.7,494,219.56,497.87Z"/><path class="cls-1" d="M233.34,494.85c-7.2-8.86-14.37-17.75-21.67-26.53-.92-1.11-2.54-1.64-3.83-2.44v-3.59l3.31-4.77,6.58,6.41,1.08,0,0-.05,1,1.05,0,0,1,1-.1,0,5.91,5,.16-.06,1,1h0l1,1h0c.33.33.67.66,1,1h0l1.14,1.85,14,12.53-3.56,3.7-7.12-6-.83.86,5.22,8-3.84,1ZM220.66,473l.86,1.13,1.64,2.07L229.6,483a1.21,1.21,0,0,0,.7.61l1,1,1.11,1.17,2.28.11-1.56-1.35-1-1-1-1-1.26-1.26c-1.88-2-3.77-4-5.66-6l-1.93-1.85-1.06-.95-1.41-.56c-.12-.2-.24-.4-.11-.19-.17-.18,0,0,.14.16C220.11,472.23,220.39,472.62,220.66,473Z"/><path class="cls-8" d="M203.76,505.78l-4.58-.24-4-25.41,1.48-1.19c2.85,4.15,6,8.16,8.47,12.51,1.79,3.09,2.77,6.64,4.3,10.46l-4.86.34C204.29,503.56,204,504.67,203.76,505.78Z"/><path class="cls-7" d="M209.86,438.88c4.17,2.94,1.42,6.53.94,9.91l-3.46,1.13c-.27-1.27-.47-2.16-.66-3.06-.12-1.38-.23-2.75-.32-3.84Z"/><path class="cls-4" d="M190.84,442.67c2.87-.31,3.42.26,3.86,4-1.29,1.82-2.57,3.65-3.85,5.47q0-3.5,0-7Z"/><path class="cls-5" d="M196.7,478.94l-1.48,1.19-1.05-4,.88-.32Z"/><path class="cls-5" d="M264.19,432.2c3.13,2.76,4.45,9.62,2.63,13.67l-2.25-11c-.11-.46-.22-.91-.32-1.37Z"/><path class="cls-7" d="M248.75,438.83c-1.75-2.1-1.55-4.08.68-6.76Z"/><path class="cls-4" d="M257.28,438.36l1.88-.25.23.9-1.95.57Z"/><path class="cls-4" d="M245.68,449.88v0Z"/><path class="cls-4" d="M258,432.16l.53.65-.92.71c-.12-.26-.37-.55-.33-.78S257.65,432.4,258,432.16Z"/><path class="cls-4" d="M264.25,433.5c.1.46.21.91.32,1.37C264.46,434.41,264.35,434,264.25,433.5Z"/><path class="cls-8" d="M261,478.05c.32,1.92.63,3.84.95,5.75,0,3.75.31,7.52,0,11.23-.21,2.3-1.36,4.52-2.09,6.77l-3.47,1.48-4.51,1.44-3.72-4.09.6-11.84q1.33-4.95,2.68-9.91l0,.17,6.47-.76,3.12-.13Z"/><path class="cls-5" d="M251.42,479.05l0-.17-4.43-.2-1.85-.87c.21-.56.43-1.62.62-1.62,3.7.15,7.39.42,11.09.66Z"/><path class="cls-7" d="M251.42,479.05l5.4-2.2,1.07,1.44Z"/><path class="cls-5" d="M258,473.09v-5.21l.7,0,.26,5.05Z"/><path class="cls-2" d="M261,478.05l0,.11c.6-.77,1.21-1.54,1.81-2.32l0,1.49Z"/><path class="cls-7" d="M245.11,477.81l1.85.87-1.77.25-1.62.35.3-1.45Z"/><path class="cls-4" d="M266.88,500.83c-.35-.7-.7-1.4-1-2.1C266.18,499.43,266.53,500.13,266.88,500.83Z"/><path class="cls-7" d="M731.77,485.9l4.26,9.36-4.49,1.13c-.29-1.4-.51-2.42-.73-3.44-1.34-3.05-2.6-6.15-4.07-9.13a41.3,41.3,0,0,0-3-4.45l.06-1.54,4,0,8,10-.27.23-3.79-2.2-1-1-2-3c-.15-.15-.31-.29-.47-.43l.47.43c.66,1,1.32,2,2,3Z"/><path class="cls-2" d="M760.06,505.55c-1.53,3.45-3.84,2.74-6.32,1.2Z"/><path class="cls-5" d="M344.89,504.72v2.86c-10.16.83-10.27.81-13-3.37,4.58-3,8.79,1.11,13.05.57Z"/><path class="cls-8" d="M192.72,426.93l2.81,12.56-1.53.86-4.94-3.82c.23-3.64.46-7.17.73-11.2l3,1.63Z"/><path class="cls-7" d="M192.87,424.82l3.7-.1,4,1.93c-.18,1.49-.36,3-.57,4.76l4.73-.56,1.07,1-7.46,2c-2.35-2.91-4-4.94-5.65-7l0,0Z"/><path class="cls-2" d="M205.83,431.88l-1.07-1q.63-5.46,1.28-10.91l.14.06c.88,2.75,2.13,5.46,2.47,8.27C208.78,429.35,206.83,430.67,205.83,431.88Z"/><path class="cls-5" d="M190.84,442.67v2.49l-2.58-1.46Z"/><path class="cls-8" d="M184.83,444.83c.39.15.78.29.12,0,.13.62.05.23,0-.17Z"/><path class="cls-8" d="M182.3,443.57l-1.68-1.51.88-.82c.47.51.95,1,1.42,1.51Z"/><path class="cls-9" d="M184.63,431.1c0,.11,0,.26,0,.32a1.17,1.17,0,0,1-.34.15l0-.65Z"/><path class="cls-8" d="M183.33,444.29l-1-.72.62-.82.94,1.06Z"/><path class="cls-8" d="M183.86,443.81l1,1,.08-.13-.64.44-.94-.85Z"/><path class="cls-5" d="M811.69,500.82c0,1-.07,1.93-.1,2.9l-4.42-.39v-8l2.65-.52C810.44,496.84,811.07,498.83,811.69,500.82Z"/><path class="cls-8" d="M769.4,507.49h-6.73c3.57-3.64,7-4.09,9.08-1.66Z"/><path class="cls-2" d="M155.85,464.88Q151.91,473,148,481c-.3-1.83-.61-3.66-.91-5.5l.84-.73-.09.09c3.26-3.45,3.55-7.69,3.17-12.1-.05-1.32-.1-2.63-.14-3.95-.19-2-.37-4-.55-6l2.92.3C154.1,457.16,155,461,155.85,464.88Z"/><path class="cls-1" d="M146.66,428l-1.8,12.92-1.19-.14q.66-6.39,1.31-12.79Z"/><path class="cls-1" d="M145.93,453.78c-.39,1.07-.78,2.14-1.18,3.2q-1.33-5.48-2.69-11l1.09-.24Z"/><path class="cls-1" d="M150.27,452.86c.18,2,.36,4,.55,6-1.15-1.7-2.29-3.41-3.43-5.11Z"/><path class="cls-4" d="M146.66,428H145c.26-.7.52-1.41.77-2.11.34,0,.66,0,1-.08l.18.17Z"/><path class="cls-1" d="M146.74,425.77c-.33,0-.65.07-1,.08.08-.94.15-1.88.22-2.83C146.23,423.94,146.49,424.85,146.74,425.77Z"/><path class="cls-4" d="M638.78,480.77l-3,4.75-3.58.89-.42-6.43Z"/><path class="cls-4" d="M636.91,505.73l3.14.33,0,.49-3,.58C637,506.66,637,506.19,636.91,505.73Z"/><path class="cls-5" d="M621.66,491.8l2,1.47-1.07.68-.84-2.17Z"/><path class="cls-5" d="M692.86,495.91l1.69,1.06-1.66,1.78v-2.87Z"/><path class="cls-7" d="M150.8,424.63H149l.8-5.84C152.63,420.8,152.63,420.8,150.8,424.63Z"/><path class="cls-2" d="M150.69,404.6l-3.23,1.08-.54-1.61,3.25-1Z"/><path class="cls-2" d="M671.85,505.91h7.26c0,.51,0,1,.08,1.53l-7.42.65Z"/><path class="cls-4" d="M663,498.76l-1.67,5.58c-1.56-2.55-1.58-4.6,1.72-5.54Z"/><path class="cls-7" d="M655.28,499.45l-1.2.33c-.05-.21-.11-.42-.16-.63l1.21-.28Z"/><path class="cls-4" d="M681.92,452l-1-.11-3-2.65-.59-2.11c-2.27,1.09-4.28,2.43-6.49,3-1.19.29-2.72-.78-4.09-1.24l6.22-7.05c-.17-.72-.55-2.26-.92-3.8l5.31,1c-.23-2.38-.4-4.22-.58-6.06l.18-.15,2.91-.92Q681,440.9,682.17,450Z"/><path class="cls-4" d="M674.93,450.92l-6,5C669,452,672.42,452,674.93,450.92Z"/><path class="cls-4" d="M668.91,455.9l-2,2Z"/><path class="cls-4" d="M664.93,458.9l-2.07,2Z"/><path class="cls-4" d="M660.92,461.9l-2.06,2Z"/><path class="cls-4" d="M677,449.87l-2.14,1.1Z"/><path class="cls-4" d="M662.89,460.89l-2,1.06Z"/><path class="cls-4" d="M666.9,457.88,664.84,459Z"/><path class="cls-2" d="M138,494l.85-2.11h3.06c.18,2,.37,3.93.55,5.89l-4.56-.91Z"/><path class="cls-5" d="M152.73,504l.54,1-2.88,2.21c-.31-1.66-.49-2.66-.67-3.65Z"/><path class="cls-2" d="M682.17,450q-1.17-9-2.35-18.11c-.36-2.64-.73-5.29-1.09-7.93l1.32.22.6,2.23q2,11.76,4,23.52Z"/><path class="cls-1" d="M676.25,399.93l3.5-4.05,5.78,7.38H681v3.44l-.23,3.86-1,4.22-1.89,1-1.31.07.72-7.57c1.22-2.22,3.71-4.72-1.24-5.56-.06-.64-.13-1.28-.2-1.92C675.94,400.52,676.09,400.22,676.25,399.93Z"/><path class="cls-2" d="M670.74,420.8l5,4.34c-4.61.1-4.61.1-5-4.39Z"/><path class="cls-4" d="M677.83,415.8l1.89-1,.33,9.35-1.32-.22Z"/><path class="cls-4" d="M676.73,432.91l-.83-2.18.73-.14c.09.72.19,1.45.28,2.17Z"/><path class="cls-4" d="M206,419.94q-.64,5.44-1.28,10.91l-4.73.56c.21-1.73.39-3.27.57-4.76l-4-1.93c1-2.08,2.07-4.15,3.1-6.23l5.05.33Z"/><path class="cls-4" d="M196.62,410.61v5.51l-1.39-.08.39-5.49Z"/><path class="cls-9" d="M127.08,499.09l1.77-.27-1.28,2.11Z"/><path class="cls-8" d="M151,462.8c.38,4.41.09,8.65-3.17,12.1q.51-5,1-10.06c.25-.85.5-1.71.91-3.09Z"/><path class="cls-8" d="M147.88,474.81l-.84.73Z"/><path class="cls-2" d="M147,482.87q-.15.44-.27.87l-.4-.56Z"/><path class="cls-1" d="M647.91,473.88l-1.09,1-.32-.85Z"/><path class="cls-7" d="M180.85,413.82l-4-1c3.12-1.6,3.12-1.6,4,1.09Z"/><path class="cls-7" d="M180.8,413.87l2.68.81-3.1,1.22h0c.17-.69.33-1.39.5-2.08Z"/><path class="cls-4" d="M263.73,504.76c-1,3.86-4.05,1.34-6.11,1.91l1.22-1.81.9-2.14Z"/><path class="cls-2" d="M259.74,502.72l-.9,2.14-2-1-.51-.6,3.47-1.48C259.79,502.11,259.77,502.42,259.74,502.72Z"/><path class="cls-5" d="M674.07,385.58c-1.16,3.55-1.78,3.82-5.18,2.22Z"/><path class="cls-2" d="M669.93,380.21l3.78,1.79C671.41,383.59,670.38,382.51,669.93,380.21Z"/><path class="cls-8" d="M243.57,479.28l1.62-.35.66,4.91-2.16,15.66-4.94,5.15-5-1.8,2.56-3-1.51-4,3.84-1-5.22-8,.83-.86,7.12,6,3.56-3.7-14-12.53.88-.84h1l0,0,1,1h0l3,2,0,0,1,1h0l2,1,0,0,2.05,1-.06,0,.65,1.52c.3-.9.43-1.3.56-1.7Z"/><path class="cls-5" d="M234.8,495.82l1.51,4-2.56,3-2.86,1.07-5.7-.72-.53,2.3H220.9c-.49-2.8-.92-5.21-1.34-7.63,1.14-3.88,4-4.39,7.44-3.84,2.1.34,4.23.55,6.34.82Z"/><path class="cls-4" d="M238.75,504.65l4.94-5.15,3.11,1.33c-.12,1.73-.24,3.46-.42,6h-7.61C238.77,506.08,238.76,505.37,238.75,504.65Z"/><path class="cls-2" d="M224.66,505.5l.53-2.3,5.7.72Z"/><path class="cls-7" d="M226.6,471c3.34-2.17,3.92,1.2,5.43,2.69l-.34.33-1.93-.06h0c-.33-.34-.67-.67-1-1h0c-.33-.34-.67-.67-1-1h0l-1-1Z"/><path class="cls-7" d="M224.81,465.84l1.37,3.47L222.67,466l.33-.42,1.83.24Z"/><path class="cls-7" d="M236.79,477.93l-3-2Z"/><path class="cls-7" d="M239.79,479.94l-2-1Z"/><path class="cls-7" d="M241.81,480.94l-2.05-1Z"/><path class="cls-7" d="M233.78,475.92l-1-1Z"/><path class="cls-7" d="M237.78,478.92l-1-1Z"/><path class="cls-7" d="M243,480.73c-.13.4-.26.8-.56,1.7l-.65-1.52Z"/><path class="cls-7" d="M232.78,474.93h-1a3.83,3.83,0,0,0-.09-.95l.34-.33Z"/><path class="cls-5" d="M224.83,465.86l-1.83-.24-1.87-2.27,1.65-.44,2.07.91Z"/><path class="cls-5" d="M218.81,463.91l-1.08,0,.55-.64Z"/><path class="cls-5" d="M219.8,464.91l-1-1.05Z"/><path class="cls-5" d="M220.79,465.9l-1-1Z"/><path class="cls-2" d="M676.25,399.93c-.16.29-.31.59-.45.89l-2.16-2.24,0-3.85c.07-.27.15-.53.24-.79Q675.09,396.93,676.25,399.93Z"/><path class="cls-4" d="M673.66,394.73l0,3.85c-.26-1.26-.52-2.52-.77-3.78Z"/><path class="cls-7" d="M246.8,500.83l-3.11-1.33,2.16-15.66,2.86,5-.6,11.84Z"/><path class="cls-2" d="M251.83,504.72l4.51-1.44.51.6L253,506.59l-.19.35Z"/><path class="cls-5" d="M253,506.59l3.88-2.71,2,1-1.22,1.81-.84.14Z"/><path class="cls-5" d="M696.81,424.82l2.55,3.38,4.45,8.66a19,19,0,0,0,5.88,14.66l6.09,8.37h0c-.4,1.95,3.59,4.56-.87,5.9l-2.72-5-1.41,1,3.07,4.06-.28,4-3.68-1.14v.08l-1-1,0,0-5-2.43q-1.5-8.77-3-17.55-1.42-5.89-2.84-11.79c-.12-.72-.25-1.43-.37-2.15C697.4,430.87,697.1,427.85,696.81,424.82Zm11.78,32.23,1.1,2.61,1-.55-1.7-2.38-2.11-4.5-1.39.85Zm-3.31-6.85h.13v-.65h-.18Z"/><path class="cls-4" d="M698.06,436.05q1.43,5.9,2.84,11.79c-3-1.81-4.27.12-4.91,2.6a26.21,26.21,0,0,0-.38,4.8l-1.62.08a65.72,65.72,0,0,1,.52-6.89c.68-3.79-.4-6.42-4.21-7.66l-.84-4.82Z"/><path class="cls-4" d="M703.89,465.39l5,2.43h-5.44C703.63,466.81,703.76,466.1,703.89,465.39Z"/><path class="cls-4" d="M708.84,467.79l1,1Z"/><path class="cls-4" d="M680.77,410.56l.23-3.86,3.82,3.15a23.16,23.16,0,0,1,1.88,4.48c.8,4.2,1.32,8.45,1.95,12.68-.1.1-.29.26-.28.27.15.2.32.38.49.57l0,0,1.31,4.48-1.73,3.83c-.57-.38-1.34-.65-1.68-1.18-1.43-2.27-2.74-4.62-4.09-6.94l4.55-.71c-.86-2.27-1.46-3.87-2.1-5.57l-4.38,1.43,4-5.71v-4.72Z"/><path class="cls-7" d="M680.77,410.56l3.91,2.16v4.72l-4,5.71,4.38-1.43c.64,1.7,1.24,3.3,2.1,5.57l-4.55.71-2-1.64-.6-2.23-.33-9.35Z"/><path class="cls-1" d="M688.42,436.12l1.73-3.83-1.31-4.48,7,5,1.88,1c.12.72.25,1.43.37,2.15l-8.6-.1Z"/><path class="cls-7" d="M709.69,451.52a19,19,0,0,1-5.88-14.66l3.12,5.44,1.55-1.56,3.42-3.05,0,.11h2a5.68,5.68,0,0,1,.93.05l4,4.55-5.21,3.47,1.87,6.58.84-.26v-6.3c3.84.78,4.21,3.35,4.46,6l-1.86,2.7c.29.67.53,1.24.78,1.81l-.17,4.41-3.82-.94h0C714.86,456.3,713.85,452.76,709.69,451.52Z"/><path class="cls-7" d="M720.2,471.79l-4.43,2,5.1-12.87,3.93,2-.94,1v0c-1.76,1.7-4.47,3-2.94,6.22Z"/><path class="cls-2" d="M720.2,471.79l.73-1.69,7.85,5.85,0,.91-.92.93-4,0-1.06,0h0l-1-1,0,0-1-1,0,0C720.61,474.52,720.4,473.16,720.2,471.79Z"/><path class="cls-1" d="M724.8,462.85l-3.93-2-1.29-.07.17-4.41,9.09,4.42a5.67,5.67,0,0,0,0,.92l-3.11,1A5.34,5.34,0,0,0,724.8,462.85Z"/><path class="cls-7" d="M713.83,465.85l-3.07-4.06,1.41-1,2.72,5Z"/><path class="cls-4" d="M720.79,475.86l1,1Z"/><path class="cls-4" d="M721.79,476.85l1,1Z"/><path class="cls-4" d="M722.79,477.87l1.06,0-.06,1.54C723.46,478.87,723.13,478.37,722.79,477.87Z"/><path class="cls-2" d="M718.87,442.4l-4-4.55,5.44-11.7c.63,3.12,1,5.17,1.36,6.76l8-4.64L731,429.9l-4.21,6.38,12,3.21v7.45l-2.46-.8-.48,1.07,3,1.63,0,0L737,452.15l-6.5-1.63c.23-1,.39-1.71.58-2.53l-5.84-.3-3.41-9.2-.86.19c-.08,1.27-.15,2.54-.23,3.81Zm6.59-2.1v.13h.7v-.2Z"/><path class="cls-4" d="M737,452.15l1.82-3.34L742,448l2.87-2.17h0c-.3,1.24-.59,2.47-.93,3.86l3.87,3.19c-.37,1.53-.75,3.05-1.12,4.57l-2.18,1.21-.78,2.15.24,3.92-3.2,2.2-3.8-1.31-5.1-4.77.88-4.95Z"/><path class="cls-2" d="M744.82,445.84,742,448c.67-2.42,1.33-4.85,2-7.27h1.41c-1.89-7.32-3.86-14.62-5.61-22-.36-1.55.08-3.29.15-4.94,1.27,3.51,2.62,7,3.78,10.54.77,2.34.89,4.95,2,7.1C748.15,436.52,747.73,441.2,744.82,445.84Z"/><path class="cls-4" d="M738.86,448.84l-3-1.63.48-1.07,2.46.8Z"/><path class="cls-2" d="M709.87,411.89l-2,3-.07-.06,2-3Z"/><path class="cls-2" d="M711.85,408.87l-1,2-.09-.09c.35-.66.69-1.33,1-2Z"/><path class="cls-4" d="M713.89,437.8h0Z"/><path class="cls-2" d="M710.86,410.9l-1,1-.08-.08,1-1Z"/><path class="cls-2" d="M711.8,408.82c.12-.17.23-.34-.11.17.5-.35.33-.24.16-.12Z"/><path class="cls-7" d="M728.81,476.86l0-.91,1-3c6.88,2.09,13.05,5.25,17.84,11.72C739.39,485.57,735.23,478.46,728.81,476.86Z"/><path class="cls-2" d="M747.77,452.9l-3.87-3.19c.34-1.39.63-2.62.93-3.86l6.92-3.14-2.85,7.87,4.6,2c.37,2.24,1.07,4.72-2.76,5.14C750.81,455.49,751.12,453.08,747.77,452.9Z"/><path class="cls-4" d="M729.77,472.93l-1,3-7.85-5.85c-1.53-3.26,1.18-4.52,2.94-6.22v4.86Z"/><path class="cls-7" d="M740.73,467l3.2-2.2,6,2.29C747.89,471.59,745,471.3,740.73,467Z"/><path class="cls-7" d="M731.83,460.87l5.1,4.77-8.13-3.88a5.67,5.67,0,0,1,0-.92Z"/><path class="cls-7" d="M747.77,452.9c3.35.18,3,2.59,3,4.86l-4.09-.29C747,456,747.4,454.43,747.77,452.9Z"/><path class="cls-7" d="M743.69,460.83l.78-2.15Z"/><path class="cls-4" d="M724.8,462.85a5.34,5.34,0,0,1,.89-.07l-1.83,1.12Z"/><path class="cls-7" d="M735.92,487.77l.84,1.09-.51.36-.6-1.22Z"/><path class="cls-2" d="M745.63,420.65l.07,1.24-.44.1c-.11-.46-.21-.91-.31-1.37Z"/><path class="cls-2" d="M684.82,409.85,681,406.7v-3.44h4.53l-5.78-7.38c2.66-2.89,5.37-2.52,6.93,1,.84,1.92,1.44,3.94,2.15,5.92l-.15,3C687.39,407.16,686.1,408.5,684.82,409.85Z"/><path class="cls-2" d="M705.76,433.86l.87.1c.34.64.69,1.28,1,1.93l-.76.41Z"/><path class="cls-7" d="M684.82,409.85c1.28-1.35,2.57-2.69,3.86-4l2.14,1c.33,1.33.67,2.66,1,4,.33,1,.67,2,1,3,.33,1.33.67,2.66,1,4q1,7.5,2,15l-7-5,0,0a4,4,0,0,0-.21-.84c-.63-4.23-1.15-8.48-1.95-12.68A23.16,23.16,0,0,0,684.82,409.85Z"/><path class="cls-5" d="M224.2,475.23c1.89,2,3.78,4,5.66,6-.08.57-.17,1.15-.26,1.73l-6.44-6.79Z"/><path class="cls-2" d="M223.16,476.22l-1.64-2.07.75-.77,1.93,1.85Z"/><path class="cls-5" d="M231.69,474a3.83,3.83,0,0,1,.09.95l-.88.84-1.14-1.85Z"/><path class="cls-8" d="M229.6,483c.09-.58.18-1.16.26-1.73l1.26,1.26-.82,1.08A1.21,1.21,0,0,1,229.6,483Z"/><path class="cls-8" d="M231.12,482.54l1,1-.84,1.08-1-1Z"/><path class="cls-8" d="M232.12,483.55l1,1-.72,1.24-1.11-1.17Z"/><path class="cls-8" d="M233.11,484.56l1.56,1.35-2.28-.11Z"/><path class="cls-2" d="M219.83,471.84c-.15-.17-.31-.34-.14-.16-.13-.21,0,0,.11.19Z"/><path class="cls-5" d="M226.76,470.9l1,1Z"/><path class="cls-2" d="M220.66,473c-.27-.4-.55-.79-.83-1.18l0,0,1.41.56Z"/><path class="cls-5" d="M227.76,471.91c.33.33.67.66,1,1Z"/><path class="cls-2" d="M221.21,472.43l1.06.95-.75.77-.86-1.13Z"/><path class="cls-5" d="M228.76,472.91c.33.33.67.66,1,1C229.43,473.57,229.09,473.24,228.76,472.91Z"/><path class="cls-4" d="M248.71,488.79l-2.86-5-.66-4.91,1.77-.25,4.43.2Q250.06,483.85,248.71,488.79Z"/><path class="cls-5" d="M728.82,481.85l2,3-.07.06C730.14,483.87,729.48,482.86,728.82,481.85Z"/><path class="cls-5" d="M730.86,484.82l1,1-.09.1-1-1Z"/><path class="cls-5" d="M728.82,481.85l-.47-.43C728.51,481.56,728.67,481.7,728.82,481.85Z"/><path class="cls-4" d="M709.69,451.52c4.16,1.24,5.17,4.78,6.09,8.37Z"/><path class="cls-7" d="M708.59,457.05l-3.12-4,1.39-.85,2.11,4.5Z"/><path class="cls-7" d="M709,456.73l1.7,2.38-1,.55-1.1-2.61Z"/><path class="cls-7" d="M705.28,450.2l0-.64h.18v.65Z"/><path class="cls-1" d="M688.65,427a4,4,0,0,1,.21.84c-.17-.19-.34-.37-.49-.57C688.36,427.27,688.55,427.11,688.65,427Z"/><path class="cls-5" d="M731.83,460.87l-3,0-9.09-4.42c-.25-.57-.49-1.14-.78-1.81l1.86-2.7h4l7.84,4C732.42,457.57,732.12,459.22,731.83,460.87Z"/><path class="cls-4" d="M724.87,451.9h-4c-.25-2.67-.62-5.24-4.46-6v6.3l-.84.26-1.87-6.58,5.21-3.47,1.89.09Z"/><path class="cls-7" d="M724.87,451.9l-4.11-9.41c.08-1.27.15-2.54.23-3.81l.86-.19,3.41,9.2,5.84.3c-.19.82-.35,1.54-.58,2.53l6.5,1.63-4.31,3.77Z"/><path class="cls-7" d="M725.46,440.3l.69-.07v.2h-.7Z"/></g><g id="Layer_2" data-name="Layer 2"><path d="M230.36,108.34c26.61,51.36,52.95,102.19,80,154.3l91.34-51.78c4.81,13.86,9.47,26.59,13.37,39.46.46,1.55-2.76,4.22-5,5.72-23.1,15.39-46.23,30.76-69.66,45.84-5.63,3.63-6.73,6.75-3.78,12.07,8.58,15.45,16.5,31.13,24.26,46.84,1.19,2.41,1.68,7-.05,8-14.31,8.6-29.22,16.6-44.64,25.16-18-27.37-35.21-53.66-52.56-79.89-33-49.84-66.07-99.63-98.84-149.55-1.45-2.22-1.66-6.72.18-8.16C184.52,141,204.62,126,224.62,111,225.7,110.17,227.26,109.75,230.36,108.34Z"/><path d="M464.52,331.31l-39.43-23.77c8.85-8.31,17.07-16.15,25.45-23.88,37.52-34.56,75.22-69,112.49-103.72,5.15-4.81,8.4-4.42,13.83-.71,10,6.86,20.62,13.24,31.75,20.32Z"/><path d="M270.33,123.06l58-10.33c9.91,33.76,19.7,67.14,29.65,101-12.43,3.7-24.48,7.5-36.82,10.67-1.65.43-6-2-6.86-3.72-8.14-17.17-15.82-34.47-23.57-51.75C284.13,154.23,277.63,139.48,270.33,123.06Z"/><path d="M686.8,189.75c-22.44,20.92-44.28,41.32-66.18,61.68-15.58,14.49-31.44,28.8-46.72,43.47-4,3.81-6.86,4.07-11.85,1.46-7.64-4-15.74-7.49-24.48-11.58,16.68-15.84,32.77-31.13,48.9-46.4,19.87-18.82,39.94-37.51,59.53-56.5,5.53-5.37,10.18-7.06,18-2.5C670.83,183.33,678.74,186.15,686.8,189.75Z"/><path d="M620.94,311.75c-28.16-10.72-28.29-10.8-11-28.61q41.54-42.9,83.36-85.63c1.15-1.17,2.23-2.39,3.87-4.14,9.45,6.63,18.28,12.33,26.1,18.76,1.44,1.18-.1,6-2.17,8-12.87,12.33-26.27,24.34-39.53,36.43C661.44,274.89,641.32,293.19,620.94,311.75Z"/><path d="M521.85,167.9c-4.1,11.14-7.66,21.09-11.54,31-.43,1.1-2.57,2.38-4.11,2.56-26,3-52,5.83-79.14,8.83V156.84Z"/><path d="M353.72,121.28c16.69,0,31.7-.17,46.68.22,1.8,0,5,3.19,5,4.91.08,23.1-.28,46.2-.54,69.29a2.48,2.48,0,0,1-.22,1.47c-6.75,9.15-18.76,2.63-27.83,5.27-1.34.4-6.38-3.09-6.87-5.18-4.25-18-7.85-36.17-11.64-54.27C356.79,135.93,355.31,128.88,353.72,121.28Z"/><path d="M522.75,298.74c8.77,4.06,17,7.84,25.15,11.66,4,1.89,5.23,4.21,1.65,7.19q-10.35,8.6-20.67,17.22l-29.74-13.33c4.45-4.45,8.05-8.15,11.79-11.76S518.29,302.87,522.75,298.74Z"/><path d="M561.19,333.63c5.76-6.11,10.88-12.1,16.87-17.51,1.57-1.41,6.46-2,8.79-1.23,5.19,1.79,9.61,4.85,14.55,7.12s4.06,4.44.65,7a55.74,55.74,0,0,0-4.49,3.85C582.3,347,581.19,347.05,561.19,333.63Z"/></g></svg>