<svg xmlns="http://www.w3.org/2000/svg" viewBox="0 0 32.55 32.57"><defs><style>.cls-1{fill:#1e5782;}</style></defs><g id="Layer_2" data-name="Layer 2"><g id="_1" data-name="1"><path class="cls-1" d="M27.06,23.22l1.66,3.42-3.55,3.18-3.21-2a17.54,17.54,0,0,1-3,1l-1.28,3.74L13,32.31a4.75,4.75,0,0,1-.24-.92,5.46,5.46,0,0,0-.22-1c-.08-.3-.09-.63-.16-.93s-.18-.7-.27-1a15.62,15.62,0,0,1-2.79-1.36L5.89,28.78l-3.2-3.57,2-3.14L3.67,19,.09,17.8A4,4,0,0,1,0,17.1c.05-1.24.13-2.49.2-3.73l0-.3,3.86-.87A15.44,15.44,0,0,1,5.47,9.41L3.75,5.89,7.27,2.73,10.56,4.8a14.68,14.68,0,0,1,2.95-1L14.8,0c1.43.08,2.8.15,4.17.24a2,2,0,0,1,.56.18l.82,3.71a13.75,13.75,0,0,1,2.83,1.39l3.4-1.71,3.2,3.57-2,3.24a18.42,18.42,0,0,1,1.07,3l3.74,1.27-.26,4.59c-.22.39-.67.22-1,.31-.65.18-1.31.33-2,.46-.31.06-.61.14-.91.21A14.11,14.11,0,0,1,27.06,23.22ZM10,15.89a7.37,7.37,0,0,0,.77,3.36,5.76,5.76,0,0,0,1.92,2.15,7,7,0,0,0,3.14,1.11A6.53,6.53,0,0,0,20.29,21a6.46,6.46,0,0,0,2.18-4.38,5.75,5.75,0,0,0-.21-2.06,7,7,0,0,0-1-2,4.85,4.85,0,0,0-.93-1,7,7,0,0,0-2.23-1.16,5.07,5.07,0,0,0-1.45-.31,6.52,6.52,0,0,0-4.55,1.58A6.65,6.65,0,0,0,10,15.89Z"/></g></g></svg>