<svg id="Layer_11" data-name="Layer 11" xmlns="http://www.w3.org/2000/svg" viewBox="0 0 1920 1080"><defs><style>.cls-1{fill:#1e5782;}</style></defs><path class="cls-1" d="M1484.75,684.31l1.66,3.42-3.55,3.18-3.21-2a17.54,17.54,0,0,1-3,1l-1.28,3.74-4.68-.26a4.12,4.12,0,0,1-.25-.92,5.46,5.46,0,0,0-.22-1c-.08-.3-.09-.63-.16-.94s-.18-.69-.27-1a16.33,16.33,0,0,1-2.79-1.36l-3.46,1.69-3.2-3.57,2-3.14-1.06-3-3.57-1.22a3.26,3.26,0,0,1-.1-.7c0-1.24.13-2.49.2-3.73l0-.3,3.86-.87a15.13,15.13,0,0,1,1.39-2.79l-1.71-3.53,3.51-3.15,3.29,2.07a14.92,14.92,0,0,1,3-1l1.29-3.76c1.43.08,2.8.14,4.17.23a2.44,2.44,0,0,1,.56.19l.82,3.71a13.75,13.75,0,0,1,2.83,1.39l3.4-1.71,3.2,3.57-2,3.24a17.19,17.19,0,0,1,1.07,2.95l3.74,1.27-.26,4.59c-.22.39-.67.22-1,.31-.65.18-1.31.33-2,.46l-.91.21A14.11,14.11,0,0,1,1484.75,684.31Zm-17-7.33a7.33,7.33,0,0,0,.77,3.35,5.79,5.79,0,0,0,1.92,2.16,6.87,6.87,0,0,0,3.14,1.1,6.21,6.21,0,0,0,6.62-5.84,5.75,5.75,0,0,0-.21-2.06,6.73,6.73,0,0,0-1-2,4.62,4.62,0,0,0-.93-1,7,7,0,0,0-2.23-1.17,5.42,5.42,0,0,0-1.45-.3,6.52,6.52,0,0,0-4.55,1.58A6.7,6.7,0,0,0,1467.71,677Z"/></svg>