<svg xmlns="http://www.w3.org/2000/svg" viewBox="0 0 66.71 66.92"><defs><style>.cls-1{fill:#1e5782;}</style></defs><g id="Layer_2" data-name="Layer 2"><g id="_2" data-name="2"><path class="cls-1" d="M51.57,52.69l1.67,7.69L44.55,65l-5.47-5.64a35.82,35.82,0,0,1-6.46.64l-4.39,6.89-9.3-2.81a9.05,9.05,0,0,1,0-2,10.55,10.55,0,0,0,0-2.1c0-.66.13-1.31.14-2s0-1.49,0-2.19a32.84,32.84,0,0,1-4.94-4.08L6.28,53.53,1.6,44.78l5.64-5.33-.65-6.64L0,28.61a7.7,7.7,0,0,1,.16-1.46c.71-2.47,1.47-4.94,2.22-7.4l.18-.6,8.2.14a32.25,32.25,0,0,1,4.15-4.94L13.19,6.43l8.62-4.61L27.4,7.58a31.61,31.61,0,0,1,6.44-.64L38.28,0c2.84.86,5.56,1.66,8.26,2.51a4.59,4.59,0,0,1,1.05.65L47.41,11a27.54,27.54,0,0,1,5,4.17l7.69-1.77,4.69,8.75-5.69,5.51a35.6,35.6,0,0,1,.7,6.46l6.9,4.37L64,47.62c-.65.69-1.47.13-2.18.15-1.39,0-2.8,0-4.2-.06-.64,0-1.29,0-1.93,0A29.94,29.94,0,0,1,51.57,52.69ZM20.9,29.62a14.8,14.8,0,0,0-.09,7.12A11.91,11.91,0,0,0,23.61,42a14.28,14.28,0,0,0,5.77,3.75,12.88,12.88,0,0,0,16.17-8.51A11.55,11.55,0,0,0,46.13,33a14.15,14.15,0,0,0-1-4.53,9.4,9.4,0,0,0-1.38-2.55,13.78,13.78,0,0,0-3.9-3.43,10.72,10.72,0,0,0-2.77-1.33,13.49,13.49,0,0,0-9.92,1A13.77,13.77,0,0,0,20.9,29.62Z"/></g></g></svg>