<svg id="_2" data-name="2" xmlns="http://www.w3.org/2000/svg" viewBox="0 0 1920 1080"><defs><style>.cls-1{fill:#1e5782;}</style></defs><path class="cls-1" d="M1351.83,765.58l1.67,7.68-8.69,4.66-5.47-5.64a37.92,37.92,0,0,1-6.46.64l-4.39,6.89-9.31-2.81a9.08,9.08,0,0,1,0-2,10.65,10.65,0,0,0,0-2.11c0-.65.13-1.3.14-2s0-1.49,0-2.18a33.45,33.45,0,0,1-4.94-4.08l-7.79,1.7-4.68-8.74,5.63-5.33-.64-6.64-6.59-4.2a6.87,6.87,0,0,1,.15-1.46c.72-2.48,1.48-4.94,2.22-7.41l.19-.6,8.2.15a31.78,31.78,0,0,1,4.15-4.94l-1.72-7.92,8.61-4.62,5.6,5.77a30.26,30.26,0,0,1,6.44-.64l4.43-6.94c2.84.85,5.56,1.66,8.27,2.51a4.5,4.5,0,0,1,1,.64l-.17,7.87a27.6,27.6,0,0,1,5,4.18l7.69-1.78,4.68,8.75-5.68,5.51a36.72,36.72,0,0,1,.7,6.46l6.9,4.37-2.76,9.11c-.64.68-1.46.12-2.17.14-1.39,0-2.8,0-4.2,0-.65,0-1.29,0-1.93,0A30,30,0,0,1,1351.83,765.58Zm-30.68-23.08a15,15,0,0,0-.08,7.13,11.82,11.82,0,0,0,2.8,5.28,14.28,14.28,0,0,0,5.77,3.75,12.88,12.88,0,0,0,16.17-8.51,11.6,11.6,0,0,0,.58-4.25,14,14,0,0,0-1-4.53,9,9,0,0,0-1.37-2.54,14.25,14.25,0,0,0-3.9-3.44,11.42,11.42,0,0,0-2.77-1.33,13.44,13.44,0,0,0-9.92,1A13.73,13.73,0,0,0,1321.15,742.5Z"/></svg>