<svg xmlns="http://www.w3.org/2000/svg" viewBox="0 0 77.02 76.97"><defs><style>.cls-1{fill:#1e5782;}</style></defs><g id="Layer_2" data-name="Layer 2"><g id="_3" data-name="3"><path class="cls-1" d="M65.07,53.56l4.4,7.89-8,8-7.89-4.38a43.24,43.24,0,0,1-6.9,2.85c-.82,2.94-1.67,6-2.53,9H33a10.42,10.42,0,0,1-.7-2.15,12.86,12.86,0,0,0-.66-2.32c-.23-.72-.3-1.48-.5-2.21s-.53-1.62-.78-2.38a38.5,38.5,0,0,1-6.79-2.85l-8,4.46L7.47,61.46l4.43-7.74L9,46.63.34,44.2A8.15,8.15,0,0,1,0,42.54c0-3,0-5.92,0-8.88v-.72l9.07-2.57C10,28.1,10.6,25.7,12,23.56L7.48,15.42l7.94-7.94L23.49,12a35.92,35.92,0,0,1,6.88-2.85L32.94,0c3.4,0,6.67,0,9.93,0a5.61,5.61,0,0,1,1.36.36L46.65,9.1A31.31,31.31,0,0,1,53.55,12l7.87-4.51,8.06,8.07-4.42,8A40,40,0,0,1,68,30.42l9,2.51V43.86c-.49,1-1.58.63-2.35.88-1.52.51-3.08.94-4.64,1.34-.72.18-1.43.41-2.13.62A34.78,34.78,0,0,1,65.07,53.56ZM23.66,38.36a17.17,17.17,0,0,0,2.27,7.87,13.61,13.61,0,0,0,4.84,4.87,16.23,16.23,0,0,0,7.59,2.21,14.79,14.79,0,0,0,15-14.73,13.32,13.32,0,0,0-.77-4.86A16.13,16.13,0,0,0,50,29.07a10.48,10.48,0,0,0-2.35-2.35,16.08,16.08,0,0,0-5.44-2.48,12.73,12.73,0,0,0-3.49-.55,15.51,15.51,0,0,0-10.59,4.36A15.81,15.81,0,0,0,23.66,38.36Z"/></g></g></svg>