<svg id="_3" data-name="3" xmlns="http://www.w3.org/2000/svg" viewBox="0 0 1920 1080"><defs><style>.cls-1{fill:#1e5782;}</style></defs><path class="cls-1" d="M1292.06,794.42l4.39,7.89-8,8-7.89-4.38a43.63,43.63,0,0,1-6.9,2.85c-.83,2.94-1.68,6-2.54,9h-11.17a10.42,10.42,0,0,1-.7-2.15,11.24,11.24,0,0,0-.66-2.32c-.23-.72-.29-1.48-.49-2.21s-.53-1.63-.79-2.38a38.4,38.4,0,0,1-6.78-2.85l-8,4.46-8.07-8.06,4.43-7.74-2.91-7.09-8.65-2.43a8.21,8.21,0,0,1-.31-1.66c0-3,0-5.92,0-8.88v-.72l9.07-2.57c.92-2.27,1.53-4.67,2.93-6.81l-4.53-8.14,8-7.94,8.07,4.48a35.83,35.83,0,0,1,6.87-2.85l2.57-9.11c3.41,0,6.67,0,9.93,0a5.49,5.49,0,0,1,1.36.36l2.43,8.72a31.31,31.31,0,0,1,6.9,2.93l7.86-4.51,8.07,8.07L1292,764.4a40.87,40.87,0,0,1,2.92,6.88l9,2.51v10.93c-.48,1-1.57.63-2.35.88-1.51.5-3.07.94-4.63,1.34-.72.18-1.43.41-2.13.62A34.78,34.78,0,0,1,1292.06,794.42Zm-41.42-15.2a17.18,17.18,0,0,0,2.28,7.87,13.53,13.53,0,0,0,4.84,4.87,16.19,16.19,0,0,0,7.59,2.21,14.81,14.81,0,0,0,15-14.73,13.11,13.11,0,0,0-.78-4.86,15.68,15.68,0,0,0-2.6-4.65,10.48,10.48,0,0,0-2.35-2.35,16.08,16.08,0,0,0-5.44-2.48,12.65,12.65,0,0,0-3.48-.55,15.56,15.56,0,0,0-10.6,4.36A15.86,15.86,0,0,0,1250.64,779.22Z"/></svg>