<svg xmlns="http://www.w3.org/2000/svg" viewBox="0 0 115.02 114.94"><defs><style>.cls-1{fill:#1e5782;}</style></defs><g id="Layer_2" data-name="Layer 2"><g id="_4" data-name="4"><path class="cls-1" d="M97.18,80c2.25,4,4.46,8,6.56,11.79l-12,12L80,97.19a63.24,63.24,0,0,1-10.3,4.25c-1.24,4.4-2.51,8.93-3.79,13.5H49.22a15,15,0,0,1-1-3.2,18.2,18.2,0,0,0-1-3.47c-.34-1.07-.44-2.21-.74-3.3s-.79-2.42-1.17-3.56a56.47,56.47,0,0,1-10.14-4.25L23.2,103.83l-12-12,6.62-11.55L13.42,69.64.5,66A13.72,13.72,0,0,1,0,63.53c0-4.42,0-8.84,0-13.26V49.19l13.54-3.83c1.37-3.4,2.29-7,4.37-10.18L11.17,23,23,11.16l12,6.71a53.2,53.2,0,0,1,10.27-4.26L49.19,0c5.09,0,10,0,14.83,0a8,8,0,0,1,2,.54c1.24,4.45,2.43,8.75,3.62,13A47,47,0,0,1,80,18l11.74-6.73,12,12.05L97.16,35.15c1.92,3.19,3,6.62,4.35,10.27L115,49.18V65.5c-.73,1.45-2.35.94-3.51,1.32-2.27.75-4.59,1.4-6.92,2-1.08.28-2.13.62-3.18.93A51.92,51.92,0,0,1,97.18,80ZM35.33,57.29A25.66,25.66,0,0,0,38.73,69,20.39,20.39,0,0,0,46,76.32c3.52,2.08,8.49,3.41,11.34,3.3,5.83-.23,11.12-2,15.45-6.07,4.57-4.32,6.52-9.81,6.89-15.94a19.88,19.88,0,0,0-1.15-7.26,24.22,24.22,0,0,0-3.88-6.94,15.58,15.58,0,0,0-3.52-3.5A24.15,24.15,0,0,0,63,36.2a18.53,18.53,0,0,0-5.21-.81c-6.06.27-11.45,2.2-15.82,6.51S35.85,51.52,35.33,57.29Z"/></g></g></svg>