<svg id="_4" data-name="4" xmlns="http://www.w3.org/2000/svg" viewBox="0 0 1920 1080"><defs><style>.cls-1{fill:#1e5782;}</style></defs><path class="cls-1" d="M1474.17,880.86c2.24,4,4.45,8,6.56,11.79l-12,12L1457,898.07a63.8,63.8,0,0,1-10.3,4.26c-1.23,4.39-2.5,8.92-3.79,13.5H1426.2a15.49,15.49,0,0,1-1-3.21,17.7,17.7,0,0,0-1-3.47c-.34-1.07-.43-2.21-.74-3.29s-.79-2.43-1.17-3.56a57.16,57.16,0,0,1-10.13-4.26l-12,6.67-12-12,6.62-11.56-4.35-10.58-12.92-3.64a11.93,11.93,0,0,1-.47-2.47c-.06-4.42,0-8.84,0-13.27v-1.07l13.55-3.84c1.37-3.39,2.28-7,4.37-10.17l-6.76-12.16L1400,812.05l12.06,6.7a53.47,53.47,0,0,1,10.26-4.26l3.84-13.6c5.09,0,10,0,14.83,0a7.79,7.79,0,0,1,2,.54c1.23,4.44,2.43,8.74,3.61,13a47.94,47.94,0,0,1,10.31,4.37l11.75-6.72,12,12c-2,3.68-4.31,7.76-6.61,11.88,1.93,3.19,3,6.62,4.35,10.27l13.51,3.75v16.33c-.72,1.44-2.35.93-3.51,1.31-2.26.75-4.59,1.41-6.92,2-1.07.27-2.13.62-3.18.93A51.2,51.2,0,0,1,1474.17,880.86Zm-61.85-22.69a25.69,25.69,0,0,0,3.39,11.76,20.31,20.31,0,0,0,7.23,7.27c3.52,2.09,8.49,3.42,11.34,3.3,5.83-.22,11.11-2,15.44-6.06,4.58-4.33,6.52-9.81,6.89-15.94a19.64,19.64,0,0,0-1.15-7.26,24.27,24.27,0,0,0-3.88-7,16,16,0,0,0-3.51-3.5,24.23,24.23,0,0,0-8.12-3.71,19,19,0,0,0-5.21-.81c-6.07.28-11.46,2.21-15.83,6.51S1412.83,852.41,1412.32,858.17Z"/></svg>